<svg width="442" height="176" viewBox="0 0 442 176" fill="none" xmlns="http://www.w3.org/2000/svg">
<g filter="url(#filter0_d_38_1207)">
<rect x="20" y="20" width="401.4" height="136" rx="50" fill="white" shape-rendering="crispEdges"/>
<rect x="21.5" y="21.5" width="398.4" height="133" rx="48.5" stroke="#853FC4" stroke-width="3" shape-rendering="crispEdges"/>
<rect width="264.6" height="32.4" transform="translate(59.5996 43.8)" fill="white"/>
<circle cx="68.5996" cy="60" r="9" fill="#853FC4"/>
<path d="M108.504 66.544H99.6076L98.1356 70.8H93.4316L101.464 48.432H106.68L114.712 70.8H109.976L108.504 66.544ZM107.288 62.96L104.056 53.616L100.824 62.96H107.288ZM130.706 59.344C131.965 59.5787 132.999 60.208 133.81 61.232C134.621 62.256 135.026 63.4294 135.026 64.752C135.026 65.9467 134.727 67.0027 134.13 67.92C133.554 68.816 132.711 69.52 131.602 70.032C130.493 70.544 129.181 70.8 127.666 70.8H118.034V48.464H127.25C128.765 48.464 130.066 48.7094 131.154 49.2C132.263 49.6907 133.095 50.3734 133.65 51.248C134.226 52.1227 134.514 53.1147 134.514 54.224C134.514 55.5254 134.162 56.6134 133.458 57.488C132.775 58.3627 131.858 58.9814 130.706 59.344ZM122.514 57.68H126.61C127.677 57.68 128.498 57.4454 129.074 56.976C129.65 56.4854 129.938 55.792 129.938 54.896C129.938 54 129.65 53.3067 129.074 52.816C128.498 52.3254 127.677 52.08 126.61 52.08H122.514V57.68ZM127.026 67.152C128.114 67.152 128.957 66.896 129.554 66.384C130.173 65.872 130.482 65.1467 130.482 64.208C130.482 63.248 130.162 62.5014 129.522 61.968C128.882 61.4134 128.018 61.136 126.93 61.136H122.514V67.152H127.026ZM149.284 71.024C147.194 71.024 145.274 70.5334 143.524 69.552C141.775 68.5707 140.388 67.216 139.364 65.488C138.34 63.7387 137.828 61.7654 137.828 59.568C137.828 57.392 138.34 55.44 139.364 53.712C140.388 51.9627 141.775 50.5974 143.524 49.616C145.274 48.6347 147.194 48.144 149.284 48.144C151.396 48.144 153.316 48.6347 155.044 49.616C156.794 50.5974 158.17 51.9627 159.172 53.712C160.196 55.44 160.708 57.392 160.708 59.568C160.708 61.7654 160.196 63.7387 159.172 65.488C158.17 67.216 156.794 68.5707 155.044 69.552C153.295 70.5334 151.375 71.024 149.284 71.024ZM149.284 67.024C150.628 67.024 151.812 66.7254 152.836 66.128C153.86 65.5094 154.66 64.6347 155.236 63.504C155.812 62.3734 156.1 61.0614 156.1 59.568C156.1 58.0747 155.812 56.7734 155.236 55.664C154.66 54.5334 153.86 53.6694 152.836 53.072C151.812 52.4747 150.628 52.176 149.284 52.176C147.94 52.176 146.746 52.4747 145.7 53.072C144.676 53.6694 143.876 54.5334 143.3 55.664C142.724 56.7734 142.436 58.0747 142.436 59.568C142.436 61.0614 142.724 62.3734 143.3 63.504C143.876 64.6347 144.676 65.5094 145.7 66.128C146.746 66.7254 147.94 67.024 149.284 67.024ZM168.777 48.464V62.288C168.777 63.8027 169.172 64.9654 169.961 65.776C170.751 66.5654 171.86 66.96 173.289 66.96C174.74 66.96 175.86 66.5654 176.649 65.776C177.439 64.9654 177.833 63.8027 177.833 62.288V48.464H182.345V62.256C182.345 64.1547 181.929 65.7654 181.097 67.088C180.287 68.3894 179.188 69.3707 177.801 70.032C176.436 70.6934 174.911 71.024 173.225 71.024C171.561 71.024 170.047 70.6934 168.681 70.032C167.337 69.3707 166.271 68.3894 165.481 67.088C164.692 65.7654 164.297 64.1547 164.297 62.256V48.464H168.777ZM202.194 48.464V52.08H196.242V70.8H191.762V52.08H185.81V48.464H202.194ZM218.144 48.464V62.288C218.144 63.8027 218.538 64.9654 219.328 65.776C220.117 66.5654 221.226 66.96 222.656 66.96C224.106 66.96 225.226 66.5654 226.016 65.776C226.805 64.9654 227.2 63.8027 227.2 62.288V48.464H231.712V62.256C231.712 64.1547 231.296 65.7654 230.464 67.088C229.653 68.3894 228.554 69.3707 227.168 70.032C225.802 70.6934 224.277 71.024 222.592 71.024C220.928 71.024 219.413 70.6934 218.048 70.032C216.704 69.3707 215.637 68.3894 214.848 67.088C214.058 65.7654 213.664 64.1547 213.664 62.256V48.464H218.144ZM244.072 71.024C242.515 71.024 241.107 70.7574 239.848 70.224C238.611 69.6907 237.629 68.9227 236.904 67.92C236.179 66.9174 235.805 65.7334 235.784 64.368H240.584C240.648 65.2854 240.968 66.0107 241.544 66.544C242.141 67.0774 242.952 67.344 243.976 67.344C245.021 67.344 245.843 67.0987 246.44 66.608C247.037 66.096 247.336 65.4347 247.336 64.624C247.336 63.9627 247.133 63.4187 246.728 62.992C246.323 62.5654 245.811 62.2347 245.192 62C244.595 61.744 243.763 61.4667 242.696 61.168C241.245 60.7414 240.061 60.3254 239.144 59.92C238.248 59.4934 237.469 58.864 236.808 58.032C236.168 57.1787 235.848 56.048 235.848 54.64C235.848 53.3174 236.179 52.1654 236.84 51.184C237.501 50.2027 238.429 49.456 239.624 48.944C240.819 48.4107 242.184 48.144 243.72 48.144C246.024 48.144 247.891 48.7094 249.32 49.84C250.771 50.9494 251.571 52.5067 251.72 54.512H246.792C246.749 53.744 246.419 53.1147 245.8 52.624C245.203 52.112 244.403 51.856 243.4 51.856C242.525 51.856 241.821 52.08 241.288 52.528C240.776 52.976 240.52 53.6267 240.52 54.48C240.52 55.0774 240.712 55.5787 241.096 55.984C241.501 56.368 241.992 56.688 242.568 56.944C243.165 57.1787 243.997 57.456 245.064 57.776C246.515 58.2027 247.699 58.6294 248.616 59.056C249.533 59.4827 250.323 60.1227 250.984 60.976C251.645 61.8294 251.976 62.9494 251.976 64.336C251.976 65.5307 251.667 66.64 251.048 67.664C250.429 68.688 249.523 69.5094 248.328 70.128C247.133 70.7254 245.715 71.024 244.072 71.024Z" fill="#3B3C44"/>
<path d="M368.524 58.6438C368.524 59.1667 368.369 59.6779 368.078 60.1127C367.788 60.5475 367.375 60.8863 366.892 61.0864C366.409 61.2865 365.877 61.3389 365.364 61.2369C364.852 61.1349 364.38 60.8831 364.011 60.5133C363.641 60.1436 363.389 59.6725 363.287 59.1596C363.185 58.6468 363.237 58.1152 363.438 57.6321C363.638 57.149 363.977 56.7361 364.411 56.4456C364.846 56.1551 365.357 56 365.88 56C366.581 56 367.254 56.2785 367.75 56.7744C368.245 57.2702 368.524 57.9427 368.524 58.6438ZM354.644 56C354.121 56 353.61 56.1551 353.175 56.4456C352.74 56.7361 352.401 57.149 352.201 57.6321C352.001 58.1152 351.949 58.6468 352.051 59.1596C352.153 59.6725 352.405 60.1436 352.774 60.5133C353.144 60.8831 353.615 61.1349 354.128 61.2369C354.641 61.3389 355.172 61.2865 355.656 61.0864C356.139 60.8863 356.552 60.5475 356.842 60.1127C357.133 59.6779 357.288 59.1667 357.288 58.6438C357.288 57.9427 357.009 57.2702 356.513 56.7744C356.018 56.2785 355.345 56 354.644 56ZM377.116 56C376.594 56 376.082 56.1551 375.648 56.4456C375.213 56.7361 374.874 57.149 374.674 57.6321C374.474 58.1152 374.421 58.6468 374.523 59.1596C374.625 59.6725 374.877 60.1436 375.247 60.5133C375.617 60.8831 376.088 61.1349 376.601 61.2369C377.114 61.3389 377.645 61.2865 378.128 61.0864C378.611 60.8863 379.024 60.5475 379.315 60.1127C379.605 59.6779 379.76 59.1667 379.76 58.6438C379.76 57.9427 379.482 57.2702 378.986 56.7744C378.49 56.2785 377.818 56 377.116 56Z" fill="#3B3C44"/>
<rect width="198" height="36" transform="translate(59.5996 96.2)" fill="white"/>
<rect x="59.8082" y="96.7667" width="201.866" height="34.866" rx="17.433" fill="white"/>
<rect x="59.8082" y="96.7667" width="201.866" height="34.866" rx="17.433" stroke="#D2D2D2" stroke-width="1.134"/>
<g clip-path="url(#clip0_38_1207)">
<g clip-path="url(#clip1_38_1207)">
<path d="M86.9952 112.2C87.9612 112.2 88.7452 112.984 88.7452 113.95V118.699C88.7452 119.892 88.271 121.037 87.4269 121.881C86.5828 122.725 85.438 123.2 84.2442 123.2C83.0505 123.2 81.9056 122.725 81.0615 121.881C80.2174 121.037 79.7432 119.892 79.7432 118.699V113.95C79.7432 112.984 80.5262 112.2 81.4932 112.2H86.9952ZM79.3722 112.2C79.0109 112.632 78.7941 113.167 78.7522 113.73L78.7422 113.95V118.699C78.7422 119.546 78.9342 120.348 79.2762 121.064C78.9455 121.154 78.6005 121.199 78.2412 121.2C77.7158 121.2 77.1956 121.096 76.7102 120.895C76.2249 120.694 75.7839 120.399 75.4124 120.028C75.041 119.656 74.7464 119.215 74.5454 118.73C74.3444 118.244 74.2411 117.724 74.2412 117.199V113.95C74.2412 113.511 74.4064 113.087 74.7039 112.764C75.0014 112.441 75.4095 112.242 75.8472 112.206L75.9912 112.2H79.3722ZM89.1162 112.2H92.4912C93.4572 112.2 94.2412 112.984 94.2412 113.95V117.2C94.2413 117.813 94.1005 118.418 93.8296 118.968C93.5587 119.518 93.1649 119.998 92.6788 120.372C92.1926 120.746 91.6271 121.003 91.0258 121.123C90.4246 121.243 89.8037 121.224 89.2112 121.066C89.5112 120.438 89.6952 119.746 89.7362 119.014L89.7452 118.699V113.95C89.7452 113.285 89.5102 112.675 89.1162 112.2ZM84.2412 105.2C85.0369 105.2 85.7999 105.516 86.3625 106.078C86.9251 106.641 87.2412 107.404 87.2412 108.2C87.2412 108.995 86.9251 109.758 86.3625 110.321C85.7999 110.884 85.0369 111.2 84.2412 111.2C83.4456 111.2 82.6825 110.884 82.1199 110.321C81.5573 109.758 81.2412 108.995 81.2412 108.2C81.2412 107.404 81.5573 106.641 82.1199 106.078C82.6825 105.516 83.4456 105.2 84.2412 105.2ZM90.7412 106.2C91.4043 106.2 92.0401 106.463 92.509 106.932C92.9778 107.401 93.2412 108.037 93.2412 108.7C93.2412 109.363 92.9778 109.999 92.509 110.467C92.0401 110.936 91.4043 111.2 90.7412 111.2C90.0782 111.2 89.4423 110.936 88.9734 110.467C88.5046 109.999 88.2412 109.363 88.2412 108.7C88.2412 108.037 88.5046 107.401 88.9734 106.932C89.4423 106.463 90.0782 106.2 90.7412 106.2ZM77.7412 106.2C78.4043 106.2 79.0401 106.463 79.509 106.932C79.9778 107.401 80.2412 108.037 80.2412 108.7C80.2412 109.363 79.9778 109.999 79.509 110.467C79.0401 110.936 78.4043 111.2 77.7412 111.2C77.0782 111.2 76.4423 110.936 75.9734 110.467C75.5046 109.999 75.2412 109.363 75.2412 108.7C75.2412 108.037 75.5046 107.401 75.9734 106.932C76.4423 106.463 77.0782 106.2 77.7412 106.2Z" fill="#A4A4A4"/>
</g>
</g>
<path d="M106.362 120.7C106.233 120.7 106.124 120.661 106.034 120.584C105.957 120.494 105.918 120.385 105.918 120.256V107.668C105.918 107.526 105.957 107.417 106.034 107.34C106.124 107.25 106.233 107.205 106.362 107.205H107.326C107.48 107.205 107.596 107.244 107.673 107.321C107.75 107.398 107.795 107.462 107.808 107.514L111.895 115.302L116.001 107.514C116.026 107.462 116.071 107.398 116.136 107.321C116.213 107.244 116.329 107.205 116.483 107.205H117.427C117.569 107.205 117.678 107.25 117.755 107.34C117.845 107.417 117.89 107.526 117.89 107.668V120.256C117.89 120.385 117.845 120.494 117.755 120.584C117.678 120.661 117.569 120.7 117.427 120.7H116.483C116.354 120.7 116.245 120.661 116.155 120.584C116.078 120.494 116.039 120.385 116.039 120.256V110.772L112.82 117.056C112.769 117.185 112.691 117.288 112.589 117.365C112.486 117.429 112.357 117.461 112.203 117.461H111.605C111.438 117.461 111.303 117.429 111.201 117.365C111.111 117.288 111.033 117.185 110.969 117.056L107.75 110.772V120.256C107.75 120.385 107.705 120.494 107.615 120.584C107.538 120.661 107.435 120.7 107.306 120.7H106.362ZM125.928 120.892C124.604 120.892 123.55 120.488 122.766 119.678C121.982 118.855 121.552 117.737 121.475 116.324C121.462 116.157 121.455 115.944 121.455 115.687C121.455 115.418 121.462 115.199 121.475 115.032C121.526 114.119 121.738 113.323 122.111 112.642C122.484 111.947 122.991 111.414 123.634 111.041C124.289 110.669 125.054 110.482 125.928 110.482C126.905 110.482 127.721 110.688 128.376 111.099C129.045 111.511 129.552 112.095 129.899 112.854C130.246 113.612 130.42 114.499 130.42 115.514V115.842C130.42 115.983 130.375 116.092 130.285 116.169C130.208 116.246 130.105 116.285 129.976 116.285H123.306C123.306 116.298 123.306 116.324 123.306 116.362C123.306 116.401 123.306 116.433 123.306 116.459C123.332 116.985 123.447 117.48 123.653 117.943C123.859 118.393 124.154 118.759 124.54 119.042C124.925 119.325 125.388 119.466 125.928 119.466C126.391 119.466 126.776 119.395 127.085 119.254C127.393 119.112 127.644 118.958 127.836 118.791C128.029 118.611 128.158 118.476 128.222 118.386C128.338 118.219 128.428 118.123 128.492 118.097C128.556 118.059 128.659 118.039 128.8 118.039H129.726C129.854 118.039 129.957 118.078 130.034 118.155C130.124 118.219 130.163 118.316 130.15 118.444C130.137 118.637 130.034 118.875 129.841 119.157C129.649 119.427 129.372 119.697 129.012 119.967C128.653 120.237 128.216 120.462 127.701 120.642C127.187 120.809 126.596 120.892 125.928 120.892ZM123.306 114.955H128.588V114.897C128.588 114.319 128.479 113.805 128.261 113.355C128.055 112.905 127.753 112.552 127.354 112.294C126.956 112.025 126.481 111.89 125.928 111.89C125.375 111.89 124.9 112.025 124.501 112.294C124.116 112.552 123.82 112.905 123.615 113.355C123.409 113.805 123.306 114.319 123.306 114.897V114.955ZM137.679 120.892C136.355 120.892 135.302 120.488 134.518 119.678C133.734 118.855 133.303 117.737 133.226 116.324C133.213 116.157 133.207 115.944 133.207 115.687C133.207 115.418 133.213 115.199 133.226 115.032C133.277 114.119 133.489 113.323 133.862 112.642C134.235 111.947 134.743 111.414 135.385 111.041C136.041 110.669 136.805 110.482 137.679 110.482C138.656 110.482 139.472 110.688 140.128 111.099C140.796 111.511 141.303 112.095 141.65 112.854C141.997 113.612 142.171 114.499 142.171 115.514V115.842C142.171 115.983 142.126 116.092 142.036 116.169C141.959 116.246 141.856 116.285 141.728 116.285H135.057C135.057 116.298 135.057 116.324 135.057 116.362C135.057 116.401 135.057 116.433 135.057 116.459C135.083 116.985 135.199 117.48 135.404 117.943C135.61 118.393 135.906 118.759 136.291 119.042C136.677 119.325 137.139 119.466 137.679 119.466C138.142 119.466 138.527 119.395 138.836 119.254C139.144 119.112 139.395 118.958 139.588 118.791C139.781 118.611 139.909 118.476 139.973 118.386C140.089 118.219 140.179 118.123 140.243 118.097C140.307 118.059 140.41 118.039 140.552 118.039H141.477C141.605 118.039 141.708 118.078 141.785 118.155C141.875 118.219 141.914 118.316 141.901 118.444C141.888 118.637 141.785 118.875 141.593 119.157C141.4 119.427 141.124 119.697 140.764 119.967C140.404 120.237 139.967 120.462 139.453 120.642C138.939 120.809 138.348 120.892 137.679 120.892ZM135.057 114.955H140.34V114.897C140.34 114.319 140.23 113.805 140.012 113.355C139.806 112.905 139.504 112.552 139.106 112.294C138.707 112.025 138.232 111.89 137.679 111.89C137.127 111.89 136.651 112.025 136.253 112.294C135.867 112.552 135.571 112.905 135.366 113.355C135.16 113.805 135.057 114.319 135.057 114.897V114.955ZM149.297 120.7C148.577 120.7 147.992 120.565 147.543 120.295C147.093 120.012 146.765 119.62 146.559 119.119C146.354 118.605 146.251 118.001 146.251 117.307V112.217H144.747C144.619 112.217 144.51 112.179 144.42 112.102C144.342 112.012 144.304 111.903 144.304 111.774V111.119C144.304 110.99 144.342 110.887 144.42 110.81C144.51 110.72 144.619 110.675 144.747 110.675H146.251V107.456C146.251 107.327 146.29 107.224 146.367 107.147C146.457 107.057 146.566 107.012 146.694 107.012H147.6C147.729 107.012 147.832 107.057 147.909 107.147C147.999 107.224 148.044 107.327 148.044 107.456V110.675H150.434C150.563 110.675 150.666 110.72 150.743 110.81C150.833 110.887 150.878 110.99 150.878 111.119V111.774C150.878 111.903 150.833 112.012 150.743 112.102C150.666 112.179 150.563 112.217 150.434 112.217H148.044V117.172C148.044 117.776 148.147 118.251 148.352 118.598C148.558 118.945 148.924 119.119 149.451 119.119H150.627C150.756 119.119 150.858 119.164 150.936 119.254C151.025 119.331 151.07 119.434 151.07 119.562V120.256C151.07 120.385 151.025 120.494 150.936 120.584C150.858 120.661 150.756 120.7 150.627 120.7H149.297ZM163.066 120.7C162.347 120.7 161.762 120.565 161.312 120.295C160.862 120.012 160.535 119.62 160.329 119.119C160.123 118.605 160.02 118.001 160.02 117.307V112.217H158.517C158.388 112.217 158.279 112.179 158.189 112.102C158.112 112.012 158.073 111.903 158.073 111.774V111.119C158.073 110.99 158.112 110.887 158.189 110.81C158.279 110.72 158.388 110.675 158.517 110.675H160.02V107.456C160.02 107.327 160.059 107.224 160.136 107.147C160.226 107.057 160.335 107.012 160.464 107.012H161.37C161.498 107.012 161.601 107.057 161.678 107.147C161.768 107.224 161.813 107.327 161.813 107.456V110.675H164.204C164.332 110.675 164.435 110.72 164.512 110.81C164.602 110.887 164.647 110.99 164.647 111.119V111.774C164.647 111.903 164.602 112.012 164.512 112.102C164.435 112.179 164.332 112.217 164.204 112.217H161.813V117.172C161.813 117.776 161.916 118.251 162.122 118.598C162.327 118.945 162.694 119.119 163.221 119.119H164.397C164.525 119.119 164.628 119.164 164.705 119.254C164.795 119.331 164.84 119.434 164.84 119.562V120.256C164.84 120.385 164.795 120.494 164.705 120.584C164.628 120.661 164.525 120.7 164.397 120.7H163.066ZM168.11 120.7C167.981 120.7 167.872 120.661 167.782 120.584C167.705 120.494 167.667 120.385 167.667 120.256V107.456C167.667 107.327 167.705 107.224 167.782 107.147C167.872 107.057 167.981 107.012 168.11 107.012H169.074C169.215 107.012 169.324 107.057 169.402 107.147C169.479 107.224 169.517 107.327 169.517 107.456V111.947C169.864 111.511 170.288 111.157 170.79 110.887C171.291 110.617 171.927 110.482 172.698 110.482C173.534 110.482 174.24 110.669 174.819 111.041C175.41 111.401 175.853 111.909 176.149 112.564C176.457 113.207 176.612 113.959 176.612 114.82V120.256C176.612 120.385 176.573 120.494 176.496 120.584C176.419 120.661 176.31 120.7 176.168 120.7H175.204C175.076 120.7 174.967 120.661 174.877 120.584C174.799 120.494 174.761 120.385 174.761 120.256V114.916C174.761 114.017 174.542 113.316 174.105 112.815C173.668 112.301 173.026 112.044 172.178 112.044C171.381 112.044 170.738 112.301 170.25 112.815C169.761 113.316 169.517 114.017 169.517 114.916V120.256C169.517 120.385 169.479 120.494 169.402 120.584C169.324 120.661 169.215 120.7 169.074 120.7H168.11ZM184.349 120.892C183.026 120.892 181.972 120.488 181.188 119.678C180.404 118.855 179.973 117.737 179.896 116.324C179.883 116.157 179.877 115.944 179.877 115.687C179.877 115.418 179.883 115.199 179.896 115.032C179.947 114.119 180.16 113.323 180.532 112.642C180.905 111.947 181.413 111.414 182.055 111.041C182.711 110.669 183.475 110.482 184.349 110.482C185.326 110.482 186.142 110.688 186.798 111.099C187.466 111.511 187.974 112.095 188.321 112.854C188.668 113.612 188.841 114.499 188.841 115.514V115.842C188.841 115.983 188.796 116.092 188.706 116.169C188.629 116.246 188.526 116.285 188.398 116.285H181.727C181.727 116.298 181.727 116.324 181.727 116.362C181.727 116.401 181.727 116.433 181.727 116.459C181.753 116.985 181.869 117.48 182.074 117.943C182.28 118.393 182.576 118.759 182.961 119.042C183.347 119.325 183.809 119.466 184.349 119.466C184.812 119.466 185.198 119.395 185.506 119.254C185.814 119.112 186.065 118.958 186.258 118.791C186.451 118.611 186.579 118.476 186.643 118.386C186.759 118.219 186.849 118.123 186.913 118.097C186.978 118.059 187.08 118.039 187.222 118.039H188.147C188.276 118.039 188.378 118.078 188.455 118.155C188.545 118.219 188.584 118.316 188.571 118.444C188.558 118.637 188.455 118.875 188.263 119.157C188.07 119.427 187.794 119.697 187.434 119.967C187.074 120.237 186.637 120.462 186.123 120.642C185.609 120.809 185.018 120.892 184.349 120.892ZM181.727 114.955H187.01V114.897C187.01 114.319 186.9 113.805 186.682 113.355C186.476 112.905 186.174 112.552 185.776 112.294C185.377 112.025 184.902 111.89 184.349 111.89C183.797 111.89 183.321 112.025 182.923 112.294C182.537 112.552 182.242 112.905 182.036 113.355C181.83 113.805 181.727 114.319 181.727 114.897V114.955ZM200.953 120.7C200.825 120.7 200.716 120.661 200.626 120.584C200.549 120.494 200.51 120.385 200.51 120.256V108.921H196.809C196.68 108.921 196.571 108.882 196.481 108.805C196.404 108.715 196.365 108.606 196.365 108.477V107.668C196.365 107.526 196.404 107.417 196.481 107.34C196.571 107.25 196.68 107.205 196.809 107.205H206.101C206.242 107.205 206.351 107.25 206.428 107.34C206.518 107.417 206.563 107.526 206.563 107.668V108.477C206.563 108.606 206.518 108.715 206.428 108.805C206.351 108.882 206.242 108.921 206.101 108.921H202.418V120.256C202.418 120.385 202.373 120.494 202.284 120.584C202.206 120.661 202.097 120.7 201.956 120.7H200.953ZM211.583 120.892C210.259 120.892 209.206 120.488 208.422 119.678C207.638 118.855 207.207 117.737 207.13 116.324C207.117 116.157 207.111 115.944 207.111 115.687C207.111 115.418 207.117 115.199 207.13 115.032C207.181 114.119 207.393 113.323 207.766 112.642C208.139 111.947 208.647 111.414 209.289 111.041C209.945 110.669 210.709 110.482 211.583 110.482C212.56 110.482 213.376 110.688 214.032 111.099C214.7 111.511 215.207 112.095 215.554 112.854C215.901 113.612 216.075 114.499 216.075 115.514V115.842C216.075 115.983 216.03 116.092 215.94 116.169C215.863 116.246 215.76 116.285 215.632 116.285H208.961C208.961 116.298 208.961 116.324 208.961 116.362C208.961 116.401 208.961 116.433 208.961 116.459C208.987 116.985 209.103 117.48 209.308 117.943C209.514 118.393 209.81 118.759 210.195 119.042C210.581 119.325 211.043 119.466 211.583 119.466C212.046 119.466 212.431 119.395 212.74 119.254C213.048 119.112 213.299 118.958 213.492 118.791C213.685 118.611 213.813 118.476 213.877 118.386C213.993 118.219 214.083 118.123 214.147 118.097C214.211 118.059 214.314 118.039 214.456 118.039H215.381C215.51 118.039 215.612 118.078 215.689 118.155C215.779 118.219 215.818 118.316 215.805 118.444C215.792 118.637 215.689 118.875 215.497 119.157C215.304 119.427 215.028 119.697 214.668 119.967C214.308 120.237 213.871 120.462 213.357 120.642C212.843 120.809 212.252 120.892 211.583 120.892ZM208.961 114.955H214.244V114.897C214.244 114.319 214.134 113.805 213.916 113.355C213.71 112.905 213.408 112.552 213.01 112.294C212.611 112.025 212.136 111.89 211.583 111.89C211.031 111.89 210.555 112.025 210.157 112.294C209.771 112.552 209.475 112.905 209.27 113.355C209.064 113.805 208.961 114.319 208.961 114.897V114.955ZM222.139 120.892C221.497 120.892 220.912 120.764 220.385 120.507C219.858 120.25 219.434 119.903 219.113 119.466C218.791 119.029 218.631 118.534 218.631 117.982C218.631 117.095 218.991 116.388 219.71 115.861C220.43 115.334 221.368 114.987 222.525 114.82L225.397 114.415V113.856C225.397 113.239 225.217 112.757 224.857 112.41C224.51 112.063 223.939 111.89 223.142 111.89C222.563 111.89 222.094 112.005 221.734 112.237C221.387 112.468 221.143 112.764 221.002 113.123C220.925 113.316 220.79 113.413 220.597 113.413H219.73C219.588 113.413 219.479 113.374 219.402 113.297C219.338 113.207 219.305 113.104 219.305 112.989C219.305 112.796 219.376 112.558 219.517 112.275C219.672 111.992 219.903 111.716 220.211 111.446C220.52 111.176 220.912 110.951 221.387 110.772C221.876 110.579 222.467 110.482 223.161 110.482C223.932 110.482 224.581 110.585 225.108 110.791C225.635 110.984 226.046 111.247 226.342 111.581C226.65 111.915 226.869 112.294 226.997 112.719C227.139 113.143 227.209 113.573 227.209 114.01V120.256C227.209 120.385 227.164 120.494 227.074 120.584C226.997 120.661 226.895 120.7 226.766 120.7H225.879C225.738 120.7 225.629 120.661 225.551 120.584C225.474 120.494 225.436 120.385 225.436 120.256V119.427C225.269 119.659 225.044 119.89 224.761 120.121C224.478 120.34 224.125 120.526 223.701 120.68C223.277 120.822 222.756 120.892 222.139 120.892ZM222.544 119.447C223.071 119.447 223.553 119.337 223.99 119.119C224.427 118.888 224.768 118.534 225.012 118.059C225.269 117.583 225.397 116.985 225.397 116.266V115.726L223.161 116.054C222.249 116.182 221.561 116.401 221.098 116.709C220.636 117.005 220.404 117.384 220.404 117.847C220.404 118.206 220.507 118.508 220.713 118.753C220.931 118.984 221.201 119.157 221.522 119.273C221.857 119.389 222.197 119.447 222.544 119.447ZM231.388 120.7C231.26 120.7 231.15 120.661 231.06 120.584C230.983 120.494 230.945 120.385 230.945 120.256V111.119C230.945 110.99 230.983 110.887 231.06 110.81C231.15 110.72 231.26 110.675 231.388 110.675H232.256C232.384 110.675 232.487 110.72 232.564 110.81C232.654 110.887 232.699 110.99 232.699 111.119V111.793C232.995 111.395 233.367 111.08 233.817 110.849C234.267 110.604 234.807 110.482 235.436 110.482C236.889 110.47 237.917 111.061 238.521 112.256C238.816 111.716 239.247 111.286 239.813 110.964C240.378 110.643 241.021 110.482 241.74 110.482C242.409 110.482 243.013 110.637 243.552 110.945C244.105 111.253 244.536 111.723 244.844 112.352C245.165 112.969 245.326 113.747 245.326 114.685V120.256C245.326 120.385 245.281 120.494 245.191 120.584C245.114 120.661 245.011 120.7 244.883 120.7H243.977C243.848 120.7 243.739 120.661 243.649 120.584C243.572 120.494 243.533 120.385 243.533 120.256V114.858C243.533 114.139 243.43 113.573 243.225 113.162C243.019 112.751 242.743 112.462 242.396 112.294C242.049 112.127 241.67 112.044 241.258 112.044C240.924 112.044 240.584 112.127 240.237 112.294C239.89 112.462 239.6 112.751 239.369 113.162C239.151 113.573 239.041 114.139 239.041 114.858V120.256C239.041 120.385 238.996 120.494 238.906 120.584C238.829 120.661 238.727 120.7 238.598 120.7H237.692C237.563 120.7 237.454 120.661 237.364 120.584C237.287 120.494 237.249 120.385 237.249 120.256V114.858C237.249 114.139 237.139 113.573 236.921 113.162C236.702 112.751 236.42 112.462 236.073 112.294C235.726 112.127 235.359 112.044 234.974 112.044C234.64 112.044 234.299 112.127 233.952 112.294C233.605 112.462 233.316 112.751 233.085 113.162C232.866 113.573 232.757 114.132 232.757 114.839V120.256C232.757 120.385 232.712 120.494 232.622 120.584C232.545 120.661 232.442 120.7 232.313 120.7H231.388Z" fill="#A4A4A4"/>
</g>
<defs>
<filter id="filter0_d_38_1207" x="0" y="0" width="441.4" height="176" filterUnits="userSpaceOnUse" color-interpolation-filters="sRGB">
<feFlood flood-opacity="0" result="BackgroundImageFix"/>
<feColorMatrix in="SourceAlpha" type="matrix" values="0 0 0 0 0 0 0 0 0 0 0 0 0 0 0 0 0 0 127 0" result="hardAlpha"/>
<feOffset/>
<feGaussianBlur stdDeviation="10"/>
<feComposite in2="hardAlpha" operator="out"/>
<feColorMatrix type="matrix" values="0 0 0 0 0 0 0 0 0 0 0 0 0 0 0 0 0 0 0.04 0"/>
<feBlend mode="normal" in2="BackgroundImageFix" result="effect1_dropShadow_38_1207"/>
<feBlend mode="normal" in="SourceGraphic" in2="effect1_dropShadow_38_1207" result="shape"/>
</filter>
<clipPath id="clip0_38_1207">
<rect width="20" height="42" fill="white" transform="translate(74.2412 93.1997)"/>
</clipPath>
<clipPath id="clip1_38_1207">
<rect width="20" height="18" fill="white" transform="translate(74.2412 105.2)"/>
</clipPath>
</defs>
</svg>
