<svg width="302" height="60" viewBox="0 0 302 60" fill="none" xmlns="http://www.w3.org/2000/svg">
<path d="M13.5926 57.125C9.64257 57.125 6.46757 55.45 4.06757 52.1C1.71757 48.7 0.542572 44.05 0.542572 38.15C0.542572 31.05 2.34257 25.65 5.94257 21.95C9.54257 18.2 14.7176 16.325 21.4676 16.325C25.2676 16.325 29.7176 16.925 34.8176 18.125V56H24.7676L24.9926 49.85H24.6926C22.0926 54.7 18.3926 57.125 13.5926 57.125ZM15.8426 47.9C17.4926 47.9 19.0676 47.025 20.5676 45.275C22.0676 43.525 23.4176 41.375 24.6176 38.825V26.225C23.8176 25.975 22.9926 25.8 22.1426 25.7C21.2926 25.6 20.5176 25.55 19.8176 25.55C13.7676 25.55 10.7426 29.6 10.7426 37.7C10.7426 40.85 11.1926 43.35 12.0926 45.2C12.9926 47 14.2426 47.9 15.8426 47.9ZM56.8892 57.125C54.8892 57.125 52.6642 56.95 50.2142 56.6C47.7642 56.3 45.2642 55.875 42.7142 55.325V1.25H53.1392V21.125C56.0892 17.925 59.7142 16.325 64.0142 16.325C68.4642 16.325 71.9143 18 74.3643 21.35C76.8642 24.65 78.1142 29.275 78.1142 35.225C78.1142 42.325 76.2892 47.75 72.6392 51.5C68.9893 55.25 63.7393 57.125 56.8892 57.125ZM58.0143 47.9C64.3643 47.9 67.5393 43.875 67.5393 35.825C67.5393 32.575 67.0143 30.05 65.9643 28.25C64.9142 26.45 63.3892 25.55 61.3892 25.55C58.1392 25.55 55.3892 27.75 53.1392 32.15V47.225C53.9392 47.425 54.7642 47.6 55.6143 47.75C56.4642 47.85 57.2642 47.9 58.0143 47.9ZM101.667 57.125C97.7166 57.125 94.2666 56.275 91.3166 54.575C88.3666 52.875 86.0666 50.5 84.4166 47.45C82.7666 44.4 81.9416 40.825 81.9416 36.725C81.9416 32.625 82.7666 29.05 84.4166 26C86.0666 22.95 88.3666 20.575 91.3166 18.875C94.2666 17.175 97.6916 16.325 101.592 16.325C105.542 16.325 108.967 17.175 111.867 18.875C114.817 20.525 117.117 22.875 118.767 25.925C120.417 28.925 121.242 32.45 121.242 36.5C121.242 40.6 120.417 44.2 118.767 47.3C117.167 50.4 114.892 52.825 111.942 54.575C108.992 56.275 105.567 57.125 101.667 57.125ZM101.592 47.975C104.292 47.975 106.442 46.95 108.042 44.9C109.692 42.8 110.517 40.05 110.517 36.65C110.517 33.25 109.692 30.55 108.042 28.55C106.442 26.5 104.292 25.475 101.592 25.475C98.8916 25.475 96.7166 26.5 95.0666 28.55C93.4666 30.55 92.6666 33.25 92.6666 36.65C92.6666 40.05 93.4666 42.8 95.0666 44.9C96.7166 46.95 98.8916 47.975 101.592 47.975ZM139.721 57.05C135.621 57.05 132.396 55.8 130.046 53.3C127.696 50.75 126.521 47.325 126.521 43.025V17.375H137.096V41.3C137.096 43.35 137.596 44.95 138.596 46.1C139.596 47.2 140.946 47.75 142.646 47.75C144.396 47.75 146.046 47.2 147.596 46.1C149.146 45 150.446 43.525 151.496 41.675V17.375H162.071V56H151.496V50.9C150.196 52.65 148.621 54.125 146.771 55.325C144.921 56.475 142.571 57.05 139.721 57.05ZM183.419 57.125C179.819 57.125 177.019 56.225 175.019 54.425C173.069 52.575 172.094 49.975 172.094 46.625V26.45H166.094V17.375H172.094V9.125C175.694 8.525 179.194 8.075 182.594 7.775V17.375H192.344V26.45H182.594V44.675C182.594 46.825 183.794 47.9 186.194 47.9C187.594 47.9 189.194 47.575 190.994 46.925L193.319 54.875C190.119 56.375 186.819 57.125 183.419 57.125ZM223.551 57.05C219.451 57.05 216.226 55.8 213.876 53.3C211.526 50.75 210.351 47.325 210.351 43.025V17.375H220.926V41.3C220.926 43.35 221.426 44.95 222.426 46.1C223.426 47.2 224.776 47.75 226.476 47.75C228.226 47.75 229.876 47.2 231.426 46.1C232.976 45 234.276 43.525 235.326 41.675V17.375H245.901V56H235.326V50.9C234.026 52.65 232.451 54.125 230.601 55.325C228.751 56.475 226.401 57.05 223.551 57.05ZM264.248 57.125C261.798 57.125 259.423 56.875 257.123 56.375C254.873 55.875 252.948 55.2 251.348 54.35L252.323 45.35C254.023 46.4 255.898 47.25 257.948 47.9C259.998 48.55 261.923 48.875 263.723 48.875C265.323 48.875 266.723 48.575 267.923 47.975C269.123 47.375 269.723 46.45 269.723 45.2C269.723 44 269.073 43.125 267.773 42.575C266.523 42.025 264.573 41.25 261.923 40.25C260.923 39.85 259.798 39.4 258.548 38.9C257.348 38.4 256.198 37.75 255.098 36.95C253.998 36.1 253.098 35.025 252.398 33.725C251.698 32.375 251.348 30.7 251.348 28.7C251.348 26 252.023 23.75 253.373 21.95C254.773 20.1 256.673 18.7 259.073 17.75C261.473 16.8 264.173 16.325 267.173 16.325C269.223 16.325 271.223 16.525 273.173 16.925C275.173 17.325 277.073 17.85 278.873 18.5L277.448 27.425C275.998 26.575 274.348 25.9 272.498 25.4C270.698 24.85 268.998 24.575 267.398 24.575C265.848 24.575 264.548 24.85 263.498 25.4C262.498 25.9 261.998 26.7 261.998 27.8C261.998 28.7 262.348 29.425 263.048 29.975C263.748 30.475 264.698 30.925 265.898 31.325C267.098 31.675 268.423 32.15 269.873 32.75C271.323 33.3 272.848 34 274.448 34.85C276.098 35.7 277.498 36.9 278.648 38.45C279.798 40 280.373 42.125 280.373 44.825C280.373 47.675 279.648 50.025 278.198 51.875C276.798 53.675 274.873 55 272.423 55.85C270.023 56.7 267.298 57.125 264.248 57.125ZM293.405 58.55C291.305 58.55 289.48 57.775 287.93 56.225C286.43 54.725 285.68 52.925 285.68 50.825C285.68 48.675 286.43 46.85 287.93 45.35C289.48 43.8 291.305 43.025 293.405 43.025C295.555 43.025 297.38 43.8 298.88 45.35C300.38 46.85 301.13 48.675 301.13 50.825C301.13 52.925 300.38 54.725 298.88 56.225C297.38 57.775 295.555 58.55 293.405 58.55Z" fill="#3B3C44"/>
<path d="M4.06757 52.1L3.6562 52.3843L3.66112 52.3912L4.06757 52.1ZM5.94257 21.95L6.30094 22.2987L6.30327 22.2963L5.94257 21.95ZM34.8176 18.125H35.3176V17.729L34.9321 17.6383L34.8176 18.125ZM34.8176 56V56.5H35.3176V56H34.8176ZM24.7676 56L24.2679 55.9817L24.2489 56.5H24.7676V56ZM24.9926 49.85L25.4922 49.8683L25.5112 49.35H24.9926V49.85ZM24.6926 49.85V49.35H24.3933L24.2519 49.6138L24.6926 49.85ZM20.5676 45.275L20.1879 44.9496L20.1879 44.9496L20.5676 45.275ZM24.6176 38.825L25.07 39.0379L25.1176 38.9368V38.825H24.6176ZM24.6176 26.225H25.1176V25.8574L24.7667 25.7478L24.6176 26.225ZM22.1426 25.7L22.0842 26.1966L22.0842 26.1966L22.1426 25.7ZM12.0926 45.2L11.6429 45.4187L11.6454 45.4236L12.0926 45.2ZM13.5926 57.125V56.625C9.81187 56.625 6.78493 55.0344 4.47403 51.8088L4.06757 52.1L3.66112 52.3912C6.15021 55.8656 9.47328 57.625 13.5926 57.625V57.125ZM4.06757 52.1L4.47889 51.8157C2.2065 48.528 1.04257 43.9901 1.04257 38.15H0.542572H0.0425722C0.0425722 44.1099 1.22864 48.872 3.65626 52.3843L4.06757 52.1ZM0.542572 38.15H1.04257C1.04257 31.1305 2.82136 25.8749 6.30094 22.2987L5.94257 21.95L5.58421 21.6013C1.86378 25.4251 0.0425722 30.9695 0.0425722 38.15H0.542572ZM5.94257 21.95L6.30327 22.2963C9.78304 18.6715 14.8111 16.825 21.4676 16.825V16.325V15.825C14.6241 15.825 9.3021 17.7285 5.58188 21.6037L5.94257 21.95ZM21.4676 16.325V16.825C25.2176 16.825 29.6276 17.4175 34.7031 18.6117L34.8176 18.125L34.9321 17.6383C29.8076 16.4325 25.3175 15.825 21.4676 15.825V16.325ZM34.8176 18.125H34.3176V56H34.8176H35.3176V18.125H34.8176ZM34.8176 56V55.5H24.7676V56V56.5H34.8176V56ZM24.7676 56L25.2672 56.0183L25.4922 49.8683L24.9926 49.85L24.4929 49.8317L24.2679 55.9817L24.7676 56ZM24.9926 49.85V49.35H24.6926V49.85V50.35H24.9926V49.85ZM24.6926 49.85L24.2519 49.6138C21.7235 54.3302 18.1777 56.625 13.5926 56.625V57.125V57.625C18.6075 57.625 22.4617 55.0698 25.1332 50.0862L24.6926 49.85ZM15.8426 47.9V48.4C17.6897 48.4 19.3915 47.4154 20.9472 45.6004L20.5676 45.275L20.1879 44.9496C18.7437 46.6346 17.2955 47.4 15.8426 47.4V47.9ZM20.5676 45.275L20.9472 45.6004C22.482 43.8098 23.855 41.6198 25.07 39.0379L24.6176 38.825L24.1652 38.6121C22.9802 41.1302 21.6531 43.2402 20.1879 44.9496L20.5676 45.275ZM24.6176 38.825H25.1176V26.225H24.6176H24.1176V38.825H24.6176ZM24.6176 26.225L24.7667 25.7478C23.9365 25.4883 23.0811 25.307 22.201 25.2034L22.1426 25.7L22.0842 26.1966C22.904 26.293 23.6986 26.4617 24.4684 26.7022L24.6176 26.225ZM22.1426 25.7L22.201 25.2034C21.3357 25.1016 20.5408 25.05 19.8176 25.05V25.55V26.05C20.4943 26.05 21.2495 26.0984 22.0842 26.1966L22.1426 25.7ZM19.8176 25.55V25.05C16.6698 25.05 14.2367 26.1113 12.6107 28.2883C11.0052 30.4379 10.2426 33.6022 10.2426 37.7H10.7426H11.2426C11.2426 33.6978 11.9925 30.7871 13.4119 28.8867C14.8109 27.0137 16.9153 26.05 19.8176 26.05V25.55ZM10.7426 37.7H10.2426C10.2426 40.8893 10.6969 43.474 11.643 45.4187L12.0926 45.2L12.5422 44.9813C11.6883 43.226 11.2426 40.8107 11.2426 37.7H10.7426ZM12.0926 45.2L11.6454 45.4236C12.604 47.3408 14.0012 48.4 15.8426 48.4V47.9V47.4C14.484 47.4 13.3812 46.6592 12.5398 44.9764L12.0926 45.2ZM50.2142 56.6L50.285 56.1049L50.275 56.1037L50.2142 56.6ZM42.7142 55.325H42.2142V55.7287L42.6088 55.8138L42.7142 55.325ZM42.7142 1.25V0.749999H42.2142V1.25H42.7142ZM53.1392 1.25H53.6392V0.749999H53.1392V1.25ZM53.1392 21.125H52.6392V22.405L53.5069 21.4639L53.1392 21.125ZM74.3643 21.35L73.9606 21.6452L73.9657 21.6519L74.3643 21.35ZM65.9643 28.25L66.3961 27.9981L66.3961 27.9981L65.9643 28.25ZM53.1392 32.15L52.6941 31.9224L52.6392 32.0296V32.15H53.1392ZM53.1392 47.225H52.6392V47.6154L53.018 47.7101L53.1392 47.225ZM55.6143 47.75L55.5274 48.2424L55.5415 48.2449L55.5558 48.2466L55.6143 47.75ZM56.8892 57.125V56.625C54.9177 56.625 52.7168 56.4524 50.285 56.105L50.2142 56.6L50.1435 57.095C52.6117 57.4476 54.8608 57.625 56.8892 57.625V57.125ZM50.2142 56.6L50.275 56.1037C47.8408 55.8056 45.3557 55.3832 42.8197 54.8362L42.7142 55.325L42.6088 55.8138C45.1728 56.3668 47.6877 56.7944 50.1535 57.0963L50.2142 56.6ZM42.7142 55.325H43.2142V1.25H42.7142H42.2142V55.325H42.7142ZM42.7142 1.25V1.75H53.1392V1.25V0.749999H42.7142V1.25ZM53.1392 1.25H52.6392V21.125H53.1392H53.6392V1.25H53.1392ZM53.1392 21.125L53.5069 21.4639C56.3635 18.3652 59.8558 16.825 64.0142 16.825V16.325V15.825C59.5727 15.825 55.815 17.4848 52.7716 20.7861L53.1392 21.125ZM64.0142 16.325V16.825C68.3182 16.825 71.6125 18.4344 73.9607 21.6452L74.3643 21.35L74.7678 21.0548C72.216 17.5656 68.6103 15.825 64.0142 15.825V16.325ZM74.3643 21.35L73.9657 21.6519C76.3766 24.8343 77.6142 29.3379 77.6142 35.225H78.1142H78.6142C78.6142 29.2121 77.3519 24.4657 74.7628 21.0481L74.3643 21.35ZM78.1142 35.225H77.6142C77.6142 42.2422 75.8116 47.5239 72.281 51.1513L72.6392 51.5L72.9975 51.8487C76.7669 47.9761 78.6142 42.4078 78.6142 35.225H78.1142ZM72.6392 51.5L72.281 51.1513C68.7516 54.7773 63.6478 56.625 56.8892 56.625V57.125V57.625C63.8307 57.625 69.2269 55.7227 72.9975 51.8487L72.6392 51.5ZM58.0143 47.9V48.4C61.3021 48.4 63.8458 47.352 65.5506 45.1909C67.2375 43.0524 68.0393 39.9022 68.0393 35.825H67.5393H67.0393C67.0393 39.7978 66.2535 42.6851 64.7654 44.5716C63.2952 46.4355 61.0764 47.4 58.0143 47.4V47.9ZM67.5393 35.825H68.0393C68.0393 32.5317 67.509 29.9059 66.3961 27.9981L65.9643 28.25L65.5324 28.5019C66.5195 30.1941 67.0393 32.6183 67.0393 35.825H67.5393ZM65.9643 28.25L66.3961 27.9981C65.2611 26.0524 63.5761 25.05 61.3892 25.05V25.55V26.05C63.2024 26.05 64.5673 26.8476 65.5324 28.5019L65.9643 28.25ZM61.3892 25.55V25.05C57.8636 25.05 54.9804 27.4514 52.6941 31.9224L53.1392 32.15L53.5844 32.3776C55.7981 28.0486 58.4149 26.05 61.3892 26.05V25.55ZM53.1392 32.15H52.6392V47.225H53.1392H53.6392V32.15H53.1392ZM53.1392 47.225L53.018 47.7101C53.8299 47.913 54.6663 48.0904 55.5274 48.2424L55.6143 47.75L55.7011 47.2576C54.8621 47.1096 54.0486 46.937 53.2605 46.7399L53.1392 47.225ZM55.6143 47.75L55.5558 48.2466C56.4226 48.3485 57.2422 48.4 58.0143 48.4V47.9V47.4C57.2863 47.4 56.5059 47.3515 55.6727 47.2534L55.6143 47.75ZM84.4166 47.45L84.8564 47.2121L84.8564 47.2121L84.4166 47.45ZM84.4166 26L84.8564 26.2379L84.8564 26.2379L84.4166 26ZM111.867 18.875L111.614 19.3064L111.623 19.3114L111.867 18.875ZM118.767 25.925L118.327 26.1629L118.328 26.166L118.767 25.925ZM118.767 47.3L118.325 47.0651L118.322 47.0707L118.767 47.3ZM111.942 54.575L112.191 55.0082L112.197 55.005L111.942 54.575ZM108.042 44.9L107.648 44.5911L107.647 44.5924L108.042 44.9ZM108.042 28.55L107.647 28.8577L107.656 28.8682L108.042 28.55ZM95.0666 28.55L94.6771 28.2365L94.6762 28.2377L95.0666 28.55ZM95.0666 44.9L94.6687 45.2031L94.6771 45.2135L95.0666 44.9ZM101.667 57.125V56.625C97.79 56.625 94.4289 55.7915 91.5662 54.1418L91.3166 54.575L91.0669 55.0082C94.1043 56.7585 97.6431 57.625 101.667 57.625V57.125ZM91.3166 54.575L91.5662 54.1418C88.698 52.4889 86.4632 50.1822 84.8564 47.2121L84.4166 47.45L83.9768 47.6879C85.67 50.8178 88.0352 53.2611 91.0669 55.0082L91.3166 54.575ZM84.4166 47.45L84.8564 47.2121C83.2525 44.2474 82.4416 40.7571 82.4416 36.725H81.9416H81.4416C81.4416 40.8929 82.2807 44.5526 83.9768 47.6879L84.4166 47.45ZM81.9416 36.725H82.4416C82.4416 32.6929 83.2525 29.2026 84.8564 26.2379L84.4166 26L83.9768 25.7621C82.2807 28.8974 81.4416 32.5571 81.4416 36.725H81.9416ZM84.4166 26L84.8564 26.2379C86.4632 23.2678 88.698 20.9611 91.5662 19.3082L91.3166 18.875L91.0669 18.4418C88.0352 20.1889 85.67 22.6322 83.9768 25.7621L84.4166 26ZM91.3166 18.875L91.5662 19.3082C94.4298 17.658 97.7663 16.825 101.592 16.825V16.325V15.825C97.6169 15.825 94.1033 16.692 91.0669 18.4418L91.3166 18.875ZM101.592 16.325V16.825C105.468 16.825 108.803 17.6586 111.614 19.3063L111.867 18.875L112.119 18.4436C109.13 16.6914 105.615 15.825 101.592 15.825V16.325ZM111.867 18.875L111.623 19.3114C114.488 20.9139 116.721 23.194 118.327 26.1629L118.767 25.925L119.206 25.6871C117.512 22.556 115.146 20.1361 112.111 18.4386L111.867 18.875ZM118.767 25.925L118.328 26.166C119.931 29.0797 120.742 32.5188 120.742 36.5H121.242H121.742C121.742 32.3812 120.902 28.7703 119.205 25.684L118.767 25.925ZM121.242 36.5H120.742C120.742 40.5318 119.931 44.0486 118.325 47.0651L118.767 47.3L119.208 47.5349C120.902 44.3514 121.742 40.6682 121.742 36.5H121.242ZM118.767 47.3L118.322 47.0707C116.765 50.0889 114.554 52.4437 111.686 54.145L111.942 54.575L112.197 55.005C115.229 53.2063 117.569 50.7111 119.211 47.5293L118.767 47.3ZM111.942 54.575L111.692 54.1418C108.828 55.792 105.492 56.625 101.667 56.625V57.125V57.625C105.641 57.625 109.155 56.758 112.191 55.0082L111.942 54.575ZM101.592 47.975V48.475C104.439 48.475 106.737 47.3843 108.436 45.2076L108.042 44.9L107.647 44.5924C106.146 46.5157 104.144 47.475 101.592 47.475V47.975ZM108.042 44.9L108.435 45.2089C110.171 42.9992 111.017 40.131 111.017 36.65H110.517H110.017C110.017 39.969 109.212 42.6008 107.648 44.5911L108.042 44.9ZM110.517 36.65H111.017C111.017 33.1704 110.171 30.346 108.427 28.2318L108.042 28.55L107.656 28.8682C109.212 30.754 110.017 33.3296 110.017 36.65H110.517ZM108.042 28.55L108.436 28.2424C106.737 26.0657 104.439 24.975 101.592 24.975V25.475V25.975C104.144 25.975 106.146 26.9343 107.647 28.8576L108.042 28.55ZM101.592 25.475V24.975C98.7448 24.975 96.4248 26.0651 94.6771 28.2365L95.0666 28.55L95.4561 28.8635C97.0084 26.9349 99.0384 25.975 101.592 25.975V25.475ZM95.0666 28.55L94.6762 28.2377C92.985 30.3516 92.1666 33.1737 92.1666 36.65H92.6666H93.1666C93.1666 33.3263 93.9482 30.7484 95.457 28.8623L95.0666 28.55ZM92.6666 36.65H92.1666C92.1666 40.1277 92.9856 42.9937 94.6689 45.203L95.0666 44.9L95.4643 44.597C93.9476 42.6063 93.1666 39.9722 93.1666 36.65H92.6666ZM95.0666 44.9L94.6771 45.2135C96.4248 47.3849 98.7448 48.475 101.592 48.475V47.975V47.475C99.0384 47.475 97.0084 46.5151 95.4561 44.5865L95.0666 44.9ZM130.046 53.3L129.679 53.6389L129.682 53.6425L130.046 53.3ZM126.521 17.375V16.875H126.021V17.375H126.521ZM137.096 17.375H137.596V16.875H137.096V17.375ZM138.596 46.1L138.219 46.4282L138.227 46.4363L138.596 46.1ZM147.596 46.1L147.886 46.5078L147.886 46.5078L147.596 46.1ZM151.496 41.675L151.931 41.9218L151.996 41.807V41.675H151.496ZM151.496 17.375V16.875H150.996V17.375H151.496ZM162.071 17.375H162.571V16.875H162.071V17.375ZM162.071 56V56.5H162.571V56H162.071ZM151.496 56H150.996V56.5H151.496V56ZM151.496 50.9H151.996V49.3885L151.095 50.6018L151.496 50.9ZM146.771 55.325L147.036 55.7497L147.044 55.7445L146.771 55.325ZM139.721 57.05V56.55C135.73 56.55 132.648 55.3376 130.411 52.9575L130.046 53.3L129.682 53.6425C132.145 56.2624 135.513 57.55 139.721 57.55V57.05ZM130.046 53.3L130.414 52.9612C128.168 50.5243 127.021 47.231 127.021 43.025H126.521H126.021C126.021 47.419 127.225 50.9757 129.679 53.6388L130.046 53.3ZM126.521 43.025H127.021V17.375H126.521H126.021V43.025H126.521ZM126.521 17.375V17.875H137.096V17.375V16.875H126.521V17.375ZM137.096 17.375H136.596V41.3H137.096H137.596V17.375H137.096ZM137.096 41.3H136.596C136.596 43.4286 137.116 45.1598 138.219 46.4281L138.596 46.1L138.974 45.7719C138.077 44.7402 137.596 43.2714 137.596 41.3H137.096ZM138.596 46.1L138.227 46.4363C139.335 47.656 140.828 48.25 142.646 48.25V47.75V47.25C141.065 47.25 139.858 46.744 138.966 45.7637L138.596 46.1ZM142.646 47.75V48.25C144.509 48.25 146.259 47.6623 147.886 46.5078L147.596 46.1L147.307 45.6922C145.834 46.7377 144.284 47.25 142.646 47.25V47.75ZM147.596 46.1L147.886 46.5078C149.502 45.3606 150.85 43.8278 151.931 41.9218L151.496 41.675L151.062 41.4282C150.043 43.2222 148.791 44.6394 147.307 45.6922L147.596 46.1ZM151.496 41.675H151.996V17.375H151.496H150.996V41.675H151.496ZM151.496 17.375V17.875H162.071V17.375V16.875H151.496V17.375ZM162.071 17.375H161.571V56H162.071H162.571V17.375H162.071ZM162.071 56V55.5H151.496V56V56.5H162.071V56ZM151.496 56H151.996V50.9H151.496H150.996V56H151.496ZM151.496 50.9L151.095 50.6018C149.831 52.3035 148.3 53.7376 146.499 54.9055L146.771 55.325L147.044 55.7445C148.943 54.5124 150.562 52.9965 151.898 51.1982L151.496 50.9ZM146.771 55.325L146.508 54.9004C144.758 55.9881 142.506 56.55 139.721 56.55V57.05V57.55C142.637 57.55 145.085 56.9619 147.035 55.7496L146.771 55.325ZM175.019 54.425L174.675 54.7879L174.684 54.7966L175.019 54.425ZM172.094 26.45H172.594V25.95H172.094V26.45ZM166.094 26.45H165.594V26.95H166.094V26.45ZM166.094 17.375V16.875H165.594V17.375H166.094ZM172.094 17.375V17.875H172.594V17.375H172.094ZM172.094 9.125L172.012 8.6318L171.594 8.70144V9.125H172.094ZM182.594 7.775H183.094V7.22894L182.55 7.27693L182.594 7.775ZM182.594 17.375H182.094V17.875H182.594V17.375ZM192.344 17.375H192.844V16.875H192.344V17.375ZM192.344 26.45V26.95H192.844V26.45H192.344ZM182.594 26.45V25.95H182.094V26.45H182.594ZM190.994 46.925L191.474 46.7847L191.325 46.274L190.824 46.4547L190.994 46.925ZM193.319 54.875L193.531 55.3277L193.919 55.1459L193.799 54.7347L193.319 54.875ZM183.419 57.125V56.625C179.9 56.625 177.234 55.7462 175.353 54.0534L175.019 54.425L174.684 54.7966C176.804 56.7038 179.738 57.625 183.419 57.625V57.125ZM175.019 54.425L175.363 54.0623C173.536 52.3289 172.594 49.8739 172.594 46.625H172.094H171.594C171.594 50.0761 172.602 52.8211 174.675 54.7877L175.019 54.425ZM172.094 46.625H172.594V26.45H172.094H171.594V46.625H172.094ZM172.094 26.45V25.95H166.094V26.45V26.95H172.094V26.45ZM166.094 26.45H166.594V17.375H166.094H165.594V26.45H166.094ZM166.094 17.375V17.875H172.094V17.375V16.875H166.094V17.375ZM172.094 17.375H172.594V9.125H172.094H171.594V17.375H172.094ZM172.094 9.125L172.176 9.6182C175.764 9.02017 179.252 8.57186 182.638 8.27306L182.594 7.775L182.55 7.27693C179.136 7.57814 175.624 8.02983 172.012 8.6318L172.094 9.125ZM182.594 7.775H182.094V17.375H182.594H183.094V7.775H182.594ZM182.594 17.375V17.875H192.344V17.375V16.875H182.594V17.375ZM192.344 17.375H191.844V26.45H192.344H192.844V17.375H192.344ZM192.344 26.45V25.95H182.594V26.45V26.95H192.344V26.45ZM182.594 26.45H182.094V44.675H182.594H183.094V26.45H182.594ZM182.594 44.675H182.094C182.094 45.8422 182.422 46.8049 183.16 47.4662C183.888 48.118 184.93 48.4 186.194 48.4V47.9V47.4C185.058 47.4 184.3 47.1445 183.828 46.7213C183.366 46.3076 183.094 45.6578 183.094 44.675H182.594ZM186.194 47.9V48.4C187.669 48.4 189.328 48.0582 191.164 47.3953L190.994 46.925L190.824 46.4547C189.06 47.0918 187.519 47.4 186.194 47.4V47.9ZM190.994 46.925L190.514 47.0653L192.839 55.0153L193.319 54.875L193.799 54.7347L191.474 46.7847L190.994 46.925ZM193.319 54.875L193.107 54.4223C189.97 55.8924 186.743 56.625 183.419 56.625V57.125V57.625C186.895 57.625 190.267 56.8576 193.531 55.3277L193.319 54.875ZM213.876 53.3L213.508 53.6389L213.512 53.6425L213.876 53.3ZM210.351 17.375V16.875H209.851V17.375H210.351ZM220.926 17.375H221.426V16.875H220.926V17.375ZM222.426 46.1L222.049 46.4282L222.056 46.4363L222.426 46.1ZM231.426 46.1L231.715 46.5078L231.715 46.5078L231.426 46.1ZM235.326 41.675L235.761 41.9218L235.826 41.807V41.675H235.326ZM235.326 17.375V16.875H234.826V17.375H235.326ZM245.901 17.375H246.401V16.875H245.901V17.375ZM245.901 56V56.5H246.401V56H245.901ZM235.326 56H234.826V56.5H235.326V56ZM235.326 50.9H235.826V49.3885L234.925 50.6018L235.326 50.9ZM230.601 55.325L230.865 55.7497L230.873 55.7445L230.601 55.325ZM223.551 57.05V56.55C219.56 56.55 216.478 55.3376 214.24 52.9575L213.876 53.3L213.512 53.6425C215.974 56.2624 219.342 57.55 223.551 57.55V57.05ZM213.876 53.3L214.244 52.9612C211.998 50.5243 210.851 47.231 210.851 43.025H210.351H209.851C209.851 47.419 211.054 50.9757 213.508 53.6388L213.876 53.3ZM210.351 43.025H210.851V17.375H210.351H209.851V43.025H210.351ZM210.351 17.375V17.875H220.926V17.375V16.875H210.351V17.375ZM220.926 17.375H220.426V41.3H220.926H221.426V17.375H220.926ZM220.926 41.3H220.426C220.426 43.4286 220.946 45.1598 222.049 46.4281L222.426 46.1L222.803 45.7719C221.906 44.7402 221.426 43.2714 221.426 41.3H220.926ZM222.426 46.1L222.056 46.4363C223.165 47.656 224.657 48.25 226.476 48.25V47.75V47.25C224.895 47.25 223.687 46.744 222.796 45.7637L222.426 46.1ZM226.476 47.75V48.25C228.339 48.25 230.088 47.6623 231.715 46.5078L231.426 46.1L231.137 45.6922C229.663 46.7377 228.113 47.25 226.476 47.25V47.75ZM231.426 46.1L231.715 46.5078C233.332 45.3606 234.679 43.8278 235.761 41.9218L235.326 41.675L234.891 41.4282C233.873 43.2222 232.62 44.6394 231.137 45.6922L231.426 46.1ZM235.326 41.675H235.826V17.375H235.326H234.826V41.675H235.326ZM235.326 17.375V17.875H245.901V17.375V16.875H235.326V17.375ZM245.901 17.375H245.401V56H245.901H246.401V17.375H245.901ZM245.901 56V55.5H235.326V56V56.5H245.901V56ZM235.326 56H235.826V50.9H235.326H234.826V56H235.326ZM235.326 50.9L234.925 50.6018C233.661 52.3035 232.129 53.7376 230.329 54.9055L230.601 55.325L230.873 55.7445C232.772 54.5124 234.391 52.9965 235.727 51.1982L235.326 50.9ZM230.601 55.325L230.337 54.9004C228.587 55.9881 226.336 56.55 223.551 56.55V57.05V57.55C226.466 57.55 228.915 56.9619 230.865 55.7496L230.601 55.325ZM257.123 56.375L257.015 56.8631L257.017 56.8636L257.123 56.375ZM251.348 54.35L250.851 54.2961L250.815 54.6327L251.114 54.7916L251.348 54.35ZM252.323 45.35L252.586 44.9246L251.912 44.508L251.826 45.2961L252.323 45.35ZM257.948 47.9L257.797 48.3766L257.797 48.3766L257.948 47.9ZM267.773 42.575L267.572 43.0327L267.579 43.0355L267.773 42.575ZM261.923 40.25L261.738 40.7143L261.747 40.7178L261.923 40.25ZM258.548 38.9L258.356 39.3616L258.363 39.3642L258.548 38.9ZM255.098 36.95L254.793 37.3456L254.798 37.3501L254.804 37.3544L255.098 36.95ZM252.398 33.725L251.954 33.9552L251.958 33.962L252.398 33.725ZM253.373 21.95L252.975 21.6483L252.973 21.65L253.373 21.95ZM259.073 17.75L258.889 17.2851L258.889 17.2851L259.073 17.75ZM273.173 16.925L273.073 17.4148L273.075 17.4153L273.173 16.925ZM278.873 18.5L279.367 18.5788L279.432 18.1703L279.043 18.0297L278.873 18.5ZM277.448 27.425L277.196 27.8563L277.827 28.2264L277.942 27.5038L277.448 27.425ZM272.498 25.4L272.352 25.8782L272.36 25.8806L272.368 25.8827L272.498 25.4ZM263.498 25.4L263.722 25.8473L263.73 25.8429L263.498 25.4ZM263.048 29.975L262.74 30.3682L262.749 30.3752L262.758 30.3819L263.048 29.975ZM265.898 31.325L265.74 31.7993L265.749 31.8023L265.758 31.805L265.898 31.325ZM269.873 32.75L269.682 33.212L269.689 33.2149L269.696 33.2175L269.873 32.75ZM274.448 34.85L274.214 35.2916L274.219 35.2945L274.448 34.85ZM278.198 51.875L277.805 51.5666L277.804 51.568L278.198 51.875ZM272.423 55.85L272.26 55.3776L272.257 55.3787L272.423 55.85ZM264.248 57.125V56.625C261.833 56.625 259.493 56.3785 257.23 55.8864L257.123 56.375L257.017 56.8636C259.354 57.3715 261.764 57.625 264.248 57.625V57.125ZM257.123 56.375L257.232 55.8869C255.015 55.3942 253.134 54.7325 251.583 53.9084L251.348 54.35L251.114 54.7916C252.763 55.6675 254.732 56.3558 257.015 56.8631L257.123 56.375ZM251.348 54.35L251.846 54.4039L252.821 45.4039L252.323 45.35L251.826 45.2961L250.851 54.2961L251.348 54.35ZM252.323 45.35L252.061 45.7754C253.798 46.8486 255.711 47.7151 257.797 48.3766L257.948 47.9L258.1 47.4234C256.086 46.7849 254.249 45.9514 252.586 44.9246L252.323 45.35ZM257.948 47.9L257.797 48.3766C259.887 49.0392 261.863 49.375 263.723 49.375V48.875V48.375C261.984 48.375 260.11 48.0608 258.1 47.4234L257.948 47.9ZM263.723 48.875V49.375C265.386 49.375 266.865 49.063 268.147 48.4222L267.923 47.975L267.7 47.5278C266.581 48.087 265.261 48.375 263.723 48.375V48.875ZM267.923 47.975L268.147 48.4222C268.81 48.091 269.335 47.6553 269.693 47.1033C270.052 46.5493 270.223 45.9083 270.223 45.2H269.723H269.223C269.223 45.7417 269.095 46.1882 268.854 46.5592C268.612 46.9322 268.237 47.259 267.7 47.5278L267.923 47.975ZM269.723 45.2H270.223C270.223 44.504 270.033 43.878 269.637 43.3456C269.246 42.8184 268.677 42.4142 267.968 42.1145L267.773 42.575L267.579 43.0355C268.17 43.2858 268.576 43.5941 268.835 43.9419C269.089 44.2845 269.223 44.696 269.223 45.2H269.723ZM267.773 42.575L267.975 42.1173C266.712 41.5617 264.751 40.7828 262.1 39.7822L261.923 40.25L261.747 40.7178C264.395 41.7172 266.335 42.4883 267.572 43.0327L267.773 42.575ZM261.923 40.25L262.109 39.7858C261.109 39.3858 259.984 38.9358 258.734 38.4358L258.548 38.9L258.363 39.3642C259.613 39.8642 260.738 40.3142 261.738 40.7142L261.923 40.25ZM258.548 38.9L258.741 38.4385C257.578 37.9542 256.462 37.3237 255.393 36.5456L255.098 36.95L254.804 37.3544C255.934 38.1763 257.118 38.8458 258.356 39.3615L258.548 38.9ZM255.098 36.95L255.404 36.5544C254.363 35.7498 253.508 34.7301 252.839 33.4879L252.398 33.725L251.958 33.962C252.689 35.3199 253.634 36.4502 254.793 37.3456L255.098 36.95ZM252.398 33.725L252.842 33.4948C252.189 32.2348 251.848 30.6442 251.848 28.7H251.348H250.848C250.848 30.7558 251.208 32.5152 251.955 33.9552L252.398 33.725ZM251.348 28.7H251.848C251.848 26.0859 252.501 23.9472 253.773 22.25L253.373 21.95L252.973 21.65C251.546 23.5528 250.848 25.9141 250.848 28.7H251.348ZM253.373 21.95L253.772 22.2517C255.111 20.4828 256.933 19.1351 259.257 18.2149L259.073 17.75L258.889 17.2851C256.414 18.2649 254.436 19.7172 252.975 21.6483L253.373 21.95ZM259.073 17.75L259.257 18.2149C261.59 17.2915 264.226 16.825 267.173 16.825V16.325V15.825C264.12 15.825 261.357 16.3085 258.889 17.2851L259.073 17.75ZM267.173 16.325V16.825C269.191 16.825 271.157 17.0218 273.073 17.4148L273.173 16.925L273.274 16.4352C271.29 16.0282 269.256 15.825 267.173 15.825V16.325ZM273.173 16.925L273.075 17.4153C275.053 17.8107 276.928 18.3293 278.704 18.9703L278.873 18.5L279.043 18.0297C277.218 17.3707 275.294 16.8393 273.271 16.4347L273.173 16.925ZM278.873 18.5L278.38 18.4212L276.955 27.3462L277.448 27.425L277.942 27.5038L279.367 18.5788L278.873 18.5ZM277.448 27.425L277.701 26.9937C276.208 26.1183 274.516 25.4273 272.629 24.9173L272.498 25.4L272.368 25.8827C274.181 26.3727 275.789 27.0317 277.196 27.8563L277.448 27.425ZM272.498 25.4L272.645 24.9218C270.805 24.3598 269.056 24.075 267.398 24.075V24.575V25.075C268.941 25.075 270.592 25.3402 272.352 25.8782L272.498 25.4ZM267.398 24.575V24.075C265.792 24.075 264.407 24.3598 263.266 24.9571L263.498 25.4L263.73 25.8429C264.69 25.3402 265.905 25.075 267.398 25.075V24.575ZM263.498 25.4L263.275 24.9528C262.708 25.2362 262.257 25.6186 261.949 26.11C261.642 26.6019 261.498 27.1721 261.498 27.8H261.998H262.498C262.498 27.3279 262.605 26.9481 262.797 26.64C262.99 26.3314 263.289 26.0638 263.722 25.8472L263.498 25.4ZM261.998 27.8H261.498C261.498 28.8515 261.917 29.7222 262.74 30.3682L263.048 29.975L263.357 29.5818C262.78 29.1278 262.498 28.5485 262.498 27.8H261.998ZM263.048 29.975L262.758 30.3819C263.513 30.921 264.513 31.3903 265.74 31.7993L265.898 31.325L266.057 30.8507C264.884 30.4597 263.984 30.029 263.339 29.5681L263.048 29.975ZM265.898 31.325L265.758 31.805C266.937 32.1488 268.245 32.6173 269.682 33.212L269.873 32.75L270.065 32.288C268.602 31.6827 267.26 31.2011 266.038 30.845L265.898 31.325ZM269.873 32.75L269.696 33.2175C271.124 33.7589 272.629 34.4498 274.214 35.2916L274.448 34.85L274.683 34.4084C273.067 33.5502 271.523 32.8411 270.051 32.2825L269.873 32.75ZM274.448 34.85L274.219 35.2945C275.799 36.1081 277.141 37.2568 278.247 38.7479L278.648 38.45L279.05 38.1521C277.856 36.5432 276.398 35.2919 274.677 34.4055L274.448 34.85ZM278.648 38.45L278.247 38.7479C279.312 40.1834 279.873 42.1906 279.873 44.825H280.373H280.873C280.873 42.0594 280.285 39.8166 279.05 38.1521L278.648 38.45ZM280.373 44.825H279.873C279.873 47.5877 279.172 49.8221 277.805 51.5666L278.198 51.875L278.592 52.1834C280.125 50.2279 280.873 47.7623 280.873 44.825H280.373ZM278.198 51.875L277.804 51.568C276.471 53.2817 274.631 54.5548 272.26 55.3776L272.423 55.85L272.587 56.3224C275.116 55.4452 277.126 54.0683 278.593 52.182L278.198 51.875ZM272.423 55.85L272.257 55.3787C269.92 56.2064 267.252 56.625 264.248 56.625V57.125V57.625C267.344 57.625 270.127 57.1936 272.59 56.3213L272.423 55.85ZM287.93 56.225L288.283 55.8714L288.283 55.8714L287.93 56.225ZM287.93 45.35L288.283 45.7036L288.283 45.7036L287.93 45.35ZM298.88 45.35L298.52 45.6978L298.526 45.7036L298.88 45.35ZM298.88 56.225L298.526 55.8714L298.52 55.8773L298.88 56.225ZM293.405 58.55V58.05C291.444 58.05 289.744 57.3323 288.283 55.8714L287.93 56.225L287.576 56.5786C289.215 58.2177 291.166 59.05 293.405 59.05V58.55ZM287.93 56.225L288.283 55.8714C286.876 54.4641 286.18 52.7909 286.18 50.825H285.68H285.18C285.18 53.0591 285.983 54.9859 287.576 56.5786L287.93 56.225ZM285.68 50.825H286.18C286.18 48.8056 286.878 47.1084 288.283 45.7036L287.93 45.35L287.576 44.9964C285.981 46.5916 285.18 48.5444 285.18 50.825H285.68ZM287.93 45.35L288.283 45.7036C289.744 44.2427 291.444 43.525 293.405 43.525V43.025V42.525C291.166 42.525 289.215 43.3573 287.576 44.9964L287.93 45.35ZM293.405 43.025V43.525C295.419 43.525 297.114 44.2447 298.52 45.6977L298.88 45.35L299.239 45.0023C297.645 43.3553 295.691 42.525 293.405 42.525V43.025ZM298.88 45.35L298.526 45.7036C299.931 47.1084 300.63 48.8056 300.63 50.825H301.13H301.63C301.63 48.5444 300.828 46.5916 299.233 44.9964L298.88 45.35ZM301.13 50.825H300.63C300.63 52.7909 299.933 54.4641 298.526 55.8714L298.88 56.225L299.233 56.5786C300.826 54.9859 301.63 53.0591 301.63 50.825H301.13ZM298.88 56.225L298.52 55.8773C297.114 57.3303 295.419 58.05 293.405 58.05V58.55V59.05C295.691 59.05 297.645 58.2197 299.239 56.5727L298.88 56.225Z" fill="white"/>
</svg>
