<svg width="152" height="152" viewBox="0 0 152 152" fill="none" xmlns="http://www.w3.org/2000/svg">
<g filter="url(#filter0_d_51_1327)">
<circle cx="76.4893" cy="76.4888" r="55.5" transform="rotate(-180 76.4893 76.4888)" fill="white"/>
</g>
<path fill-rule="evenodd" clip-rule="evenodd" d="M68.5942 93.1581C66.9999 94.6149 64.5144 94.5165 63.0428 92.9383L50.3505 79.3274C48.9613 77.8377 48.9613 75.5416 50.3504 74.0519L63.0427 60.4406C64.5144 58.8624 66.9998 58.764 68.5941 60.2208C70.1884 61.6776 70.2879 64.1379 68.8162 65.7161L62.2099 72.8007L100.38 72.8007C102.55 72.8007 104.309 74.5418 104.309 76.6896C104.309 78.8374 102.55 80.5785 100.38 80.5785L62.21 80.5785L68.8162 87.6628C70.2879 89.241 70.1885 91.7013 68.5942 93.1581Z" fill="#3B3C44"/>
<defs>
<filter id="filter0_d_51_1327" x="0.989258" y="0.98877" width="151" height="151" filterUnits="userSpaceOnUse" color-interpolation-filters="sRGB">
<feFlood flood-opacity="0" result="BackgroundImageFix"/>
<feColorMatrix in="SourceAlpha" type="matrix" values="0 0 0 0 0 0 0 0 0 0 0 0 0 0 0 0 0 0 127 0" result="hardAlpha"/>
<feOffset/>
<feGaussianBlur stdDeviation="10"/>
<feComposite in2="hardAlpha" operator="out"/>
<feColorMatrix type="matrix" values="0 0 0 0 0 0 0 0 0 0 0 0 0 0 0 0 0 0 0.05 0"/>
<feBlend mode="normal" in2="BackgroundImageFix" result="effect1_dropShadow_51_1327"/>
<feBlend mode="normal" in="SourceGraphic" in2="effect1_dropShadow_51_1327" result="shape"/>
</filter>
</defs>
</svg>
