<svg width="447" height="105" viewBox="0 0 447 105" fill="none" xmlns="http://www.w3.org/2000/svg">
<rect y="1" width="447" height="103" rx="45" fill="#227246"/>
<path d="M67.0856 61L60.3356 41.02H65.1356L69.8756 56.26L74.5856 41.02H79.0556L72.3356 61H67.0856ZM82.8593 43V39.1H87.6893V43H82.8593ZM80.5193 61V57.37H83.3993V49.18H80.5193V45.55H87.6293V57.37H90.2093V61H80.5193ZM100.069 61.45C97.5895 61.45 95.6295 60.73 94.1895 59.29C92.7495 57.85 92.0295 55.85 92.0295 53.29C92.0295 51.61 92.3395 50.16 92.9595 48.94C93.5795 47.72 94.4495 46.78 95.5695 46.12C96.7095 45.46 98.0395 45.13 99.5595 45.13C101.799 45.13 103.519 45.85 104.719 47.29C105.919 48.73 106.519 50.81 106.519 53.53C106.519 53.71 106.519 53.89 106.519 54.07C106.519 54.23 106.509 54.39 106.489 54.55H96.2895C96.6895 56.71 98.1195 57.79 100.579 57.79C101.339 57.79 102.109 57.7 102.889 57.52C103.689 57.32 104.389 57.06 104.989 56.74L105.679 60.13C104.019 61.01 102.149 61.45 100.069 61.45ZM96.2595 51.37H102.469C102.409 50.51 102.109 49.83 101.569 49.33C101.029 48.81 100.309 48.55 99.4095 48.55C98.5495 48.55 97.8395 48.8 97.2795 49.3C96.7395 49.8 96.3995 50.49 96.2595 51.37ZM112.504 61L108.004 45.55H112.324L115.084 55.78L118.054 45.64L122.824 45.25L126.034 56.08L128.854 45.55H132.874L128.164 61H123.544L120.364 49.78L117.034 61H112.504ZM150.538 61.39C148.558 61.39 146.818 60.96 145.318 60.1C143.838 59.24 142.678 58.04 141.838 56.5C141.018 54.94 140.608 53.14 140.608 51.1C140.608 49.02 141.018 47.21 141.838 45.67C142.678 44.13 143.838 42.93 145.318 42.07C146.818 41.21 148.558 40.78 150.538 40.78C152.518 40.78 154.248 41.21 155.728 42.07C157.228 42.91 158.388 44.1 159.208 45.64C160.028 47.16 160.438 48.94 160.438 50.98C160.438 53.06 160.028 54.88 159.208 56.44C158.388 58 157.228 59.22 155.728 60.1C154.248 60.96 152.518 61.39 150.538 61.39ZM150.538 57.58C152.198 57.58 153.518 56.99 154.498 55.81C155.478 54.63 155.968 53.06 155.968 51.1C155.968 49.8 155.738 48.66 155.278 47.68C154.838 46.7 154.208 45.94 153.388 45.4C152.568 44.86 151.618 44.6 150.538 44.62C149.458 44.6 148.508 44.86 147.688 45.4C146.888 45.94 146.258 46.7 145.798 47.68C145.338 48.66 145.108 49.8 145.108 51.1C145.108 52.4 145.328 53.54 145.768 54.52C146.228 55.48 146.868 56.23 147.688 56.77C148.508 57.31 149.458 57.58 150.538 57.58ZM168.784 61.42C167.144 61.42 165.854 60.92 164.914 59.92C163.974 58.9 163.504 57.53 163.504 55.81V45.55H167.734V55.12C167.734 55.94 167.934 56.58 168.334 57.04C168.734 57.48 169.274 57.7 169.954 57.7C170.654 57.7 171.314 57.48 171.934 57.04C172.554 56.6 173.074 56.01 173.494 55.27V45.55H177.724V61H173.494V58.96C172.974 59.66 172.344 60.25 171.604 60.73C170.864 61.19 169.924 61.42 168.784 61.42ZM181.763 61V45.55H185.993V48.07H186.233C186.753 47.15 187.293 46.43 187.853 45.91C188.433 45.37 189.183 45.1 190.103 45.1C190.463 45.1 190.763 45.14 191.003 45.22L190.553 49.78C190.333 49.72 190.123 49.67 189.923 49.63C189.723 49.59 189.513 49.57 189.293 49.57C188.553 49.57 187.963 49.79 187.523 50.23C187.083 50.65 186.573 51.22 185.993 51.94V61H181.763ZM199.811 61V41.02C200.271 41 200.791 40.99 201.371 40.99C201.951 40.99 202.551 40.99 203.171 40.99C203.791 40.99 204.401 40.99 205.001 40.99C205.601 40.99 206.121 41 206.561 41.02C208.921 41.1 210.641 41.68 211.721 42.76C212.801 43.82 213.341 45.18 213.341 46.84C213.341 48.3 212.961 49.55 212.201 50.59C211.461 51.61 210.421 52.29 209.081 52.63C209.541 52.99 209.991 53.48 210.431 54.1C210.871 54.7 211.461 55.59 212.201 56.77C212.581 57.35 212.891 57.86 213.131 58.3C213.391 58.74 213.641 59.17 213.881 59.59C214.121 59.99 214.391 60.46 214.691 61H209.651L206.261 54.7C205.881 54 205.541 53.58 205.241 53.44C204.941 53.28 204.521 53.2 203.981 53.2V61H199.811ZM203.981 49.87H205.841C206.881 49.87 207.691 49.61 208.271 49.09C208.851 48.57 209.141 47.87 209.141 46.99C209.141 45.35 208.121 44.53 206.081 44.53H203.981V49.87ZM223.919 61.45C221.439 61.45 219.479 60.73 218.039 59.29C216.599 57.85 215.879 55.85 215.879 53.29C215.879 51.61 216.189 50.16 216.809 48.94C217.429 47.72 218.299 46.78 219.419 46.12C220.559 45.46 221.889 45.13 223.409 45.13C225.649 45.13 227.369 45.85 228.569 47.29C229.769 48.73 230.369 50.81 230.369 53.53C230.369 53.71 230.369 53.89 230.369 54.07C230.369 54.23 230.359 54.39 230.339 54.55H220.139C220.539 56.71 221.969 57.79 224.429 57.79C225.189 57.79 225.959 57.7 226.739 57.52C227.539 57.32 228.239 57.06 228.839 56.74L229.529 60.13C227.869 61.01 225.999 61.45 223.919 61.45ZM220.109 51.37H226.319C226.259 50.51 225.959 49.83 225.419 49.33C224.879 48.81 224.159 48.55 223.259 48.55C222.399 48.55 221.689 48.8 221.129 49.3C220.589 49.8 220.249 50.49 220.109 51.37ZM238.063 61.45C237.083 61.45 236.133 61.35 235.213 61.15C234.313 60.95 233.543 60.68 232.903 60.34L233.293 56.74C233.973 57.16 234.723 57.5 235.543 57.76C236.363 58.02 237.133 58.15 237.853 58.15C238.493 58.15 239.053 58.03 239.533 57.79C240.013 57.55 240.253 57.18 240.253 56.68C240.253 56.2 239.993 55.85 239.473 55.63C238.973 55.41 238.193 55.1 237.133 54.7C236.733 54.54 236.283 54.36 235.783 54.16C235.303 53.96 234.843 53.7 234.403 53.38C233.963 53.04 233.603 52.61 233.323 52.09C233.043 51.55 232.903 50.88 232.903 50.08C232.903 49 233.173 48.1 233.713 47.38C234.273 46.64 235.033 46.08 235.993 45.7C236.953 45.32 238.033 45.13 239.233 45.13C240.053 45.13 240.853 45.21 241.633 45.37C242.433 45.53 243.193 45.74 243.913 46L243.343 49.57C242.763 49.23 242.103 48.96 241.363 48.76C240.643 48.54 239.963 48.43 239.323 48.43C238.703 48.43 238.183 48.54 237.763 48.76C237.363 48.96 237.163 49.28 237.163 49.72C237.163 50.08 237.303 50.37 237.583 50.59C237.863 50.79 238.243 50.97 238.723 51.13C239.203 51.27 239.733 51.46 240.313 51.7C240.893 51.92 241.503 52.2 242.143 52.54C242.803 52.88 243.363 53.36 243.823 53.98C244.283 54.6 244.513 55.45 244.513 56.53C244.513 57.67 244.223 58.61 243.643 59.35C243.083 60.07 242.313 60.6 241.333 60.94C240.373 61.28 239.283 61.45 238.063 61.45ZM254.859 61.45C252.379 61.45 250.419 60.73 248.979 59.29C247.539 57.85 246.819 55.85 246.819 53.29C246.819 51.61 247.129 50.16 247.749 48.94C248.369 47.72 249.239 46.78 250.359 46.12C251.499 45.46 252.829 45.13 254.349 45.13C256.589 45.13 258.309 45.85 259.509 47.29C260.709 48.73 261.309 50.81 261.309 53.53C261.309 53.71 261.309 53.89 261.309 54.07C261.309 54.23 261.299 54.39 261.279 54.55H251.079C251.479 56.71 252.909 57.79 255.369 57.79C256.129 57.79 256.899 57.7 257.679 57.52C258.479 57.32 259.179 57.06 259.779 56.74L260.469 60.13C258.809 61.01 256.939 61.45 254.859 61.45ZM251.049 51.37H257.259C257.199 50.51 256.899 49.83 256.359 49.33C255.819 48.81 255.099 48.55 254.199 48.55C253.339 48.55 252.629 48.8 252.069 49.3C251.529 49.8 251.189 50.49 251.049 51.37ZM269.15 61.45C267.57 61.45 266.3 60.78 265.34 59.44C264.4 58.08 263.93 56.22 263.93 53.86C263.93 51.02 264.65 48.86 266.09 47.38C267.53 45.88 269.6 45.13 272.3 45.13C273.82 45.13 275.6 45.37 277.64 45.85V61H273.62L273.71 58.54H273.59C272.55 60.48 271.07 61.45 269.15 61.45ZM270.05 57.76C270.71 57.76 271.34 57.41 271.94 56.71C272.54 56.01 273.08 55.15 273.56 54.13V49.09C273.24 48.99 272.91 48.92 272.57 48.88C272.23 48.84 271.92 48.82 271.64 48.82C269.22 48.82 268.01 50.44 268.01 53.68C268.01 54.94 268.19 55.94 268.55 56.68C268.91 57.4 269.41 57.76 270.05 57.76ZM281.822 61V45.55H286.052V48.07H286.292C286.812 47.15 287.352 46.43 287.912 45.91C288.492 45.37 289.242 45.1 290.162 45.1C290.522 45.1 290.822 45.14 291.062 45.22L290.612 49.78C290.392 49.72 290.182 49.67 289.982 49.63C289.782 49.59 289.572 49.57 289.352 49.57C288.612 49.57 288.022 49.79 287.582 50.23C287.142 50.65 286.632 51.22 286.052 51.94V61H281.822ZM300.447 61.45C297.887 61.45 295.897 60.77 294.477 59.41C293.077 58.05 292.377 56.13 292.377 53.65C292.377 51.95 292.707 50.46 293.367 49.18C294.027 47.9 294.957 46.91 296.157 46.21C297.357 45.49 298.747 45.13 300.327 45.13C301.087 45.13 301.867 45.22 302.667 45.4C303.467 45.56 304.087 45.75 304.527 45.97L303.717 49.54C303.257 49.32 302.747 49.15 302.187 49.03C301.627 48.89 301.117 48.82 300.657 48.82C299.437 48.82 298.447 49.24 297.687 50.08C296.927 50.92 296.547 52.03 296.547 53.41C296.547 54.81 296.937 55.89 297.717 56.65C298.497 57.41 299.587 57.79 300.987 57.79C301.927 57.79 302.937 57.61 304.017 57.25L304.647 60.67C303.967 60.93 303.277 61.12 302.577 61.24C301.897 61.38 301.187 61.45 300.447 61.45ZM307.721 61V39.1H311.951V47.8C312.591 46.86 313.311 46.18 314.111 45.76C314.911 45.34 315.821 45.13 316.841 45.13C318.501 45.13 319.801 45.63 320.741 46.63C321.681 47.61 322.151 48.98 322.151 50.74V61H317.921V51.4C317.921 50.58 317.721 49.95 317.321 49.51C316.921 49.07 316.381 48.85 315.701 48.85C314.941 48.85 314.221 49.11 313.541 49.63C312.881 50.15 312.351 50.82 311.951 51.64V61H307.721Z" fill="white"/>
<path fill-rule="evenodd" clip-rule="evenodd" d="M368.182 44.5009C368.994 43.7934 370.259 43.8411 371.008 44.6077L377.47 51.2187C378.177 51.9423 378.177 53.0575 377.47 53.7811L371.008 60.3923C370.259 61.1588 368.994 61.2067 368.182 60.4991C367.37 59.7915 367.32 58.5965 368.069 57.8299L371.432 54.3888L352 54.3888C350.895 54.3888 350 53.5431 350 52.4999C350 51.4567 350.895 50.611 352 50.611L371.432 50.611L368.069 47.1701C367.32 46.4036 367.37 45.2085 368.182 44.5009Z" fill="white"/>
</svg>
