<svg width="447" height="105" viewBox="0 0 447 105" fill="none" xmlns="http://www.w3.org/2000/svg">
<rect y="1" width="447" height="103" rx="45" fill="#C92D8B"/>
<path d="M48.6645 61V41.02H60.8145V44.8H52.9545V48.79H59.4645V52.45H52.9545V57.22H60.8145V61H48.6645ZM73.6997 61.24L70.3697 56.26L67.2797 61H62.4797L68.1797 53.02L63.0197 45.55L67.6997 45.31L70.6097 49.69L73.3097 45.55H77.9297L72.8297 52.81L78.3797 61L73.6997 61.24ZM80.5974 67.54V45.55H84.7074L84.6174 47.56H84.7374C85.7974 45.92 87.2874 45.1 89.2074 45.1C90.9274 45.1 92.2874 45.77 93.2874 47.11C94.2874 48.43 94.7874 50.28 94.7874 52.66C94.7874 55.5 94.0474 57.67 92.5674 59.17C91.1074 60.67 89.0174 61.42 86.2974 61.42C86.0374 61.42 85.7774 61.41 85.5174 61.39C85.2774 61.39 85.0274 61.38 84.7674 61.36V67.54H80.5974ZM86.7174 57.73C87.9774 57.73 88.9274 57.32 89.5674 56.5C90.2274 55.68 90.5574 54.48 90.5574 52.9C90.5574 51.6 90.3474 50.59 89.9274 49.87C89.5274 49.15 88.9674 48.79 88.2474 48.79C87.6274 48.79 87.0074 49.07 86.3874 49.63C85.7874 50.17 85.2474 50.95 84.7674 51.97V57.46C85.4674 57.64 86.1174 57.73 86.7174 57.73ZM96.6959 61V57.37H99.4259V42.7H96.8459V39.1H103.656V57.37H106.386V61H96.6959ZM116.012 61.45C114.432 61.45 113.052 61.11 111.872 60.43C110.692 59.75 109.772 58.8 109.112 57.58C108.452 56.36 108.122 54.93 108.122 53.29C108.122 51.65 108.452 50.22 109.112 49C109.772 47.78 110.692 46.83 111.872 46.15C113.052 45.47 114.422 45.13 115.982 45.13C117.562 45.13 118.932 45.47 120.092 46.15C121.272 46.81 122.192 47.75 122.852 48.97C123.512 50.17 123.842 51.58 123.842 53.2C123.842 54.84 123.512 56.28 122.852 57.52C122.212 58.76 121.302 59.73 120.122 60.43C118.942 61.11 117.572 61.45 116.012 61.45ZM115.982 57.79C117.062 57.79 117.922 57.38 118.562 56.56C119.222 55.72 119.552 54.62 119.552 53.26C119.552 51.9 119.222 50.82 118.562 50.02C117.922 49.2 117.062 48.79 115.982 48.79C114.902 48.79 114.032 49.2 113.372 50.02C112.732 50.82 112.412 51.9 112.412 53.26C112.412 54.62 112.732 55.72 113.372 56.56C114.032 57.38 114.902 57.79 115.982 57.79ZM127.127 61V45.55H131.357V48.07H131.597C132.117 47.15 132.657 46.43 133.217 45.91C133.797 45.37 134.547 45.1 135.467 45.1C135.827 45.1 136.127 45.14 136.367 45.22L135.917 49.78C135.697 49.72 135.487 49.67 135.287 49.63C135.087 49.59 134.877 49.57 134.657 49.57C133.917 49.57 133.327 49.79 132.887 50.23C132.447 50.65 131.937 51.22 131.357 51.94V61H127.127ZM145.842 61.45C143.362 61.45 141.402 60.73 139.962 59.29C138.522 57.85 137.802 55.85 137.802 53.29C137.802 51.61 138.112 50.16 138.732 48.94C139.352 47.72 140.222 46.78 141.342 46.12C142.482 45.46 143.812 45.13 145.332 45.13C147.572 45.13 149.292 45.85 150.492 47.29C151.692 48.73 152.292 50.81 152.292 53.53C152.292 53.71 152.292 53.89 152.292 54.07C152.292 54.23 152.282 54.39 152.262 54.55H142.062C142.462 56.71 143.892 57.79 146.352 57.79C147.112 57.79 147.882 57.7 148.662 57.52C149.462 57.32 150.162 57.06 150.762 56.74L151.452 60.13C149.792 61.01 147.922 61.45 145.842 61.45ZM142.032 51.37H148.242C148.182 50.51 147.882 49.83 147.342 49.33C146.802 48.81 146.082 48.55 145.182 48.55C144.322 48.55 143.612 48.8 143.052 49.3C142.512 49.8 142.172 50.49 142.032 51.37ZM167.252 61.45C165.812 61.45 164.692 61.09 163.892 60.37C163.112 59.63 162.722 58.59 162.722 57.25V49.18H160.322V45.55H162.722V42.25C164.162 42.01 165.562 41.83 166.922 41.71V45.55H170.822V49.18H166.922V56.47C166.922 57.33 167.402 57.76 168.362 57.76C168.922 57.76 169.562 57.63 170.282 57.37L171.212 60.55C169.932 61.15 168.612 61.45 167.252 61.45ZM174.269 61V39.1H178.499V47.8C179.139 46.86 179.859 46.18 180.659 45.76C181.459 45.34 182.369 45.13 183.389 45.13C185.049 45.13 186.349 45.63 187.289 46.63C188.229 47.61 188.699 48.98 188.699 50.74V61H184.469V51.4C184.469 50.58 184.269 49.95 183.869 49.51C183.469 49.07 182.929 48.85 182.249 48.85C181.489 48.85 180.769 49.11 180.089 49.63C179.429 50.15 178.899 50.82 178.499 51.64V61H174.269ZM199.959 61.45C197.479 61.45 195.519 60.73 194.079 59.29C192.639 57.85 191.919 55.85 191.919 53.29C191.919 51.61 192.229 50.16 192.849 48.94C193.469 47.72 194.339 46.78 195.459 46.12C196.599 45.46 197.929 45.13 199.449 45.13C201.689 45.13 203.409 45.85 204.609 47.29C205.809 48.73 206.409 50.81 206.409 53.53C206.409 53.71 206.409 53.89 206.409 54.07C206.409 54.23 206.399 54.39 206.379 54.55H196.179C196.579 56.71 198.009 57.79 200.469 57.79C201.229 57.79 201.999 57.7 202.779 57.52C203.579 57.32 204.279 57.06 204.879 56.74L205.569 60.13C203.909 61.01 202.039 61.45 199.959 61.45ZM196.149 51.37H202.359C202.299 50.51 201.999 49.83 201.459 49.33C200.919 48.81 200.199 48.55 199.299 48.55C198.439 48.55 197.729 48.8 197.169 49.3C196.629 49.8 196.289 50.49 196.149 51.37ZM215.849 61V41.02C216.289 41 216.789 40.99 217.349 40.99C217.929 40.99 218.529 40.99 219.149 40.99C219.769 40.99 220.369 40.99 220.949 40.99C221.529 40.99 222.039 41 222.479 41.02C224.519 41.06 226.129 41.61 227.309 42.67C228.509 43.71 229.109 45.18 229.109 47.08C229.109 48.44 228.799 49.63 228.179 50.65C227.579 51.67 226.739 52.46 225.659 53.02C224.599 53.58 223.369 53.86 221.969 53.86H220.019V61H215.849ZM220.019 50.32H221.789C222.769 50.32 223.529 50.04 224.069 49.48C224.629 48.92 224.909 48.16 224.909 47.2C224.909 45.44 223.939 44.56 221.999 44.56H220.019V50.32ZM232.256 61V45.55H236.486V48.07H236.726C237.246 47.15 237.786 46.43 238.346 45.91C238.926 45.37 239.676 45.1 240.596 45.1C240.956 45.1 241.256 45.14 241.496 45.22L241.046 49.78C240.826 49.72 240.616 49.67 240.416 49.63C240.216 49.59 240.006 49.57 239.786 49.57C239.046 49.57 238.456 49.79 238.016 50.23C237.576 50.65 237.066 51.22 236.486 51.94V61H232.256ZM250.821 61.45C249.241 61.45 247.861 61.11 246.681 60.43C245.501 59.75 244.581 58.8 243.921 57.58C243.261 56.36 242.931 54.93 242.931 53.29C242.931 51.65 243.261 50.22 243.921 49C244.581 47.78 245.501 46.83 246.681 46.15C247.861 45.47 249.231 45.13 250.791 45.13C252.371 45.13 253.741 45.47 254.901 46.15C256.081 46.81 257.001 47.75 257.661 48.97C258.321 50.17 258.651 51.58 258.651 53.2C258.651 54.84 258.321 56.28 257.661 57.52C257.021 58.76 256.111 59.73 254.931 60.43C253.751 61.11 252.381 61.45 250.821 61.45ZM250.791 57.79C251.871 57.79 252.731 57.38 253.371 56.56C254.031 55.72 254.361 54.62 254.361 53.26C254.361 51.9 254.031 50.82 253.371 50.02C252.731 49.2 251.871 48.79 250.791 48.79C249.711 48.79 248.841 49.2 248.181 50.02C247.541 50.82 247.221 51.9 247.221 53.26C247.221 54.62 247.541 55.72 248.181 56.56C248.841 57.38 249.711 57.79 250.791 57.79ZM267.516 61.45C266.716 61.45 265.826 61.38 264.846 61.24C263.866 61.12 262.866 60.95 261.846 60.73V39.1H266.016V47.05C267.196 45.77 268.646 45.13 270.366 45.13C272.146 45.13 273.526 45.8 274.506 47.14C275.506 48.46 276.006 50.31 276.006 52.69C276.006 55.53 275.276 57.7 273.816 59.2C272.356 60.7 270.256 61.45 267.516 61.45ZM267.966 57.76C270.506 57.76 271.776 56.15 271.776 52.93C271.776 51.63 271.566 50.62 271.146 49.9C270.726 49.18 270.116 48.82 269.316 48.82C268.016 48.82 266.916 49.7 266.016 51.46V57.49C266.336 57.57 266.666 57.64 267.006 57.7C267.346 57.74 267.666 57.76 267.966 57.76ZM277.945 61V57.37H280.675V42.7H278.095V39.1H284.905V57.37H287.635V61H277.945ZM297.41 61.45C294.93 61.45 292.97 60.73 291.53 59.29C290.09 57.85 289.37 55.85 289.37 53.29C289.37 51.61 289.68 50.16 290.3 48.94C290.92 47.72 291.79 46.78 292.91 46.12C294.05 45.46 295.38 45.13 296.9 45.13C299.14 45.13 300.86 45.85 302.06 47.29C303.26 48.73 303.86 50.81 303.86 53.53C303.86 53.71 303.86 53.89 303.86 54.07C303.86 54.23 303.85 54.39 303.83 54.55H293.63C294.03 56.71 295.46 57.79 297.92 57.79C298.68 57.79 299.45 57.7 300.23 57.52C301.03 57.32 301.73 57.06 302.33 56.74L303.02 60.13C301.36 61.01 299.49 61.45 297.41 61.45ZM293.6 51.37H299.81C299.75 50.51 299.45 49.83 298.91 49.33C298.37 48.81 297.65 48.55 296.75 48.55C295.89 48.55 295.18 48.8 294.62 49.3C294.08 49.8 293.74 50.49 293.6 51.37ZM307.085 61V45.55H311.225V47.95C312.445 46.07 314.095 45.13 316.175 45.13C317.355 45.13 318.355 45.41 319.175 45.97C320.015 46.53 320.625 47.31 321.005 48.31C321.705 47.21 322.485 46.41 323.345 45.91C324.225 45.39 325.225 45.13 326.345 45.13C328.005 45.13 329.295 45.63 330.215 46.63C331.155 47.61 331.625 48.98 331.625 50.74V61H327.395V51.4C327.395 50.58 327.195 49.95 326.795 49.51C326.415 49.07 325.895 48.85 325.235 48.85C324.395 48.85 323.625 49.19 322.925 49.87C322.245 50.55 321.735 51.42 321.395 52.48V61H317.165V51.4C317.165 50.6 316.965 49.98 316.565 49.54C316.165 49.08 315.635 48.85 314.975 48.85C314.255 48.85 313.565 49.13 312.905 49.69C312.245 50.23 311.715 51 311.315 52V61H307.085Z" fill="white"/>
<path fill-rule="evenodd" clip-rule="evenodd" d="M387.182 44.5009C387.994 43.7934 389.259 43.8411 390.008 44.6077L396.47 51.2187C397.177 51.9423 397.177 53.0575 396.47 53.7811L390.008 60.3923C389.259 61.1588 387.994 61.2067 387.182 60.4991C386.37 59.7915 386.32 58.5965 387.069 57.8299L390.432 54.3888L371 54.3888C369.895 54.3888 369 53.5431 369 52.4999C369 51.4567 369.895 50.611 371 50.611L390.432 50.611L387.069 47.1701C386.32 46.4036 386.37 45.2085 387.182 44.5009Z" fill="white"/>
</svg>
