<svg width="447" height="105" viewBox="0 0 447 105" fill="none" xmlns="http://www.w3.org/2000/svg">
<rect y="1" width="447" height="103" rx="45" fill="#BD5906"/>
<path d="M97.1407 61.39C95.9607 61.39 94.8407 61.26 93.7807 61C92.7407 60.74 91.8507 60.39 91.1107 59.95L91.4707 55.93C92.3707 56.49 93.3107 56.93 94.2907 57.25C95.2907 57.55 96.2107 57.7 97.0507 57.7C98.0107 57.7 98.7907 57.5 99.3907 57.1C99.9907 56.7 100.291 56.17 100.291 55.51C100.291 55.03 100.141 54.66 99.8407 54.4C99.5407 54.12 99.1507 53.88 98.6707 53.68C98.1907 53.48 97.6607 53.26 97.0807 53.02C96.4207 52.74 95.7407 52.45 95.0407 52.15C94.3607 51.85 93.7207 51.49 93.1207 51.07C92.5407 50.63 92.0607 50.07 91.6807 49.39C91.3207 48.71 91.1407 47.85 91.1407 46.81C91.1407 44.91 91.7907 43.41 93.0907 42.31C94.3907 41.19 96.2007 40.63 98.5207 40.63C100.301 40.63 102.101 40.99 103.921 41.71L103.261 45.67C102.521 45.25 101.721 44.92 100.861 44.68C100.021 44.44 99.2207 44.32 98.4607 44.32C97.5207 44.32 96.7907 44.51 96.2707 44.89C95.7507 45.25 95.4907 45.74 95.4907 46.36C95.4907 46.94 95.7007 47.39 96.1207 47.71C96.5607 48.01 97.1107 48.3 97.7707 48.58C98.4307 48.86 99.1507 49.15 99.9307 49.45C100.731 49.73 101.481 50.1 102.181 50.56C102.901 51 103.491 51.6 103.951 52.36C104.411 53.1 104.641 54.06 104.641 55.24C104.641 57.18 103.981 58.69 102.661 59.77C101.361 60.85 99.5207 61.39 97.1407 61.39ZM115.291 61.45C112.811 61.45 110.851 60.73 109.411 59.29C107.971 57.85 107.251 55.85 107.251 53.29C107.251 51.61 107.561 50.16 108.181 48.94C108.801 47.72 109.671 46.78 110.791 46.12C111.931 45.46 113.261 45.13 114.781 45.13C117.021 45.13 118.741 45.85 119.941 47.29C121.141 48.73 121.741 50.81 121.741 53.53C121.741 53.71 121.741 53.89 121.741 54.07C121.741 54.23 121.731 54.39 121.711 54.55H111.511C111.911 56.71 113.341 57.79 115.801 57.79C116.561 57.79 117.331 57.7 118.111 57.52C118.911 57.32 119.611 57.06 120.211 56.74L120.901 60.13C119.241 61.01 117.371 61.45 115.291 61.45ZM111.481 51.37H117.691C117.631 50.51 117.331 49.83 116.791 49.33C116.251 48.81 115.531 48.55 114.631 48.55C113.771 48.55 113.061 48.8 112.501 49.3C111.961 49.8 111.621 50.49 111.481 51.37ZM132.402 61.45C129.922 61.45 127.962 60.73 126.522 59.29C125.082 57.85 124.362 55.85 124.362 53.29C124.362 51.61 124.672 50.16 125.292 48.94C125.912 47.72 126.782 46.78 127.902 46.12C129.042 45.46 130.372 45.13 131.892 45.13C134.132 45.13 135.852 45.85 137.052 47.29C138.252 48.73 138.852 50.81 138.852 53.53C138.852 53.71 138.852 53.89 138.852 54.07C138.852 54.23 138.842 54.39 138.822 54.55H128.622C129.022 56.71 130.452 57.79 132.912 57.79C133.672 57.79 134.442 57.7 135.222 57.52C136.022 57.32 136.722 57.06 137.322 56.74L138.012 60.13C136.352 61.01 134.482 61.45 132.402 61.45ZM128.592 51.37H134.802C134.742 50.51 134.442 49.83 133.902 49.33C133.362 48.81 132.642 48.55 131.742 48.55C130.882 48.55 130.172 48.8 129.612 49.3C129.072 49.8 128.732 50.49 128.592 51.37ZM157.322 61.39C155.342 61.39 153.602 60.96 152.102 60.1C150.622 59.24 149.462 58.04 148.622 56.5C147.802 54.94 147.392 53.14 147.392 51.1C147.392 49.02 147.802 47.21 148.622 45.67C149.462 44.13 150.622 42.93 152.102 42.07C153.602 41.21 155.342 40.78 157.322 40.78C159.302 40.78 161.032 41.21 162.512 42.07C164.012 42.91 165.172 44.1 165.992 45.64C166.812 47.16 167.222 48.94 167.222 50.98C167.222 53.06 166.812 54.88 165.992 56.44C165.172 58 164.012 59.22 162.512 60.1C161.032 60.96 159.302 61.39 157.322 61.39ZM157.322 57.58C158.982 57.58 160.302 56.99 161.282 55.81C162.262 54.63 162.752 53.06 162.752 51.1C162.752 49.8 162.522 48.66 162.062 47.68C161.622 46.7 160.992 45.94 160.172 45.4C159.352 44.86 158.402 44.6 157.322 44.62C156.242 44.6 155.292 44.86 154.472 45.4C153.672 45.94 153.042 46.7 152.582 47.68C152.122 48.66 151.892 49.8 151.892 51.1C151.892 52.4 152.112 53.54 152.552 54.52C153.012 55.48 153.652 56.23 154.472 56.77C155.292 57.31 156.242 57.58 157.322 57.58ZM175.568 61.42C173.928 61.42 172.638 60.92 171.698 59.92C170.758 58.9 170.288 57.53 170.288 55.81V45.55H174.518V55.12C174.518 55.94 174.718 56.58 175.118 57.04C175.518 57.48 176.058 57.7 176.738 57.7C177.438 57.7 178.098 57.48 178.718 57.04C179.338 56.6 179.858 56.01 180.278 55.27V45.55H184.508V61H180.278V58.96C179.758 59.66 179.128 60.25 178.388 60.73C177.648 61.19 176.708 61.42 175.568 61.42ZM188.547 61V45.55H192.777V48.07H193.017C193.537 47.15 194.077 46.43 194.637 45.91C195.217 45.37 195.967 45.1 196.887 45.1C197.247 45.1 197.547 45.14 197.787 45.22L197.337 49.78C197.117 49.72 196.907 49.67 196.707 49.63C196.507 49.59 196.297 49.57 196.077 49.57C195.337 49.57 194.747 49.79 194.307 50.23C193.867 50.65 193.357 51.22 192.777 51.94V61H188.547ZM206.716 61V41.02C207.156 41 207.656 40.99 208.216 40.99C208.796 40.99 209.396 40.99 210.016 40.99C210.636 40.99 211.236 40.99 211.816 40.99C212.396 40.99 212.906 41 213.346 41.02C215.386 41.06 216.996 41.61 218.176 42.67C219.376 43.71 219.976 45.18 219.976 47.08C219.976 48.44 219.666 49.63 219.046 50.65C218.446 51.67 217.606 52.46 216.526 53.02C215.466 53.58 214.236 53.86 212.836 53.86H210.886V61H206.716ZM210.886 50.32H212.656C213.636 50.32 214.396 50.04 214.936 49.48C215.496 48.92 215.776 48.16 215.776 47.2C215.776 45.44 214.806 44.56 212.866 44.56H210.886V50.32ZM223.122 61V45.55H227.352V48.07H227.592C228.112 47.15 228.652 46.43 229.212 45.91C229.792 45.37 230.542 45.1 231.462 45.1C231.822 45.1 232.122 45.14 232.362 45.22L231.912 49.78C231.692 49.72 231.482 49.67 231.282 49.63C231.082 49.59 230.872 49.57 230.652 49.57C229.912 49.57 229.322 49.79 228.882 50.23C228.442 50.65 227.932 51.22 227.352 51.94V61H223.122ZM241.687 61.45C240.107 61.45 238.727 61.11 237.547 60.43C236.367 59.75 235.447 58.8 234.787 57.58C234.127 56.36 233.797 54.93 233.797 53.29C233.797 51.65 234.127 50.22 234.787 49C235.447 47.78 236.367 46.83 237.547 46.15C238.727 45.47 240.097 45.13 241.657 45.13C243.237 45.13 244.607 45.47 245.767 46.15C246.947 46.81 247.867 47.75 248.527 48.97C249.187 50.17 249.517 51.58 249.517 53.2C249.517 54.84 249.187 56.28 248.527 57.52C247.887 58.76 246.977 59.73 245.797 60.43C244.617 61.11 243.247 61.45 241.687 61.45ZM241.657 57.79C242.737 57.79 243.597 57.38 244.237 56.56C244.897 55.72 245.227 54.62 245.227 53.26C245.227 51.9 244.897 50.82 244.237 50.02C243.597 49.2 242.737 48.79 241.657 48.79C240.577 48.79 239.707 49.2 239.047 50.02C238.407 50.82 238.087 51.9 238.087 53.26C238.087 54.62 238.407 55.72 239.047 56.56C239.707 57.38 240.577 57.79 241.657 57.79ZM260.059 61.45C257.499 61.45 255.509 60.77 254.089 59.41C252.689 58.05 251.989 56.13 251.989 53.65C251.989 51.95 252.319 50.46 252.979 49.18C253.639 47.9 254.569 46.91 255.769 46.21C256.969 45.49 258.359 45.13 259.939 45.13C260.699 45.13 261.479 45.22 262.279 45.4C263.079 45.56 263.699 45.75 264.139 45.97L263.329 49.54C262.869 49.32 262.359 49.15 261.799 49.03C261.239 48.89 260.729 48.82 260.269 48.82C259.049 48.82 258.059 49.24 257.299 50.08C256.539 50.92 256.159 52.03 256.159 53.41C256.159 54.81 256.549 55.89 257.329 56.65C258.109 57.41 259.199 57.79 260.599 57.79C261.539 57.79 262.549 57.61 263.629 57.25L264.259 60.67C263.579 60.93 262.889 61.12 262.189 61.24C261.509 61.38 260.799 61.45 260.059 61.45ZM274.477 61.45C271.997 61.45 270.037 60.73 268.597 59.29C267.157 57.85 266.437 55.85 266.437 53.29C266.437 51.61 266.747 50.16 267.367 48.94C267.987 47.72 268.857 46.78 269.977 46.12C271.117 45.46 272.447 45.13 273.967 45.13C276.207 45.13 277.927 45.85 279.127 47.29C280.327 48.73 280.927 50.81 280.927 53.53C280.927 53.71 280.927 53.89 280.927 54.07C280.927 54.23 280.917 54.39 280.897 54.55H270.697C271.097 56.71 272.527 57.79 274.987 57.79C275.747 57.79 276.517 57.7 277.297 57.52C278.097 57.32 278.797 57.06 279.397 56.74L280.087 60.13C278.427 61.01 276.557 61.45 274.477 61.45ZM270.667 51.37H276.877C276.817 50.51 276.517 49.83 275.977 49.33C275.437 48.81 274.717 48.55 273.817 48.55C272.957 48.55 272.247 48.8 271.687 49.3C271.147 49.8 270.807 50.49 270.667 51.37ZM288.621 61.45C287.641 61.45 286.691 61.35 285.771 61.15C284.871 60.95 284.101 60.68 283.461 60.34L283.851 56.74C284.531 57.16 285.281 57.5 286.101 57.76C286.921 58.02 287.691 58.15 288.411 58.15C289.051 58.15 289.611 58.03 290.091 57.79C290.571 57.55 290.811 57.18 290.811 56.68C290.811 56.2 290.551 55.85 290.031 55.63C289.531 55.41 288.751 55.1 287.691 54.7C287.291 54.54 286.841 54.36 286.341 54.16C285.861 53.96 285.401 53.7 284.961 53.38C284.521 53.04 284.161 52.61 283.881 52.09C283.601 51.55 283.461 50.88 283.461 50.08C283.461 49 283.731 48.1 284.271 47.38C284.831 46.64 285.591 46.08 286.551 45.7C287.511 45.32 288.591 45.13 289.791 45.13C290.611 45.13 291.411 45.21 292.191 45.37C292.991 45.53 293.751 45.74 294.471 46L293.901 49.57C293.321 49.23 292.661 48.96 291.921 48.76C291.201 48.54 290.521 48.43 289.881 48.43C289.261 48.43 288.741 48.54 288.321 48.76C287.921 48.96 287.721 49.28 287.721 49.72C287.721 50.08 287.861 50.37 288.141 50.59C288.421 50.79 288.801 50.97 289.281 51.13C289.761 51.27 290.291 51.46 290.871 51.7C291.451 51.92 292.061 52.2 292.701 52.54C293.361 52.88 293.921 53.36 294.381 53.98C294.841 54.6 295.071 55.45 295.071 56.53C295.071 57.67 294.781 58.61 294.201 59.35C293.641 60.07 292.871 60.6 291.891 60.94C290.931 61.28 289.841 61.45 288.621 61.45ZM302.597 61.45C301.617 61.45 300.667 61.35 299.747 61.15C298.847 60.95 298.077 60.68 297.437 60.34L297.827 56.74C298.507 57.16 299.257 57.5 300.077 57.76C300.897 58.02 301.667 58.15 302.387 58.15C303.027 58.15 303.587 58.03 304.067 57.79C304.547 57.55 304.787 57.18 304.787 56.68C304.787 56.2 304.527 55.85 304.007 55.63C303.507 55.41 302.727 55.1 301.667 54.7C301.267 54.54 300.817 54.36 300.317 54.16C299.837 53.96 299.377 53.7 298.937 53.38C298.497 53.04 298.137 52.61 297.857 52.09C297.577 51.55 297.437 50.88 297.437 50.08C297.437 49 297.707 48.1 298.247 47.38C298.807 46.64 299.567 46.08 300.527 45.7C301.487 45.32 302.567 45.13 303.767 45.13C304.587 45.13 305.387 45.21 306.167 45.37C306.967 45.53 307.727 45.74 308.447 46L307.877 49.57C307.297 49.23 306.637 48.96 305.897 48.76C305.177 48.54 304.497 48.43 303.857 48.43C303.237 48.43 302.717 48.54 302.297 48.76C301.897 48.96 301.697 49.28 301.697 49.72C301.697 50.08 301.837 50.37 302.117 50.59C302.397 50.79 302.777 50.97 303.257 51.13C303.737 51.27 304.267 51.46 304.847 51.7C305.427 51.92 306.037 52.2 306.677 52.54C307.337 52.88 307.897 53.36 308.357 53.98C308.817 54.6 309.047 55.45 309.047 56.53C309.047 57.67 308.757 58.61 308.177 59.35C307.617 60.07 306.847 60.6 305.867 60.94C304.907 61.28 303.817 61.45 302.597 61.45Z" fill="white"/>
<path fill-rule="evenodd" clip-rule="evenodd" d="M355.182 44.5009C355.994 43.7934 357.259 43.8411 358.008 44.6077L364.47 51.2187C365.177 51.9423 365.177 53.0575 364.47 53.7811L358.008 60.3923C357.259 61.1588 355.994 61.2067 355.182 60.4991C354.37 59.7915 354.32 58.5965 355.069 57.8299L358.432 54.3888L339 54.3888C337.895 54.3888 337 53.5431 337 52.4999C337 51.4567 337.895 50.611 339 50.611L358.432 50.611L355.069 47.1701C354.32 46.4036 354.37 45.2085 355.182 44.5009Z" fill="white"/>
</svg>
