<svg width="447" height="105" viewBox="0 0 447 105" fill="none" xmlns="http://www.w3.org/2000/svg">
<rect y="1" width="447" height="103" rx="45" fill="#107C94"/>
<path fill-rule="evenodd" clip-rule="evenodd" d="M375.182 44.5009C375.994 43.7934 377.259 43.8411 378.008 44.6077L384.47 51.2187C385.177 51.9423 385.177 53.0575 384.47 53.7811L378.008 60.3923C377.259 61.1588 375.994 61.2067 375.182 60.4991C374.37 59.7915 374.32 58.5965 375.069 57.8299L378.432 54.3888L359 54.3888C357.895 54.3888 357 53.5431 357 52.4999C357 51.4567 357.895 50.611 359 50.611L378.432 50.611L375.069 47.1701C374.32 46.4036 374.37 45.2085 375.182 44.5009Z" fill="white"/>
<path d="M54.1567 61.39C52.9767 61.39 51.8567 61.26 50.7967 61C49.7567 60.74 48.8667 60.39 48.1267 59.95L48.4867 55.93C49.3867 56.49 50.3267 56.93 51.3067 57.25C52.3067 57.55 53.2267 57.7 54.0667 57.7C55.0267 57.7 55.8067 57.5 56.4067 57.1C57.0067 56.7 57.3067 56.17 57.3067 55.51C57.3067 55.03 57.1567 54.66 56.8567 54.4C56.5567 54.12 56.1667 53.88 55.6867 53.68C55.2067 53.48 54.6767 53.26 54.0967 53.02C53.4367 52.74 52.7567 52.45 52.0567 52.15C51.3767 51.85 50.7367 51.49 50.1367 51.07C49.5567 50.63 49.0767 50.07 48.6967 49.39C48.3367 48.71 48.1567 47.85 48.1567 46.81C48.1567 44.91 48.8067 43.41 50.1067 42.31C51.4067 41.19 53.2167 40.63 55.5367 40.63C57.3167 40.63 59.1167 40.99 60.9367 41.71L60.2767 45.67C59.5367 45.25 58.7367 44.92 57.8767 44.68C57.0367 44.44 56.2367 44.32 55.4767 44.32C54.5367 44.32 53.8067 44.51 53.2867 44.89C52.7667 45.25 52.5067 45.74 52.5067 46.36C52.5067 46.94 52.7167 47.39 53.1367 47.71C53.5767 48.01 54.1267 48.3 54.7867 48.58C55.4467 48.86 56.1667 49.15 56.9467 49.45C57.7467 49.73 58.4967 50.1 59.1967 50.56C59.9167 51 60.5067 51.6 60.9667 52.36C61.4267 53.1 61.6567 54.06 61.6567 55.24C61.6567 57.18 60.9967 58.69 59.6767 59.77C58.3767 60.85 56.5367 61.39 54.1567 61.39ZM72.3071 61.45C69.8271 61.45 67.8671 60.73 66.4271 59.29C64.9871 57.85 64.2671 55.85 64.2671 53.29C64.2671 51.61 64.5771 50.16 65.1971 48.94C65.8171 47.72 66.6871 46.78 67.8071 46.12C68.9471 45.46 70.2771 45.13 71.7971 45.13C74.0371 45.13 75.7571 45.85 76.9571 47.29C78.1571 48.73 78.7571 50.81 78.7571 53.53C78.7571 53.71 78.7571 53.89 78.7571 54.07C78.7571 54.23 78.7471 54.39 78.7271 54.55H68.5271C68.9271 56.71 70.3571 57.79 72.8171 57.79C73.5771 57.79 74.3471 57.7 75.1271 57.52C75.9271 57.32 76.6271 57.06 77.2271 56.74L77.9171 60.13C76.2571 61.01 74.3871 61.45 72.3071 61.45ZM68.4971 51.37H74.7071C74.6471 50.51 74.3471 49.83 73.8071 49.33C73.2671 48.81 72.5471 48.55 71.6471 48.55C70.7871 48.55 70.0771 48.8 69.5171 49.3C68.9771 49.8 68.6371 50.49 68.4971 51.37ZM89.4179 61.45C86.9379 61.45 84.9779 60.73 83.5379 59.29C82.0979 57.85 81.3779 55.85 81.3779 53.29C81.3779 51.61 81.6879 50.16 82.3079 48.94C82.9279 47.72 83.7979 46.78 84.9179 46.12C86.0579 45.46 87.3879 45.13 88.9079 45.13C91.1479 45.13 92.8679 45.85 94.0679 47.29C95.2679 48.73 95.8679 50.81 95.8679 53.53C95.8679 53.71 95.8679 53.89 95.8679 54.07C95.8679 54.23 95.8579 54.39 95.8379 54.55H85.6379C86.0379 56.71 87.4679 57.79 89.9279 57.79C90.6879 57.79 91.4579 57.7 92.2379 57.52C93.0379 57.32 93.7379 57.06 94.3379 56.74L95.0279 60.13C93.3679 61.01 91.4979 61.45 89.4179 61.45ZM85.6079 51.37H91.8179C91.7579 50.51 91.4579 49.83 90.9179 49.33C90.3779 48.81 89.6579 48.55 88.7579 48.55C87.8979 48.55 87.1879 48.8 86.6279 49.3C86.0879 49.8 85.7479 50.49 85.6079 51.37ZM110.828 61.45C109.388 61.45 108.268 61.09 107.468 60.37C106.688 59.63 106.298 58.59 106.298 57.25V49.18H103.898V45.55H106.298V42.25C107.738 42.01 109.138 41.83 110.498 41.71V45.55H114.398V49.18H110.498V56.47C110.498 57.33 110.978 57.76 111.938 57.76C112.498 57.76 113.138 57.63 113.858 57.37L114.788 60.55C113.508 61.15 112.188 61.45 110.828 61.45ZM117.845 61V39.1H122.075V47.8C122.715 46.86 123.435 46.18 124.235 45.76C125.035 45.34 125.945 45.13 126.965 45.13C128.625 45.13 129.925 45.63 130.865 46.63C131.805 47.61 132.275 48.98 132.275 50.74V61H128.045V51.4C128.045 50.58 127.845 49.95 127.445 49.51C127.045 49.07 126.505 48.85 125.825 48.85C125.065 48.85 124.345 49.11 123.665 49.63C123.005 50.15 122.475 50.82 122.075 51.64V61H117.845ZM143.535 61.45C141.055 61.45 139.095 60.73 137.655 59.29C136.215 57.85 135.495 55.85 135.495 53.29C135.495 51.61 135.805 50.16 136.425 48.94C137.045 47.72 137.915 46.78 139.035 46.12C140.175 45.46 141.505 45.13 143.025 45.13C145.265 45.13 146.985 45.85 148.185 47.29C149.385 48.73 149.985 50.81 149.985 53.53C149.985 53.71 149.985 53.89 149.985 54.07C149.985 54.23 149.975 54.39 149.955 54.55H139.755C140.155 56.71 141.585 57.79 144.045 57.79C144.805 57.79 145.575 57.7 146.355 57.52C147.155 57.32 147.855 57.06 148.455 56.74L149.145 60.13C147.485 61.01 145.615 61.45 143.535 61.45ZM139.725 51.37H145.935C145.875 50.51 145.575 49.83 145.035 49.33C144.495 48.81 143.775 48.55 142.875 48.55C142.015 48.55 141.305 48.8 140.745 49.3C140.205 49.8 139.865 50.49 139.725 51.37ZM159.425 61V41.02H171.635V44.8H163.775V49.36H170.285V53.11H163.775V61H159.425ZM176.34 43V39.1H181.17V43H176.34ZM174 61V57.37H176.88V49.18H174V45.55H181.11V57.37H183.69V61H174ZM186.553 61V45.55H190.693V48.22C191.333 47.14 192.073 46.36 192.913 45.88C193.773 45.38 194.753 45.13 195.853 45.13C197.513 45.13 198.813 45.63 199.753 46.63C200.693 47.61 201.163 48.98 201.163 50.74V61H196.933V51.4C196.933 50.58 196.733 49.95 196.333 49.51C195.933 49.07 195.393 48.85 194.713 48.85C193.893 48.85 193.123 49.16 192.403 49.78C191.703 50.38 191.163 51.13 190.783 52.03V61H186.553ZM209.599 61.45C208.019 61.45 206.749 60.78 205.789 59.44C204.849 58.08 204.379 56.22 204.379 53.86C204.379 51.02 205.099 48.86 206.539 47.38C207.979 45.88 210.049 45.13 212.749 45.13C214.269 45.13 216.049 45.37 218.089 45.85V61H214.069L214.159 58.54H214.039C212.999 60.48 211.519 61.45 209.599 61.45ZM210.499 57.76C211.159 57.76 211.789 57.41 212.389 56.71C212.989 56.01 213.529 55.15 214.009 54.13V49.09C213.689 48.99 213.359 48.92 213.019 48.88C212.679 48.84 212.369 48.82 212.089 48.82C209.669 48.82 208.459 50.44 208.459 53.68C208.459 54.94 208.639 55.94 208.999 56.68C209.359 57.4 209.859 57.76 210.499 57.76ZM221.052 61V57.37H223.782V42.7H221.202V39.1H228.012V57.37H230.742V61H221.052ZM242.945 61.03C242.405 61.03 241.865 61.03 241.325 61.03C240.805 61.03 240.285 61.02 239.765 61V41.02C240.405 41 241.045 40.99 241.685 40.99C242.325 40.99 242.955 40.99 243.575 40.99C244.215 40.99 244.855 40.99 245.495 40.99C246.135 40.99 246.765 41 247.385 41.02C249.365 41.04 251.075 41.44 252.515 42.22C253.955 42.98 255.065 44.07 255.845 45.49C256.645 46.89 257.045 48.55 257.045 50.47C257.045 52.57 256.585 54.41 255.665 55.99C254.765 57.55 253.495 58.77 251.855 59.65C250.215 60.51 248.295 60.96 246.095 61C245.575 61.02 245.045 61.03 244.505 61.03C243.985 61.03 243.465 61.03 242.945 61.03ZM244.115 57.22H246.065C248.085 57.22 249.675 56.63 250.835 55.45C251.995 54.27 252.575 52.65 252.575 50.59C252.575 48.73 252.075 47.3 251.075 46.3C250.095 45.3 248.675 44.8 246.815 44.8H244.115V57.22ZM267.766 61.45C265.286 61.45 263.326 60.73 261.886 59.29C260.446 57.85 259.726 55.85 259.726 53.29C259.726 51.61 260.036 50.16 260.656 48.94C261.276 47.72 262.146 46.78 263.266 46.12C264.406 45.46 265.736 45.13 267.256 45.13C269.496 45.13 271.216 45.85 272.416 47.29C273.616 48.73 274.216 50.81 274.216 53.53C274.216 53.71 274.216 53.89 274.216 54.07C274.216 54.23 274.206 54.39 274.186 54.55H263.986C264.386 56.71 265.816 57.79 268.276 57.79C269.036 57.79 269.806 57.7 270.586 57.52C271.386 57.32 272.086 57.06 272.686 56.74L273.376 60.13C271.716 61.01 269.846 61.45 267.766 61.45ZM263.956 51.37H270.166C270.106 50.51 269.806 49.83 269.266 49.33C268.726 48.81 268.006 48.55 267.106 48.55C266.246 48.55 265.536 48.8 264.976 49.3C264.436 49.8 264.096 50.49 263.956 51.37ZM281.911 61.45C280.931 61.45 279.981 61.35 279.061 61.15C278.161 60.95 277.391 60.68 276.751 60.34L277.141 56.74C277.821 57.16 278.571 57.5 279.391 57.76C280.211 58.02 280.981 58.15 281.701 58.15C282.341 58.15 282.901 58.03 283.381 57.79C283.861 57.55 284.101 57.18 284.101 56.68C284.101 56.2 283.841 55.85 283.321 55.63C282.821 55.41 282.041 55.1 280.981 54.7C280.581 54.54 280.131 54.36 279.631 54.16C279.151 53.96 278.691 53.7 278.251 53.38C277.811 53.04 277.451 52.61 277.171 52.09C276.891 51.55 276.751 50.88 276.751 50.08C276.751 49 277.021 48.1 277.561 47.38C278.121 46.64 278.881 46.08 279.841 45.7C280.801 45.32 281.881 45.13 283.081 45.13C283.901 45.13 284.701 45.21 285.481 45.37C286.281 45.53 287.041 45.74 287.761 46L287.191 49.57C286.611 49.23 285.951 48.96 285.211 48.76C284.491 48.54 283.811 48.43 283.171 48.43C282.551 48.43 282.031 48.54 281.611 48.76C281.211 48.96 281.011 49.28 281.011 49.72C281.011 50.08 281.151 50.37 281.431 50.59C281.711 50.79 282.091 50.97 282.571 51.13C283.051 51.27 283.581 51.46 284.161 51.7C284.741 51.92 285.351 52.2 285.991 52.54C286.651 52.88 287.211 53.36 287.671 53.98C288.131 54.6 288.361 55.45 288.361 56.53C288.361 57.67 288.071 58.61 287.491 59.35C286.931 60.07 286.161 60.6 285.181 60.94C284.221 61.28 283.131 61.45 281.911 61.45ZM293.217 43V39.1H298.047V43H293.217ZM290.877 61V57.37H293.757V49.18H290.877V45.55H297.987V57.37H300.567V61H290.877ZM308.44 67.81C307.72 67.81 306.9 67.76 305.98 67.66C305.08 67.56 304.16 67.38 303.22 67.12L304.03 63.4C304.85 63.64 305.66 63.84 306.46 64C307.26 64.16 308.05 64.24 308.83 64.24C309.87 64.24 310.66 64.07 311.2 63.73C311.76 63.41 312.15 62.9 312.37 62.2C312.59 61.5 312.72 60.59 312.76 59.47H312.67C311.53 60.79 310.07 61.45 308.29 61.45C306.53 61.45 305.15 60.79 304.15 59.47C303.17 58.13 302.68 56.28 302.68 53.92C302.68 51.06 303.42 48.88 304.9 47.38C306.38 45.88 308.48 45.13 311.2 45.13C312.02 45.13 312.91 45.2 313.87 45.34C314.83 45.46 315.82 45.63 316.84 45.85C316.86 47.39 316.87 48.94 316.87 50.5C316.89 52.06 316.9 53.61 316.9 55.15C316.9 55.85 316.9 56.55 316.9 57.25C316.9 57.95 316.89 58.65 316.87 59.35C316.83 62.19 316.12 64.31 314.74 65.71C313.36 67.11 311.26 67.81 308.44 67.81ZM309.4 57.76C310.04 57.76 310.63 57.53 311.17 57.07C311.73 56.59 312.23 55.94 312.67 55.12V49.09C312.01 48.91 311.37 48.82 310.75 48.82C309.47 48.82 308.51 49.23 307.87 50.05C307.23 50.87 306.91 52.06 306.91 53.62C306.91 54.92 307.12 55.94 307.54 56.68C307.98 57.4 308.6 57.76 309.4 57.76ZM320.804 61V45.55H324.944V48.22C325.584 47.14 326.324 46.36 327.164 45.88C328.024 45.38 329.004 45.13 330.104 45.13C331.764 45.13 333.064 45.63 334.004 46.63C334.944 47.61 335.414 48.98 335.414 50.74V61H331.184V51.4C331.184 50.58 330.984 49.95 330.584 49.51C330.184 49.07 329.644 48.85 328.964 48.85C328.144 48.85 327.374 49.16 326.654 49.78C325.954 50.38 325.414 51.13 325.034 52.03V61H320.804Z" fill="white"/>
</svg>
