<svg width="145" height="83" viewBox="0 0 145 83" fill="none" xmlns="http://www.w3.org/2000/svg">
<path d="M12.8155 11.4104C13.0874 10.4508 13.516 9.6698 14.1014 9.06736C14.6899 8.45363 15.3788 8.04517 16.1681 7.84199C16.9687 7.642 17.8093 7.66676 18.6898 7.91626C19.83 8.23933 20.6886 8.78141 21.2656 9.54248C21.8539 10.3068 22.1275 11.2135 22.0863 12.2629L20.4268 11.7926C20.4287 11.1834 20.2446 10.6495 19.8745 10.191C19.5157 9.73568 18.9977 9.41205 18.3203 9.22013C17.4398 8.97062 16.6422 9.0739 15.9276 9.52996C15.2162 9.97473 14.7038 10.7503 14.3903 11.8566C14.0736 12.9742 14.0999 13.9146 14.469 14.6777C14.8381 15.4408 15.463 15.9472 16.3435 16.1967C17.0208 16.3886 17.6301 16.3905 18.1712 16.2023C18.7123 16.0142 19.1507 15.6506 19.4864 15.1116L21.1458 15.5818C20.6288 16.4597 19.9162 17.0809 19.0079 17.4456C18.1029 17.7989 17.0916 17.8172 15.974 17.5005C15.0935 17.251 14.3649 16.8312 13.7882 16.2409C13.2229 15.6539 12.8506 14.9447 12.6715 14.1135C12.4924 13.2823 12.5404 12.3812 12.8155 11.4104ZM27.1103 6.95465L23.5597 19.4853L22.0188 19.0487L25.5694 6.51802L27.1103 6.95465ZM29.6996 9.5725C29.4061 9.48933 29.1865 9.31736 29.0409 9.05658C28.8952 8.7958 28.864 8.51866 28.9472 8.22514C29.0304 7.93163 29.2023 7.71207 29.4631 7.56644C29.7239 7.42082 30.001 7.38959 30.2945 7.47276C30.5768 7.55273 30.785 7.7215 30.9194 7.97908C31.065 8.23986 31.0962 8.51701 31.0131 8.81052C30.9299 9.10403 30.7579 9.3236 30.4971 9.46922C30.2476 9.61804 29.9818 9.65247 29.6996 9.5725ZM30.0176 11.2907L27.3882 20.5702L25.8473 20.1335L28.4767 10.8541L30.0176 11.2907ZM30.4196 16.3985C30.6915 15.439 31.1201 14.658 31.7054 14.0555C32.294 13.4418 32.9829 13.0334 33.7722 12.8302C34.5728 12.6302 35.4133 12.6549 36.2938 12.9044C37.434 13.2275 38.2926 13.7696 38.8697 14.5307C39.458 15.2949 39.7315 16.2017 39.6903 17.251L38.0309 16.7808C38.0327 16.1716 37.8487 15.6377 37.4786 15.1792C37.1198 14.7239 36.6017 14.4002 35.9244 14.2083C35.0439 13.9588 34.2463 14.0621 33.5317 14.5181C32.8203 14.9629 32.3078 15.7385 31.9944 16.8448C31.6777 17.9624 31.7039 18.9027 32.0731 19.6659C32.4422 20.429 33.067 20.9353 33.9476 21.1848C34.6249 21.3768 35.2341 21.3787 35.7752 21.1905C36.3164 21.0024 36.7548 20.6388 37.0904 20.0998L38.7499 20.57C38.2328 21.4479 37.5202 22.0691 36.612 22.4337C35.707 22.7871 34.6957 22.8054 33.5781 22.4887C32.6976 22.2392 31.969 21.8193 31.3923 21.2291C30.8269 20.6421 30.4547 19.9329 30.2756 19.1017C30.0965 18.2704 30.1445 17.3694 30.4196 16.3985ZM44.8044 25.5051L42.3249 20.3756L41.1638 24.4735L39.6228 24.0369L43.1734 11.5062L44.7144 11.9428L42.6272 19.3088L47.3661 16.2064L49.5166 16.8158L43.8379 20.2007L46.9042 26.1001L44.8044 25.5051ZM62.0568 24.9972C61.9736 25.2907 61.8687 25.5964 61.7421 25.9142L54.3253 23.8126C54.1226 24.743 54.23 25.5478 54.6473 26.227C55.079 26.8982 55.7013 27.3489 56.5141 27.5792C57.1802 27.7679 57.7765 27.7723 58.3032 27.5922C58.8443 27.4041 59.2787 27.0759 59.6065 26.6078L61.266 27.078C60.7649 27.8995 60.0619 28.4869 59.1569 28.8402C58.2551 29.1823 57.251 29.1965 56.1447 28.8831C55.2642 28.6335 54.5299 28.2121 53.942 27.6186C53.3653 27.0284 52.9818 26.3161 52.7914 25.4816C52.6042 24.6359 52.6465 23.7332 52.9184 22.7737C53.1903 21.8141 53.6205 21.0275 54.2091 20.4138C54.7976 19.8 55.4906 19.3988 56.288 19.2101C57.0998 19.0133 57.9573 19.0429 58.8604 19.2988C59.741 19.5483 60.4655 19.9609 61.0341 20.5367C61.6027 21.1124 61.9716 21.7901 62.1409 22.5698C62.3247 23.3414 62.2967 24.1506 62.0568 24.9972ZM60.5562 24.2245C60.7226 23.6374 60.7351 23.0983 60.5938 22.607C60.4557 22.1045 60.1913 21.682 59.8005 21.3396C59.4242 20.989 58.9651 20.737 58.4232 20.5835C57.6443 20.3627 56.9079 20.4224 56.214 20.7623C55.5314 21.1055 55.0258 21.7062 54.6973 22.5643L60.5562 24.2245ZM63.0852 25.6362C63.3539 24.6879 63.7809 23.9126 64.3663 23.3101C64.9548 22.6964 65.6381 22.2863 66.4161 22.08C67.2054 21.8768 68.0121 21.8919 68.8361 22.1254C69.6489 22.3558 70.3049 22.7307 70.8041 23.2501C71.3032 23.7696 71.6244 24.3363 71.7676 24.95L72.2474 23.2567L73.8052 23.6981L71.1759 32.9776L69.618 32.5361L70.1074 30.8089C69.6491 31.2644 69.0639 31.5864 68.3519 31.775C67.6545 31.9554 66.905 31.932 66.1035 31.7049C65.2794 31.4714 64.5919 31.0571 64.041 30.462C63.4901 29.8668 63.1267 29.148 62.9508 28.3055C62.7749 27.4629 62.8197 26.5732 63.0852 25.6362ZM70.9375 27.8795C71.1358 27.1796 71.1674 26.53 71.0323 25.9307C70.8973 25.3315 70.6254 24.8276 70.2167 24.4191C69.8226 24.0025 69.3376 23.7127 68.7619 23.5495C68.1862 23.3864 67.6228 23.3731 67.0719 23.5097C66.521 23.6463 66.0309 23.9343 65.6015 24.3736C65.1722 24.8129 64.8583 25.3825 64.66 26.0824C64.4585 26.7936 64.4237 27.4545 64.5555 28.065C64.6906 28.6643 64.9552 29.1722 65.3494 29.5888C65.7468 29.9941 66.2333 30.2783 66.8091 30.4414C67.3848 30.6046 67.9481 30.6178 68.499 30.4812C69.0644 30.3366 69.5618 30.0446 69.9911 29.6052C70.4237 29.1546 70.7392 28.5794 70.9375 27.8795ZM74.185 28.7997C74.4569 27.8401 74.8855 27.0591 75.4708 26.4567C76.0594 25.8429 76.7483 25.4345 77.5376 25.2313C78.3382 25.0313 79.1787 25.0561 80.0593 25.3056C81.1994 25.6286 82.058 26.1707 82.6351 26.9318C83.2234 27.6961 83.497 28.6028 83.4557 29.6522L81.7963 29.1819C81.7982 28.5727 81.6141 28.0388 81.244 27.5803C80.8852 27.125 80.3671 26.8014 79.6898 26.6094C78.8093 26.3599 78.0117 26.4632 77.2971 26.9193C76.5857 27.364 76.0733 28.1396 75.7598 29.2459C75.4431 30.3635 75.4693 31.3039 75.8385 32.067C76.2076 32.8301 76.8324 33.3365 77.713 33.586C78.3903 33.7779 78.9995 33.7798 79.5406 33.5916C80.0818 33.4035 80.5202 33.0399 80.8558 32.5009L82.5153 32.9711C81.9982 33.849 81.2856 34.4702 80.3774 34.8349C79.4724 35.1882 78.4611 35.2065 77.3435 34.8898C76.463 34.6403 75.7344 34.2205 75.1577 33.6302C74.5923 33.0432 74.2201 32.334 74.041 31.5028C73.8619 30.6715 73.9099 29.7705 74.185 28.7997ZM90.6715 28.2943C91.3714 28.4926 91.9604 28.8241 92.4384 29.2889C92.9197 29.7423 93.2336 30.313 93.3802 31.0009C93.538 31.6919 93.4954 32.4665 93.2523 33.3244L91.7025 38.7939L90.1785 38.362L91.6659 33.1127C91.9282 32.187 91.8967 31.4159 91.5714 30.7993C91.2493 30.1715 90.6875 29.744 89.886 29.5169C89.0732 29.2865 88.3521 29.3566 87.7228 29.7271C87.1047 30.1007 86.6581 30.773 86.383 31.7438L84.9292 36.8746L83.3882 36.438L86.9389 23.9073L88.4798 24.344L87.1843 28.916C87.6234 28.5282 88.1451 28.2797 88.7492 28.1703C89.3647 28.0642 90.0054 28.1056 90.6715 28.2943ZM98.8005 35.7746C99.0724 34.815 99.501 34.034 100.086 33.4316C100.675 32.8178 101.364 32.4094 102.153 32.2062C102.954 32.0062 103.794 32.031 104.675 32.2805C105.815 32.6035 106.674 33.1456 107.251 33.9067C107.839 34.671 108.112 35.5778 108.071 36.6271L106.412 36.1568C106.414 35.5476 106.23 35.0137 105.859 34.5552C105.501 34.0999 104.983 33.7763 104.305 33.5843C103.425 33.3348 102.627 33.4381 101.913 33.8942C101.201 34.3389 100.689 35.1145 100.375 36.2208C100.059 37.3384 100.085 38.2788 100.454 39.0419C100.823 39.805 101.448 40.3114 102.328 40.5609C103.006 40.7528 103.615 40.7547 104.156 40.5666C104.697 40.3784 105.136 40.0148 105.471 39.4758L107.131 39.946C106.614 40.8239 105.901 41.4451 104.993 41.8098C104.088 42.1631 103.077 42.1814 101.959 41.8647C101.078 41.6152 100.35 41.1954 99.7732 40.6051C99.2078 40.0181 98.8356 39.309 98.6565 38.4777C98.4774 37.6465 98.5254 36.7454 98.8005 35.7746ZM108.752 38.5762C109.021 37.6279 109.448 36.8525 110.033 36.2501C110.622 35.6364 111.305 35.2263 112.083 35.0199C112.872 34.8167 113.679 34.8319 114.503 35.0654C115.316 35.2957 115.972 35.6706 116.471 36.1901C116.97 36.7096 117.291 37.2762 117.435 37.89L117.914 36.1966L119.472 36.6381L116.843 45.9175L115.285 45.4761L115.774 43.7489C115.316 44.2044 114.731 44.5264 114.019 44.7149C113.322 44.8953 112.572 44.872 111.771 44.6449C110.946 44.4114 110.259 43.9971 109.708 43.4019C109.157 42.8068 108.794 42.088 108.618 41.2454C108.442 40.4029 108.487 39.5131 108.752 38.5762ZM116.605 40.8194C116.803 40.1195 116.835 39.4699 116.699 38.8707C116.564 38.2714 116.292 37.7676 115.884 37.3591C115.49 36.9425 115.005 36.6526 114.429 36.4895C113.853 36.3264 113.29 36.3131 112.739 36.4497C112.188 36.5863 111.698 36.8742 111.269 37.3135C110.839 37.7529 110.525 38.3225 110.327 39.0224C110.126 39.7336 110.091 40.3945 110.223 41.005C110.358 41.6043 110.622 42.1122 111.017 42.5288C111.414 42.934 111.9 43.2182 112.476 43.3814C113.052 43.5445 113.615 43.5578 114.166 43.4212C114.732 43.2765 115.229 42.9845 115.658 42.5452C116.091 42.0946 116.406 41.5193 116.605 40.8194ZM122.852 39.2237C123.273 38.7698 123.773 38.4666 124.353 38.3138C124.944 38.1642 125.601 38.1918 126.324 38.3965L125.873 39.9883L125.466 39.8731C123.739 39.3837 122.61 40.076 122.079 41.9499L120.649 46.9961L119.108 46.5594L121.738 37.28L123.279 37.7166L122.852 39.2237ZM125.835 43.4167C126.104 42.4684 126.531 41.693 127.116 41.0906C127.705 40.4769 128.388 40.0668 129.166 39.8604C129.955 39.6572 130.768 39.674 131.603 39.9107C132.325 40.1154 132.949 40.4751 133.474 40.9897C134.002 41.493 134.353 42.062 134.527 42.6966L135.919 37.7859L137.476 38.2273L133.926 50.758L132.368 50.3166L132.862 48.5725C132.401 49.0392 131.819 49.3685 131.119 49.5602C130.421 49.7406 129.672 49.7173 128.87 49.4902C128.046 49.2567 127.353 48.8407 126.791 48.2424C126.24 47.6473 125.877 46.9285 125.701 46.0859C125.525 45.2434 125.57 44.3536 125.835 43.4167ZM133.687 45.6599C133.886 44.96 133.917 44.3104 133.782 43.7112C133.647 43.1119 133.375 42.608 132.967 42.1996C132.573 41.783 132.088 41.4931 131.512 41.33C130.936 41.1669 130.373 41.1536 129.822 41.2902C129.271 41.4268 128.781 41.7147 128.351 42.154C127.922 42.5934 127.608 43.163 127.41 43.8629C127.208 44.5741 127.174 45.235 127.305 45.8455C127.441 46.4448 127.705 46.9527 128.099 47.3692C128.497 47.7745 128.983 48.0587 129.559 48.2219C130.135 48.385 130.698 48.3983 131.249 48.2617C131.814 48.117 132.312 47.825 132.741 47.3857C133.174 46.9351 133.489 46.3598 133.687 45.6599ZM23.1781 29.4333L21.2307 28.8815L18.9612 36.891L17.4203 36.4544L19.6898 28.4449L18.4875 28.1042L18.8474 26.8342L20.0497 27.1749L20.2368 26.5145C20.5311 25.4759 21.0107 24.7947 21.6756 24.4709C22.355 24.139 23.2874 24.141 24.4727 24.4769L24.1081 25.7638C23.4307 25.5719 22.9126 25.5714 22.5536 25.7624C22.2091 25.9453 21.9505 26.3415 21.7777 26.9511L21.5906 27.6115L23.5379 28.1633L23.1781 29.4333ZM26.3704 39.155C25.5012 38.9087 24.7669 38.4873 24.1677 37.8906C23.5797 37.2972 23.1849 36.5817 22.9832 35.744C22.7961 34.8983 22.8384 33.9956 23.1103 33.0361C23.379 32.0878 23.8189 31.31 24.43 30.7027C25.0556 30.0873 25.7784 29.6884 26.5984 29.5061C27.4215 29.3125 28.2734 29.3405 29.1539 29.59C30.0344 29.8395 30.7743 30.2625 31.3736 30.8592C31.976 31.4445 32.3781 32.156 32.5798 32.9937C32.7927 33.8345 32.7633 34.7347 32.4914 35.6943C32.2195 36.6538 31.7651 37.4397 31.1282 38.0519C30.5058 38.6561 29.7773 39.0533 28.9429 39.2437C28.1085 39.4341 27.251 39.4046 26.3704 39.155ZM26.7543 37.8004C27.3074 37.9571 27.8635 37.9744 28.4225 37.8523C28.9815 37.7302 29.4813 37.4511 29.922 37.015C30.3739 36.5821 30.7054 35.9931 30.9166 35.248C31.1277 34.503 31.1601 33.8292 31.0137 33.2267C30.8673 32.6243 30.5923 32.1317 30.1885 31.749C29.7879 31.355 29.3111 31.0796 28.7579 30.9229C28.1935 30.763 27.6374 30.7456 27.0897 30.8709C26.5565 30.9882 26.0752 31.2664 25.6458 31.7057C25.2165 32.1451 24.8962 32.7372 24.6851 33.4823C24.4708 34.2387 24.4255 34.9149 24.5493 35.5109C24.6844 36.1102 24.9466 36.6052 25.3358 36.996C25.7283 37.3755 26.2011 37.6436 26.7543 37.8004ZM36.6025 33.4933C37.0238 33.0395 37.5244 32.7362 38.1043 32.5834C38.6954 32.4338 39.3523 32.4614 40.0748 32.6661L39.6237 34.2579L39.2173 34.1427C37.4901 33.6533 36.361 34.3456 35.83 36.2195L34.4002 41.2657L32.8593 40.829L35.4886 31.5496L37.0296 31.9862L36.6025 33.4933ZM56.8497 37.4194C57.5722 37.6241 58.1725 37.9589 58.6506 38.4236C59.1319 38.877 59.4514 39.4493 59.6093 40.1404C59.7671 40.8315 59.7245 41.606 59.4814 42.4639L57.9316 47.9334L56.4076 47.5016L57.895 42.2522C58.1573 41.3265 58.1258 40.5554 57.8005 39.9388C57.4897 39.3142 56.9448 38.8915 56.1659 38.6708C55.3644 38.4437 54.653 38.5226 54.0317 38.9075C53.4136 39.2812 52.967 39.9534 52.692 40.9243L51.2429 46.0381L49.7189 45.6063L51.2063 40.357C51.4686 39.4313 51.4371 38.6601 51.1118 38.0436C50.801 37.4189 50.2562 36.9962 49.4772 36.7755C48.6757 36.5484 47.9643 36.6273 47.343 37.0123C46.725 37.3859 46.2784 38.0582 46.0033 39.029L44.5542 44.1429L43.0133 43.7062L45.6427 34.4268L47.1836 34.8634L46.8046 36.2011C47.2469 35.8021 47.7589 35.5447 48.3404 35.429C48.9333 35.3165 49.5402 35.3482 50.1611 35.5241C50.94 35.7449 51.579 36.115 52.0782 36.6345C52.5773 37.1539 52.8777 37.7939 52.9793 38.5544C53.4245 37.9733 53.9974 37.5868 54.6981 37.3951C55.3987 37.2034 56.116 37.2115 56.8497 37.4194ZM64.1245 49.8528C63.2553 49.6065 62.521 49.1851 61.9218 48.5884C61.3338 47.995 60.939 47.2794 60.7373 46.4418C60.5501 45.5961 60.5925 44.6934 60.8644 43.7339C61.1331 42.7856 61.573 42.0078 62.1841 41.4005C62.8097 40.785 63.5325 40.3862 64.3524 40.2039C65.1756 40.0103 66.0274 40.0382 66.908 40.2877C67.7885 40.5372 68.5284 40.9603 69.1276 41.557C69.7301 42.1423 70.1321 42.8538 70.3338 43.6914C70.5468 44.5323 70.5173 45.4325 70.2454 46.392C69.9735 47.3516 69.5191 48.1375 68.8822 48.7497C68.2598 49.3538 67.5314 49.7511 66.697 49.9415C65.8625 50.1319 65.005 50.1023 64.1245 49.8528ZM64.5083 48.4982C65.0615 48.6549 65.6176 48.6722 66.1766 48.5501C66.7356 48.428 67.2354 48.1489 67.676 47.7128C68.128 47.2799 68.4595 46.6909 68.6706 45.9458C68.8818 45.2007 68.9141 44.527 68.7678 43.9245C68.6214 43.3221 68.3463 42.8295 67.9426 42.4468C67.542 42.0528 67.0651 41.7774 66.512 41.6207C65.9475 41.4607 65.3915 41.4434 64.8438 41.5687C64.3105 41.6859 63.8293 41.9642 63.3999 42.4035C62.9705 42.8428 62.6503 43.435 62.4392 44.1801C62.2248 44.9364 62.1796 45.6127 62.3034 46.2087C62.4385 46.808 62.7006 47.303 63.0899 47.6938C63.4824 48.0733 63.9552 48.3414 64.5083 48.4982ZM74.3566 44.1911C74.7779 43.7372 75.2785 43.434 75.8583 43.2812C76.4495 43.1316 77.1063 43.1592 77.8288 43.3639L77.3778 44.9557L76.9714 44.8405C75.2442 44.3511 74.1151 45.0434 73.5841 46.9173L72.1543 51.9635L70.6133 51.5268L73.2427 42.2474L74.7836 42.684L74.3566 44.1911ZM86.4737 50.6245C86.3905 50.918 86.2856 51.2237 86.159 51.5415L78.7422 49.4399C78.5396 50.3703 78.6469 51.1751 79.0642 51.8543C79.496 52.5254 80.1183 52.9762 80.9311 53.2065C81.5971 53.3952 82.1934 53.3995 82.7201 53.2195C83.2612 53.0314 83.6956 52.7032 84.0234 52.2351L85.6829 52.7053C85.1818 53.5268 84.4788 54.1142 83.5738 54.4675C82.672 54.8095 81.6679 54.8238 80.5616 54.5103C79.6811 54.2608 78.9468 53.8394 78.3589 53.2459C77.7822 52.6557 77.3987 51.9434 77.2083 51.1089C77.0211 50.2632 77.0634 49.3605 77.3353 48.401C77.6072 47.4414 78.0375 46.6548 78.626 46.0411C79.2145 45.4273 79.9075 45.0261 80.7049 44.8374C81.5167 44.6406 82.3742 44.6702 83.2774 44.9261C84.1579 45.1756 84.8824 45.5882 85.451 46.164C86.0196 46.7397 86.3885 47.4174 86.5579 48.1971C86.7417 48.9687 86.7136 49.7779 86.4737 50.6245ZM84.9731 49.8518C85.1395 49.2647 85.152 48.7256 85.0107 48.2343C84.8726 47.7318 84.6082 47.3093 84.2174 46.9669C83.8411 46.6163 83.382 46.3643 82.8402 46.2108C82.0612 45.99 81.3248 46.0497 80.6309 46.3896C79.9483 46.7328 79.4427 47.3335 79.1142 48.1916L84.9731 49.8518ZM94.7816 46.7224C94.4881 46.6393 94.2686 46.4673 94.1229 46.2065C93.9773 45.9457 93.9461 45.6686 94.0293 45.3751C94.1124 45.0816 94.2844 44.862 94.5452 44.7164C94.806 44.5708 95.0831 44.5395 95.3766 44.6227C95.6588 44.7027 95.8671 44.8714 96.0014 45.129C96.1471 45.3898 96.1783 45.6669 96.0951 45.9605C96.012 46.254 95.84 46.4735 95.5792 46.6192C95.3297 46.768 95.0639 46.8024 94.7816 46.7224ZM95.0997 48.4406L92.4703 57.7201L90.9294 57.2835L93.5587 48.004L95.0997 48.4406ZM101.956 50.2006C103.085 50.5205 103.902 51.1239 104.407 52.0108C104.915 52.8865 104.987 53.9678 104.622 55.2547L103.072 60.7242L101.548 60.2923L103.036 55.043C103.298 54.1173 103.266 53.3462 102.941 52.7296C102.619 52.1018 102.057 51.6743 101.256 51.4472C100.443 51.2168 99.7218 51.2869 99.0924 51.6574C98.4743 52.031 98.0277 52.7033 97.7527 53.6741L96.2988 58.8049L94.7579 58.3683L97.3873 49.0888L98.9282 49.5254L98.5539 50.8462C98.9931 50.4585 99.5091 50.2083 100.102 50.0958C100.706 49.9865 101.324 50.0215 101.956 50.2006ZM111.296 54.402L109.349 53.8502L107.079 61.8596L105.538 61.423L107.808 53.4135L106.606 53.0729L106.966 51.8029L108.168 52.1435L108.355 51.4831C108.649 50.4446 109.129 49.7634 109.794 49.4396C110.473 49.1077 111.406 49.1097 112.591 49.4456L112.226 50.7325C111.549 50.5406 111.031 50.5401 110.672 50.7311C110.327 50.9139 110.069 51.3102 109.896 51.9198L109.709 52.5802L111.656 53.132L111.296 54.402ZM114.489 64.1237C113.619 63.8774 112.885 63.4559 112.286 62.8593C111.698 62.2659 111.303 61.5503 111.101 60.7127C110.914 59.867 110.957 58.9643 111.228 58.0048C111.497 57.0565 111.937 56.2787 112.548 55.6714C113.174 55.0559 113.897 54.6571 114.717 54.4748C115.54 54.2812 116.392 54.3091 117.272 54.5586C118.153 54.8081 118.893 55.2312 119.492 55.8278C120.094 56.4132 120.496 57.1247 120.698 57.9623C120.911 58.8032 120.881 59.7034 120.61 60.6629C120.338 61.6225 119.883 62.4084 119.246 63.0206C118.624 63.6247 117.896 64.022 117.061 64.2124C116.227 64.4028 115.369 64.3732 114.489 64.1237ZM114.872 62.769C115.426 62.9258 115.982 62.9431 116.541 62.821C117.1 62.6989 117.6 62.4198 118.04 61.9837C118.492 61.5508 118.824 60.9618 119.035 60.2167C119.246 59.4716 119.278 58.7979 119.132 58.1954C118.986 57.5929 118.71 57.1004 118.307 56.7177C117.906 56.3237 117.429 56.0483 116.876 55.8916C116.312 55.7316 115.756 55.7143 115.208 55.8396C114.675 55.9568 114.193 56.2351 113.764 56.6744C113.335 57.1137 113.014 57.7059 112.803 58.451C112.589 59.2073 112.544 59.8835 112.667 60.4796C112.803 61.0789 113.065 61.5739 113.454 61.9647C113.846 62.3442 114.319 62.6123 114.872 62.769Z" fill="#3B3C44"/>
<path d="M49.4945 58.1157C49.626 58.3459 49.6607 58.6189 49.5909 58.8747C49.5212 59.1305 49.3527 59.3481 49.1225 59.4797C44.7645 61.9717 44.6265 66.0877 44.6265 69.6117V76.6977L48.9195 72.4047C49.0118 72.3092 49.1221 72.233 49.2441 72.1806C49.3661 72.1282 49.4974 72.1006 49.6301 72.0994C49.7629 72.0983 49.8946 72.1236 50.0175 72.1739C50.1404 72.2241 50.252 72.2984 50.3459 72.3923C50.4398 72.4862 50.5141 72.5978 50.5644 72.7207C50.6146 72.8436 50.64 72.9753 50.6388 73.1081C50.6376 73.2409 50.6101 73.3721 50.5576 73.4941C50.5052 73.6161 50.4291 73.7264 50.3335 73.8187L44.3335 79.8187C44.146 80.0062 43.8917 80.1115 43.6265 80.1115C43.3614 80.1115 43.1071 80.0062 42.9195 79.8187L36.9195 73.8187C36.824 73.7264 36.7479 73.6161 36.6954 73.4941C36.643 73.3721 36.6154 73.2409 36.6143 73.1081C36.6131 72.9753 36.6384 72.8436 36.6887 72.7207C36.739 72.5978 36.8133 72.4862 36.9072 72.3923C37.001 72.2984 37.1127 72.2241 37.2356 72.1739C37.3585 72.1236 37.4902 72.0983 37.6229 72.0994C37.7557 72.1006 37.8869 72.1282 38.009 72.1806C38.131 72.233 38.2413 72.3092 38.3335 72.4047L42.6265 76.6977V69.6117C42.6265 66.1367 42.6895 60.8527 48.1305 57.7437C48.3608 57.6122 48.6338 57.5775 48.8896 57.6473C49.1453 57.7171 49.3629 57.8855 49.4945 58.1157Z" fill="#3B3C44"/>
</svg>
