<svg width="129" height="81" viewBox="0 0 129 81" fill="none" xmlns="http://www.w3.org/2000/svg">
<path d="M9.2146 54.2235C8.87659 53.392 8.74862 52.6004 8.83071 51.8489C8.90881 51.0876 9.17175 50.4165 9.61953 49.8355C10.0771 49.2505 10.6874 48.803 11.4504 48.4928C12.4385 48.0912 13.3479 48.0008 14.1786 48.2216C15.0191 48.4385 15.7151 48.9308 16.2665 49.6983L14.8284 50.2829C14.4926 49.8495 14.0665 49.5724 13.5501 49.4517C13.0435 49.3271 12.4967 49.3841 11.9097 49.6227C11.1467 49.9329 10.6378 50.4475 10.3829 51.1667C10.1241 51.876 10.1896 52.71 10.5793 53.6687C10.973 54.6372 11.512 55.2902 12.1963 55.6275C12.8806 55.9649 13.6042 55.9785 14.3673 55.6684C14.9542 55.4298 15.3877 55.094 15.6677 54.661C15.9476 54.228 16.0576 53.7274 15.9975 53.159L17.4356 52.5744C17.5544 53.4837 17.3924 54.319 16.9495 55.0803C16.5027 55.8319 15.7951 56.4046 14.8266 56.7983C14.0635 57.1084 13.3141 57.2136 12.5781 57.1138C11.852 57.01 11.1954 56.7127 10.6083 56.2218C10.0211 55.7309 9.55659 55.0648 9.2146 54.2235ZM16.895 43.1505L21.309 54.0093L19.9737 54.5521L15.5596 43.6934L16.895 43.1505ZM20.1814 43.5758C19.927 43.6792 19.676 43.6786 19.4284 43.5741C19.1807 43.4696 19.0052 43.2902 18.9018 43.0358C18.7984 42.7815 18.7989 42.5305 18.9034 42.2828C19.008 42.0351 19.1874 41.8596 19.4417 41.7562C19.6863 41.6568 19.9275 41.6613 20.1654 41.7698C20.4131 41.8743 20.5886 42.0538 20.692 42.3081C20.7954 42.5625 20.7948 42.8135 20.6903 43.0611C20.5956 43.3048 20.426 43.4764 20.1814 43.5758ZM21.3579 44.6193L24.6267 52.6606L23.2914 53.2035L20.0226 45.1621L21.3579 44.6193ZM24.4698 48.0223C24.1318 47.1908 24.0038 46.3992 24.0859 45.6477C24.164 44.8864 24.4269 44.2153 24.8747 43.6343C25.3323 43.0493 25.9426 42.6018 26.7056 42.2916C27.6937 41.89 28.6031 41.7996 29.4338 42.0204C30.2743 42.2373 30.9703 42.7296 31.5217 43.4971L30.0836 44.0817C29.7478 43.6483 29.3217 43.3712 28.8053 43.2505C28.2987 43.1259 27.7519 43.1829 27.1649 43.4215C26.4019 43.7317 25.8929 44.2463 25.6381 44.9655C25.3793 45.6748 25.4448 46.5088 25.8345 47.4675C26.2282 48.436 26.7672 49.089 27.4515 49.4263C28.1358 49.7637 28.8594 49.7773 29.6225 49.4672C30.2094 49.2286 30.6429 48.8928 30.9229 48.4598C31.2028 48.0268 31.3128 47.5262 31.2527 46.9578L32.6908 46.3732C32.8096 47.2825 32.6476 48.1178 32.2047 48.8791C31.7579 49.6307 31.0503 50.2034 30.0818 50.5971C29.3187 50.9072 28.5693 51.0124 27.8333 50.9126C27.1072 50.8088 26.4506 50.5115 25.8634 50.0206C25.2763 49.5297 24.8118 48.8636 24.4698 48.0223ZM39.7191 46.5256L35.1207 44.257L36.5642 47.8081L35.2289 48.3509L30.8148 37.4922L32.1502 36.9493L34.7449 43.3325L36.3916 38.5081L38.2552 37.7506L36.0978 43.2955L41.5387 45.786L39.7191 46.5256ZM51.6833 36.6181C51.7867 36.8724 51.8813 37.1474 51.9673 37.4431L45.5401 40.0557C45.9111 40.8282 46.4327 41.34 47.1047 41.5912C47.7826 41.8286 48.4737 41.8042 49.1781 41.5179C49.7552 41.2832 50.1809 40.9563 50.4551 40.5371C50.735 40.1041 50.8618 39.6308 50.8354 39.1172L52.2734 38.5326C52.3724 39.3929 52.1984 40.1989 51.7516 40.9505C51.3008 41.6923 50.5961 42.258 49.6374 42.6478C48.8743 42.9579 48.1199 43.0651 47.3742 42.9693C46.6383 42.8694 45.9719 42.5761 45.375 42.0892C44.7741 41.5925 44.3047 40.9284 43.9667 40.0968C43.6287 39.2653 43.4987 38.4689 43.5768 37.7076C43.6549 36.9463 43.9247 36.2781 44.3863 35.7029C44.8536 35.114 45.4786 34.6604 46.2612 34.3423C47.0243 34.0321 47.7669 33.924 48.489 34.018C49.2112 34.1121 49.8481 34.3889 50.3997 34.8486C50.9572 35.2946 51.385 35.8844 51.6833 36.6181ZM50.1906 36.9C49.9838 36.3913 49.6943 36.0017 49.3222 35.7312C48.9461 35.4509 48.5246 35.2974 48.0577 35.2706C47.5967 35.23 47.1314 35.3052 46.6618 35.496C45.9868 35.7704 45.4971 36.2203 45.1927 36.8456C44.8981 37.4669 44.8717 38.173 45.1134 38.9639L50.1906 36.9ZM52.7668 36.5025C52.4328 35.6808 52.3068 34.8941 52.3889 34.1426C52.467 33.3813 52.725 32.7122 53.163 32.1352C53.6108 31.5542 54.1918 31.1185 54.9059 30.8282C55.6102 30.5419 56.2833 30.445 56.9251 30.5375C57.5668 30.63 58.1083 30.8545 58.5496 31.2109L57.9531 29.7435L59.3031 29.1947L62.5719 37.236L61.2218 37.7848L60.6134 36.2881C60.5402 36.865 60.303 37.4174 59.902 37.9451C59.5068 38.4592 58.9619 38.8573 58.2674 39.1397C57.5532 39.43 56.836 39.5163 56.1157 39.3988C55.3953 39.2812 54.7396 38.9721 54.1485 38.4715C53.5574 37.9708 53.0969 37.3145 52.7668 36.5025ZM59.5815 33.7495C59.3349 33.1429 58.9979 32.6644 58.5704 32.3138C58.1429 31.9632 57.6711 31.756 57.1551 31.6922C56.6448 31.6147 56.1402 31.6773 55.6413 31.8801C55.1423 32.0829 54.7352 32.3852 54.4197 32.787C54.1043 33.1888 53.9158 33.6644 53.8541 34.2139C53.7925 34.7633 53.8849 35.3413 54.1315 35.9478C54.382 36.5641 54.723 37.0524 55.1545 37.4128C55.582 37.7634 56.0509 37.9774 56.5611 38.055C57.0675 38.1228 57.5701 38.0552 58.069 37.8524C58.5679 37.6496 58.9751 37.3473 59.2905 36.9455C59.6117 36.53 59.8032 36.0475 59.8648 35.498C59.9225 34.9388 59.828 34.356 59.5815 33.7495ZM62.3957 32.6055C62.0577 31.774 61.9297 30.9825 62.0118 30.2309C62.0899 29.4697 62.3528 28.7985 62.8006 28.2175C63.2582 27.6326 63.8685 27.185 64.6315 26.8748C65.6196 26.4732 66.529 26.3828 67.3597 26.6036C68.2002 26.8205 68.8961 27.3128 69.4475 28.0804L68.0095 28.6649C67.6737 28.2315 67.2476 27.9544 66.7312 27.8338C66.2246 27.7091 65.6778 27.7661 65.0908 28.0047C64.3278 28.3149 63.8188 28.8295 63.564 29.5487C63.3052 30.258 63.3707 31.0921 63.7604 32.0508C64.154 33.0192 64.693 33.6722 65.3773 34.0096C66.0616 34.3469 66.7853 34.3605 67.5484 34.0504C68.1353 33.8118 68.5688 33.476 68.8487 33.043C69.1287 32.61 69.2387 32.1094 69.1786 31.541L70.6167 30.9565C70.7355 31.8657 70.5735 32.701 70.1306 33.4624C69.6838 34.2139 68.9762 34.7866 68.0077 35.1803C67.2446 35.4904 66.4951 35.5956 65.7592 35.4958C65.0331 35.392 64.3764 35.0947 63.7893 34.6038C63.2022 34.1129 62.7377 33.4468 62.3957 32.6055ZM73.8176 23.1236C74.4242 22.877 75.0257 22.7864 75.6222 22.8517C76.2147 22.9072 76.7533 23.1385 77.238 23.5457C77.7324 23.9488 78.1308 24.5221 78.433 25.2656L80.3597 30.0053L79.039 30.5422L77.1899 25.9932C76.8638 25.1911 76.4147 24.6612 75.8426 24.4035C75.2666 24.1362 74.6313 24.1436 73.9367 24.426C73.2324 24.7123 72.7593 25.161 72.5176 25.7723C72.2857 26.3795 72.3407 27.1038 72.6827 27.9451L74.4901 32.3913L73.1548 32.9341L68.7407 22.0754L70.076 21.5326L71.6866 25.4945C71.7837 24.9763 72.0164 24.5112 72.3847 24.0993C72.7628 23.6834 73.2405 23.3582 73.8176 23.1236ZM83.7268 23.9344C83.3888 23.1029 83.2608 22.3114 83.3429 21.5599C83.421 20.7986 83.684 20.1275 84.1317 19.5465C84.5893 18.9615 85.1996 18.5139 85.9626 18.2037C86.9507 17.8021 87.8601 17.7117 88.6908 17.9326C89.5313 18.1495 90.2273 18.6417 90.7787 19.4093L89.3406 19.9939C89.0048 19.5604 88.5787 19.2834 88.0623 19.1627C87.5557 19.0381 87.0089 19.095 86.4219 19.3336C85.6589 19.6438 85.15 20.1585 84.8951 20.8776C84.6363 21.587 84.7018 22.421 85.0915 23.3797C85.4852 24.3482 86.0242 25.0011 86.7085 25.3385C87.3928 25.6759 88.1165 25.6895 88.8795 25.3793C89.4665 25.1407 89.8999 24.8049 90.1799 24.372C90.4598 23.939 90.5698 23.4383 90.5098 22.87L91.9478 22.2854C92.0666 23.1946 91.9046 24.0299 91.4618 24.7913C91.0149 25.5429 90.3073 26.1155 89.3388 26.5092C88.5758 26.8194 87.8263 26.9246 87.0903 26.8248C86.3642 26.721 85.7076 26.4236 85.1205 25.9327C84.5333 25.4418 84.0688 24.7758 83.7268 23.9344ZM92.3407 20.4158C92.0066 19.5941 91.8806 18.8075 91.9627 18.056C92.0408 17.2947 92.2989 16.6255 92.7369 16.0485C93.1846 15.4675 93.7656 15.0319 94.4797 14.7416C95.1841 14.4553 95.8571 14.3583 96.4989 14.4508C97.1407 14.5433 97.6822 14.7678 98.1234 15.1242L97.5269 13.6568L98.8769 13.108L102.146 21.1493L100.796 21.6981L100.187 20.2014C100.114 20.7783 99.8769 21.3307 99.4759 21.8585C99.0807 22.3725 98.5358 22.7707 97.8412 23.053C97.1271 23.3433 96.4098 23.4297 95.6895 23.3121C94.9692 23.1946 94.3135 22.8854 93.7224 22.3848C93.1313 21.8841 92.6707 21.2278 92.3407 20.4158ZM99.1553 17.6628C98.9088 17.0563 98.5718 16.5777 98.1443 16.2271C97.7168 15.8765 97.245 15.6693 96.7289 15.6056C96.2186 15.528 95.714 15.5906 95.2151 15.7934C94.7162 15.9963 94.309 16.2986 93.9936 16.7004C93.6781 17.1022 93.4896 17.5778 93.428 18.1272C93.3663 18.6766 93.4588 19.2546 93.7053 19.8611C93.9559 20.4774 94.2969 20.9657 94.7283 21.3261C95.1558 21.6767 95.6247 21.8908 96.135 21.9683C96.6413 22.0361 97.1439 21.9686 97.6428 21.7657C98.1417 21.5629 98.5489 21.2606 98.8643 20.8588C99.1856 20.4433 99.377 19.9608 99.4387 19.4114C99.4963 18.8522 99.4019 18.2693 99.1553 17.6628ZM102.706 13.0732C102.754 12.518 102.942 12.0257 103.269 11.5964C103.605 11.1631 104.087 10.8192 104.713 10.5647L105.274 11.944L104.922 12.0872C103.425 12.6956 103.006 13.8118 103.667 15.4357L105.444 19.8085L104.109 20.3514L100.84 12.31L102.175 11.7672L102.706 13.0732ZM107.144 14.3982C106.81 13.5765 106.684 12.7899 106.766 12.0384C106.844 11.2771 107.102 10.6079 107.54 10.0309C107.988 9.44991 108.574 9.01228 109.298 8.71801C109.924 8.46351 110.566 8.37364 111.223 8.4484C111.876 8.51339 112.44 8.723 112.915 9.07725L111.185 4.8218L112.535 4.27302L116.949 15.1318L115.599 15.6805L114.985 14.1691C114.916 14.7558 114.685 15.3111 114.294 15.8349C113.899 16.3489 113.354 16.7471 112.659 17.0294C111.945 17.3197 111.223 17.4081 110.493 17.2945C109.773 17.177 109.117 16.8679 108.526 16.3672C107.935 15.8665 107.474 15.2102 107.144 14.3982ZM113.959 11.6452C113.712 11.0387 113.375 10.5601 112.948 10.2095C112.52 9.85894 112.049 9.65175 111.532 9.58796C111.022 9.51041 110.518 9.57304 110.019 9.77585C109.52 9.97866 109.113 10.281 108.797 10.6828C108.482 11.0846 108.293 11.5602 108.231 12.1096C108.17 12.659 108.262 13.237 108.509 13.8435C108.759 14.4598 109.1 14.9481 109.532 15.3085C109.959 15.6591 110.428 15.8732 110.939 15.9507C111.445 16.0185 111.947 15.951 112.446 15.7482C112.945 15.5453 113.352 15.243 113.668 14.8412C113.989 14.4257 114.181 13.9432 114.242 13.3938C114.3 12.8346 114.205 12.2517 113.959 11.6452ZM26.4678 61.096L24.7803 61.7819L27.6017 68.7227L26.2664 69.2655L23.445 62.3247L22.4031 62.7483L21.9557 61.6477L22.9976 61.2242L22.765 60.6519C22.3991 59.7519 22.3626 59.003 22.6553 58.4052C22.9539 57.7937 23.6168 57.2792 24.644 56.8616L25.0973 57.9769C24.5103 58.2155 24.1423 58.5019 23.9932 58.8361C23.8498 59.1565 23.8856 59.5808 24.1003 60.1091L24.3329 60.6814L26.0204 59.9954L26.4678 61.096ZM34.1134 66.2296C33.3602 66.5358 32.6058 66.643 31.8503 66.5511C31.1046 66.4553 30.4284 66.1659 29.8217 65.683C29.2208 65.1863 28.7514 64.5222 28.4134 63.6906C28.0794 62.8689 27.9612 62.0734 28.0588 61.3041C28.1623 60.5211 28.4546 59.8381 28.9357 59.2549C29.4128 58.662 30.0329 58.2105 30.796 57.9003C31.559 57.5901 32.3183 57.481 33.0738 57.5728C33.8253 57.6549 34.5044 57.9374 35.1111 58.4203C35.7275 58.8993 36.2048 59.5545 36.5428 60.3861C36.8808 61.2176 36.9932 62.0268 36.8799 62.8138C36.7724 63.587 36.4753 64.2721 35.9884 64.869C35.5014 65.4659 34.8765 65.9194 34.1134 66.2296ZM33.6362 65.0557C34.1156 64.8608 34.5199 64.5654 34.849 64.1694C35.1782 63.7734 35.3785 63.2987 35.45 62.7453C35.5312 62.188 35.4405 61.5865 35.1781 60.9408C34.9156 60.2951 34.5658 59.799 34.1285 59.4524C33.6912 59.1058 33.2234 58.9084 32.7251 58.8602C32.2227 58.8022 31.7319 58.8706 31.2525 59.0655C30.7634 59.2643 30.3591 59.5598 30.0397 59.9518C29.7261 60.33 29.5385 60.7939 29.4768 61.3433C29.4152 61.8927 29.5156 62.4902 29.7781 63.1359C30.0445 63.7913 30.3866 64.2963 30.8043 64.6509C31.2318 65.0015 31.6918 65.2078 32.1843 65.2697C32.6729 65.3219 33.1569 65.2505 33.6362 65.0557ZM38.2428 56.5488C38.2907 55.9936 38.4781 55.5013 38.8052 55.072C39.142 54.6387 39.6235 54.2948 40.2496 54.0403L40.8103 55.4197L40.4581 55.5628C38.9613 56.1713 38.543 57.2874 39.2031 58.9114L40.9807 63.2842L39.6454 63.827L36.3766 55.7857L37.7119 55.2429L38.2428 56.5488ZM54.7863 48.1312C55.4124 47.8767 56.0237 47.7821 56.6202 47.8474C57.2127 47.9029 57.7562 48.1322 58.2507 48.5354C58.7451 48.9385 59.1434 49.5119 59.4457 50.2553L61.3723 54.995L60.0517 55.5319L58.2026 50.9829C57.8765 50.1808 57.4274 49.6509 56.8553 49.3933C56.289 49.1219 55.6684 49.1234 54.9934 49.3978C54.2988 49.6801 53.8376 50.1298 53.6096 50.7468C53.3777 51.3541 53.4327 52.0783 53.7747 52.9196L55.5761 57.3512L54.2555 57.888L52.4063 53.3391C52.0803 52.5369 51.6312 52.007 51.0591 51.7494C50.4928 51.478 49.8722 51.4796 49.1972 51.7539C48.5026 52.0363 48.0414 52.486 47.8134 53.103C47.5815 53.7102 47.6365 54.4345 47.9785 55.2758L49.7799 59.7073L48.4446 60.2501L45.1758 52.2088L46.5111 51.666L46.9824 52.8252C47.0755 52.2972 47.2964 51.8312 47.6452 51.4273C48.0037 51.0194 48.452 50.706 48.9901 50.4873C49.6651 50.2129 50.3235 50.122 50.9652 50.2145C51.607 50.307 52.1743 50.595 52.6673 51.0786C52.6616 50.4197 52.8544 49.8284 53.2456 49.3046C53.6369 48.7808 54.1504 48.3897 54.7863 48.1312ZM66.8301 52.9304C66.0768 53.2366 65.3224 53.3437 64.5669 53.2519C63.8212 53.156 63.145 52.8666 62.5384 52.3837C61.9375 51.887 61.468 51.2229 61.13 50.3914C60.796 49.5697 60.6778 48.7742 60.7755 48.0049C60.879 47.2219 61.1712 46.5388 61.6523 45.9557C62.1295 45.3628 62.7496 44.9112 63.5126 44.601C64.2757 44.2909 65.0349 44.1817 65.7904 44.2736C66.5419 44.3557 67.221 44.6382 67.8277 45.1211C68.4442 45.6001 68.9214 46.2553 69.2594 47.0868C69.5974 47.9183 69.7098 48.7276 69.5965 49.5146C69.4891 50.2878 69.1919 50.9729 68.705 51.5698C68.2181 52.1667 67.5931 52.6202 66.8301 52.9304ZM66.3529 51.7565C66.8322 51.5616 67.2365 51.2662 67.5657 50.8702C67.8949 50.4742 68.0952 49.9995 68.1666 49.4461C68.2478 48.8887 68.1572 48.2872 67.8947 47.6416C67.6323 46.9959 67.2824 46.4998 66.8451 46.1532C66.4079 45.8066 65.94 45.6091 65.4417 45.561C64.9394 45.503 64.4485 45.5714 63.9692 45.7663C63.48 45.9651 63.0758 46.2605 62.7563 46.6525C62.4427 47.0308 62.2551 47.4946 62.1935 48.044C62.1318 48.5935 62.2322 49.191 62.4947 49.8367C62.7611 50.4921 63.1032 50.9971 63.5209 51.3517C63.9484 51.7022 64.4084 51.9085 64.901 51.9705C65.3896 52.0226 65.8735 51.9513 66.3529 51.7565ZM70.9594 43.2496C71.0073 42.6944 71.1948 42.2021 71.5218 41.7728C71.8586 41.3395 72.3401 40.9956 72.9662 40.7411L73.5269 42.1204L73.1747 42.2636C71.678 42.872 71.2597 43.9882 71.9198 45.6121L73.6973 49.985L72.362 50.5278L69.0932 42.4864L70.4285 41.9436L70.9594 43.2496ZM83.1199 41.1106C83.2233 41.3649 83.318 41.6399 83.404 41.9355L76.9768 44.5482C77.3478 45.3207 77.8693 45.8325 78.5414 46.0837C79.2193 46.3211 79.9104 46.2967 80.6147 46.0103C81.1919 45.7757 81.6176 45.4488 81.8917 45.0296C82.1717 44.5966 82.2984 44.1233 82.272 43.6097L83.7101 43.0251C83.809 43.8854 83.6351 44.6914 83.1883 45.443C82.7375 46.1848 82.0327 46.7505 81.074 47.1402C80.311 47.4504 79.5566 47.5576 78.8109 47.4617C78.075 47.3619 77.4086 47.0686 76.8117 46.5817C76.2108 46.085 75.7413 45.4209 75.4033 44.5893C75.0653 43.7578 74.9354 42.9614 75.0135 42.2001C75.0916 41.4388 75.3614 40.7706 75.8229 40.1954C76.2903 39.6064 76.9152 39.1529 77.6979 38.8348C78.4609 38.5246 79.2035 38.4165 79.9257 38.5105C80.6478 38.6045 81.2847 38.8814 81.8364 39.3411C82.3938 39.7871 82.8217 40.3769 83.1199 41.1106ZM81.6272 41.3925C81.4205 40.8838 81.131 40.4942 80.7589 40.2237C80.3827 39.9434 79.9613 39.7899 79.4944 39.7631C79.0333 39.7225 78.568 39.7977 78.0985 39.9885C77.4235 40.2629 76.9338 40.7128 76.6294 41.338C76.3348 41.9594 76.3083 42.6655 76.55 43.4563L81.6272 41.3925ZM86.8573 33.7436C86.603 33.847 86.352 33.8464 86.1043 33.7419C85.8566 33.6374 85.6811 33.458 85.5777 33.2036C85.4743 32.9493 85.4749 32.6983 85.5794 32.4506C85.6839 32.2029 85.8633 32.0274 86.1177 31.924C86.3622 31.8246 86.6035 31.8291 86.8413 31.9376C87.089 32.0421 87.2645 32.2215 87.3679 32.4759C87.4713 32.7302 87.4708 32.9813 87.3663 33.2289C87.2715 33.4726 87.1019 33.6442 86.8573 33.7436ZM88.0339 34.7871L91.3026 42.8284L89.9673 43.3712L86.6985 35.3299L88.0339 34.7871ZM93.8745 32.2419C94.8528 31.8442 95.7665 31.8205 96.6156 32.1707C97.4607 32.5111 98.1099 33.2389 98.5633 34.3541L100.49 39.0938L99.1693 39.6307L97.3201 35.0817C96.9941 34.2796 96.545 33.7497 95.9729 33.4921C95.3968 33.2247 94.7615 33.2321 94.0669 33.5145C93.3626 33.8008 92.8896 34.2496 92.6479 34.8608C92.4159 35.468 92.471 36.1923 92.813 37.0336L94.6203 41.4798L93.285 42.0226L90.0162 33.9813L91.3516 33.4385L91.8168 34.583C91.9139 34.0648 92.1418 33.6017 92.5003 33.1938C92.8686 32.7819 93.3267 32.4646 93.8745 32.2419ZM102.829 30.0555L101.141 30.7415L103.962 37.6822L102.627 38.225L99.8058 31.2843L98.7639 31.7078L98.3165 30.6072L99.3584 30.1837L99.1257 29.6114C98.7599 28.7114 98.7234 27.9625 99.0161 27.3648C99.3147 26.7532 99.9776 26.2387 101.005 25.8211L101.458 26.9364C100.871 27.175 100.503 27.4614 100.354 27.7956C100.211 28.116 100.246 28.5404 100.461 29.0686L100.694 29.6409L102.381 28.9549L102.829 30.0555ZM110.474 35.1891C109.721 35.4953 108.967 35.6025 108.211 35.5106C107.465 35.4148 106.789 35.1254 106.183 34.6425C105.582 34.1458 105.112 33.4817 104.774 32.6501C104.44 31.8284 104.322 31.0329 104.42 30.2637C104.523 29.4807 104.815 28.7976 105.296 28.2144C105.774 27.6215 106.394 27.17 107.157 26.8598C107.92 26.5496 108.679 26.4405 109.435 26.5323C110.186 26.6144 110.865 26.8969 111.472 27.3799C112.088 27.8588 112.566 28.5141 112.904 29.3456C113.242 30.1771 113.354 30.9864 113.241 31.7733C113.133 32.5466 112.836 33.2316 112.349 33.8285C111.862 34.4254 111.237 34.879 110.474 35.1891ZM109.997 34.0152C110.476 33.8204 110.881 33.5249 111.21 33.1289C111.539 32.7329 111.739 32.2582 111.811 31.7049C111.892 31.1475 111.801 30.546 111.539 29.9003C111.276 29.2547 110.927 28.7585 110.489 28.4119C110.052 28.0653 109.584 27.8679 109.086 27.8197C108.583 27.7617 108.093 27.8302 107.613 28.025C107.124 28.2238 106.72 28.5193 106.4 28.9113C106.087 29.2895 105.899 29.7534 105.838 30.3028C105.776 30.8522 105.876 31.4498 106.139 32.0954C106.405 32.7508 106.747 33.2558 107.165 33.6104C107.593 33.961 108.053 34.1673 108.545 34.2292C109.034 34.2814 109.518 34.2101 109.997 34.0152Z" fill="#3B3C44"/>
<path d="M85.0738 58.3029C84.9554 58.5101 84.9242 58.7558 84.987 58.986C85.0498 59.2162 85.2014 59.412 85.4086 59.5305C89.3308 61.7733 89.455 65.4777 89.455 68.6493V75.0267L85.5913 71.163C85.5082 71.077 85.4089 71.0084 85.2991 70.9613C85.1893 70.9141 85.0712 70.8893 84.9517 70.8882C84.8322 70.8872 84.7137 70.91 84.6031 70.9552C84.4925 71.0005 84.392 71.0673 84.3075 71.1518C84.223 71.2363 84.1562 71.3368 84.1109 71.4474C84.0657 71.558 84.0429 71.6765 84.0439 71.796C84.045 71.9155 84.0698 72.0336 84.117 72.1434C84.1641 72.2532 84.2327 72.3525 84.3187 72.4356L89.7187 77.8356C89.8874 78.0043 90.1163 78.0991 90.355 78.0991C90.5936 78.0991 90.8225 78.0043 90.9913 77.8356L96.3913 72.4356C96.4772 72.3525 96.5458 72.2532 96.5929 72.1434C96.6401 72.0336 96.6649 71.9155 96.666 71.796C96.667 71.6765 96.6442 71.558 96.599 71.4474C96.5537 71.3368 96.4869 71.2363 96.4024 71.1518C96.3179 71.0673 96.2174 71.0005 96.1068 70.9552C95.9962 70.91 95.8777 70.8872 95.7582 70.8882C95.6387 70.8893 95.5206 70.9141 95.4108 70.9613C95.301 71.0084 95.2017 71.077 95.1187 71.163L91.255 75.0267V68.6493C91.255 65.5218 91.1983 60.7662 86.3014 57.9681C86.0942 57.8497 85.8484 57.8185 85.6182 57.8813C85.388 57.9441 85.1922 58.0957 85.0738 58.3029Z" fill="#3B3C44"/>
</svg>
