<svg width="442" height="176" viewBox="0 0 442 176" fill="none" xmlns="http://www.w3.org/2000/svg">
<g filter="url(#filter0_d_38_1187)">
<rect x="20" y="20" width="401.4" height="136" rx="50" fill="white" shape-rendering="crispEdges"/>
<rect x="21.5" y="21.5" width="398.4" height="133" rx="48.5" stroke="#DFD000" stroke-width="3" shape-rendering="crispEdges"/>
<rect width="264.6" height="32.4" transform="translate(59.5996 43.8)" fill="white"/>
<circle cx="68.5996" cy="60" r="9" fill="#DFD000"/>
<path d="M111.096 55.376C111.096 56.5707 110.808 57.6907 110.232 58.736C109.677 59.7814 108.792 60.624 107.576 61.264C106.381 61.904 104.866 62.224 103.032 62.224H99.2876V70.8H94.8076V48.464H103.032C104.76 48.464 106.232 48.7627 107.448 49.36C108.664 49.9574 109.57 50.7787 110.168 51.824C110.786 52.8694 111.096 54.0534 111.096 55.376ZM102.84 58.608C104.077 58.608 104.994 58.3307 105.592 57.776C106.189 57.2 106.488 56.4 106.488 55.376C106.488 53.2 105.272 52.112 102.84 52.112H99.2876V58.608H102.84ZM126.116 70.8L121.188 62.096H119.076V70.8H114.596V48.464H122.98C124.708 48.464 126.18 48.7734 127.396 49.392C128.612 49.9894 129.519 50.8107 130.116 51.856C130.735 52.88 131.044 54.032 131.044 55.312C131.044 56.784 130.618 58.1174 129.764 59.312C128.911 60.4854 127.642 61.296 125.956 61.744L131.3 70.8H126.116ZM119.076 58.736H122.82C124.036 58.736 124.943 58.448 125.54 57.872C126.138 57.2747 126.436 56.4534 126.436 55.408C126.436 54.384 126.138 53.5947 125.54 53.04C124.943 52.464 124.036 52.176 122.82 52.176H119.076V58.736ZM145.784 71.024C143.694 71.024 141.774 70.5334 140.024 69.552C138.275 68.5707 136.888 67.216 135.864 65.488C134.84 63.7387 134.328 61.7654 134.328 59.568C134.328 57.392 134.84 55.44 135.864 53.712C136.888 51.9627 138.275 50.5974 140.024 49.616C141.774 48.6347 143.694 48.144 145.784 48.144C147.896 48.144 149.816 48.6347 151.544 49.616C153.294 50.5974 154.67 51.9627 155.672 53.712C156.696 55.44 157.208 57.392 157.208 59.568C157.208 61.7654 156.696 63.7387 155.672 65.488C154.67 67.216 153.294 68.5707 151.544 69.552C149.795 70.5334 147.875 71.024 145.784 71.024ZM145.784 67.024C147.128 67.024 148.312 66.7254 149.336 66.128C150.36 65.5094 151.16 64.6347 151.736 63.504C152.312 62.3734 152.6 61.0614 152.6 59.568C152.6 58.0747 152.312 56.7734 151.736 55.664C151.16 54.5334 150.36 53.6694 149.336 53.072C148.312 52.4747 147.128 52.176 145.784 52.176C144.44 52.176 143.246 52.4747 142.2 53.072C141.176 53.6694 140.376 54.5334 139.8 55.664C139.224 56.7734 138.936 58.0747 138.936 59.568C138.936 61.0614 139.224 62.3734 139.8 63.504C140.376 64.6347 141.176 65.5094 142.2 66.128C143.246 66.7254 144.44 67.024 145.784 67.024ZM159.773 59.6C159.773 57.4027 160.264 55.44 161.245 53.712C162.248 51.9627 163.603 50.608 165.309 49.648C167.037 48.6667 168.968 48.176 171.101 48.176C173.597 48.176 175.784 48.816 177.661 50.096C179.539 51.376 180.851 53.1467 181.597 55.408H176.445C175.933 54.3414 175.208 53.5414 174.269 53.008C173.352 52.4747 172.285 52.208 171.069 52.208C169.768 52.208 168.605 52.5174 167.581 53.136C166.579 53.7334 165.789 54.5867 165.213 55.696C164.659 56.8054 164.381 58.1067 164.381 59.6C164.381 61.072 164.659 62.3734 165.213 63.504C165.789 64.6134 166.579 65.4774 167.581 66.096C168.605 66.6934 169.768 66.992 171.069 66.992C172.285 66.992 173.352 66.7254 174.269 66.192C175.208 65.6374 175.933 64.8267 176.445 63.76H181.597C180.851 66.0427 179.539 67.824 177.661 69.104C175.805 70.3627 173.619 70.992 171.101 70.992C168.968 70.992 167.037 70.512 165.309 69.552C163.603 68.5707 162.248 67.216 161.245 65.488C160.264 63.76 159.773 61.7974 159.773 59.6ZM190.224 52.08V57.68H197.744V61.232H190.224V67.152H198.704V70.8H185.744V48.432H198.704V52.08H190.224ZM210.807 71.024C209.25 71.024 207.842 70.7574 206.583 70.224C205.346 69.6907 204.364 68.9227 203.639 67.92C202.914 66.9174 202.54 65.7334 202.519 64.368H207.319C207.383 65.2854 207.703 66.0107 208.279 66.544C208.876 67.0774 209.687 67.344 210.711 67.344C211.756 67.344 212.578 67.0987 213.175 66.608C213.772 66.096 214.071 65.4347 214.071 64.624C214.071 63.9627 213.868 63.4187 213.463 62.992C213.058 62.5654 212.546 62.2347 211.927 62C211.33 61.744 210.498 61.4667 209.431 61.168C207.98 60.7414 206.796 60.3254 205.879 59.92C204.983 59.4934 204.204 58.864 203.543 58.032C202.903 57.1787 202.583 56.048 202.583 54.64C202.583 53.3174 202.914 52.1654 203.575 51.184C204.236 50.2027 205.164 49.456 206.359 48.944C207.554 48.4107 208.919 48.144 210.455 48.144C212.759 48.144 214.626 48.7094 216.055 49.84C217.506 50.9494 218.306 52.5067 218.455 54.512H213.527C213.484 53.744 213.154 53.1147 212.535 52.624C211.938 52.112 211.138 51.856 210.135 51.856C209.26 51.856 208.556 52.08 208.023 52.528C207.511 52.976 207.255 53.6267 207.255 54.48C207.255 55.0774 207.447 55.5787 207.831 55.984C208.236 56.368 208.727 56.688 209.303 56.944C209.9 57.1787 210.732 57.456 211.799 57.776C213.25 58.2027 214.434 58.6294 215.351 59.056C216.268 59.4827 217.058 60.1227 217.719 60.976C218.38 61.8294 218.711 62.9494 218.711 64.336C218.711 65.5307 218.402 66.64 217.783 67.664C217.164 68.688 216.258 69.5094 215.063 70.128C213.868 70.7254 212.45 71.024 210.807 71.024ZM230.627 71.024C229.07 71.024 227.662 70.7574 226.403 70.224C225.166 69.6907 224.184 68.9227 223.459 67.92C222.734 66.9174 222.36 65.7334 222.339 64.368H227.139C227.203 65.2854 227.523 66.0107 228.099 66.544C228.696 67.0774 229.507 67.344 230.531 67.344C231.576 67.344 232.398 67.0987 232.995 66.608C233.592 66.096 233.891 65.4347 233.891 64.624C233.891 63.9627 233.688 63.4187 233.283 62.992C232.878 62.5654 232.366 62.2347 231.747 62C231.15 61.744 230.318 61.4667 229.251 61.168C227.8 60.7414 226.616 60.3254 225.699 59.92C224.803 59.4934 224.024 58.864 223.363 58.032C222.723 57.1787 222.403 56.048 222.403 54.64C222.403 53.3174 222.734 52.1654 223.395 51.184C224.056 50.2027 224.984 49.456 226.179 48.944C227.374 48.4107 228.739 48.144 230.275 48.144C232.579 48.144 234.446 48.7094 235.875 49.84C237.326 50.9494 238.126 52.5067 238.275 54.512H233.347C233.304 53.744 232.974 53.1147 232.355 52.624C231.758 52.112 230.958 51.856 229.955 51.856C229.08 51.856 228.376 52.08 227.843 52.528C227.331 52.976 227.075 53.6267 227.075 54.48C227.075 55.0774 227.267 55.5787 227.651 55.984C228.056 56.368 228.547 56.688 229.123 56.944C229.72 57.1787 230.552 57.456 231.619 57.776C233.07 58.2027 234.254 58.6294 235.171 59.056C236.088 59.4827 236.878 60.1227 237.539 60.976C238.2 61.8294 238.531 62.9494 238.531 64.336C238.531 65.5307 238.222 66.64 237.603 67.664C236.984 68.688 236.078 69.5094 234.883 70.128C233.688 70.7254 232.27 71.024 230.627 71.024Z" fill="#3B3C44"/>
<path d="M368.524 58.6438C368.524 59.1667 368.369 59.6779 368.078 60.1127C367.788 60.5475 367.375 60.8863 366.892 61.0864C366.409 61.2865 365.877 61.3389 365.364 61.2369C364.852 61.1349 364.38 60.8831 364.011 60.5133C363.641 60.1436 363.389 59.6725 363.287 59.1596C363.185 58.6468 363.237 58.1152 363.438 57.6321C363.638 57.149 363.977 56.7361 364.411 56.4456C364.846 56.1551 365.357 56 365.88 56C366.581 56 367.254 56.2785 367.75 56.7744C368.245 57.2702 368.524 57.9427 368.524 58.6438ZM354.644 56C354.121 56 353.61 56.1551 353.175 56.4456C352.74 56.7361 352.401 57.149 352.201 57.6321C352.001 58.1152 351.949 58.6468 352.051 59.1596C352.153 59.6725 352.405 60.1436 352.774 60.5133C353.144 60.8831 353.615 61.1349 354.128 61.2369C354.641 61.3389 355.172 61.2865 355.656 61.0864C356.139 60.8863 356.552 60.5475 356.842 60.1127C357.133 59.6779 357.288 59.1667 357.288 58.6438C357.288 57.9427 357.009 57.2702 356.513 56.7744C356.018 56.2785 355.345 56 354.644 56ZM377.116 56C376.594 56 376.082 56.1551 375.648 56.4456C375.213 56.7361 374.874 57.149 374.674 57.6321C374.474 58.1152 374.421 58.6468 374.523 59.1596C374.625 59.6725 374.877 60.1436 375.247 60.5133C375.617 60.8831 376.088 61.1349 376.601 61.2369C377.114 61.3389 377.645 61.2865 378.128 61.0864C378.611 60.8863 379.024 60.5475 379.315 60.1127C379.605 59.6779 379.76 59.1667 379.76 58.6438C379.76 57.9427 379.482 57.2702 378.986 56.7744C378.49 56.2785 377.818 56 377.116 56Z" fill="#3B3C44"/>
<rect width="198" height="36" transform="translate(59.5996 96.2)" fill="white"/>
<rect x="59.8082" y="96.7667" width="195.871" height="34.866" rx="17.433" fill="white"/>
<rect x="59.8082" y="96.7667" width="195.871" height="34.866" rx="17.433" stroke="#D2D2D2" stroke-width="1.134"/>
<g clip-path="url(#clip0_38_1187)">
<g clip-path="url(#clip1_38_1187)">
<path d="M74.2412 114.195C74.2412 114.562 74.3869 114.913 74.6461 115.172C74.9054 115.432 75.257 115.577 75.6236 115.577C75.9902 115.577 76.3419 115.432 76.6011 115.172C76.8604 114.913 77.006 114.562 77.006 114.195V112.352C77.006 112.17 76.9703 111.99 76.9008 111.823C76.8313 111.655 76.7295 111.503 76.6011 111.374C76.4727 111.246 76.3204 111.144 76.1526 111.075C75.9849 111.005 75.8052 110.969 75.6236 110.969C75.4421 110.969 75.2623 111.005 75.0946 111.075C74.9269 111.144 74.7745 111.246 74.6461 111.374C74.5177 111.503 74.4159 111.655 74.3464 111.823C74.277 111.99 74.2412 112.17 74.2412 112.352V114.195ZM85.7612 115.049C85.7612 114.868 85.7255 114.688 85.656 114.52C85.5865 114.353 85.4847 114.2 85.3563 114.072C85.2279 113.944 85.0756 113.842 84.9078 113.772C84.7401 113.703 84.5604 113.667 84.3788 113.667C84.1973 113.667 84.0175 113.703 83.8498 113.772C83.6821 113.842 83.5297 113.944 83.4013 114.072C83.2729 114.2 83.1711 114.353 83.1016 114.52C83.0322 114.688 82.9964 114.868 82.9964 115.049V116.893C82.9964 117.074 83.0322 117.254 83.1016 117.422C83.1711 117.589 83.2729 117.742 83.4013 117.87C83.5297 117.998 83.6821 118.1 83.8498 118.17C84.0175 118.239 84.1973 118.275 84.3788 118.275C84.5604 118.275 84.7401 118.239 84.9078 118.17C85.0756 118.1 85.2279 117.998 85.3563 117.87C85.4847 117.742 85.5865 117.589 85.656 117.422C85.7255 117.254 85.7612 117.074 85.7612 116.893V115.049ZM93.182 115.702C92.9976 115.697 92.814 115.729 92.642 115.795C92.4699 115.862 92.3127 115.962 92.1796 116.089C92.0465 116.217 91.9402 116.37 91.8667 116.539C91.7932 116.708 91.7541 116.891 91.7516 117.075C91.7364 117.461 91.6241 117.838 91.4252 118.169C91.3288 118.327 91.2649 118.502 91.2373 118.685C91.2097 118.867 91.219 119.054 91.2647 119.233C91.3103 119.412 91.3914 119.58 91.503 119.727C91.6147 119.874 91.7547 119.997 91.9148 120.089C92.1254 120.22 92.3679 120.29 92.6156 120.291C92.856 120.29 93.092 120.226 93.3006 120.107C93.5092 119.988 93.6833 119.816 93.806 119.609C94.2405 118.878 94.4847 118.05 94.5164 117.2C94.5308 117.013 94.5073 116.825 94.4474 116.648C94.3875 116.47 94.2924 116.307 94.1678 116.167C94.0432 116.027 93.8917 115.914 93.7223 115.834C93.5529 115.754 93.3691 115.709 93.182 115.702ZM82.3532 109.827C82.6147 110.098 82.8088 110.427 82.9196 110.787C82.9978 111.079 83.1699 111.337 83.4094 111.52C83.6489 111.704 83.9424 111.804 84.2444 111.805C84.3688 111.819 84.4944 111.819 84.6188 111.805C84.9711 111.706 85.2699 111.472 85.4499 111.153C85.6298 110.835 85.6762 110.458 85.5788 110.105C85.3542 109.287 84.9285 108.538 84.3404 107.926C84.2161 107.789 84.0654 107.677 83.8972 107.599C83.729 107.521 83.5468 107.477 83.3615 107.471C83.1761 107.465 82.9913 107.496 82.8182 107.562C82.6451 107.629 82.4871 107.729 82.3538 107.858C82.2204 107.987 82.1143 108.142 82.0418 108.312C81.9693 108.483 81.932 108.667 81.9319 108.852C81.9319 109.038 81.9691 109.221 82.0415 109.392C82.1139 109.563 82.2199 109.717 82.3532 109.846V109.827ZM86.3756 121.741C86.9209 121.922 87.4907 122.019 88.0652 122.029H88.6412C89.0078 122.029 89.3595 121.883 89.6187 121.624C89.878 121.364 90.0236 121.013 90.0236 120.646C90.0236 120.28 89.878 119.928 89.6187 119.669C89.3595 119.409 89.0078 119.264 88.6412 119.264H88.0652C87.804 119.257 87.5453 119.211 87.2972 119.129C87.1258 119.066 86.9436 119.038 86.761 119.045C86.5785 119.052 86.3992 119.096 86.2334 119.172C86.0676 119.249 85.9185 119.358 85.7947 119.492C85.6708 119.626 85.5746 119.784 85.5116 119.955C85.4486 120.126 85.4199 120.309 85.4273 120.491C85.4347 120.674 85.4779 120.853 85.5546 121.019C85.6313 121.185 85.7398 121.334 85.8741 121.458C86.0084 121.581 86.1658 121.678 86.3372 121.741H86.3756ZM79.1468 109.126C79.5001 109.085 79.824 108.91 80.0511 108.636C80.2783 108.362 80.3912 108.012 80.3665 107.657C80.3418 107.302 80.1813 106.971 79.9184 106.731C79.6555 106.492 79.3104 106.363 78.9548 106.371C78.1054 106.433 77.2845 106.703 76.5644 107.158C76.2551 107.359 76.0383 107.675 75.9618 108.036C75.8853 108.397 75.9553 108.774 76.1564 109.083C76.3576 109.392 76.6733 109.609 77.0343 109.686C77.3953 109.762 77.7719 109.692 78.0812 109.491C78.4008 109.283 78.7669 109.158 79.1468 109.126ZM96.878 113.235L94.1132 110.451C93.8544 110.204 93.5106 110.067 93.1532 110.067C92.7958 110.067 92.452 110.204 92.1932 110.451L89.39 113.235C89.1971 113.427 89.0653 113.672 89.011 113.939C88.9568 114.206 88.9826 114.483 89.0851 114.735C89.1876 114.987 89.3624 115.203 89.5874 115.357C89.8124 115.51 90.0777 115.593 90.35 115.597H95.8796C96.1519 115.593 96.4172 115.51 96.6422 115.357C96.8672 115.203 97.042 114.987 97.1445 114.735C97.2471 114.483 97.2728 114.206 97.2186 113.939C97.1643 113.672 97.0325 113.427 96.8396 113.235H96.878Z" fill="#A4A4A4"/>
</g>
</g>
<path d="M113.762 120.892C112.67 120.892 111.731 120.706 110.947 120.333C110.163 119.948 109.559 119.363 109.135 118.579C108.711 117.782 108.473 116.786 108.422 115.591C108.409 115.026 108.403 114.486 108.403 113.972C108.403 113.445 108.409 112.899 108.422 112.333C108.473 111.151 108.718 110.167 109.155 109.384C109.604 108.587 110.221 107.996 111.005 107.61C111.802 107.212 112.721 107.012 113.762 107.012C114.816 107.012 115.735 107.212 116.519 107.61C117.316 107.996 117.939 108.587 118.389 109.384C118.839 110.167 119.083 111.151 119.121 112.333C119.147 112.899 119.16 113.445 119.16 113.972C119.16 114.486 119.147 115.026 119.121 115.591C119.083 116.786 118.845 117.782 118.408 118.579C117.984 119.363 117.38 119.948 116.596 120.333C115.812 120.706 114.867 120.892 113.762 120.892ZM113.762 119.254C114.752 119.254 115.555 118.958 116.172 118.367C116.802 117.776 117.142 116.818 117.194 115.495C117.219 114.916 117.232 114.402 117.232 113.952C117.232 113.49 117.219 112.976 117.194 112.41C117.168 111.523 117.001 110.804 116.692 110.251C116.397 109.698 115.998 109.294 115.497 109.037C114.996 108.779 114.418 108.651 113.762 108.651C113.132 108.651 112.567 108.779 112.066 109.037C111.564 109.294 111.16 109.698 110.851 110.251C110.555 110.804 110.388 111.523 110.35 112.41C110.337 112.976 110.331 113.49 110.331 113.952C110.331 114.402 110.337 114.916 110.35 115.495C110.401 116.818 110.742 117.776 111.372 118.367C112.001 118.958 112.798 119.254 113.762 119.254ZM126.423 120.892C125.601 120.892 124.9 120.713 124.322 120.353C123.756 119.98 123.326 119.466 123.03 118.81C122.735 118.155 122.587 117.403 122.587 116.555V111.119C122.587 110.99 122.625 110.887 122.702 110.81C122.792 110.72 122.902 110.675 123.03 110.675H123.994C124.123 110.675 124.225 110.72 124.302 110.81C124.392 110.887 124.437 110.99 124.437 111.119V116.459C124.437 118.373 125.273 119.331 126.944 119.331C127.74 119.331 128.377 119.08 128.852 118.579C129.34 118.065 129.585 117.358 129.585 116.459V111.119C129.585 110.99 129.623 110.887 129.7 110.81C129.79 110.72 129.899 110.675 130.028 110.675H130.973C131.114 110.675 131.223 110.72 131.3 110.81C131.377 110.887 131.416 110.99 131.416 111.119V120.256C131.416 120.385 131.377 120.494 131.3 120.584C131.223 120.661 131.114 120.7 130.973 120.7H130.086C129.957 120.7 129.848 120.661 129.758 120.584C129.681 120.494 129.642 120.385 129.642 120.256V119.408C129.295 119.858 128.871 120.218 128.37 120.488C127.882 120.758 127.233 120.892 126.423 120.892ZM135.687 120.7C135.559 120.7 135.45 120.661 135.36 120.584C135.282 120.494 135.244 120.385 135.244 120.256V111.138C135.244 111.009 135.282 110.9 135.36 110.81C135.45 110.72 135.559 110.675 135.687 110.675H136.574C136.703 110.675 136.812 110.72 136.902 110.81C136.992 110.9 137.037 111.009 137.037 111.138V111.986C137.294 111.549 137.647 111.221 138.097 111.003C138.547 110.784 139.087 110.675 139.716 110.675H140.488C140.616 110.675 140.719 110.72 140.796 110.81C140.873 110.887 140.912 110.99 140.912 111.119V111.909C140.912 112.037 140.873 112.14 140.796 112.217C140.719 112.294 140.616 112.333 140.488 112.333H139.331C138.637 112.333 138.091 112.539 137.692 112.95C137.294 113.348 137.095 113.895 137.095 114.589V120.256C137.095 120.385 137.05 120.494 136.96 120.584C136.87 120.661 136.76 120.7 136.632 120.7H135.687ZM147.605 120.7C147.502 120.7 147.412 120.661 147.335 120.584C147.258 120.507 147.219 120.417 147.219 120.314C147.219 120.25 147.226 120.179 147.239 120.102L152.02 107.629C152.071 107.501 152.142 107.398 152.232 107.321C152.322 107.244 152.457 107.205 152.636 107.205H153.947C154.114 107.205 154.243 107.244 154.333 107.321C154.436 107.398 154.513 107.501 154.564 107.629L159.326 120.102C159.352 120.179 159.364 120.25 159.364 120.314C159.364 120.417 159.326 120.507 159.249 120.584C159.172 120.661 159.082 120.7 158.979 120.7H157.996C157.842 120.7 157.726 120.661 157.649 120.584C157.584 120.507 157.539 120.436 157.514 120.372L156.453 117.635H150.13L149.07 120.372C149.057 120.436 149.012 120.507 148.935 120.584C148.858 120.661 148.742 120.7 148.588 120.7H147.605ZM150.689 115.977H155.894L153.292 109.133L150.689 115.977ZM162.602 124.363C162.473 124.363 162.364 124.318 162.274 124.228C162.197 124.15 162.158 124.048 162.158 123.919V111.119C162.158 110.99 162.197 110.887 162.274 110.81C162.364 110.72 162.473 110.675 162.602 110.675H163.488C163.617 110.675 163.72 110.72 163.797 110.81C163.887 110.887 163.932 110.99 163.932 111.119V111.967C164.24 111.543 164.652 111.189 165.166 110.906C165.68 110.624 166.322 110.482 167.093 110.482C167.813 110.482 168.424 110.604 168.925 110.849C169.439 111.093 169.857 111.427 170.178 111.851C170.512 112.275 170.763 112.757 170.93 113.297C171.097 113.837 171.187 114.415 171.2 115.032C171.213 115.238 171.219 115.456 171.219 115.687C171.219 115.919 171.213 116.137 171.2 116.343C171.187 116.947 171.097 117.525 170.93 118.078C170.763 118.618 170.512 119.1 170.178 119.524C169.857 119.935 169.439 120.269 168.925 120.526C168.424 120.77 167.813 120.892 167.093 120.892C166.348 120.892 165.718 120.758 165.204 120.488C164.703 120.205 164.292 119.858 163.97 119.447V123.919C163.97 124.048 163.932 124.15 163.855 124.228C163.778 124.318 163.668 124.363 163.527 124.363H162.602ZM166.689 119.331C167.357 119.331 167.877 119.19 168.25 118.907C168.636 118.611 168.912 118.232 169.079 117.769C169.246 117.294 169.343 116.786 169.368 116.246C169.381 115.874 169.381 115.501 169.368 115.128C169.343 114.589 169.246 114.087 169.079 113.625C168.912 113.149 168.636 112.77 168.25 112.487C167.877 112.192 167.357 112.044 166.689 112.044C166.059 112.044 165.545 112.192 165.146 112.487C164.761 112.783 164.472 113.162 164.279 113.625C164.099 114.075 163.996 114.537 163.97 115.013C163.958 115.218 163.951 115.463 163.951 115.745C163.951 116.028 163.958 116.279 163.97 116.497C163.983 116.947 164.086 117.39 164.279 117.827C164.484 118.264 164.787 118.624 165.185 118.907C165.583 119.19 166.085 119.331 166.689 119.331ZM175.05 124.363C174.921 124.363 174.812 124.318 174.722 124.228C174.645 124.15 174.606 124.048 174.606 123.919V111.119C174.606 110.99 174.645 110.887 174.722 110.81C174.812 110.72 174.921 110.675 175.05 110.675H175.936C176.065 110.675 176.168 110.72 176.245 110.81C176.335 110.887 176.38 110.99 176.38 111.119V111.967C176.688 111.543 177.099 111.189 177.613 110.906C178.128 110.624 178.77 110.482 179.541 110.482C180.261 110.482 180.871 110.604 181.373 110.849C181.887 111.093 182.304 111.427 182.626 111.851C182.96 112.275 183.211 112.757 183.378 113.297C183.545 113.837 183.635 114.415 183.648 115.032C183.66 115.238 183.667 115.456 183.667 115.687C183.667 115.919 183.66 116.137 183.648 116.343C183.635 116.947 183.545 117.525 183.378 118.078C183.211 118.618 182.96 119.1 182.626 119.524C182.304 119.935 181.887 120.269 181.373 120.526C180.871 120.77 180.261 120.892 179.541 120.892C178.796 120.892 178.166 120.758 177.652 120.488C177.151 120.205 176.74 119.858 176.418 119.447V123.919C176.418 124.048 176.38 124.15 176.303 124.228C176.225 124.318 176.116 124.363 175.975 124.363H175.05ZM179.136 119.331C179.805 119.331 180.325 119.19 180.698 118.907C181.084 118.611 181.36 118.232 181.527 117.769C181.694 117.294 181.79 116.786 181.816 116.246C181.829 115.874 181.829 115.501 181.816 115.128C181.79 114.589 181.694 114.087 181.527 113.625C181.36 113.149 181.084 112.77 180.698 112.487C180.325 112.192 179.805 112.044 179.136 112.044C178.507 112.044 177.993 112.192 177.594 112.487C177.209 112.783 176.919 113.162 176.727 113.625C176.547 114.075 176.444 114.537 176.418 115.013C176.405 115.218 176.399 115.463 176.399 115.745C176.399 116.028 176.405 116.279 176.418 116.497C176.431 116.947 176.534 117.39 176.727 117.827C176.932 118.264 177.234 118.624 177.633 118.907C178.031 119.19 178.532 119.331 179.136 119.331ZM187.478 120.7C187.35 120.7 187.24 120.661 187.15 120.584C187.073 120.494 187.035 120.385 187.035 120.256V111.138C187.035 111.009 187.073 110.9 187.15 110.81C187.24 110.72 187.35 110.675 187.478 110.675H188.365C188.493 110.675 188.603 110.72 188.693 110.81C188.783 110.9 188.828 111.009 188.828 111.138V111.986C189.085 111.549 189.438 111.221 189.888 111.003C190.338 110.784 190.877 110.675 191.507 110.675H192.278C192.407 110.675 192.51 110.72 192.587 110.81C192.664 110.887 192.702 110.99 192.702 111.119V111.909C192.702 112.037 192.664 112.14 192.587 112.217C192.51 112.294 192.407 112.333 192.278 112.333H191.122C190.428 112.333 189.881 112.539 189.483 112.95C189.085 113.348 188.885 113.895 188.885 114.589V120.256C188.885 120.385 188.84 120.494 188.75 120.584C188.66 120.661 188.551 120.7 188.423 120.7H187.478ZM199.24 120.892C198.263 120.892 197.447 120.706 196.792 120.333C196.136 119.961 195.635 119.447 195.288 118.791C194.941 118.123 194.748 117.365 194.71 116.516C194.697 116.298 194.69 116.022 194.69 115.687C194.69 115.34 194.697 115.064 194.71 114.858C194.748 113.997 194.941 113.239 195.288 112.584C195.648 111.928 196.155 111.414 196.811 111.041C197.466 110.669 198.276 110.482 199.24 110.482C200.204 110.482 201.014 110.669 201.669 111.041C202.324 111.414 202.826 111.928 203.173 112.584C203.533 113.239 203.732 113.997 203.77 114.858C203.783 115.064 203.79 115.34 203.79 115.687C203.79 116.022 203.783 116.298 203.77 116.516C203.732 117.365 203.539 118.123 203.192 118.791C202.845 119.447 202.344 119.961 201.688 120.333C201.033 120.706 200.217 120.892 199.24 120.892ZM199.24 119.408C200.037 119.408 200.673 119.157 201.148 118.656C201.624 118.142 201.881 117.397 201.92 116.42C201.932 116.227 201.939 115.983 201.939 115.687C201.939 115.392 201.932 115.148 201.92 114.955C201.881 113.978 201.624 113.239 201.148 112.738C200.673 112.224 200.037 111.967 199.24 111.967C198.443 111.967 197.801 112.224 197.312 112.738C196.837 113.239 196.586 113.978 196.56 114.955C196.547 115.148 196.541 115.392 196.541 115.687C196.541 115.983 196.547 116.227 196.56 116.42C196.586 117.397 196.837 118.142 197.312 118.656C197.801 119.157 198.443 119.408 199.24 119.408ZM209.963 120.892C209.32 120.892 208.735 120.764 208.208 120.507C207.682 120.25 207.257 119.903 206.936 119.466C206.615 119.029 206.454 118.534 206.454 117.982C206.454 117.095 206.814 116.388 207.534 115.861C208.253 115.334 209.192 114.987 210.348 114.82L213.221 114.415V113.856C213.221 113.239 213.041 112.757 212.681 112.41C212.334 112.063 211.762 111.89 210.965 111.89C210.387 111.89 209.918 112.005 209.558 112.237C209.211 112.468 208.967 112.764 208.825 113.123C208.748 113.316 208.613 113.413 208.42 113.413H207.553C207.412 113.413 207.302 113.374 207.225 113.297C207.161 113.207 207.129 113.104 207.129 112.989C207.129 112.796 207.2 112.558 207.341 112.275C207.495 111.992 207.726 111.716 208.035 111.446C208.343 111.176 208.735 110.951 209.211 110.772C209.699 110.579 210.29 110.482 210.984 110.482C211.756 110.482 212.405 110.585 212.932 110.791C213.458 110.984 213.87 111.247 214.165 111.581C214.474 111.915 214.692 112.294 214.821 112.719C214.962 113.143 215.033 113.573 215.033 114.01V120.256C215.033 120.385 214.988 120.494 214.898 120.584C214.821 120.661 214.718 120.7 214.589 120.7H213.703C213.561 120.7 213.452 120.661 213.375 120.584C213.298 120.494 213.259 120.385 213.259 120.256V119.427C213.092 119.659 212.867 119.89 212.585 120.121C212.302 120.34 211.948 120.526 211.524 120.68C211.1 120.822 210.58 120.892 209.963 120.892ZM210.368 119.447C210.895 119.447 211.376 119.337 211.813 119.119C212.25 118.888 212.591 118.534 212.835 118.059C213.092 117.583 213.221 116.985 213.221 116.266V115.726L210.984 116.054C210.072 116.182 209.384 116.401 208.922 116.709C208.459 117.005 208.228 117.384 208.228 117.847C208.228 118.206 208.331 118.508 208.536 118.753C208.755 118.984 209.025 119.157 209.346 119.273C209.68 119.389 210.021 119.447 210.368 119.447ZM222.816 120.892C221.904 120.892 221.114 120.719 220.445 120.372C219.79 120.012 219.282 119.504 218.922 118.849C218.562 118.181 218.37 117.384 218.344 116.459C218.331 116.266 218.325 116.009 218.325 115.687C218.325 115.366 218.331 115.109 218.344 114.916C218.37 113.991 218.562 113.201 218.922 112.545C219.282 111.877 219.79 111.369 220.445 111.022C221.114 110.662 221.904 110.482 222.816 110.482C223.562 110.482 224.198 110.585 224.725 110.791C225.265 110.996 225.708 111.26 226.055 111.581C226.402 111.903 226.659 112.25 226.826 112.622C227.006 112.995 227.103 113.348 227.115 113.683C227.128 113.811 227.09 113.914 227 113.991C226.91 114.068 226.801 114.107 226.672 114.107H225.747C225.618 114.107 225.522 114.081 225.458 114.03C225.393 113.965 225.329 113.862 225.265 113.721C225.033 113.091 224.719 112.648 224.32 112.391C223.922 112.134 223.427 112.005 222.836 112.005C222.065 112.005 221.435 112.243 220.947 112.719C220.471 113.194 220.214 113.959 220.175 115.013C220.163 115.475 220.163 115.925 220.175 116.362C220.214 117.429 220.471 118.2 220.947 118.676C221.435 119.138 222.065 119.37 222.836 119.37C223.427 119.37 223.922 119.241 224.32 118.984C224.719 118.727 225.033 118.284 225.265 117.654C225.329 117.512 225.393 117.416 225.458 117.365C225.522 117.3 225.618 117.268 225.747 117.268H226.672C226.801 117.268 226.91 117.307 227 117.384C227.09 117.461 227.128 117.564 227.115 117.692C227.103 117.962 227.045 118.239 226.942 118.521C226.839 118.804 226.672 119.093 226.441 119.389C226.222 119.672 225.946 119.929 225.612 120.16C225.278 120.378 224.873 120.558 224.397 120.7C223.935 120.828 223.408 120.892 222.816 120.892ZM230.831 120.7C230.703 120.7 230.594 120.661 230.504 120.584C230.427 120.494 230.388 120.385 230.388 120.256V107.456C230.388 107.327 230.427 107.224 230.504 107.147C230.594 107.057 230.703 107.012 230.831 107.012H231.795C231.937 107.012 232.046 107.057 232.123 107.147C232.2 107.224 232.239 107.327 232.239 107.456V111.947C232.586 111.511 233.01 111.157 233.511 110.887C234.012 110.617 234.649 110.482 235.42 110.482C236.255 110.482 236.962 110.669 237.54 111.041C238.131 111.401 238.575 111.909 238.87 112.564C239.179 113.207 239.333 113.959 239.333 114.82V120.256C239.333 120.385 239.295 120.494 239.217 120.584C239.14 120.661 239.031 120.7 238.89 120.7H237.926C237.797 120.7 237.688 120.661 237.598 120.584C237.521 120.494 237.482 120.385 237.482 120.256V114.916C237.482 114.017 237.264 113.316 236.827 112.815C236.39 112.301 235.747 112.044 234.899 112.044C234.102 112.044 233.46 112.301 232.971 112.815C232.483 113.316 232.239 114.017 232.239 114.916V120.256C232.239 120.385 232.2 120.494 232.123 120.584C232.046 120.661 231.937 120.7 231.795 120.7H230.831Z" fill="#A4A4A4"/>
</g>
<defs>
<filter id="filter0_d_38_1187" x="0" y="0" width="441.4" height="176" filterUnits="userSpaceOnUse" color-interpolation-filters="sRGB">
<feFlood flood-opacity="0" result="BackgroundImageFix"/>
<feColorMatrix in="SourceAlpha" type="matrix" values="0 0 0 0 0 0 0 0 0 0 0 0 0 0 0 0 0 0 127 0" result="hardAlpha"/>
<feOffset/>
<feGaussianBlur stdDeviation="10"/>
<feComposite in2="hardAlpha" operator="out"/>
<feColorMatrix type="matrix" values="0 0 0 0 0 0 0 0 0 0 0 0 0 0 0 0 0 0 0.04 0"/>
<feBlend mode="normal" in2="BackgroundImageFix" result="effect1_dropShadow_38_1187"/>
<feBlend mode="normal" in="SourceGraphic" in2="effect1_dropShadow_38_1187" result="shape"/>
</filter>
<clipPath id="clip0_38_1187">
<rect width="23.0051" height="39.658" fill="white" transform="translate(74.2412 94.3706)"/>
</clipPath>
<clipPath id="clip1_38_1187">
<rect width="23.0051" height="15.658" fill="white" transform="translate(74.2412 106.371)"/>
</clipPath>
</defs>
</svg>
