<svg width="16" height="332" viewBox="0 0 16 332" fill="none" xmlns="http://www.w3.org/2000/svg">
<path d="M15.84 324.7C14.9733 324.847 14.04 325.233 13.04 325.86C12.0267 326.487 11.0867 327.38 10.22 328.54C9.35333 329.687 8.8 330.833 8.56 331.98L7.72 331.98C7.45333 330.847 6.96 329.76 6.24 328.72C5.50667 327.667 4.62667 326.787 3.6 326.08C2.54667 325.36 1.50667 324.9 0.479999 324.7L0.479999 323.86C1.14667 323.74 1.83333 323.5 2.54 323.14C3.23333 322.78 3.9 322.32 4.54 321.76C5.16667 321.187 5.73333 320.547 6.24 319.84C6.98667 318.787 7.48 317.713 7.72 316.62L8.56 316.62C8.70667 317.353 9.00667 318.113 9.46 318.9C9.91333 319.673 10.4533 320.393 11.08 321.06C11.6933 321.727 12.34 322.273 13.02 322.7C14.02 323.327 14.96 323.713 15.84 323.86L15.84 324.7ZM11.9 307.942C10.7933 306.662 9.88667 305.656 9.18 304.922C8.46 304.176 7.71333 303.556 6.94 303.062C6.16666 302.569 5.39333 302.322 4.62 302.322C3.82 302.322 3.19333 302.516 2.74 302.902C2.28666 303.276 2.06 303.869 2.06 304.682C2.06 305.469 2.31333 306.082 2.82 306.522C3.31333 306.949 3.98 307.176 4.82 307.202L4.82 309.402C3.3 309.362 2.14 308.909 1.34 308.042C0.526665 307.162 0.119998 306.049 0.119998 304.702C0.119998 303.249 0.519998 302.116 1.32 301.302C2.12 300.476 3.18666 300.062 4.52 300.062C5.48 300.062 6.40666 300.309 7.3 300.802C8.18 301.282 8.97333 301.862 9.68 302.542C10.3733 303.209 11.18 304.062 12.1 305.102L12.9 306.002L12.9 299.662L14.8 299.662L14.8 309.382L13.14 309.382L11.9 307.942ZM7.52 297.659C5.21333 297.659 3.41333 297.273 2.12 296.499C0.813331 295.713 0.159997 294.366 0.159997 292.459C0.159997 290.553 0.81333 289.213 2.12 288.439C3.41333 287.653 5.21333 287.259 7.52 287.259C9.85333 287.259 11.68 287.653 13 288.439C14.3067 289.213 14.96 290.553 14.96 292.459C14.96 294.366 14.3067 295.713 13 296.499C11.68 297.273 9.85333 297.659 7.52 297.659ZM7.52 289.499C6.44 289.499 5.52666 289.573 4.78 289.719C4.03333 289.853 3.42666 290.133 2.96 290.559C2.48 290.986 2.24 291.619 2.24 292.459C2.24 293.299 2.48 293.933 2.96 294.359C3.42666 294.786 4.03333 295.073 4.78 295.219C5.52666 295.353 6.44 295.419 7.52 295.419C8.64 295.419 9.58 295.353 10.34 295.219C11.1 295.086 11.7133 294.806 12.18 294.379C12.6467 293.939 12.88 293.299 12.88 292.459C12.88 291.619 12.6467 290.986 12.18 290.559C11.7133 290.119 11.1 289.833 10.34 289.699C9.58 289.566 8.64 289.499 7.52 289.499ZM11.9 283.587C10.7933 282.307 9.88666 281.3 9.18 280.567C8.46 279.82 7.71333 279.2 6.94 278.707C6.16666 278.214 5.39333 277.967 4.62 277.967C3.82 277.967 3.19333 278.16 2.74 278.547C2.28666 278.92 2.06 279.514 2.06 280.327C2.06 281.114 2.31333 281.727 2.82 282.167C3.31333 282.594 3.98 282.82 4.82 282.847L4.82 285.047C3.3 285.007 2.14 284.554 1.34 283.687C0.526664 282.807 0.119997 281.694 0.119997 280.347C0.119997 278.894 0.519997 277.76 1.32 276.947C2.12 276.12 3.18666 275.707 4.52 275.707C5.48 275.707 6.40666 275.954 7.3 276.447C8.18 276.927 8.97333 277.507 9.68 278.187C10.3733 278.854 11.18 279.707 12.1 280.747L12.9 281.647L12.9 275.307L14.8 275.307L14.8 285.027L13.14 285.027L11.9 283.587ZM2.38 263.904L2.38 270.604L6.36 270.604C5.98666 270.324 5.67333 269.911 5.42 269.364C5.16666 268.804 5.04 268.211 5.04 267.584C5.04 266.464 5.28 265.557 5.76 264.864C6.24 264.157 6.84666 263.657 7.58 263.364C8.31333 263.057 9.08666 262.904 9.9 262.904C10.8867 262.904 11.7667 263.097 12.54 263.484C13.3 263.857 13.9 264.424 14.34 265.184C14.78 265.931 15 266.851 15 267.944C15 269.397 14.64 270.564 13.92 271.444C13.2 272.324 12.2467 272.851 11.06 273.024L11.06 270.804C11.6867 270.657 12.1867 270.331 12.56 269.824C12.92 269.317 13.1 268.684 13.1 267.924C13.1 266.977 12.8133 266.271 12.24 265.804C11.6667 265.324 10.9067 265.084 9.96 265.084C9 265.084 8.26666 265.324 7.76 265.804C7.24 266.284 6.98 266.991 6.98 267.924C6.98 268.577 7.14666 269.131 7.48 269.584C7.8 270.024 8.24 270.344 8.8 270.544L8.8 272.704L0.379997 272.704L0.379997 263.904L2.38 263.904ZM1.09999 240.395L15 240.395L15 242.675L5.48 242.675L15 246.915L15 248.495L5.48 252.755L15 252.755L15 255.035L1.1 255.035L1.1 252.575L12 247.695L1.1 242.835L1.09999 240.395ZM1.09999 226.298L15 226.298L15 228.578L8.92 228.578L8.92 235.118L15 235.118L15 237.398L1.09999 237.398L1.09999 235.118L7.06 235.118L7.06 228.578L1.09999 228.578L1.09999 226.298ZM8.02 224.057C6.65999 224.057 5.43999 223.744 4.36 223.117C3.27999 222.477 2.43999 221.617 1.83999 220.537C1.22666 219.444 0.919994 218.25 0.919994 216.957C0.919994 215.477 1.28666 214.164 2.01999 213.017C2.73999 211.857 3.76666 211.017 5.09999 210.497L5.09999 213.237C4.36666 213.597 3.81999 214.097 3.45999 214.737C3.09999 215.377 2.91999 216.117 2.91999 216.957C2.91999 217.877 3.12666 218.697 3.53999 219.417C3.95333 220.137 4.54666 220.704 5.31999 221.117C6.09333 221.517 6.99333 221.717 8.01999 221.717C9.04666 221.717 9.94666 221.517 10.72 221.117C11.4933 220.704 12.0933 220.137 12.52 219.417C12.9333 218.697 13.14 217.877 13.14 216.957C13.14 216.117 12.96 215.377 12.6 214.737C12.24 214.097 11.6933 213.597 10.96 213.237L10.96 210.497C12.2933 211.017 13.32 211.857 14.04 213.017C14.76 214.164 15.12 215.477 15.12 216.957C15.12 218.264 14.82 219.457 14.22 220.537C13.6067 221.617 12.76 222.477 11.68 223.117C10.6 223.744 9.38 224.057 8.02 224.057ZM1.09999 205.548L15 205.548L15 207.828L1.09999 207.828L1.09999 205.548ZM8.01999 198.119C6.65999 198.119 5.43999 197.806 4.35999 197.179C3.27999 196.539 2.43999 195.679 1.83999 194.599C1.22666 193.506 0.919993 192.313 0.919993 191.019C0.919993 189.539 1.28666 188.226 2.01999 187.079C2.73999 185.919 3.76666 185.079 5.09999 184.559L5.09999 187.299C4.36666 187.659 3.81999 188.159 3.45999 188.799C3.09999 189.439 2.91999 190.179 2.91999 191.019C2.91999 191.939 3.12666 192.759 3.53999 193.479C3.95333 194.199 4.54666 194.766 5.31999 195.179C6.09333 195.579 6.99333 195.779 8.01999 195.779C9.04666 195.779 9.94666 195.579 10.72 195.179C11.4933 194.766 12.0933 194.199 12.52 193.479C12.9333 192.759 13.14 191.939 13.14 191.019C13.14 190.179 12.96 189.439 12.6 188.799C12.24 188.159 11.6933 187.659 10.96 187.299L10.96 184.559C12.2933 185.079 13.32 185.919 14.04 187.079C14.76 188.226 15.12 189.539 15.12 191.019C15.12 192.326 14.82 193.519 14.22 194.599C13.6067 195.679 12.76 196.539 11.68 197.179C10.6 197.806 9.37999 198.119 8.01999 198.119ZM12.16 173.511L12.16 179.331L15 180.331L15 182.711L1.07999 177.731L1.07999 175.091L15 170.111L15 172.511L12.16 173.511ZM10.3 174.151L3.83999 176.411L10.3 178.691L10.3 174.151ZM5.23999 158.225C5.94666 158.225 6.61333 158.392 7.23999 158.725C7.86666 159.059 8.37999 159.592 8.77999 160.325C9.16666 161.059 9.35999 161.999 9.35999 163.145L9.35999 165.665L15 165.665L15 167.945L1.09999 167.945L1.09999 163.145C1.09999 162.079 1.28666 161.179 1.65999 160.445C2.01999 159.699 2.51332 159.145 3.13999 158.785C3.76666 158.412 4.46666 158.225 5.23999 158.225ZM7.49999 163.145C7.49999 162.279 7.30666 161.632 6.91999 161.205C6.51999 160.779 5.95999 160.565 5.23999 160.565C3.71999 160.565 2.95999 161.425 2.95999 163.145L2.95999 165.665L7.49999 165.665L7.49999 163.145ZM15.14 151.471C15.14 152.404 14.98 153.244 14.66 153.991C14.3267 154.737 13.86 155.324 13.26 155.751C12.66 156.177 11.96 156.391 11.16 156.391L11.16 153.951C11.76 153.897 12.2533 153.664 12.64 153.251C13.0267 152.824 13.22 152.231 13.22 151.471C13.22 150.684 13.0333 150.071 12.66 149.631C12.2733 149.191 11.78 148.971 11.18 148.971C10.7133 148.971 10.3333 149.111 10.04 149.391C9.74666 149.657 9.51999 149.997 9.35999 150.411C9.19999 150.811 9.02666 151.371 8.83999 152.091C8.59999 152.997 8.35999 153.737 8.11999 154.311C7.86666 154.871 7.47999 155.351 6.95999 155.751C6.43999 156.151 5.74666 156.351 4.87999 156.351C4.07999 156.351 3.37999 156.151 2.77999 155.751C2.17999 155.351 1.71999 154.791 1.39999 154.071C1.07999 153.351 0.919991 152.517 0.919991 151.571C0.919991 150.224 1.25999 149.124 1.93999 148.271C2.60666 147.404 3.52666 146.924 4.69999 146.831L4.69999 149.351C4.19332 149.391 3.75999 149.631 3.39999 150.071C3.03999 150.511 2.85999 151.091 2.85999 151.811C2.85999 152.464 3.02666 152.997 3.35999 153.411C3.69332 153.824 4.17332 154.031 4.79999 154.031C5.22666 154.031 5.57999 153.904 5.85999 153.651C6.12666 153.384 6.33999 153.051 6.49999 152.651C6.65999 152.251 6.83333 151.704 7.01999 151.011C7.27332 150.091 7.52666 149.344 7.77999 148.771C8.03332 148.184 8.42666 147.691 8.95999 147.291C9.47999 146.877 10.18 146.671 11.06 146.671C11.7667 146.671 12.4333 146.864 13.06 147.251C13.6867 147.624 14.1933 148.177 14.58 148.911C14.9533 149.631 15.14 150.484 15.14 151.471ZM1.09999 135L2.95999 135L2.95999 138.7L15 138.7L15 140.98L2.95999 140.98L2.95999 144.7L1.09999 144.7L1.09999 135ZM15.14 126.351C15.14 127.645 14.84 128.838 14.24 129.931C13.6267 131.011 12.78 131.871 11.7 132.511C10.6067 133.138 9.37999 133.451 8.01999 133.451C6.65999 133.451 5.43999 133.138 4.35999 132.511C3.27999 131.871 2.43999 131.011 1.83999 129.931C1.22666 128.838 0.91999 127.645 0.91999 126.351C0.91999 125.045 1.22666 123.851 1.83999 122.771C2.43999 121.678 3.27999 120.818 4.35999 120.191C5.43999 119.565 6.65999 119.251 8.01999 119.251C9.37999 119.251 10.6067 119.565 11.7 120.191C12.78 120.818 13.6267 121.678 14.24 122.771C14.84 123.851 15.14 125.045 15.14 126.351ZM13.16 126.351C13.16 125.431 12.9533 124.611 12.54 123.891C12.1133 123.171 11.5133 122.611 10.74 122.211C9.95332 121.798 9.04666 121.591 8.01999 121.591C6.99332 121.591 6.09332 121.798 5.31999 122.211C4.54666 122.611 3.95332 123.171 3.53999 123.891C3.12666 124.611 2.91999 125.431 2.91999 126.351C2.91999 127.271 3.12666 128.091 3.53999 128.811C3.95332 129.531 4.54666 130.098 5.31999 130.511C6.09332 130.911 6.99332 131.111 8.01999 131.111C9.04666 131.111 9.95332 130.911 10.74 130.511C11.5133 130.098 12.1133 129.531 12.54 128.811C12.9533 128.091 13.16 127.271 13.16 126.351ZM15 105.588L15 107.868L4.61999 114.728L15 114.728L15 117.008L1.07999 117.008L1.07999 114.728L11.44 107.868L1.07999 107.868L1.07999 105.588L15 105.588ZM2.93999 100.314L7.01999 100.314L7.01999 95.5137L8.87999 95.5137L8.87999 100.314L13.14 100.314L13.14 94.9137L15 94.9137L15 102.594L1.07999 102.594L1.07999 94.9137L2.93999 94.9137L2.93999 100.314ZM5.23999 77.1902C5.94665 77.1902 6.61332 77.3568 7.23999 77.6902C7.86666 78.0235 8.37999 78.5568 8.77999 79.2902C9.16666 80.0235 9.35999 80.9635 9.35999 82.1102L9.35999 84.6302L15 84.6302L15 86.9102L1.09999 86.9102L1.09999 82.1102C1.09999 81.0435 1.28665 80.1435 1.65999 79.4102C2.01999 78.6635 2.51332 78.1102 3.13999 77.7502C3.76666 77.3768 4.46666 77.1902 5.23999 77.1902ZM7.49999 82.1102C7.49999 81.2435 7.30666 80.5968 6.91999 80.1702C6.51999 79.7435 5.95999 79.5302 5.23999 79.5302C3.71999 79.5302 2.95999 80.3902 2.95999 82.1102L2.95999 84.6302L7.49999 84.6302L7.49999 82.1102ZM15 67.7956L9.43999 70.9956L9.43999 72.7356L15 72.7356L15 75.0156L1.09999 75.0156L1.09999 70.2156C1.09999 69.149 1.28665 68.249 1.65999 67.5156C2.03332 66.769 2.53332 66.2156 3.15999 65.8556C3.78665 65.4823 4.48665 65.2956 5.25999 65.2956C6.16665 65.2956 6.99332 65.5623 7.73999 66.0956C8.47332 66.6156 8.97332 67.4223 9.23999 68.5156L15 65.0756L15 67.7956ZM7.61999 72.7356L7.61999 70.2156C7.61999 69.3623 7.40665 68.7223 6.97999 68.2956C6.55332 67.8556 5.97999 67.6356 5.25999 67.6356C4.53999 67.6356 3.97999 67.849 3.57999 68.2756C3.16665 68.7023 2.95999 69.349 2.95999 70.2156L2.95999 72.7356L7.61999 72.7356ZM15.14 56.0389C15.14 57.3322 14.84 58.5256 14.24 59.6189C13.6267 60.6989 12.78 61.5589 11.7 62.1989C10.6067 62.8256 9.37999 63.1389 8.01999 63.1389C6.65999 63.1389 5.43999 62.8256 4.35999 62.1989C3.27999 61.5589 2.43999 60.6989 1.83999 59.6189C1.22665 58.5256 0.919987 57.3322 0.919987 56.0389C0.919987 54.7322 1.22665 53.5389 1.83999 52.4589C2.43999 51.3656 3.27999 50.5056 4.35999 49.8789C5.43999 49.2522 6.65999 48.9389 8.01999 48.9389C9.37999 48.9389 10.6067 49.2522 11.7 49.8789C12.78 50.5056 13.6267 51.3656 14.24 52.4589C14.84 53.5389 15.14 54.7322 15.14 56.0389ZM13.16 56.0389C13.16 55.1189 12.9533 54.2989 12.54 53.5789C12.1133 52.8589 11.5133 52.2989 10.74 51.8989C9.95332 51.4856 9.04665 51.2789 8.01999 51.2789C6.99332 51.2789 6.09332 51.4856 5.31999 51.8989C4.54665 52.2989 3.95332 52.8589 3.53999 53.5789C3.12665 54.2989 2.91999 55.1189 2.91999 56.0389C2.91999 56.9589 3.12665 57.7789 3.53999 58.4989C3.95332 59.2189 4.54665 59.7856 5.31999 60.1989C6.09332 60.5989 6.99332 60.7989 8.01999 60.7989C9.04665 60.7989 9.95332 60.5989 10.74 60.1989C11.5133 59.7856 12.1133 59.2189 12.54 58.4989C12.9533 57.7789 13.16 56.9589 13.16 56.0389ZM1.09999 39.1153L11.12 39.1153C12.36 39.1153 13.34 39.4953 14.06 40.2553C14.78 41.002 15.14 41.9886 15.14 43.2153C15.14 44.442 14.78 45.4353 14.06 46.1953C13.34 46.942 12.36 47.3153 11.12 47.3153L11.12 45.0153C11.7333 45.002 12.22 44.8486 12.58 44.5553C12.94 44.2486 13.12 43.802 13.12 43.2153C13.12 42.6286 12.94 42.182 12.58 41.8753C12.2067 41.5686 11.72 41.4153 11.12 41.4153L1.09999 41.4153L1.09999 39.1153ZM2.93999 33.1262L7.01999 33.1262L7.01999 28.3262L8.87999 28.3262L8.87999 33.1262L13.14 33.1262L13.14 27.7262L15 27.7262L15 35.4062L1.07999 35.4062L1.07999 27.7262L2.93999 27.7262L2.93999 33.1262ZM8.01999 25.678C6.65999 25.678 5.43999 25.3646 4.35999 24.738C3.27999 24.098 2.43999 23.238 1.83999 22.158C1.22665 21.0646 0.919985 19.8713 0.919985 18.578C0.919985 17.098 1.28665 15.7846 2.01999 14.638C2.73999 13.478 3.76665 12.638 5.09999 12.118L5.09999 14.858C4.36665 15.218 3.81999 15.718 3.45999 16.358C3.09999 16.998 2.91999 17.738 2.91999 18.578C2.91999 19.498 3.12665 20.318 3.53999 21.038C3.95332 21.758 4.54665 22.3246 5.31999 22.738C6.09332 23.138 6.99332 23.338 8.01999 23.338C9.04665 23.338 9.94665 23.138 10.72 22.738C11.4933 22.3246 12.0933 21.758 12.52 21.038C12.9333 20.318 13.14 19.498 13.14 18.578C13.14 17.738 12.96 16.998 12.6 16.358C12.24 15.718 11.6933 15.218 10.96 14.858L10.96 12.118C12.2933 12.638 13.32 13.478 14.04 14.638C14.76 15.7846 15.12 17.098 15.12 18.578C15.12 19.8846 14.82 21.078 14.22 22.158C13.6067 23.238 12.76 24.098 11.68 24.738C10.6 25.3646 9.37999 25.678 8.01999 25.678ZM1.09998 0.469217L2.95998 0.469217L2.95998 4.16922L15 4.16922L15 6.44922L2.95998 6.44922L2.95998 10.1692L1.09998 10.1692L1.09998 0.469217Z" fill="#41434B"/>
</svg>
