<svg width="727" height="73" viewBox="0 0 727 73" fill="none" xmlns="http://www.w3.org/2000/svg">
<path d="M24.825 55.975C19.875 55.975 15.525 54.9 11.775 52.75C8.075 50.6 5.175 47.6 3.075 43.75C1.025 39.85 2.12342e-07 35.35 2.12342e-07 30.25C2.12342e-07 25.05 1.025 20.525 3.075 16.675C5.175 12.825 8.075 9.825 11.775 7.675C15.525 5.525 19.875 4.45 24.825 4.45C29.775 4.45 34.1 5.525 37.8 7.675C41.55 9.775 44.45 12.75 46.5 16.6C48.55 20.4 49.575 24.85 49.575 29.95C49.575 35.15 48.55 39.7 46.5 43.6C44.45 47.5 41.55 50.55 37.8 52.75C34.1 54.9 29.775 55.975 24.825 55.975ZM24.825 46.45C28.975 46.45 32.275 44.975 34.725 42.025C37.175 39.075 38.4 35.15 38.4 30.25C38.4 27 37.825 24.15 36.675 21.7C35.575 19.25 34 17.35 31.95 16C29.9 14.65 27.525 14 24.825 14.05C22.125 14 19.75 14.65 17.7 16C15.7 17.35 14.125 19.25 12.975 21.7C11.825 24.15 11.25 27 11.25 30.25C11.25 33.5 11.8 36.35 12.9 38.8C14.05 41.2 15.65 43.075 17.7 44.425C19.75 45.775 22.125 46.45 24.825 46.45ZM68.7908 56.05C64.6908 56.05 61.4658 54.8 59.1158 52.3C56.7658 49.75 55.5908 46.325 55.5908 42.025V16.375H66.1658V40.3C66.1658 42.35 66.6658 43.95 67.6658 45.1C68.6658 46.2 70.0158 46.75 71.7158 46.75C73.4658 46.75 75.1158 46.2 76.6658 45.1C78.2158 44 79.5158 42.525 80.5658 40.675V16.375H91.1408V55H80.5658V49.9C79.2658 51.65 77.6908 53.125 75.8408 54.325C73.9908 55.475 71.6408 56.05 68.7908 56.05ZM99.5883 55V16.375H110.163V22.675H110.763C112.063 20.375 113.413 18.575 114.813 17.275C116.263 15.925 118.138 15.25 120.438 15.25C121.338 15.25 122.088 15.35 122.688 15.55L121.563 26.95C121.013 26.8 120.488 26.675 119.988 26.575C119.488 26.475 118.963 26.425 118.413 26.425C116.563 26.425 115.088 26.975 113.988 28.075C112.888 29.125 111.613 30.55 110.163 32.35V55H99.5883ZM141.409 55V5.05C142.559 5 143.859 4.975 145.309 4.975C146.759 4.975 148.259 4.975 149.809 4.975C151.359 4.975 152.884 4.975 154.384 4.975C155.884 4.975 157.184 5 158.284 5.05C164.184 5.25 168.484 6.7 171.184 9.4C173.884 12.05 175.234 15.45 175.234 19.6C175.234 23.25 174.284 26.375 172.384 28.975C170.534 31.525 167.934 33.225 164.584 34.075C165.734 34.975 166.859 36.2 167.959 37.75C169.059 39.25 170.534 41.475 172.384 44.425C173.334 45.875 174.109 47.15 174.709 48.25C175.359 49.35 175.984 50.425 176.584 51.475C177.184 52.475 177.859 53.65 178.609 55H166.009L157.534 39.25C156.584 37.5 155.734 36.45 154.984 36.1C154.234 35.7 153.184 35.5 151.834 35.5V55H141.409ZM151.834 27.175H156.484C159.084 27.175 161.109 26.525 162.559 25.225C164.009 23.925 164.734 22.175 164.734 19.975C164.734 15.875 162.184 13.825 157.084 13.825H151.834V27.175ZM200.027 56.125C193.827 56.125 188.927 54.325 185.327 50.725C181.727 47.125 179.927 42.125 179.927 35.725C179.927 31.525 180.702 27.9 182.252 24.85C183.802 21.8 185.977 19.45 188.777 17.8C191.627 16.15 194.952 15.325 198.752 15.325C204.352 15.325 208.652 17.125 211.652 20.725C214.652 24.325 216.152 29.525 216.152 36.325C216.152 36.775 216.152 37.225 216.152 37.675C216.152 38.075 216.127 38.475 216.077 38.875H190.577C191.577 44.275 195.152 46.975 201.302 46.975C203.202 46.975 205.127 46.75 207.077 46.3C209.077 45.8 210.827 45.15 212.327 44.35L214.052 52.825C209.902 55.025 205.227 56.125 200.027 56.125ZM190.502 30.925H206.027C205.877 28.775 205.127 27.075 203.777 25.825C202.427 24.525 200.627 23.875 198.377 23.875C196.227 23.875 194.452 24.5 193.052 25.75C191.702 27 190.852 28.725 190.502 30.925ZM233.738 56.125C231.288 56.125 228.913 55.875 226.613 55.375C224.363 54.875 222.438 54.2 220.838 53.35L221.813 44.35C223.513 45.4 225.388 46.25 227.438 46.9C229.488 47.55 231.413 47.875 233.213 47.875C234.813 47.875 236.213 47.575 237.413 46.975C238.613 46.375 239.213 45.45 239.213 44.2C239.213 43 238.563 42.125 237.263 41.575C236.013 41.025 234.063 40.25 231.413 39.25C230.413 38.85 229.288 38.4 228.038 37.9C226.838 37.4 225.688 36.75 224.588 35.95C223.488 35.1 222.588 34.025 221.888 32.725C221.188 31.375 220.838 29.7 220.838 27.7C220.838 25 221.513 22.75 222.863 20.95C224.263 19.1 226.163 17.7 228.563 16.75C230.963 15.8 233.663 15.325 236.663 15.325C238.713 15.325 240.713 15.525 242.663 15.925C244.663 16.325 246.563 16.85 248.363 17.5L246.938 26.425C245.488 25.575 243.838 24.9 241.988 24.4C240.188 23.85 238.488 23.575 236.888 23.575C235.338 23.575 234.038 23.85 232.988 24.4C231.988 24.9 231.488 25.7 231.488 26.8C231.488 27.7 231.838 28.425 232.538 28.975C233.238 29.475 234.188 29.925 235.388 30.325C236.588 30.675 237.913 31.15 239.363 31.75C240.813 32.3 242.338 33 243.938 33.85C245.588 34.7 246.988 35.9 248.138 37.45C249.288 39 249.863 41.125 249.863 43.825C249.863 46.675 249.138 49.025 247.688 50.875C246.288 52.675 244.363 54 241.913 54.85C239.513 55.7 236.788 56.125 233.738 56.125ZM274.078 56.125C267.878 56.125 262.978 54.325 259.378 50.725C255.778 47.125 253.978 42.125 253.978 35.725C253.978 31.525 254.753 27.9 256.303 24.85C257.853 21.8 260.028 19.45 262.828 17.8C265.678 16.15 269.003 15.325 272.803 15.325C278.403 15.325 282.703 17.125 285.703 20.725C288.703 24.325 290.203 29.525 290.203 36.325C290.203 36.775 290.203 37.225 290.203 37.675C290.203 38.075 290.178 38.475 290.128 38.875H264.628C265.628 44.275 269.203 46.975 275.353 46.975C277.253 46.975 279.178 46.75 281.128 46.3C283.128 45.8 284.878 45.15 286.378 44.35L288.103 52.825C283.953 55.025 279.278 56.125 274.078 56.125ZM264.553 30.925H280.078C279.928 28.775 279.178 27.075 277.828 25.825C276.478 24.525 274.678 23.875 272.428 23.875C270.278 23.875 268.503 24.5 267.103 25.75C265.753 27 264.903 28.725 264.553 30.925ZM308.154 56.125C304.204 56.125 301.029 54.45 298.629 51.1C296.279 47.7 295.104 43.05 295.104 37.15C295.104 30.05 296.904 24.65 300.504 20.95C304.104 17.2 309.279 15.325 316.029 15.325C319.829 15.325 324.279 15.925 329.379 17.125V55H319.329L319.554 48.85H319.254C316.654 53.7 312.954 56.125 308.154 56.125ZM310.404 46.9C312.054 46.9 313.629 46.025 315.129 44.275C316.629 42.525 317.979 40.375 319.179 37.825V25.225C318.379 24.975 317.554 24.8 316.704 24.7C315.854 24.6 315.079 24.55 314.379 24.55C308.329 24.55 305.304 28.6 305.304 36.7C305.304 39.85 305.754 42.35 306.654 44.2C307.554 46 308.804 46.9 310.404 46.9ZM338.185 55V16.375H348.76V22.675H349.36C350.66 20.375 352.01 18.575 353.41 17.275C354.86 15.925 356.735 15.25 359.035 15.25C359.935 15.25 360.685 15.35 361.285 15.55L360.16 26.95C359.61 26.8 359.085 26.675 358.585 26.575C358.085 26.475 357.56 26.425 357.01 26.425C355.16 26.425 353.685 26.975 352.585 28.075C351.485 29.125 350.21 30.55 348.76 32.35V55H338.185ZM383.098 56.125C376.698 56.125 371.723 54.425 368.173 51.025C364.673 47.625 362.923 42.825 362.923 36.625C362.923 32.375 363.748 28.65 365.398 25.45C367.048 22.25 369.373 19.775 372.373 18.025C375.373 16.225 378.848 15.325 382.798 15.325C384.698 15.325 386.648 15.55 388.648 16C390.648 16.4 392.198 16.875 393.298 17.425L391.273 26.35C390.123 25.8 388.848 25.375 387.448 25.075C386.048 24.725 384.773 24.55 383.623 24.55C380.573 24.55 378.098 25.6 376.198 27.7C374.298 29.8 373.348 32.575 373.348 36.025C373.348 39.525 374.323 42.225 376.273 44.125C378.223 46.025 380.948 46.975 384.448 46.975C386.798 46.975 389.323 46.525 392.023 45.625L393.598 54.175C391.898 54.825 390.173 55.3 388.423 55.6C386.723 55.95 384.948 56.125 383.098 56.125ZM399.633 55V0.249999H410.208V22C411.808 19.65 413.608 17.95 415.608 16.9C417.608 15.85 419.883 15.325 422.433 15.325C426.583 15.325 429.833 16.575 432.183 19.075C434.533 21.525 435.708 24.95 435.708 29.35V55H425.133V31C425.133 28.95 424.633 27.375 423.633 26.275C422.633 25.175 421.283 24.625 419.583 24.625C417.683 24.625 415.883 25.275 414.183 26.575C412.533 27.875 411.208 29.55 410.208 31.6V55H399.633ZM458.106 55V5.05H468.981V55H458.106ZM478.189 55V16.375H488.539V23.05C490.139 20.35 491.989 18.4 494.089 17.2C496.239 15.95 498.689 15.325 501.439 15.325C505.589 15.325 508.839 16.575 511.189 19.075C513.539 21.525 514.714 24.95 514.714 29.35V55H504.139V31C504.139 28.95 503.639 27.375 502.639 26.275C501.639 25.175 500.289 24.625 498.589 24.625C496.539 24.625 494.614 25.4 492.814 26.95C491.064 28.45 489.714 30.325 488.764 32.575V55H478.189ZM533.787 56.125C531.337 56.125 528.962 55.875 526.662 55.375C524.412 54.875 522.487 54.2 520.887 53.35L521.862 44.35C523.562 45.4 525.437 46.25 527.487 46.9C529.537 47.55 531.462 47.875 533.262 47.875C534.862 47.875 536.262 47.575 537.462 46.975C538.662 46.375 539.262 45.45 539.262 44.2C539.262 43 538.612 42.125 537.312 41.575C536.062 41.025 534.112 40.25 531.462 39.25C530.462 38.85 529.337 38.4 528.087 37.9C526.887 37.4 525.737 36.75 524.637 35.95C523.537 35.1 522.637 34.025 521.937 32.725C521.237 31.375 520.887 29.7 520.887 27.7C520.887 25 521.562 22.75 522.912 20.95C524.312 19.1 526.212 17.7 528.612 16.75C531.012 15.8 533.712 15.325 536.712 15.325C538.762 15.325 540.762 15.525 542.712 15.925C544.712 16.325 546.612 16.85 548.412 17.5L546.987 26.425C545.537 25.575 543.887 24.9 542.037 24.4C540.237 23.85 538.537 23.575 536.937 23.575C535.387 23.575 534.087 23.85 533.037 24.4C532.037 24.9 531.537 25.7 531.537 26.8C531.537 27.7 531.887 28.425 532.587 28.975C533.287 29.475 534.237 29.925 535.437 30.325C536.637 30.675 537.962 31.15 539.412 31.75C540.862 32.3 542.387 33 543.987 33.85C545.637 34.7 547.037 35.9 548.187 37.45C549.337 39 549.912 41.125 549.912 43.825C549.912 46.675 549.187 49.025 547.737 50.875C546.337 52.675 544.412 54 541.962 54.85C539.562 55.7 536.837 56.125 533.787 56.125ZM560.402 10V0.249999H572.477V10H560.402ZM554.552 55V45.925H561.752V25.45H554.552V16.375H572.327V45.925H578.777V55H554.552ZM596.81 72.025C595.01 72.025 592.96 71.9 590.66 71.65C588.41 71.4 586.11 70.95 583.76 70.3L585.785 61C587.835 61.6 589.86 62.1 591.86 62.5C593.86 62.9 595.835 63.1 597.785 63.1C600.385 63.1 602.36 62.675 603.71 61.825C605.11 61.025 606.085 59.75 606.635 58C607.185 56.25 607.51 53.975 607.61 51.175H607.385C604.535 54.475 600.885 56.125 596.435 56.125C592.035 56.125 588.585 54.475 586.085 51.175C583.635 47.825 582.41 43.2 582.41 37.3C582.41 30.15 584.26 24.7 587.96 20.95C591.66 17.2 596.91 15.325 603.71 15.325C605.76 15.325 607.985 15.5 610.385 15.85C612.785 16.15 615.26 16.575 617.81 17.125C617.86 20.975 617.885 24.85 617.885 28.75C617.935 32.65 617.96 36.525 617.96 40.375C617.96 42.125 617.96 43.875 617.96 45.625C617.96 47.375 617.935 49.125 617.885 50.875C617.785 57.975 616.01 63.275 612.56 66.775C609.11 70.275 603.86 72.025 596.81 72.025ZM599.21 46.9C600.81 46.9 602.285 46.325 603.635 45.175C605.035 43.975 606.285 42.35 607.385 40.3V25.225C605.735 24.775 604.135 24.55 602.585 24.55C599.385 24.55 596.985 25.575 595.385 27.625C593.785 29.675 592.985 32.65 592.985 36.55C592.985 39.8 593.51 42.35 594.56 44.2C595.66 46 597.21 46.9 599.21 46.9ZM626.071 55V0.249999H636.646V22C638.246 19.65 640.046 17.95 642.046 16.9C644.046 15.85 646.321 15.325 648.871 15.325C653.021 15.325 656.271 16.575 658.621 19.075C660.971 21.525 662.146 24.95 662.146 29.35V55H651.571V31C651.571 28.95 651.071 27.375 650.071 26.275C649.071 25.175 647.721 24.625 646.021 24.625C644.121 24.625 642.321 25.275 640.621 26.575C638.971 27.875 637.646 29.55 636.646 31.6V55H626.071ZM683.497 56.125C679.897 56.125 677.097 55.225 675.097 53.425C673.147 51.575 672.172 48.975 672.172 45.625V25.45H666.172V16.375H672.172V8.125C675.772 7.525 679.272 7.075 682.672 6.775V16.375H692.422V25.45H682.672V43.675C682.672 45.825 683.872 46.9 686.272 46.9C687.672 46.9 689.272 46.575 691.072 45.925L693.397 53.875C690.197 55.375 686.897 56.125 683.497 56.125ZM710.565 56.125C708.115 56.125 705.74 55.875 703.44 55.375C701.19 54.875 699.265 54.2 697.665 53.35L698.64 44.35C700.34 45.4 702.215 46.25 704.265 46.9C706.315 47.55 708.24 47.875 710.04 47.875C711.64 47.875 713.04 47.575 714.24 46.975C715.44 46.375 716.04 45.45 716.04 44.2C716.04 43 715.39 42.125 714.09 41.575C712.84 41.025 710.89 40.25 708.24 39.25C707.24 38.85 706.115 38.4 704.865 37.9C703.665 37.4 702.515 36.75 701.415 35.95C700.315 35.1 699.415 34.025 698.715 32.725C698.015 31.375 697.665 29.7 697.665 27.7C697.665 25 698.34 22.75 699.69 20.95C701.09 19.1 702.99 17.7 705.39 16.75C707.79 15.8 710.49 15.325 713.49 15.325C715.54 15.325 717.54 15.525 719.49 15.925C721.49 16.325 723.39 16.85 725.19 17.5L723.765 26.425C722.315 25.575 720.665 24.9 718.815 24.4C717.015 23.85 715.315 23.575 713.715 23.575C712.165 23.575 710.865 23.85 709.815 24.4C708.815 24.9 708.315 25.7 708.315 26.8C708.315 27.7 708.665 28.425 709.365 28.975C710.065 29.475 711.015 29.925 712.215 30.325C713.415 30.675 714.74 31.15 716.19 31.75C717.64 32.3 719.165 33 720.765 33.85C722.415 34.7 723.815 35.9 724.965 37.45C726.115 39 726.69 41.125 726.69 43.825C726.69 46.675 725.965 49.025 724.515 50.875C723.115 52.675 721.19 54 718.74 54.85C716.34 55.7 713.615 56.125 710.565 56.125Z" fill="#3B3C44"/>
</svg>
