<svg width="1358" height="74" viewBox="0 0 1358 74" fill="none" xmlns="http://www.w3.org/2000/svg">
<path d="M8.125 56.075C6.775 56.075 5.425 56.075 4.075 56.075C2.775 56.075 1.475 56.05 0.175 56V6.05C1.775 6 3.375 5.975 4.975 5.975C6.575 5.975 8.15 5.975 9.7 5.975C11.3 5.975 12.9 5.975 14.5 5.975C16.1 5.975 17.675 6 19.225 6.05C24.175 6.1 28.45 7.1 32.05 9.05C35.65 10.95 38.425 13.675 40.375 17.225C42.375 20.725 43.375 24.875 43.375 29.675C43.375 34.925 42.225 39.525 39.925 43.475C37.675 47.375 34.5 50.425 30.4 52.625C26.3 54.775 21.5 55.9 16 56C14.7 56.05 13.375 56.075 12.025 56.075C10.725 56.075 9.425 56.075 8.125 56.075ZM11.05 46.55H15.925C20.975 46.55 24.95 45.075 27.85 42.125C30.75 39.175 32.2 35.125 32.2 29.975C32.2 25.325 30.95 21.75 28.45 19.25C26 16.75 22.45 15.5 17.8 15.5H11.05V46.55ZM68.5287 57.125C62.3287 57.125 57.4287 55.325 53.8287 51.725C50.2287 48.125 48.4287 43.125 48.4287 36.725C48.4287 32.525 49.2037 28.9 50.7537 25.85C52.3037 22.8 54.4787 20.45 57.2787 18.8C60.1287 17.15 63.4537 16.325 67.2537 16.325C72.8537 16.325 77.1537 18.125 80.1537 21.725C83.1537 25.325 84.6537 30.525 84.6537 37.325C84.6537 37.775 84.6537 38.225 84.6537 38.675C84.6537 39.075 84.6287 39.475 84.5787 39.875H59.0787C60.0787 45.275 63.6537 47.975 69.8037 47.975C71.7037 47.975 73.6287 47.75 75.5787 47.3C77.5787 46.8 79.3287 46.15 80.8287 45.35L82.5537 53.825C78.4037 56.025 73.7287 57.125 68.5287 57.125ZM59.0037 31.925H74.5287C74.3787 29.775 73.6287 28.075 72.2787 26.825C70.9287 25.525 69.1287 24.875 66.8787 24.875C64.7287 24.875 62.9537 25.5 61.5537 26.75C60.2037 28 59.3537 29.725 59.0037 31.925ZM102.239 57.125C99.7895 57.125 97.4145 56.875 95.1145 56.375C92.8645 55.875 90.9395 55.2 89.3395 54.35L90.3145 45.35C92.0145 46.4 93.8895 47.25 95.9395 47.9C97.9895 48.55 99.9145 48.875 101.714 48.875C103.314 48.875 104.714 48.575 105.914 47.975C107.114 47.375 107.714 46.45 107.714 45.2C107.714 44 107.064 43.125 105.764 42.575C104.514 42.025 102.564 41.25 99.9145 40.25C98.9145 39.85 97.7895 39.4 96.5395 38.9C95.3395 38.4 94.1895 37.75 93.0895 36.95C91.9895 36.1 91.0895 35.025 90.3895 33.725C89.6895 32.375 89.3395 30.7 89.3395 28.7C89.3395 26 90.0145 23.75 91.3645 21.95C92.7645 20.1 94.6645 18.7 97.0645 17.75C99.4645 16.8 102.164 16.325 105.164 16.325C107.214 16.325 109.214 16.525 111.164 16.925C113.164 17.325 115.064 17.85 116.864 18.5L115.439 27.425C113.989 26.575 112.339 25.9 110.489 25.4C108.689 24.85 106.989 24.575 105.389 24.575C103.839 24.575 102.539 24.85 101.489 25.4C100.489 25.9 99.9895 26.7 99.9895 27.8C99.9895 28.7 100.339 29.425 101.039 29.975C101.739 30.475 102.689 30.925 103.889 31.325C105.089 31.675 106.414 32.15 107.864 32.75C109.314 33.3 110.839 34 112.439 34.85C114.089 35.7 115.489 36.9 116.639 38.45C117.789 40 118.364 42.125 118.364 44.825C118.364 47.675 117.639 50.025 116.189 51.875C114.789 53.675 112.864 55 110.414 55.85C108.014 56.7 105.289 57.125 102.239 57.125ZM128.854 11V1.25H140.929V11H128.854ZM123.004 56V46.925H130.204V26.45H123.004V17.375H140.779V46.925H147.229V56H123.004ZM165.262 73.025C163.462 73.025 161.412 72.9 159.112 72.65C156.862 72.4 154.562 71.95 152.212 71.3L154.237 62C156.287 62.6 158.312 63.1 160.312 63.5C162.312 63.9 164.287 64.1 166.237 64.1C168.837 64.1 170.812 63.675 172.162 62.825C173.562 62.025 174.537 60.75 175.087 59C175.637 57.25 175.962 54.975 176.062 52.175H175.837C172.987 55.475 169.337 57.125 164.887 57.125C160.487 57.125 157.037 55.475 154.537 52.175C152.087 48.825 150.862 44.2 150.862 38.3C150.862 31.15 152.712 25.7 156.412 21.95C160.112 18.2 165.362 16.325 172.162 16.325C174.212 16.325 176.437 16.5 178.837 16.85C181.237 17.15 183.712 17.575 186.262 18.125C186.312 21.975 186.337 25.85 186.337 29.75C186.387 33.65 186.412 37.525 186.412 41.375C186.412 43.125 186.412 44.875 186.412 46.625C186.412 48.375 186.387 50.125 186.337 51.875C186.237 58.975 184.462 64.275 181.012 67.775C177.562 71.275 172.312 73.025 165.262 73.025ZM167.662 47.9C169.262 47.9 170.737 47.325 172.087 46.175C173.487 44.975 174.737 43.35 175.837 41.3V26.225C174.187 25.775 172.587 25.55 171.037 25.55C167.837 25.55 165.437 26.575 163.837 28.625C162.237 30.675 161.437 33.65 161.437 37.55C161.437 40.8 161.962 43.35 163.012 45.2C164.112 47 165.662 47.9 167.662 47.9ZM194.523 56V17.375H204.873V24.05C206.473 21.35 208.323 19.4 210.423 18.2C212.573 16.95 215.023 16.325 217.773 16.325C221.923 16.325 225.173 17.575 227.523 20.075C229.873 22.525 231.048 25.95 231.048 30.35V56H220.473V32C220.473 29.95 219.973 28.375 218.973 27.275C217.973 26.175 216.623 25.625 214.923 25.625C212.873 25.625 210.948 26.4 209.148 27.95C207.398 29.45 206.048 31.325 205.098 33.575V56H194.523ZM243.446 11V1.25H255.521V11H243.446ZM237.596 56V46.925H244.796V26.45H237.596V17.375H255.371V46.925H261.821V56H237.596ZM267.329 56V17.375H277.679V24.05C279.279 21.35 281.129 19.4 283.229 18.2C285.379 16.95 287.829 16.325 290.579 16.325C294.729 16.325 297.979 17.575 300.329 20.075C302.679 22.525 303.854 25.95 303.854 30.35V56H293.279V32C293.279 29.95 292.779 28.375 291.779 27.275C290.779 26.175 289.429 25.625 287.729 25.625C285.679 25.625 283.754 26.4 281.954 27.95C280.204 29.45 278.854 31.325 277.904 33.575V56H267.329ZM324.277 73.025C322.477 73.025 320.427 72.9 318.127 72.65C315.877 72.4 313.577 71.95 311.227 71.3L313.252 62C315.302 62.6 317.327 63.1 319.327 63.5C321.327 63.9 323.302 64.1 325.252 64.1C327.852 64.1 329.827 63.675 331.177 62.825C332.577 62.025 333.552 60.75 334.102 59C334.652 57.25 334.977 54.975 335.077 52.175H334.852C332.002 55.475 328.352 57.125 323.902 57.125C319.502 57.125 316.052 55.475 313.552 52.175C311.102 48.825 309.877 44.2 309.877 38.3C309.877 31.15 311.727 25.7 315.427 21.95C319.127 18.2 324.377 16.325 331.177 16.325C333.227 16.325 335.452 16.5 337.852 16.85C340.252 17.15 342.727 17.575 345.277 18.125C345.327 21.975 345.352 25.85 345.352 29.75C345.402 33.65 345.427 37.525 345.427 41.375C345.427 43.125 345.427 44.875 345.427 46.625C345.427 48.375 345.402 50.125 345.352 51.875C345.252 58.975 343.477 64.275 340.027 67.775C336.577 71.275 331.327 73.025 324.277 73.025ZM326.677 47.9C328.277 47.9 329.752 47.325 331.102 46.175C332.502 44.975 333.752 43.35 334.852 41.3V26.225C333.202 25.775 331.602 25.55 330.052 25.55C326.852 25.55 324.452 26.575 322.852 28.625C321.252 30.675 320.452 33.65 320.452 37.55C320.452 40.8 320.977 43.35 322.027 45.2C323.127 47 324.677 47.9 326.677 47.9ZM365.628 56V46.925H372.453V26.45H365.628V17.375H372.453V12.65C372.453 8.9 373.653 5.9 376.053 3.65C378.503 1.35 381.703 0.199999 385.653 0.199999C388.453 0.199999 391.553 0.899999 394.953 2.3L391.278 10.625C389.578 9.775 388.053 9.35 386.703 9.35C384.253 9.35 383.028 10.625 383.028 13.175V17.375H392.028V26.45H383.028V46.925H392.028V56H365.628ZM415.483 57.125C411.533 57.125 408.083 56.275 405.133 54.575C402.183 52.875 399.883 50.5 398.233 47.45C396.583 44.4 395.758 40.825 395.758 36.725C395.758 32.625 396.583 29.05 398.233 26C399.883 22.95 402.183 20.575 405.133 18.875C408.083 17.175 411.508 16.325 415.408 16.325C419.358 16.325 422.783 17.175 425.683 18.875C428.633 20.525 430.933 22.875 432.583 25.925C434.233 28.925 435.058 32.45 435.058 36.5C435.058 40.6 434.233 44.2 432.583 47.3C430.983 50.4 428.708 52.825 425.758 54.575C422.808 56.275 419.383 57.125 415.483 57.125ZM415.408 47.975C418.108 47.975 420.258 46.95 421.858 44.9C423.508 42.8 424.333 40.05 424.333 36.65C424.333 33.25 423.508 30.55 421.858 28.55C420.258 26.5 418.108 25.475 415.408 25.475C412.708 25.475 410.533 26.5 408.883 28.55C407.283 30.55 406.483 33.25 406.483 36.65C406.483 40.05 407.283 42.8 408.883 44.9C410.533 46.95 412.708 47.975 415.408 47.975ZM441.621 56V17.375H452.196V23.675H452.796C454.096 21.375 455.446 19.575 456.846 18.275C458.296 16.925 460.171 16.25 462.471 16.25C463.371 16.25 464.121 16.35 464.721 16.55L463.596 27.95C463.046 27.8 462.521 27.675 462.021 27.575C461.521 27.475 460.996 27.425 460.446 27.425C458.596 27.425 457.121 27.975 456.021 29.075C454.921 30.125 453.646 31.55 452.196 33.35V56H441.621ZM496.942 56.975C493.992 56.975 491.192 56.65 488.542 56C485.942 55.35 483.717 54.475 481.867 53.375L482.767 43.325C485.017 44.725 487.367 45.825 489.817 46.625C492.317 47.375 494.617 47.75 496.717 47.75C499.117 47.75 501.067 47.25 502.567 46.25C504.067 45.25 504.817 43.925 504.817 42.275C504.817 41.075 504.442 40.15 503.692 39.5C502.942 38.8 501.967 38.2 500.767 37.7C499.567 37.2 498.242 36.65 496.792 36.05C495.142 35.35 493.442 34.625 491.692 33.875C489.992 33.125 488.392 32.225 486.892 31.175C485.442 30.075 484.242 28.675 483.292 26.975C482.392 25.275 481.942 23.125 481.942 20.525C481.942 15.775 483.567 12.025 486.817 9.275C490.067 6.475 494.592 5.075 500.392 5.075C504.842 5.075 509.342 5.975 513.892 7.775L512.242 17.675C510.392 16.625 508.392 15.8 506.242 15.2C504.142 14.6 502.142 14.3 500.242 14.3C497.892 14.3 496.067 14.775 494.767 15.725C493.467 16.625 492.817 17.85 492.817 19.4C492.817 20.85 493.342 21.975 494.392 22.775C495.492 23.525 496.867 24.25 498.517 24.95C500.167 25.65 501.967 26.375 503.917 27.125C505.917 27.825 507.792 28.75 509.542 29.9C511.342 31 512.817 32.5 513.967 34.4C515.117 36.25 515.692 38.65 515.692 41.6C515.692 46.45 514.042 50.225 510.742 52.925C507.492 55.625 502.892 56.975 496.942 56.975ZM535.52 57.125C531.92 57.125 529.12 56.225 527.12 54.425C525.17 52.575 524.195 49.975 524.195 46.625V26.45H518.195V17.375H524.195V9.125C527.795 8.525 531.295 8.075 534.695 7.775V17.375H544.445V26.45H534.695V44.675C534.695 46.825 535.895 47.9 538.295 47.9C539.695 47.9 541.295 47.575 543.095 46.925L545.42 54.875C542.22 56.375 538.92 57.125 535.52 57.125ZM564.237 57.05C560.137 57.05 556.912 55.8 554.562 53.3C552.212 50.75 551.037 47.325 551.037 43.025V17.375H561.612V41.3C561.612 43.35 562.112 44.95 563.112 46.1C564.112 47.2 565.462 47.75 567.162 47.75C568.912 47.75 570.562 47.2 572.112 46.1C573.662 45 574.962 43.525 576.012 41.675V17.375H586.587V56H576.012V50.9C574.712 52.65 573.137 54.125 571.287 55.325C569.437 56.475 567.087 57.05 564.237 57.05ZM606.885 57.125C602.585 57.125 599.185 55.475 596.685 52.175C594.185 48.825 592.935 44.175 592.935 38.225C592.935 31.125 594.76 25.7 598.41 21.95C602.11 18.2 607.36 16.325 614.16 16.325C614.86 16.325 615.51 16.35 616.11 16.4C616.71 16.4 617.335 16.425 617.985 16.475V1.25H628.41V56H618.135L618.36 50.975H618.06C615.41 55.075 611.685 57.125 606.885 57.125ZM609.285 47.9C610.885 47.9 612.435 47.225 613.935 45.875C615.435 44.475 616.785 42.5 617.985 39.95V26.225C616.285 25.775 614.66 25.55 613.11 25.55C609.96 25.55 607.56 26.575 605.91 28.625C604.31 30.675 603.51 33.675 603.51 37.625C603.51 40.825 604.01 43.35 605.01 45.2C606.06 47 607.485 47.9 609.285 47.9ZM654.821 57.125C648.621 57.125 643.721 55.325 640.121 51.725C636.521 48.125 634.721 43.125 634.721 36.725C634.721 32.525 635.496 28.9 637.046 25.85C638.596 22.8 640.771 20.45 643.571 18.8C646.421 17.15 649.746 16.325 653.546 16.325C659.146 16.325 663.446 18.125 666.446 21.725C669.446 25.325 670.946 30.525 670.946 37.325C670.946 37.775 670.946 38.225 670.946 38.675C670.946 39.075 670.921 39.475 670.871 39.875H645.371C646.371 45.275 649.946 47.975 656.096 47.975C657.996 47.975 659.921 47.75 661.871 47.3C663.871 46.8 665.621 46.15 667.121 45.35L668.846 53.825C664.696 56.025 660.021 57.125 654.821 57.125ZM645.296 31.925H660.821C660.671 29.775 659.921 28.075 658.571 26.825C657.221 25.525 655.421 24.875 653.171 24.875C651.021 24.875 649.246 25.5 647.846 26.75C646.496 28 645.646 29.725 645.296 31.925ZM677.356 56V17.375H687.706V24.05C689.306 21.35 691.156 19.4 693.256 18.2C695.406 16.95 697.856 16.325 700.606 16.325C704.756 16.325 708.006 17.575 710.356 20.075C712.706 22.525 713.881 25.95 713.881 30.35V56H703.306V32C703.306 29.95 702.806 28.375 701.806 27.275C700.806 26.175 699.456 25.625 697.756 25.625C695.706 25.625 693.781 26.4 691.981 27.95C690.231 29.45 688.881 31.325 687.931 33.575V56H677.356ZM735.222 57.125C731.622 57.125 728.822 56.225 726.822 54.425C724.872 52.575 723.897 49.975 723.897 46.625V26.45H717.897V17.375H723.897V9.125C727.497 8.525 730.997 8.075 734.397 7.775V17.375H744.147V26.45H734.397V44.675C734.397 46.825 735.597 47.9 737.997 47.9C739.397 47.9 740.997 47.575 742.797 46.925L745.122 54.875C741.922 56.375 738.622 57.125 735.222 57.125ZM750.016 37.775L750.766 29.15H780.766L780.016 37.775H750.016ZM814.476 56.975C806.526 56.975 800.276 54.825 795.726 50.525C791.226 46.225 788.976 40.15 788.976 32.3C788.976 26.85 790.026 22.125 792.126 18.125C794.276 14.075 797.276 10.925 801.126 8.675C805.026 6.425 809.551 5.3 814.701 5.3C816.851 5.3 818.926 5.5 820.926 5.9C822.926 6.3 824.851 6.85 826.701 7.55L824.676 17.225C823.026 16.475 821.376 15.9 819.726 15.5C818.076 15.1 816.426 14.9 814.776 14.9C810.176 14.9 806.551 16.4 803.901 19.4C801.301 22.4 800.001 26.35 800.001 31.25C800.001 36.3 801.401 40.225 804.201 43.025C807.001 45.825 810.876 47.225 815.826 47.225C817.326 47.225 818.876 47.1 820.476 46.85C822.126 46.55 823.726 46.15 825.276 45.65L826.926 54.875C823.276 56.275 819.126 56.975 814.476 56.975ZM851.154 57.125C844.954 57.125 840.054 55.325 836.454 51.725C832.854 48.125 831.054 43.125 831.054 36.725C831.054 32.525 831.829 28.9 833.379 25.85C834.929 22.8 837.104 20.45 839.904 18.8C842.754 17.15 846.079 16.325 849.879 16.325C855.479 16.325 859.779 18.125 862.779 21.725C865.779 25.325 867.279 30.525 867.279 37.325C867.279 37.775 867.279 38.225 867.279 38.675C867.279 39.075 867.254 39.475 867.204 39.875H841.704C842.704 45.275 846.279 47.975 852.429 47.975C854.329 47.975 856.254 47.75 858.204 47.3C860.204 46.8 861.954 46.15 863.454 45.35L865.179 53.825C861.029 56.025 856.354 57.125 851.154 57.125ZM841.629 31.925H857.154C857.004 29.775 856.254 28.075 854.904 26.825C853.554 25.525 851.754 24.875 849.504 24.875C847.354 24.875 845.579 25.5 844.179 26.75C842.829 28 841.979 29.725 841.629 31.925ZM873.689 56V17.375H884.039V24.05C885.639 21.35 887.489 19.4 889.589 18.2C891.739 16.95 894.189 16.325 896.939 16.325C901.089 16.325 904.339 17.575 906.689 20.075C909.039 22.525 910.214 25.95 910.214 30.35V56H899.639V32C899.639 29.95 899.139 28.375 898.139 27.275C897.139 26.175 895.789 25.625 894.089 25.625C892.039 25.625 890.114 26.4 888.314 27.95C886.564 29.45 885.214 31.325 884.264 33.575V56H873.689ZM931.555 57.125C927.955 57.125 925.155 56.225 923.155 54.425C921.205 52.575 920.23 49.975 920.23 46.625V26.45H914.23V17.375H920.23V9.125C923.83 8.525 927.33 8.075 930.73 7.775V17.375H940.48V26.45H930.73V44.675C930.73 46.825 931.93 47.9 934.33 47.9C935.73 47.9 937.33 47.575 939.13 46.925L941.455 54.875C938.255 56.375 934.955 57.125 931.555 57.125ZM963.841 57.125C957.641 57.125 952.741 55.325 949.141 51.725C945.541 48.125 943.741 43.125 943.741 36.725C943.741 32.525 944.516 28.9 946.066 25.85C947.616 22.8 949.791 20.45 952.591 18.8C955.441 17.15 958.766 16.325 962.566 16.325C968.166 16.325 972.466 18.125 975.466 21.725C978.466 25.325 979.966 30.525 979.966 37.325C979.966 37.775 979.966 38.225 979.966 38.675C979.966 39.075 979.941 39.475 979.891 39.875H954.391C955.391 45.275 958.966 47.975 965.116 47.975C967.016 47.975 968.941 47.75 970.891 47.3C972.891 46.8 974.641 46.15 976.141 45.35L977.866 53.825C973.716 56.025 969.041 57.125 963.841 57.125ZM954.316 31.925H969.841C969.691 29.775 968.941 28.075 967.591 26.825C966.241 25.525 964.441 24.875 962.191 24.875C960.041 24.875 958.266 25.5 956.866 26.75C955.516 28 954.666 29.725 954.316 31.925ZM986.602 56V17.375H997.177V23.675H997.777C999.077 21.375 1000.43 19.575 1001.83 18.275C1003.28 16.925 1005.15 16.25 1007.45 16.25C1008.35 16.25 1009.1 16.35 1009.7 16.55L1008.58 27.95C1008.03 27.8 1007.5 27.675 1007 27.575C1006.5 27.475 1005.98 27.425 1005.43 27.425C1003.58 27.425 1002.1 27.975 1001 29.075C999.902 30.125 998.627 31.55 997.177 33.35V56H986.602ZM1031.74 57.125C1025.54 57.125 1020.64 55.325 1017.04 51.725C1013.44 48.125 1011.64 43.125 1011.64 36.725C1011.64 32.525 1012.41 28.9 1013.96 25.85C1015.51 22.8 1017.69 20.45 1020.49 18.8C1023.34 17.15 1026.66 16.325 1030.46 16.325C1036.06 16.325 1040.36 18.125 1043.36 21.725C1046.36 25.325 1047.86 30.525 1047.86 37.325C1047.86 37.775 1047.86 38.225 1047.86 38.675C1047.86 39.075 1047.84 39.475 1047.79 39.875H1022.29C1023.29 45.275 1026.86 47.975 1033.01 47.975C1034.91 47.975 1036.84 47.75 1038.79 47.3C1040.79 46.8 1042.54 46.15 1044.04 45.35L1045.76 53.825C1041.61 56.025 1036.94 57.125 1031.74 57.125ZM1022.21 31.925H1037.74C1037.59 29.775 1036.84 28.075 1035.49 26.825C1034.14 25.525 1032.34 24.875 1030.09 24.875C1027.94 24.875 1026.16 25.5 1024.76 26.75C1023.41 28 1022.56 29.725 1022.21 31.925ZM1066.72 57.125C1062.42 57.125 1059.02 55.475 1056.52 52.175C1054.02 48.825 1052.77 44.175 1052.77 38.225C1052.77 31.125 1054.59 25.7 1058.24 21.95C1061.94 18.2 1067.19 16.325 1073.99 16.325C1074.69 16.325 1075.34 16.35 1075.94 16.4C1076.54 16.4 1077.17 16.425 1077.82 16.475V1.25H1088.24V56H1077.97L1078.19 50.975H1077.89C1075.24 55.075 1071.52 57.125 1066.72 57.125ZM1069.12 47.9C1070.72 47.9 1072.27 47.225 1073.77 45.875C1075.27 44.475 1076.62 42.5 1077.82 39.95V26.225C1076.12 25.775 1074.49 25.55 1072.94 25.55C1069.79 25.55 1067.39 26.575 1065.74 28.625C1064.14 30.675 1063.34 33.675 1063.34 37.625C1063.34 40.825 1063.84 43.35 1064.84 45.2C1065.89 47 1067.32 47.9 1069.12 47.9ZM1110.32 56V6.05H1140.84V15.5H1121.19V26.9H1137.47V36.275H1121.19V56H1110.32ZM1158.55 57.05C1154.45 57.05 1151.22 55.8 1148.87 53.3C1146.52 50.75 1145.35 47.325 1145.35 43.025V17.375H1155.92V41.3C1155.92 43.35 1156.42 44.95 1157.42 46.1C1158.42 47.2 1159.77 47.75 1161.47 47.75C1163.22 47.75 1164.87 47.2 1166.42 46.1C1167.97 45 1169.27 43.525 1170.32 41.675V17.375H1180.9V56H1170.32V50.9C1169.02 52.65 1167.45 54.125 1165.6 55.325C1163.75 56.475 1161.4 57.05 1158.55 57.05ZM1203.3 57.125C1199.7 57.125 1196.9 56.225 1194.9 54.425C1192.95 52.575 1191.97 49.975 1191.97 46.625V26.45H1185.97V17.375H1191.97V9.125C1195.57 8.525 1199.07 8.075 1202.47 7.775V17.375H1212.22V26.45H1202.47V44.675C1202.47 46.825 1203.67 47.9 1206.07 47.9C1207.47 47.9 1209.07 47.575 1210.87 46.925L1213.2 54.875C1210 56.375 1206.7 57.125 1203.3 57.125ZM1232.01 57.05C1227.91 57.05 1224.69 55.8 1222.34 53.3C1219.99 50.75 1218.81 47.325 1218.81 43.025V17.375H1229.39V41.3C1229.39 43.35 1229.89 44.95 1230.89 46.1C1231.89 47.2 1233.24 47.75 1234.94 47.75C1236.69 47.75 1238.34 47.2 1239.89 46.1C1241.44 45 1242.74 43.525 1243.79 41.675V17.375H1254.36V56H1243.79V50.9C1242.49 52.65 1240.91 54.125 1239.06 55.325C1237.21 56.475 1234.86 57.05 1232.01 57.05ZM1262.81 56V17.375H1273.38V23.675H1273.98C1275.28 21.375 1276.63 19.575 1278.03 18.275C1279.48 16.925 1281.36 16.25 1283.66 16.25C1284.56 16.25 1285.31 16.35 1285.91 16.55L1284.78 27.95C1284.23 27.8 1283.71 27.675 1283.21 27.575C1282.71 27.475 1282.18 27.425 1281.63 27.425C1279.78 27.425 1278.31 27.975 1277.21 29.075C1276.11 30.125 1274.83 31.55 1273.38 33.35V56H1262.81ZM1307.95 57.125C1301.75 57.125 1296.85 55.325 1293.25 51.725C1289.65 48.125 1287.85 43.125 1287.85 36.725C1287.85 32.525 1288.62 28.9 1290.17 25.85C1291.72 22.8 1293.9 20.45 1296.7 18.8C1299.55 17.15 1302.87 16.325 1306.67 16.325C1312.27 16.325 1316.57 18.125 1319.57 21.725C1322.57 25.325 1324.07 30.525 1324.07 37.325C1324.07 37.775 1324.07 38.225 1324.07 38.675C1324.07 39.075 1324.05 39.475 1324 39.875H1298.5C1299.5 45.275 1303.07 47.975 1309.22 47.975C1311.12 47.975 1313.05 47.75 1315 47.3C1317 46.8 1318.75 46.15 1320.25 45.35L1321.97 53.825C1317.82 56.025 1313.15 57.125 1307.95 57.125ZM1298.42 31.925H1313.95C1313.8 29.775 1313.05 28.075 1311.7 26.825C1310.35 25.525 1308.55 24.875 1306.3 24.875C1304.15 24.875 1302.37 25.5 1300.97 26.75C1299.62 28 1298.77 29.725 1298.42 31.925ZM1341.66 57.125C1339.21 57.125 1336.83 56.875 1334.53 56.375C1332.28 55.875 1330.36 55.2 1328.76 54.35L1329.73 45.35C1331.43 46.4 1333.31 47.25 1335.36 47.9C1337.41 48.55 1339.33 48.875 1341.13 48.875C1342.73 48.875 1344.13 48.575 1345.33 47.975C1346.53 47.375 1347.13 46.45 1347.13 45.2C1347.13 44 1346.48 43.125 1345.18 42.575C1343.93 42.025 1341.98 41.25 1339.33 40.25C1338.33 39.85 1337.21 39.4 1335.96 38.9C1334.76 38.4 1333.61 37.75 1332.51 36.95C1331.41 36.1 1330.51 35.025 1329.81 33.725C1329.11 32.375 1328.76 30.7 1328.76 28.7C1328.76 26 1329.43 23.75 1330.78 21.95C1332.18 20.1 1334.08 18.7 1336.48 17.75C1338.88 16.8 1341.58 16.325 1344.58 16.325C1346.63 16.325 1348.63 16.525 1350.58 16.925C1352.58 17.325 1354.48 17.85 1356.28 18.5L1354.86 27.425C1353.41 26.575 1351.76 25.9 1349.91 25.4C1348.11 24.85 1346.41 24.575 1344.81 24.575C1343.26 24.575 1341.96 24.85 1340.91 25.4C1339.91 25.9 1339.41 26.7 1339.41 27.8C1339.41 28.7 1339.76 29.425 1340.46 29.975C1341.16 30.475 1342.11 30.925 1343.31 31.325C1344.51 31.675 1345.83 32.15 1347.28 32.75C1348.73 33.3 1350.26 34 1351.86 34.85C1353.51 35.7 1354.91 36.9 1356.06 38.45C1357.21 40 1357.78 42.125 1357.78 44.825C1357.78 47.675 1357.06 50.025 1355.61 51.875C1354.21 53.675 1352.28 55 1349.83 55.85C1347.43 56.7 1344.71 57.125 1341.66 57.125Z" fill="#3B3C44"/>
</svg>
