<svg width="995" height="73" viewBox="0 0 995 73" fill="none" xmlns="http://www.w3.org/2000/svg">
<path d="M21.1 55.975C16.95 55.975 13.3 55.1 10.15 53.35C7 51.6 4.55 49.15 2.8 46C1.1 42.85 0.25 39.175 0.25 34.975V5.05H11.2V34.15C11.2 37.85 12.075 40.8 13.825 43C15.625 45.15 18.05 46.225 21.1 46.225C24.15 46.225 26.575 45.125 28.375 42.925C30.175 40.725 31.075 37.8 31.075 34.15V5.05H41.95V34.975C41.95 39.175 41.075 42.85 39.325 46C37.625 49.15 35.2 51.6 32.05 53.35C28.95 55.1 25.3 55.975 21.1 55.975ZM50.5967 55V16.375H60.9467V23.05C62.5467 20.35 64.3967 18.4 66.4967 17.2C68.6467 15.95 71.0967 15.325 73.8467 15.325C77.9967 15.325 81.2467 16.575 83.5967 19.075C85.9467 21.525 87.1217 24.95 87.1217 29.35V55H76.5467V31C76.5467 28.95 76.0467 27.375 75.0467 26.275C74.0467 25.175 72.6967 24.625 70.9967 24.625C68.9467 24.625 67.0217 25.4 65.2217 26.95C63.4717 28.45 62.1217 30.325 61.1717 32.575V55H50.5967ZM107.461 56.125C103.161 56.125 99.7607 54.475 97.2607 51.175C94.7607 47.825 93.5107 43.175 93.5107 37.225C93.5107 30.125 95.3357 24.7 98.9857 20.95C102.686 17.2 107.936 15.325 114.736 15.325C115.436 15.325 116.086 15.35 116.686 15.4C117.286 15.4 117.911 15.425 118.561 15.475V0.249999H128.986V55H118.711L118.936 49.975H118.636C115.986 54.075 112.261 56.125 107.461 56.125ZM109.861 46.9C111.461 46.9 113.011 46.225 114.511 44.875C116.011 43.475 117.361 41.5 118.561 38.95V25.225C116.861 24.775 115.236 24.55 113.686 24.55C110.536 24.55 108.136 25.575 106.486 27.625C104.886 29.675 104.086 32.675 104.086 36.625C104.086 39.825 104.586 42.35 105.586 44.2C106.636 46 108.061 46.9 109.861 46.9ZM155.397 56.125C149.197 56.125 144.297 54.325 140.697 50.725C137.097 47.125 135.297 42.125 135.297 35.725C135.297 31.525 136.072 27.9 137.622 24.85C139.172 21.8 141.347 19.45 144.147 17.8C146.997 16.15 150.322 15.325 154.122 15.325C159.722 15.325 164.022 17.125 167.022 20.725C170.022 24.325 171.522 29.525 171.522 36.325C171.522 36.775 171.522 37.225 171.522 37.675C171.522 38.075 171.497 38.475 171.447 38.875H145.947C146.947 44.275 150.522 46.975 156.672 46.975C158.572 46.975 160.497 46.75 162.447 46.3C164.447 45.8 166.197 45.15 167.697 44.35L169.422 52.825C165.272 55.025 160.597 56.125 155.397 56.125ZM145.872 30.925H161.397C161.247 28.775 160.497 27.075 159.147 25.825C157.797 24.525 155.997 23.875 153.747 23.875C151.597 23.875 149.822 24.5 148.422 25.75C147.072 27 146.222 28.725 145.872 30.925ZM178.158 55V16.375H188.733V22.675H189.333C190.633 20.375 191.983 18.575 193.383 17.275C194.833 15.925 196.708 15.25 199.008 15.25C199.908 15.25 200.658 15.35 201.258 15.55L200.133 26.95C199.583 26.8 199.058 26.675 198.558 26.575C198.058 26.475 197.533 26.425 196.983 26.425C195.133 26.425 193.658 26.975 192.558 28.075C191.458 29.125 190.183 30.55 188.733 32.35V55H178.158ZM216.831 56.125C214.381 56.125 212.006 55.875 209.706 55.375C207.456 54.875 205.531 54.2 203.931 53.35L204.906 44.35C206.606 45.4 208.481 46.25 210.531 46.9C212.581 47.55 214.506 47.875 216.306 47.875C217.906 47.875 219.306 47.575 220.506 46.975C221.706 46.375 222.306 45.45 222.306 44.2C222.306 43 221.656 42.125 220.356 41.575C219.106 41.025 217.156 40.25 214.506 39.25C213.506 38.85 212.381 38.4 211.131 37.9C209.931 37.4 208.781 36.75 207.681 35.95C206.581 35.1 205.681 34.025 204.981 32.725C204.281 31.375 203.931 29.7 203.931 27.7C203.931 25 204.606 22.75 205.956 20.95C207.356 19.1 209.256 17.7 211.656 16.75C214.056 15.8 216.756 15.325 219.756 15.325C221.806 15.325 223.806 15.525 225.756 15.925C227.756 16.325 229.656 16.85 231.456 17.5L230.031 26.425C228.581 25.575 226.931 24.9 225.081 24.4C223.281 23.85 221.581 23.575 219.981 23.575C218.431 23.575 217.131 23.85 216.081 24.4C215.081 24.9 214.581 25.7 214.581 26.8C214.581 27.7 214.931 28.425 215.631 28.975C216.331 29.475 217.281 29.925 218.481 30.325C219.681 30.675 221.006 31.15 222.456 31.75C223.906 32.3 225.431 33 227.031 33.85C228.681 34.7 230.081 35.9 231.231 37.45C232.381 39 232.956 41.125 232.956 43.825C232.956 46.675 232.231 49.025 230.781 50.875C229.381 52.675 227.456 54 225.006 54.85C222.606 55.7 219.881 56.125 216.831 56.125ZM253.488 56.125C249.888 56.125 247.088 55.225 245.088 53.425C243.138 51.575 242.163 48.975 242.163 45.625V25.45H236.163V16.375H242.163V8.125C245.763 7.525 249.263 7.075 252.663 6.775V16.375H262.413V25.45H252.663V43.675C252.663 45.825 253.863 46.9 256.263 46.9C257.663 46.9 259.263 46.575 261.063 45.925L263.388 53.875C260.188 55.375 256.888 56.125 253.488 56.125ZM278.724 56.125C274.774 56.125 271.599 54.45 269.199 51.1C266.849 47.7 265.674 43.05 265.674 37.15C265.674 30.05 267.474 24.65 271.074 20.95C274.674 17.2 279.849 15.325 286.599 15.325C290.399 15.325 294.849 15.925 299.949 17.125V55H289.899L290.124 48.85H289.824C287.224 53.7 283.524 56.125 278.724 56.125ZM280.974 46.9C282.624 46.9 284.199 46.025 285.699 44.275C287.199 42.525 288.549 40.375 289.749 37.825V25.225C288.949 24.975 288.124 24.8 287.274 24.7C286.424 24.6 285.649 24.55 284.949 24.55C278.899 24.55 275.874 28.6 275.874 36.7C275.874 39.85 276.324 42.35 277.224 44.2C278.124 46 279.374 46.9 280.974 46.9ZM308.676 55V16.375H319.026V23.05C320.626 20.35 322.476 18.4 324.576 17.2C326.726 15.95 329.176 15.325 331.926 15.325C336.076 15.325 339.326 16.575 341.676 19.075C344.026 21.525 345.201 24.95 345.201 29.35V55H334.626V31C334.626 28.95 334.126 27.375 333.126 26.275C332.126 25.175 330.776 24.625 329.076 24.625C327.026 24.625 325.101 25.4 323.301 26.95C321.551 28.45 320.201 30.325 319.251 32.575V55H308.676ZM365.54 56.125C361.24 56.125 357.84 54.475 355.34 51.175C352.84 47.825 351.59 43.175 351.59 37.225C351.59 30.125 353.415 24.7 357.065 20.95C360.765 17.2 366.015 15.325 372.815 15.325C373.515 15.325 374.165 15.35 374.765 15.4C375.365 15.4 375.99 15.425 376.64 15.475V0.249999H387.065V55H376.79L377.015 49.975H376.715C374.065 54.075 370.34 56.125 365.54 56.125ZM367.94 46.9C369.54 46.9 371.09 46.225 372.59 44.875C374.09 43.475 375.44 41.5 376.64 38.95V25.225C374.94 24.775 373.315 24.55 371.765 24.55C368.615 24.55 366.215 25.575 364.565 27.625C362.965 29.675 362.165 32.675 362.165 36.625C362.165 39.825 362.665 42.35 363.665 44.2C364.715 46 366.14 46.9 367.94 46.9ZM399.751 10V0.249999H411.826V10H399.751ZM393.901 55V45.925H401.101V25.45H393.901V16.375H411.676V45.925H418.126V55H393.901ZM423.634 55V16.375H433.984V23.05C435.584 20.35 437.434 18.4 439.534 17.2C441.684 15.95 444.134 15.325 446.884 15.325C451.034 15.325 454.284 16.575 456.634 19.075C458.984 21.525 460.159 24.95 460.159 29.35V55H449.584V31C449.584 28.95 449.084 27.375 448.084 26.275C447.084 25.175 445.734 24.625 444.034 24.625C441.984 24.625 440.059 25.4 438.259 26.95C436.509 28.45 435.159 30.325 434.209 32.575V55H423.634ZM480.582 72.025C478.782 72.025 476.732 71.9 474.432 71.65C472.182 71.4 469.882 70.95 467.532 70.3L469.557 61C471.607 61.6 473.632 62.1 475.632 62.5C477.632 62.9 479.607 63.1 481.557 63.1C484.157 63.1 486.132 62.675 487.482 61.825C488.882 61.025 489.857 59.75 490.407 58C490.957 56.25 491.282 53.975 491.382 51.175H491.157C488.307 54.475 484.657 56.125 480.207 56.125C475.807 56.125 472.357 54.475 469.857 51.175C467.407 47.825 466.182 43.2 466.182 37.3C466.182 30.15 468.032 24.7 471.732 20.95C475.432 17.2 480.682 15.325 487.482 15.325C489.532 15.325 491.757 15.5 494.157 15.85C496.557 16.15 499.032 16.575 501.582 17.125C501.632 20.975 501.657 24.85 501.657 28.75C501.707 32.65 501.732 36.525 501.732 40.375C501.732 42.125 501.732 43.875 501.732 45.625C501.732 47.375 501.707 49.125 501.657 50.875C501.557 57.975 499.782 63.275 496.332 66.775C492.882 70.275 487.632 72.025 480.582 72.025ZM482.982 46.9C484.582 46.9 486.057 46.325 487.407 45.175C488.807 43.975 490.057 42.35 491.157 40.3V25.225C489.507 24.775 487.907 24.55 486.357 24.55C483.157 24.55 480.757 25.575 479.157 27.625C477.557 29.675 476.757 32.65 476.757 36.55C476.757 39.8 477.282 42.35 478.332 44.2C479.432 46 480.982 46.9 482.982 46.9ZM537.532 56.125C533.932 56.125 531.132 55.225 529.132 53.425C527.182 51.575 526.207 48.975 526.207 45.625V25.45H520.207V16.375H526.207V8.125C529.807 7.525 533.307 7.075 536.707 6.775V16.375H546.457V25.45H536.707V43.675C536.707 45.825 537.907 46.9 540.307 46.9C541.707 46.9 543.307 46.575 545.107 45.925L547.432 53.875C544.232 55.375 540.932 56.125 537.532 56.125ZM553.425 55V0.249999H564V22C565.6 19.65 567.4 17.95 569.4 16.9C571.4 15.85 573.675 15.325 576.225 15.325C580.375 15.325 583.625 16.575 585.975 19.075C588.325 21.525 589.5 24.95 589.5 29.35V55H578.925V31C578.925 28.95 578.425 27.375 577.425 26.275C576.425 25.175 575.075 24.625 573.375 24.625C571.475 24.625 569.675 25.275 567.975 26.575C566.325 27.875 565 29.55 564 31.6V55H553.425ZM615.999 56.125C609.799 56.125 604.899 54.325 601.299 50.725C597.699 47.125 595.899 42.125 595.899 35.725C595.899 31.525 596.674 27.9 598.224 24.85C599.774 21.8 601.949 19.45 604.749 17.8C607.599 16.15 610.924 15.325 614.724 15.325C620.324 15.325 624.624 17.125 627.624 20.725C630.624 24.325 632.124 29.525 632.124 36.325C632.124 36.775 632.124 37.225 632.124 37.675C632.124 38.075 632.099 38.475 632.049 38.875H606.549C607.549 44.275 611.124 46.975 617.274 46.975C619.174 46.975 621.099 46.75 623.049 46.3C625.049 45.8 626.799 45.15 628.299 44.35L630.024 52.825C625.874 55.025 621.199 56.125 615.999 56.125ZM606.474 30.925H621.999C621.849 28.775 621.099 27.075 619.749 25.825C618.399 24.525 616.599 23.875 614.349 23.875C612.199 23.875 610.424 24.5 609.024 25.75C607.674 27 606.824 28.725 606.474 30.925ZM675.75 55.975C667.8 55.975 661.55 53.825 657 49.525C652.5 45.225 650.25 39.15 650.25 31.3C650.25 25.85 651.3 21.125 653.4 17.125C655.55 13.075 658.55 9.925 662.4 7.675C666.3 5.425 670.825 4.3 675.975 4.3C678.125 4.3 680.2 4.5 682.2 4.9C684.2 5.3 686.125 5.85 687.975 6.55L685.95 16.225C684.3 15.475 682.65 14.9 681 14.5C679.35 14.1 677.7 13.9 676.05 13.9C671.45 13.9 667.825 15.4 665.175 18.4C662.575 21.4 661.275 25.35 661.275 30.25C661.275 35.3 662.675 39.225 665.475 42.025C668.275 44.825 672.15 46.225 677.1 46.225C678.6 46.225 680.15 46.1 681.75 45.85C683.4 45.55 685 45.15 686.55 44.65L688.2 53.875C684.55 55.275 680.4 55.975 675.75 55.975ZM695.081 55V0.249999H705.656V22C707.256 19.65 709.056 17.95 711.056 16.9C713.056 15.85 715.331 15.325 717.881 15.325C722.031 15.325 725.281 16.575 727.631 19.075C729.981 21.525 731.156 24.95 731.156 29.35V55H720.581V31C720.581 28.95 720.081 27.375 719.081 26.275C718.081 25.175 716.731 24.625 715.031 24.625C713.131 24.625 711.331 25.275 709.631 26.575C707.981 27.875 706.656 29.55 705.656 31.6V55H695.081ZM750.606 56.125C746.656 56.125 743.481 54.45 741.081 51.1C738.731 47.7 737.556 43.05 737.556 37.15C737.556 30.05 739.356 24.65 742.956 20.95C746.556 17.2 751.731 15.325 758.481 15.325C762.281 15.325 766.731 15.925 771.831 17.125V55H761.781L762.006 48.85H761.706C759.106 53.7 755.406 56.125 750.606 56.125ZM752.856 46.9C754.506 46.9 756.081 46.025 757.581 44.275C759.081 42.525 760.431 40.375 761.631 37.825V25.225C760.831 24.975 760.006 24.8 759.156 24.7C758.306 24.6 757.531 24.55 756.831 24.55C750.781 24.55 747.756 28.6 747.756 36.7C747.756 39.85 748.206 42.35 749.106 44.2C750.006 46 751.256 46.9 752.856 46.9ZM777.588 55V45.925H784.413V9.25H777.963V0.249999H794.988V45.925H801.813V55H777.588ZM804.798 55V45.925H811.623V9.25H805.173V0.249999H822.198V45.925H829.023V55H804.798ZM851.813 56.125C845.613 56.125 840.713 54.325 837.113 50.725C833.513 47.125 831.713 42.125 831.713 35.725C831.713 31.525 832.488 27.9 834.038 24.85C835.588 21.8 837.763 19.45 840.563 17.8C843.413 16.15 846.738 15.325 850.538 15.325C856.138 15.325 860.438 17.125 863.438 20.725C866.438 24.325 867.938 29.525 867.938 36.325C867.938 36.775 867.938 37.225 867.938 37.675C867.938 38.075 867.913 38.475 867.863 38.875H842.363C843.363 44.275 846.938 46.975 853.088 46.975C854.988 46.975 856.913 46.75 858.863 46.3C860.863 45.8 862.613 45.15 864.113 44.35L865.838 52.825C861.688 55.025 857.013 56.125 851.813 56.125ZM842.288 30.925H857.813C857.663 28.775 856.913 27.075 855.563 25.825C854.213 24.525 852.413 23.875 850.163 23.875C848.013 23.875 846.238 24.5 844.838 25.75C843.488 27 842.638 28.725 842.288 30.925ZM874.349 55V16.375H884.699V23.05C886.299 20.35 888.149 18.4 890.249 17.2C892.399 15.95 894.849 15.325 897.599 15.325C901.749 15.325 904.999 16.575 907.349 19.075C909.699 21.525 910.874 24.95 910.874 29.35V55H900.299V31C900.299 28.95 899.799 27.375 898.799 26.275C897.799 25.175 896.449 24.625 894.749 24.625C892.699 24.625 890.774 25.4 888.974 26.95C887.224 28.45 885.874 30.325 884.924 32.575V55H874.349ZM931.296 72.025C929.496 72.025 927.446 71.9 925.146 71.65C922.896 71.4 920.596 70.95 918.246 70.3L920.271 61C922.321 61.6 924.346 62.1 926.346 62.5C928.346 62.9 930.321 63.1 932.271 63.1C934.871 63.1 936.846 62.675 938.196 61.825C939.596 61.025 940.571 59.75 941.121 58C941.671 56.25 941.996 53.975 942.096 51.175H941.871C939.021 54.475 935.371 56.125 930.921 56.125C926.521 56.125 923.071 54.475 920.571 51.175C918.121 47.825 916.896 43.2 916.896 37.3C916.896 30.15 918.746 24.7 922.446 20.95C926.146 17.2 931.396 15.325 938.196 15.325C940.246 15.325 942.471 15.5 944.871 15.85C947.271 16.15 949.746 16.575 952.296 17.125C952.346 20.975 952.371 24.85 952.371 28.75C952.421 32.65 952.446 36.525 952.446 40.375C952.446 42.125 952.446 43.875 952.446 45.625C952.446 47.375 952.421 49.125 952.371 50.875C952.271 57.975 950.496 63.275 947.046 66.775C943.596 70.275 938.346 72.025 931.296 72.025ZM933.696 46.9C935.296 46.9 936.771 46.325 938.121 45.175C939.521 43.975 940.771 42.35 941.871 40.3V25.225C940.221 24.775 938.621 24.55 937.071 24.55C933.871 24.55 931.471 25.575 929.871 27.625C928.271 29.675 927.471 32.65 927.471 36.55C927.471 39.8 927.996 42.35 929.046 44.2C930.146 46 931.696 46.9 933.696 46.9ZM978.783 56.125C972.583 56.125 967.683 54.325 964.083 50.725C960.483 47.125 958.683 42.125 958.683 35.725C958.683 31.525 959.458 27.9 961.008 24.85C962.558 21.8 964.733 19.45 967.533 17.8C970.383 16.15 973.708 15.325 977.508 15.325C983.108 15.325 987.408 17.125 990.408 20.725C993.408 24.325 994.908 29.525 994.908 36.325C994.908 36.775 994.908 37.225 994.908 37.675C994.908 38.075 994.883 38.475 994.833 38.875H969.333C970.333 44.275 973.908 46.975 980.058 46.975C981.958 46.975 983.883 46.75 985.833 46.3C987.833 45.8 989.583 45.15 991.083 44.35L992.808 52.825C988.658 55.025 983.983 56.125 978.783 56.125ZM969.258 30.925H984.783C984.633 28.775 983.883 27.075 982.533 25.825C981.183 24.525 979.383 23.875 977.133 23.875C974.983 23.875 973.208 24.5 971.808 25.75C970.458 27 969.608 28.725 969.258 30.925Z" fill="#3B3C44"/>
</svg>
