<svg width="641" height="73" viewBox="0 0 641 73" fill="none" xmlns="http://www.w3.org/2000/svg">
<path d="M24.825 55.975C19.875 55.975 15.525 54.9 11.775 52.75C8.075 50.6 5.175 47.6 3.075 43.75C1.025 39.85 2.12342e-07 35.35 2.12342e-07 30.25C2.12342e-07 25.05 1.025 20.525 3.075 16.675C5.175 12.825 8.075 9.825 11.775 7.675C15.525 5.525 19.875 4.45 24.825 4.45C29.775 4.45 34.1 5.525 37.8 7.675C41.55 9.775 44.45 12.75 46.5 16.6C48.55 20.4 49.575 24.85 49.575 29.95C49.575 35.15 48.55 39.7 46.5 43.6C44.45 47.5 41.55 50.55 37.8 52.75C34.1 54.9 29.775 55.975 24.825 55.975ZM24.825 46.45C28.975 46.45 32.275 44.975 34.725 42.025C37.175 39.075 38.4 35.15 38.4 30.25C38.4 27 37.825 24.15 36.675 21.7C35.575 19.25 34 17.35 31.95 16C29.9 14.65 27.525 14 24.825 14.05C22.125 14 19.75 14.65 17.7 16C15.7 17.35 14.125 19.25 12.975 21.7C11.825 24.15 11.25 27 11.25 30.25C11.25 33.5 11.8 36.35 12.9 38.8C14.05 41.2 15.65 43.075 17.7 44.425C19.75 45.775 22.125 46.45 24.825 46.45ZM68.7908 56.05C64.6908 56.05 61.4658 54.8 59.1158 52.3C56.7658 49.75 55.5908 46.325 55.5908 42.025V16.375H66.1658V40.3C66.1658 42.35 66.6658 43.95 67.6658 45.1C68.6658 46.2 70.0158 46.75 71.7158 46.75C73.4658 46.75 75.1158 46.2 76.6658 45.1C78.2158 44 79.5158 42.525 80.5658 40.675V16.375H91.1408V55H80.5658V49.9C79.2658 51.65 77.6908 53.125 75.8408 54.325C73.9908 55.475 71.6408 56.05 68.7908 56.05ZM99.5883 55V16.375H110.163V22.675H110.763C112.063 20.375 113.413 18.575 114.813 17.275C116.263 15.925 118.138 15.25 120.438 15.25C121.338 15.25 122.088 15.35 122.688 15.55L121.563 26.95C121.013 26.8 120.488 26.675 119.988 26.575C119.488 26.475 118.963 26.425 118.413 26.425C116.563 26.425 115.088 26.975 113.988 28.075C112.888 29.125 111.613 30.55 110.163 32.35V55H99.5883ZM149.584 55.075C148.234 55.075 146.884 55.075 145.534 55.075C144.234 55.075 142.934 55.05 141.634 55V5.05C143.234 5 144.834 4.975 146.434 4.975C148.034 4.975 149.609 4.975 151.159 4.975C152.759 4.975 154.359 4.975 155.959 4.975C157.559 4.975 159.134 5 160.684 5.05C165.634 5.1 169.909 6.1 173.509 8.05C177.109 9.95 179.884 12.675 181.834 16.225C183.834 19.725 184.834 23.875 184.834 28.675C184.834 33.925 183.684 38.525 181.384 42.475C179.134 46.375 175.959 49.425 171.859 51.625C167.759 53.775 162.959 54.9 157.459 55C156.159 55.05 154.834 55.075 153.484 55.075C152.184 55.075 150.884 55.075 149.584 55.075ZM152.509 45.55H157.384C162.434 45.55 166.409 44.075 169.309 41.125C172.209 38.175 173.659 34.125 173.659 28.975C173.659 24.325 172.409 20.75 169.909 18.25C167.459 15.75 163.909 14.5 159.259 14.5H152.509V45.55ZM209.988 56.125C203.788 56.125 198.888 54.325 195.288 50.725C191.688 47.125 189.888 42.125 189.888 35.725C189.888 31.525 190.663 27.9 192.213 24.85C193.763 21.8 195.938 19.45 198.738 17.8C201.588 16.15 204.913 15.325 208.713 15.325C214.313 15.325 218.613 17.125 221.613 20.725C224.613 24.325 226.113 29.525 226.113 36.325C226.113 36.775 226.113 37.225 226.113 37.675C226.113 38.075 226.088 38.475 226.038 38.875H200.538C201.538 44.275 205.113 46.975 211.263 46.975C213.163 46.975 215.088 46.75 217.038 46.3C219.038 45.8 220.788 45.15 222.288 44.35L224.013 52.825C219.863 55.025 215.188 56.125 209.988 56.125ZM200.463 30.925H215.988C215.838 28.775 215.088 27.075 213.738 25.825C212.388 24.525 210.588 23.875 208.338 23.875C206.188 23.875 204.413 24.5 203.013 25.75C201.663 27 200.813 28.725 200.463 30.925ZM243.698 56.125C241.248 56.125 238.873 55.875 236.573 55.375C234.323 54.875 232.398 54.2 230.798 53.35L231.773 44.35C233.473 45.4 235.348 46.25 237.398 46.9C239.448 47.55 241.373 47.875 243.173 47.875C244.773 47.875 246.173 47.575 247.373 46.975C248.573 46.375 249.173 45.45 249.173 44.2C249.173 43 248.523 42.125 247.223 41.575C245.973 41.025 244.023 40.25 241.373 39.25C240.373 38.85 239.248 38.4 237.998 37.9C236.798 37.4 235.648 36.75 234.548 35.95C233.448 35.1 232.548 34.025 231.848 32.725C231.148 31.375 230.798 29.7 230.798 27.7C230.798 25 231.473 22.75 232.823 20.95C234.223 19.1 236.123 17.7 238.523 16.75C240.923 15.8 243.623 15.325 246.623 15.325C248.673 15.325 250.673 15.525 252.623 15.925C254.623 16.325 256.523 16.85 258.323 17.5L256.898 26.425C255.448 25.575 253.798 24.9 251.948 24.4C250.148 23.85 248.448 23.575 246.848 23.575C245.298 23.575 243.998 23.85 242.948 24.4C241.948 24.9 241.448 25.7 241.448 26.8C241.448 27.7 241.798 28.425 242.498 28.975C243.198 29.475 244.148 29.925 245.348 30.325C246.548 30.675 247.873 31.15 249.323 31.75C250.773 32.3 252.298 33 253.898 33.85C255.548 34.7 256.948 35.9 258.098 37.45C259.248 39 259.823 41.125 259.823 43.825C259.823 46.675 259.098 49.025 257.648 50.875C256.248 52.675 254.323 54 251.873 54.85C249.473 55.7 246.748 56.125 243.698 56.125ZM270.313 10V0.249999H282.388V10H270.313ZM264.463 55V45.925H271.663V25.45H264.463V16.375H282.238V45.925H288.688V55H264.463ZM306.721 72.025C304.921 72.025 302.871 71.9 300.571 71.65C298.321 71.4 296.021 70.95 293.671 70.3L295.696 61C297.746 61.6 299.771 62.1 301.771 62.5C303.771 62.9 305.746 63.1 307.696 63.1C310.296 63.1 312.271 62.675 313.621 61.825C315.021 61.025 315.996 59.75 316.546 58C317.096 56.25 317.421 53.975 317.521 51.175H317.296C314.446 54.475 310.796 56.125 306.346 56.125C301.946 56.125 298.496 54.475 295.996 51.175C293.546 47.825 292.321 43.2 292.321 37.3C292.321 30.15 294.171 24.7 297.871 20.95C301.571 17.2 306.821 15.325 313.621 15.325C315.671 15.325 317.896 15.5 320.296 15.85C322.696 16.15 325.171 16.575 327.721 17.125C327.771 20.975 327.796 24.85 327.796 28.75C327.846 32.65 327.871 36.525 327.871 40.375C327.871 42.125 327.871 43.875 327.871 45.625C327.871 47.375 327.846 49.125 327.796 50.875C327.696 57.975 325.921 63.275 322.471 66.775C319.021 70.275 313.771 72.025 306.721 72.025ZM309.121 46.9C310.721 46.9 312.196 46.325 313.546 45.175C314.946 43.975 316.196 42.35 317.296 40.3V25.225C315.646 24.775 314.046 24.55 312.496 24.55C309.296 24.55 306.896 25.575 305.296 27.625C303.696 29.675 302.896 32.65 302.896 36.55C302.896 39.8 303.421 42.35 304.471 44.2C305.571 46 307.121 46.9 309.121 46.9ZM335.982 55V16.375H346.332V23.05C347.932 20.35 349.782 18.4 351.882 17.2C354.032 15.95 356.482 15.325 359.232 15.325C363.382 15.325 366.632 16.575 368.982 19.075C371.332 21.525 372.507 24.95 372.507 29.35V55H361.932V31C361.932 28.95 361.432 27.375 360.432 26.275C359.432 25.175 358.082 24.625 356.382 24.625C354.332 24.625 352.407 25.4 350.607 26.95C348.857 28.45 347.507 30.325 346.557 32.575V55H335.982ZM394.295 55V5.05C395.395 5 396.645 4.975 398.045 4.975C399.495 4.975 400.995 4.975 402.545 4.975C404.095 4.975 405.595 4.975 407.045 4.975C408.495 4.975 409.77 5 410.87 5.05C415.97 5.15 419.995 6.525 422.945 9.175C425.945 11.775 427.445 15.45 427.445 20.2C427.445 23.6 426.67 26.575 425.12 29.125C423.62 31.675 421.52 33.65 418.82 35.05C416.17 36.45 413.095 37.15 409.595 37.15H404.72V55H394.295ZM404.72 28.3H409.145C411.595 28.3 413.495 27.6 414.845 26.2C416.245 24.8 416.945 22.9 416.945 20.5C416.945 16.1 414.52 13.9 409.67 13.9H404.72V28.3ZM433.661 55V16.375H444.236V22.675H444.836C446.136 20.375 447.486 18.575 448.886 17.275C450.336 15.925 452.211 15.25 454.511 15.25C455.411 15.25 456.161 15.35 456.761 15.55L455.636 26.95C455.086 26.8 454.561 26.675 454.061 26.575C453.561 26.475 453.036 26.425 452.486 26.425C450.636 26.425 449.161 26.975 448.061 28.075C446.961 29.125 445.686 30.55 444.236 32.35V55H433.661ZM478.423 56.125C474.473 56.125 471.023 55.275 468.073 53.575C465.123 51.875 462.823 49.5 461.173 46.45C459.523 43.4 458.698 39.825 458.698 35.725C458.698 31.625 459.523 28.05 461.173 25C462.823 21.95 465.123 19.575 468.073 17.875C471.023 16.175 474.448 15.325 478.348 15.325C482.298 15.325 485.723 16.175 488.623 17.875C491.573 19.525 493.873 21.875 495.523 24.925C497.173 27.925 497.998 31.45 497.998 35.5C497.998 39.6 497.173 43.2 495.523 46.3C493.923 49.4 491.648 51.825 488.698 53.575C485.748 55.275 482.323 56.125 478.423 56.125ZM478.348 46.975C481.048 46.975 483.198 45.95 484.798 43.9C486.448 41.8 487.273 39.05 487.273 35.65C487.273 32.25 486.448 29.55 484.798 27.55C483.198 25.5 481.048 24.475 478.348 24.475C475.648 24.475 473.473 25.5 471.823 27.55C470.223 29.55 469.423 32.25 469.423 35.65C469.423 39.05 470.223 41.8 471.823 43.9C473.473 45.95 475.648 46.975 478.348 46.975ZM522.703 56.125C516.303 56.125 511.328 54.425 507.778 51.025C504.278 47.625 502.528 42.825 502.528 36.625C502.528 32.375 503.353 28.65 505.003 25.45C506.653 22.25 508.978 19.775 511.978 18.025C514.978 16.225 518.453 15.325 522.403 15.325C524.303 15.325 526.253 15.55 528.253 16C530.253 16.4 531.803 16.875 532.903 17.425L530.878 26.35C529.728 25.8 528.453 25.375 527.053 25.075C525.653 24.725 524.378 24.55 523.228 24.55C520.178 24.55 517.703 25.6 515.803 27.7C513.903 29.8 512.953 32.575 512.953 36.025C512.953 39.525 513.928 42.225 515.878 44.125C517.828 46.025 520.553 46.975 524.053 46.975C526.403 46.975 528.928 46.525 531.628 45.625L533.203 54.175C531.503 54.825 529.778 55.3 528.028 55.6C526.328 55.95 524.553 56.125 522.703 56.125ZM557.097 56.125C550.897 56.125 545.997 54.325 542.397 50.725C538.797 47.125 536.997 42.125 536.997 35.725C536.997 31.525 537.772 27.9 539.322 24.85C540.872 21.8 543.047 19.45 545.847 17.8C548.697 16.15 552.022 15.325 555.822 15.325C561.422 15.325 565.722 17.125 568.722 20.725C571.722 24.325 573.222 29.525 573.222 36.325C573.222 36.775 573.222 37.225 573.222 37.675C573.222 38.075 573.197 38.475 573.147 38.875H547.647C548.647 44.275 552.222 46.975 558.372 46.975C560.272 46.975 562.197 46.75 564.147 46.3C566.147 45.8 567.897 45.15 569.397 44.35L571.122 52.825C566.972 55.025 562.297 56.125 557.097 56.125ZM547.572 30.925H563.097C562.947 28.775 562.197 27.075 560.847 25.825C559.497 24.525 557.697 23.875 555.447 23.875C553.297 23.875 551.522 24.5 550.122 25.75C548.772 27 547.922 28.725 547.572 30.925ZM590.808 56.125C588.358 56.125 585.983 55.875 583.683 55.375C581.433 54.875 579.508 54.2 577.908 53.35L578.883 44.35C580.583 45.4 582.458 46.25 584.508 46.9C586.558 47.55 588.483 47.875 590.283 47.875C591.883 47.875 593.283 47.575 594.483 46.975C595.683 46.375 596.283 45.45 596.283 44.2C596.283 43 595.633 42.125 594.333 41.575C593.083 41.025 591.133 40.25 588.483 39.25C587.483 38.85 586.358 38.4 585.108 37.9C583.908 37.4 582.758 36.75 581.658 35.95C580.558 35.1 579.658 34.025 578.958 32.725C578.258 31.375 577.908 29.7 577.908 27.7C577.908 25 578.583 22.75 579.933 20.95C581.333 19.1 583.233 17.7 585.633 16.75C588.033 15.8 590.733 15.325 593.733 15.325C595.783 15.325 597.783 15.525 599.733 15.925C601.733 16.325 603.633 16.85 605.433 17.5L604.008 26.425C602.558 25.575 600.908 24.9 599.058 24.4C597.258 23.85 595.558 23.575 593.958 23.575C592.408 23.575 591.108 23.85 590.058 24.4C589.058 24.9 588.558 25.7 588.558 26.8C588.558 27.7 588.908 28.425 589.608 28.975C590.308 29.475 591.258 29.925 592.458 30.325C593.658 30.675 594.983 31.15 596.433 31.75C597.883 32.3 599.408 33 601.008 33.85C602.658 34.7 604.058 35.9 605.208 37.45C606.358 39 606.933 41.125 606.933 43.825C606.933 46.675 606.208 49.025 604.758 50.875C603.358 52.675 601.433 54 598.983 54.85C596.583 55.7 593.858 56.125 590.808 56.125ZM624.098 56.125C621.648 56.125 619.273 55.875 616.973 55.375C614.723 54.875 612.798 54.2 611.198 53.35L612.173 44.35C613.873 45.4 615.748 46.25 617.798 46.9C619.848 47.55 621.773 47.875 623.573 47.875C625.173 47.875 626.573 47.575 627.773 46.975C628.973 46.375 629.573 45.45 629.573 44.2C629.573 43 628.923 42.125 627.623 41.575C626.373 41.025 624.423 40.25 621.773 39.25C620.773 38.85 619.648 38.4 618.398 37.9C617.198 37.4 616.048 36.75 614.948 35.95C613.848 35.1 612.948 34.025 612.248 32.725C611.548 31.375 611.198 29.7 611.198 27.7C611.198 25 611.873 22.75 613.223 20.95C614.623 19.1 616.523 17.7 618.923 16.75C621.323 15.8 624.023 15.325 627.023 15.325C629.073 15.325 631.073 15.525 633.023 15.925C635.023 16.325 636.923 16.85 638.723 17.5L637.298 26.425C635.848 25.575 634.198 24.9 632.348 24.4C630.548 23.85 628.848 23.575 627.248 23.575C625.698 23.575 624.398 23.85 623.348 24.4C622.348 24.9 621.848 25.7 621.848 26.8C621.848 27.7 622.198 28.425 622.898 28.975C623.598 29.475 624.548 29.925 625.748 30.325C626.948 30.675 628.273 31.15 629.723 31.75C631.173 32.3 632.698 33 634.298 33.85C635.948 34.7 637.348 35.9 638.498 37.45C639.648 39 640.223 41.125 640.223 43.825C640.223 46.675 639.498 49.025 638.048 50.875C636.648 52.675 634.723 54 632.273 54.85C629.873 55.7 627.148 56.125 624.098 56.125Z" fill="#3B3C44"/>
</svg>
