<svg width="844" height="73" viewBox="0 0 844 73" fill="none" xmlns="http://www.w3.org/2000/svg">
<path d="M0.85 55V5.05H11.725V55H0.85ZM20.9336 55V16.375H31.2836V23.05C32.8836 20.35 34.7336 18.4 36.8336 17.2C38.9836 15.95 41.4336 15.325 44.1836 15.325C48.3336 15.325 51.5836 16.575 53.9336 19.075C56.2836 21.525 57.4586 24.95 57.4586 29.35V55H46.8836V31C46.8836 28.95 46.3836 27.375 45.3836 26.275C44.3836 25.175 43.0336 24.625 41.3336 24.625C39.2836 24.625 37.3586 25.4 35.5586 26.95C33.8086 28.45 32.4586 30.325 31.5086 32.575V55H20.9336ZM78.799 56.125C75.199 56.125 72.399 55.225 70.399 53.425C68.449 51.575 67.474 48.975 67.474 45.625V25.45H61.474V16.375H67.474V8.125C71.074 7.525 74.574 7.075 77.974 6.775V16.375H87.724V25.45H77.974V43.675C77.974 45.825 79.174 46.9 81.574 46.9C82.974 46.9 84.574 46.575 86.374 45.925L88.699 53.875C85.499 55.375 82.199 56.125 78.799 56.125ZM94.9164 55V16.375H105.491V22.675H106.091C107.391 20.375 108.741 18.575 110.141 17.275C111.591 15.925 113.466 15.25 115.766 15.25C116.666 15.25 117.416 15.35 118.016 15.55L116.891 26.95C116.341 26.8 115.816 26.675 115.316 26.575C114.816 26.475 114.291 26.425 113.741 26.425C111.891 26.425 110.416 26.975 109.316 28.075C108.216 29.125 106.941 30.55 105.491 32.35V55H94.9164ZM139.679 56.125C135.729 56.125 132.279 55.275 129.329 53.575C126.379 51.875 124.079 49.5 122.429 46.45C120.779 43.4 119.954 39.825 119.954 35.725C119.954 31.625 120.779 28.05 122.429 25C124.079 21.95 126.379 19.575 129.329 17.875C132.279 16.175 135.704 15.325 139.604 15.325C143.554 15.325 146.979 16.175 149.879 17.875C152.829 19.525 155.129 21.875 156.779 24.925C158.429 27.925 159.254 31.45 159.254 35.5C159.254 39.6 158.429 43.2 156.779 46.3C155.179 49.4 152.904 51.825 149.954 53.575C147.004 55.275 143.579 56.125 139.679 56.125ZM139.604 46.975C142.304 46.975 144.454 45.95 146.054 43.9C147.704 41.8 148.529 39.05 148.529 35.65C148.529 32.25 147.704 29.55 146.054 27.55C144.454 25.5 142.304 24.475 139.604 24.475C136.904 24.475 134.729 25.5 133.079 27.55C131.479 29.55 130.679 32.25 130.679 35.65C130.679 39.05 131.479 41.8 133.079 43.9C134.729 45.95 136.904 46.975 139.604 46.975ZM178.034 56.125C173.734 56.125 170.334 54.475 167.834 51.175C165.334 47.825 164.084 43.175 164.084 37.225C164.084 30.125 165.909 24.7 169.559 20.95C173.259 17.2 178.509 15.325 185.309 15.325C186.009 15.325 186.659 15.35 187.259 15.4C187.859 15.4 188.484 15.425 189.134 15.475V0.249999H199.559V55H189.284L189.509 49.975H189.209C186.559 54.075 182.834 56.125 178.034 56.125ZM180.434 46.9C182.034 46.9 183.584 46.225 185.084 44.875C186.584 43.475 187.934 41.5 189.134 38.95V25.225C187.434 24.775 185.809 24.55 184.259 24.55C181.109 24.55 178.709 25.575 177.059 27.625C175.459 29.675 174.659 32.675 174.659 36.625C174.659 39.825 175.159 42.35 176.159 44.2C177.209 46 178.634 46.9 180.434 46.9ZM220.57 56.05C216.47 56.05 213.245 54.8 210.895 52.3C208.545 49.75 207.37 46.325 207.37 42.025V16.375H217.945V40.3C217.945 42.35 218.445 43.95 219.445 45.1C220.445 46.2 221.795 46.75 223.495 46.75C225.245 46.75 226.895 46.2 228.445 45.1C229.995 44 231.295 42.525 232.345 40.675V16.375H242.92V55H232.345V49.9C231.045 51.65 229.47 53.125 227.62 54.325C225.77 55.475 223.42 56.05 220.57 56.05ZM269.143 56.125C262.743 56.125 257.768 54.425 254.218 51.025C250.718 47.625 248.968 42.825 248.968 36.625C248.968 32.375 249.793 28.65 251.443 25.45C253.093 22.25 255.418 19.775 258.418 18.025C261.418 16.225 264.893 15.325 268.843 15.325C270.743 15.325 272.693 15.55 274.693 16C276.693 16.4 278.243 16.875 279.343 17.425L277.318 26.35C276.168 25.8 274.893 25.375 273.493 25.075C272.093 24.725 270.818 24.55 269.668 24.55C266.618 24.55 264.143 25.6 262.243 27.7C260.343 29.8 259.393 32.575 259.393 36.025C259.393 39.525 260.368 42.225 262.318 44.125C264.268 46.025 266.993 46.975 270.493 46.975C272.843 46.975 275.368 46.525 278.068 45.625L279.643 54.175C277.943 54.825 276.218 55.3 274.468 55.6C272.768 55.95 270.993 56.125 269.143 56.125ZM290.178 10V0.249999H302.253V10H290.178ZM284.328 55V45.925H291.528V25.45H284.328V16.375H302.103V45.925H308.553V55H284.328ZM314.061 55V16.375H324.411V23.05C326.011 20.35 327.861 18.4 329.961 17.2C332.111 15.95 334.561 15.325 337.311 15.325C341.461 15.325 344.711 16.575 347.061 19.075C349.411 21.525 350.586 24.95 350.586 29.35V55H340.011V31C340.011 28.95 339.511 27.375 338.511 26.275C337.511 25.175 336.161 24.625 334.461 24.625C332.411 24.625 330.486 25.4 328.686 26.95C326.936 28.45 325.586 30.325 324.636 32.575V55H314.061ZM371.008 72.025C369.208 72.025 367.158 71.9 364.858 71.65C362.608 71.4 360.308 70.95 357.958 70.3L359.983 61C362.033 61.6 364.058 62.1 366.058 62.5C368.058 62.9 370.033 63.1 371.983 63.1C374.583 63.1 376.558 62.675 377.908 61.825C379.308 61.025 380.283 59.75 380.833 58C381.383 56.25 381.708 53.975 381.808 51.175H381.583C378.733 54.475 375.083 56.125 370.633 56.125C366.233 56.125 362.783 54.475 360.283 51.175C357.833 47.825 356.608 43.2 356.608 37.3C356.608 30.15 358.458 24.7 362.158 20.95C365.858 17.2 371.108 15.325 377.908 15.325C379.958 15.325 382.183 15.5 384.583 15.85C386.983 16.15 389.458 16.575 392.008 17.125C392.058 20.975 392.083 24.85 392.083 28.75C392.133 32.65 392.158 36.525 392.158 40.375C392.158 42.125 392.158 43.875 392.158 45.625C392.158 47.375 392.133 49.125 392.083 50.875C391.983 57.975 390.208 63.275 386.758 66.775C383.308 70.275 378.058 72.025 371.008 72.025ZM373.408 46.9C375.008 46.9 376.483 46.325 377.833 45.175C379.233 43.975 380.483 42.35 381.583 40.3V25.225C379.933 24.775 378.333 24.55 376.783 24.55C373.583 24.55 371.183 25.575 369.583 27.625C367.983 29.675 367.183 32.65 367.183 36.55C367.183 39.8 367.708 42.35 368.758 44.2C369.858 46 371.408 46.9 373.408 46.9ZM436.734 55.975C431.784 55.975 427.434 54.9 423.684 52.75C419.984 50.6 417.084 47.6 414.984 43.75C412.934 39.85 411.909 35.35 411.909 30.25C411.909 25.05 412.934 20.525 414.984 16.675C417.084 12.825 419.984 9.825 423.684 7.675C427.434 5.525 431.784 4.45 436.734 4.45C441.684 4.45 446.009 5.525 449.709 7.675C453.459 9.775 456.359 12.75 458.409 16.6C460.459 20.4 461.484 24.85 461.484 29.95C461.484 35.15 460.459 39.7 458.409 43.6C456.359 47.5 453.459 50.55 449.709 52.75C446.009 54.9 441.684 55.975 436.734 55.975ZM436.734 46.45C440.884 46.45 444.184 44.975 446.634 42.025C449.084 39.075 450.309 35.15 450.309 30.25C450.309 27 449.734 24.15 448.584 21.7C447.484 19.25 445.909 17.35 443.859 16C441.809 14.65 439.434 14 436.734 14.05C434.034 14 431.659 14.65 429.609 16C427.609 17.35 426.034 19.25 424.884 21.7C423.734 24.15 423.159 27 423.159 30.25C423.159 33.5 423.709 36.35 424.809 38.8C425.959 41.2 427.559 43.075 429.609 44.425C431.659 45.775 434.034 46.45 436.734 46.45ZM480.7 56.05C476.6 56.05 473.375 54.8 471.025 52.3C468.675 49.75 467.5 46.325 467.5 42.025V16.375H478.075V40.3C478.075 42.35 478.575 43.95 479.575 45.1C480.575 46.2 481.925 46.75 483.625 46.75C485.375 46.75 487.025 46.2 488.575 45.1C490.125 44 491.425 42.525 492.475 40.675V16.375H503.05V55H492.475V49.9C491.175 51.65 489.6 53.125 487.75 54.325C485.9 55.475 483.55 56.05 480.7 56.05ZM511.497 55V16.375H522.072V22.675H522.672C523.972 20.375 525.322 18.575 526.722 17.275C528.172 15.925 530.047 15.25 532.347 15.25C533.247 15.25 533.997 15.35 534.597 15.55L533.472 26.95C532.922 26.8 532.397 26.675 531.897 26.575C531.397 26.475 530.872 26.425 530.322 26.425C528.472 26.425 526.997 26.975 525.897 28.075C524.797 29.125 523.522 30.55 522.072 32.35V55H511.497ZM566.818 55.975C563.868 55.975 561.068 55.65 558.418 55C555.818 54.35 553.593 53.475 551.743 52.375L552.643 42.325C554.893 43.725 557.243 44.825 559.693 45.625C562.193 46.375 564.493 46.75 566.593 46.75C568.993 46.75 570.943 46.25 572.443 45.25C573.943 44.25 574.693 42.925 574.693 41.275C574.693 40.075 574.318 39.15 573.568 38.5C572.818 37.8 571.843 37.2 570.643 36.7C569.443 36.2 568.118 35.65 566.668 35.05C565.018 34.35 563.318 33.625 561.568 32.875C559.868 32.125 558.268 31.225 556.768 30.175C555.318 29.075 554.118 27.675 553.168 25.975C552.268 24.275 551.818 22.125 551.818 19.525C551.818 14.775 553.443 11.025 556.693 8.275C559.943 5.475 564.468 4.075 570.268 4.075C574.718 4.075 579.218 4.975 583.768 6.775L582.118 16.675C580.268 15.625 578.268 14.8 576.118 14.2C574.018 13.6 572.018 13.3 570.118 13.3C567.768 13.3 565.943 13.775 564.643 14.725C563.343 15.625 562.693 16.85 562.693 18.4C562.693 19.85 563.218 20.975 564.268 21.775C565.368 22.525 566.743 23.25 568.393 23.95C570.043 24.65 571.843 25.375 573.793 26.125C575.793 26.825 577.668 27.75 579.418 28.9C581.218 30 582.693 31.5 583.843 33.4C584.993 35.25 585.568 37.65 585.568 40.6C585.568 45.45 583.918 49.225 580.618 51.925C577.368 54.625 572.768 55.975 566.818 55.975ZM610.169 56.125C606.219 56.125 602.769 55.275 599.819 53.575C596.869 51.875 594.569 49.5 592.919 46.45C591.269 43.4 590.444 39.825 590.444 35.725C590.444 31.625 591.269 28.05 592.919 25C594.569 21.95 596.869 19.575 599.819 17.875C602.769 16.175 606.194 15.325 610.094 15.325C614.044 15.325 617.469 16.175 620.369 17.875C623.319 19.525 625.619 21.875 627.269 24.925C628.919 27.925 629.744 31.45 629.744 35.5C629.744 39.6 628.919 43.2 627.269 46.3C625.669 49.4 623.394 51.825 620.444 53.575C617.494 55.275 614.069 56.125 610.169 56.125ZM610.094 46.975C612.794 46.975 614.944 45.95 616.544 43.9C618.194 41.8 619.019 39.05 619.019 35.65C619.019 32.25 618.194 29.55 616.544 27.55C614.944 25.5 612.794 24.475 610.094 24.475C607.394 24.475 605.219 25.5 603.569 27.55C601.969 29.55 601.169 32.25 601.169 35.65C601.169 39.05 601.969 41.8 603.569 43.9C605.219 45.95 607.394 46.975 610.094 46.975ZM632.893 55V45.925H639.718V9.25H633.268V0.249999H650.293V45.925H657.118V55H632.893ZM675.02 56.05C670.92 56.05 667.695 54.8 665.345 52.3C662.995 49.75 661.82 46.325 661.82 42.025V16.375H672.395V40.3C672.395 42.35 672.895 43.95 673.895 45.1C674.895 46.2 676.245 46.75 677.945 46.75C679.695 46.75 681.345 46.2 682.895 45.1C684.445 44 685.745 42.525 686.795 40.675V16.375H697.37V55H686.795V49.9C685.495 51.65 683.92 53.125 682.07 54.325C680.22 55.475 677.87 56.05 675.02 56.05ZM719.768 56.125C716.168 56.125 713.368 55.225 711.368 53.425C709.418 51.575 708.443 48.975 708.443 45.625V25.45H702.443V16.375H708.443V8.125C712.043 7.525 715.543 7.075 718.943 6.775V16.375H728.693V25.45H718.943V43.675C718.943 45.825 720.143 46.9 722.543 46.9C723.943 46.9 725.543 46.575 727.343 45.925L729.668 53.875C726.468 55.375 723.168 56.125 719.768 56.125ZM740.16 10V0.249999H752.235V10H740.16ZM734.31 55V45.925H741.51V25.45H734.31V16.375H752.085V45.925H758.535V55H734.31ZM781.161 56.125C777.211 56.125 773.761 55.275 770.811 53.575C767.861 51.875 765.561 49.5 763.911 46.45C762.261 43.4 761.436 39.825 761.436 35.725C761.436 31.625 762.261 28.05 763.911 25C765.561 21.95 767.861 19.575 770.811 17.875C773.761 16.175 777.186 15.325 781.086 15.325C785.036 15.325 788.461 16.175 791.361 17.875C794.311 19.525 796.611 21.875 798.261 24.925C799.911 27.925 800.736 31.45 800.736 35.5C800.736 39.6 799.911 43.2 798.261 46.3C796.661 49.4 794.386 51.825 791.436 53.575C788.486 55.275 785.061 56.125 781.161 56.125ZM781.086 46.975C783.786 46.975 785.936 45.95 787.536 43.9C789.186 41.8 790.011 39.05 790.011 35.65C790.011 32.25 789.186 29.55 787.536 27.55C785.936 25.5 783.786 24.475 781.086 24.475C778.386 24.475 776.211 25.5 774.561 27.55C772.961 29.55 772.161 32.25 772.161 35.65C772.161 39.05 772.961 41.8 774.561 43.9C776.211 45.95 778.386 46.975 781.086 46.975ZM807.074 55V16.375H817.424V23.05C819.024 20.35 820.874 18.4 822.974 17.2C825.124 15.95 827.574 15.325 830.324 15.325C834.474 15.325 837.724 16.575 840.074 19.075C842.424 21.525 843.599 24.95 843.599 29.35V55H833.024V31C833.024 28.95 832.524 27.375 831.524 26.275C830.524 25.175 829.174 24.625 827.474 24.625C825.424 24.625 823.499 25.4 821.699 26.95C819.949 28.45 818.599 30.325 817.649 32.575V55H807.074Z" fill="#3B3C44"/>
</svg>
