<svg width="90" height="71" viewBox="0 0 90 71" fill="none" xmlns="http://www.w3.org/2000/svg">
<path fill-rule="evenodd" clip-rule="evenodd" d="M53.2116 7.77024L47.1123 14.6309L42.5723 10.5931L48.6675 3.73644C49.7124 2.56141 50.9943 1.62096 52.4288 0.976957C53.8633 0.332955 55.4178 0 56.9903 0C58.5627 0 60.1173 0.332955 61.5518 0.976957C62.9862 1.62096 64.2681 2.56141 65.313 3.73644L86.8752 27.9959C88.6863 30.0344 89.6866 32.6665 89.6866 35.3933C89.6866 38.1201 88.6863 40.7521 86.8752 42.7906M86.8752 42.7906L65.313 67.0501C64.2681 68.2251 62.9862 69.1656 61.5518 69.8096C60.1173 70.4536 58.5627 70.7865 56.9903 70.7865C55.4178 70.7865 53.8633 70.4536 52.4288 69.8096C50.9943 69.1656 49.7124 68.2251 48.6675 67.0501L42.5723 60.1934L47.1083 56.1556L53.2076 63.0122C53.6825 63.5462 54.2651 63.9736 54.9171 64.2662C55.5691 64.5589 56.2756 64.7102 56.9903 64.7102C57.7049 64.7102 58.4114 64.5589 59.0634 64.2662C59.7154 63.9736 60.298 63.5462 60.773 63.0122L82.3352 38.7527C83.1579 37.8263 83.6123 36.6303 83.6123 35.3912C83.6123 34.1522 83.1579 32.9562 82.3352 32.0297L60.773 7.77024C60.298 7.23626 59.7154 6.80888 59.0634 6.51623C58.4114 6.22357 57.7049 6.07227 56.9903 6.07227C56.2756 6.07227 55.5691 6.22357 54.9171 6.51623C54.2651 6.80888 53.6825 7.23626 53.2076 7.77024" fill="black"/>
<path d="M24.3754 3.73644C25.4203 2.56141 26.7022 1.62096 28.1367 0.976957C29.5712 0.332955 31.1258 0 32.6982 0C34.2706 0 35.8252 0.332955 37.2597 0.976957C38.6942 1.62096 39.976 2.56141 41.0209 3.73644L62.5872 27.9959C64.3983 30.0344 65.3986 32.6665 65.3986 35.3933C65.3986 38.1201 64.3983 40.7521 62.5872 42.7906L41.025 67.0501C39.9801 68.2258 38.698 69.1668 37.2631 69.8112C35.8282 70.4556 34.2731 70.7888 32.7002 70.7888C31.1273 70.7888 29.5722 70.4556 28.1373 69.8112C26.7024 69.1668 25.4203 68.2258 24.3754 67.0501L2.81323 42.7906C1.00102 40.7519 0 38.119 0 35.3912C0 32.6635 1.00102 30.0306 2.81323 27.9919L24.3754 3.73644Z" fill="black"/>
</svg>
