<svg width="95" height="95" viewBox="0 0 95 95" fill="none" xmlns="http://www.w3.org/2000/svg">
<path d="M83.1227 27.7085C83.1227 24.4736 80.4354 20.5498 73.6932 17.2019C67.1775 13.9665 57.9106 11.8752 47.4977 11.8752C37.0848 11.8752 27.818 13.9665 21.3023 17.2019C14.5601 20.5498 11.8727 24.4736 11.8727 27.7085C11.8727 30.561 14.0434 34.0671 19.5662 37.3076C24.7635 40.3573 32.1613 42.6549 40.6731 43.4809L41.4998 43.5563L41.7028 43.5786C43.7776 43.8616 45.2879 45.7259 45.1083 47.836C44.9229 50.0142 43.0069 51.6294 40.8287 51.444C31.0839 50.6146 22.1685 48.0137 15.5595 44.1357C9.10824 40.3502 3.95605 34.7518 3.95605 27.7085C3.95605 19.8601 10.1751 13.8881 17.7817 10.111C25.615 6.22144 36.1399 3.9585 47.4977 3.9585C58.8555 3.9585 69.3805 6.22144 77.2137 10.111C84.8204 13.8881 91.0394 19.8601 91.0394 27.7085C91.0394 33.5905 87.52 38.3935 82.7584 41.9226C77.9772 45.4663 71.4788 48.1147 64.2129 49.7755C62.0818 50.2625 59.9595 48.93 59.4723 46.799C58.9851 44.6679 60.3181 42.5451 62.4492 42.0579C69.0373 40.5521 74.4141 38.253 78.0443 35.5623C81.6942 32.8571 83.1227 30.139 83.1227 27.7085Z" fill="#3B3C44"/>
<path d="M3.95605 47.5002C3.95605 42.4672 6.71129 37.9 10.4536 34.6255C12.0988 33.1859 14.5997 33.3528 16.0393 34.998C17.4787 36.6433 17.3119 39.1438 15.6668 40.5833C13.0758 42.8504 11.8727 45.4083 11.8727 47.5002C11.8727 50.7352 14.5601 54.6589 21.3023 58.0068C27.818 61.2422 37.0848 63.3336 47.4977 63.3336H48.6854L48.8888 63.3389C50.9803 63.4449 52.6437 65.1741 52.6437 67.2919C52.6437 69.4097 50.9803 71.1389 48.8888 71.2449L48.6854 71.2502H47.4977C36.1399 71.2502 25.615 68.9873 17.7817 65.0977C10.1751 61.3206 3.95605 55.3486 3.95605 47.5002ZM83.1227 47.5002C83.1227 45.4737 81.9935 43.01 79.5674 40.7969L79.3287 40.5833L79.1789 40.4451C77.6748 38.9881 77.5617 36.5918 78.9561 34.998C80.3507 33.4042 82.7415 33.1975 84.3853 34.495L84.5419 34.6255L84.8898 34.9362C88.4537 38.1859 91.0394 42.6245 91.0394 47.5002C91.0394 53.3892 87.5126 58.1955 82.6912 61.7274C77.8541 65.2709 71.2529 67.915 63.794 69.5726C61.6599 70.0468 59.5454 68.7012 59.0712 66.5671C58.597 64.4331 59.9426 62.3186 62.0767 61.8444C68.8675 60.3353 74.3392 58.0318 78.0124 55.341C81.7015 52.6386 83.1227 49.9238 83.1227 47.5002Z" fill="#3B3C44"/>
<path d="M3.95605 67.2917C3.95605 62.2587 6.71129 57.6915 10.4536 54.417C12.0988 52.9774 14.5997 53.1443 16.0393 54.7896C17.4787 56.4348 17.3119 58.9353 15.6668 60.3748C13.0758 62.6419 11.8727 65.1998 11.8727 67.2917C11.8727 70.5267 14.5601 74.4504 21.3023 77.7983C27.818 81.0337 37.0848 83.1251 47.4977 83.1251C57.9106 83.1251 67.1775 81.0337 73.6932 77.7983C80.4354 74.4504 83.1227 70.5267 83.1227 67.2917C83.1227 65.2652 81.9935 62.8015 79.5674 60.5884L79.3287 60.3748L79.1789 60.2366C77.6748 58.7796 77.5617 56.3834 78.9561 54.7896C80.3507 53.1957 82.7415 52.9891 84.3853 54.2865L84.5419 54.417L84.8898 54.7277C88.4537 57.9774 91.0394 62.416 91.0394 67.2917C91.0394 75.1401 84.8204 81.1121 77.2137 84.8892C69.3805 88.7788 58.8555 91.0417 47.4977 91.0417C36.1399 91.0417 25.615 88.7788 17.7817 84.8892C10.1751 81.1121 3.95605 75.1401 3.95605 67.2917Z" fill="#3B3C44"/>
<path d="M63.3333 35.6248C63.3333 34.1535 62.3914 32.2759 59.5224 30.5624C56.6927 28.8725 52.48 27.7082 47.5 27.7082C42.52 27.7082 38.3073 28.8725 35.4776 30.5624C32.6086 32.2759 31.6667 34.1535 31.6667 35.6248C31.6667 36.6043 32.151 37.8966 33.6676 39.3048C35.1624 40.6929 37.4788 41.9947 40.5058 42.8549C46.2617 43.9963 51.4583 48.855 51.4583 55.4165V63.3332C51.4583 64.383 51.8752 65.39 52.6175 66.1323C53.3598 66.8747 54.3669 67.2915 55.4167 67.2915C56.4665 67.2915 57.4735 66.8747 58.2158 66.1323C58.9581 65.39 59.375 64.383 59.375 63.3332V46.7084C59.375 44.8302 60.0782 42.9969 60.6753 41.6942C61.2846 40.3648 62.0279 39.0837 62.6153 38.1012C63.21 36.895 63.3333 36.3456 63.3333 35.6248ZM71.25 35.6248C71.25 38.0498 70.5875 39.8639 69.6448 41.7493C69.5995 41.8399 69.5505 41.9287 69.4984 42.0156C68.9116 42.9937 68.3178 44.0203 67.872 44.993C67.6519 45.4732 67.4951 45.8821 67.3975 46.2145C67.2972 46.5561 67.2918 46.7084 67.2917 46.7084V63.3332C67.2917 66.4826 66.0406 69.5031 63.8136 71.7301C61.5866 73.9571 58.5661 75.2082 55.4167 75.2082C52.2672 75.2082 49.2467 73.9571 47.0197 71.7301C44.7927 69.5031 43.5417 66.4826 43.5417 63.3332V55.4165C43.5417 53.3511 41.743 51.1239 38.8755 50.6024C38.7572 50.5809 38.6395 50.5544 38.5237 50.5222C34.4931 49.4026 30.9193 47.5564 28.2804 45.1061C25.6408 42.655 23.75 39.3954 23.75 35.6248C23.75 30.367 27.1624 26.307 31.4183 23.7653C35.7136 21.2001 41.3967 19.7915 47.5 19.7915C53.6033 19.7915 59.2864 21.2001 63.5817 23.7653C67.8376 26.307 71.25 30.367 71.25 35.6248Z" fill="#3B3C44"/>
</svg>
