<svg width="442" height="176" viewBox="0 0 442 176" fill="none" xmlns="http://www.w3.org/2000/svg">
<g filter="url(#filter0_d_38_1126)">
<rect x="20" y="20" width="401.4" height="136" rx="50" fill="white" shape-rendering="crispEdges"/>
<rect x="21.5" y="21.5" width="398.4" height="133" rx="48.5" stroke="#DF44A1" stroke-width="3" shape-rendering="crispEdges"/>
<rect width="264.6" height="32.4" transform="translate(59.5996 43.8)" fill="white"/>
<circle cx="68.5996" cy="60" r="9" fill="#DF44A1"/>
<path d="M111.096 55.376C111.096 56.5707 110.808 57.6907 110.232 58.736C109.677 59.7814 108.792 60.624 107.576 61.264C106.381 61.904 104.866 62.224 103.032 62.224H99.2876V70.8H94.8076V48.464H103.032C104.76 48.464 106.232 48.7627 107.448 49.36C108.664 49.9574 109.57 50.7787 110.168 51.824C110.786 52.8694 111.096 54.0534 111.096 55.376ZM102.84 58.608C104.077 58.608 104.994 58.3307 105.592 57.776C106.189 57.2 106.488 56.4 106.488 55.376C106.488 53.2 105.272 52.112 102.84 52.112H99.2876V58.608H102.84ZM126.116 70.8L121.188 62.096H119.076V70.8H114.596V48.464H122.98C124.708 48.464 126.18 48.7734 127.396 49.392C128.612 49.9894 129.519 50.8107 130.116 51.856C130.735 52.88 131.044 54.032 131.044 55.312C131.044 56.784 130.618 58.1174 129.764 59.312C128.911 60.4854 127.642 61.296 125.956 61.744L131.3 70.8H126.116ZM119.076 58.736H122.82C124.036 58.736 124.943 58.448 125.54 57.872C126.138 57.2747 126.436 56.4534 126.436 55.408C126.436 54.384 126.138 53.5947 125.54 53.04C124.943 52.464 124.036 52.176 122.82 52.176H119.076V58.736ZM145.784 71.024C143.694 71.024 141.774 70.5334 140.024 69.552C138.275 68.5707 136.888 67.216 135.864 65.488C134.84 63.7387 134.328 61.7654 134.328 59.568C134.328 57.392 134.84 55.44 135.864 53.712C136.888 51.9627 138.275 50.5974 140.024 49.616C141.774 48.6347 143.694 48.144 145.784 48.144C147.896 48.144 149.816 48.6347 151.544 49.616C153.294 50.5974 154.67 51.9627 155.672 53.712C156.696 55.44 157.208 57.392 157.208 59.568C157.208 61.7654 156.696 63.7387 155.672 65.488C154.67 67.216 153.294 68.5707 151.544 69.552C149.795 70.5334 147.875 71.024 145.784 71.024ZM145.784 67.024C147.128 67.024 148.312 66.7254 149.336 66.128C150.36 65.5094 151.16 64.6347 151.736 63.504C152.312 62.3734 152.6 61.0614 152.6 59.568C152.6 58.0747 152.312 56.7734 151.736 55.664C151.16 54.5334 150.36 53.6694 149.336 53.072C148.312 52.4747 147.128 52.176 145.784 52.176C144.44 52.176 143.246 52.4747 142.2 53.072C141.176 53.6694 140.376 54.5334 139.8 55.664C139.224 56.7734 138.936 58.0747 138.936 59.568C138.936 61.0614 139.224 62.3734 139.8 63.504C140.376 64.6347 141.176 65.5094 142.2 66.128C143.246 66.7254 144.44 67.024 145.784 67.024ZM173.533 59.344C174.792 59.5787 175.827 60.208 176.637 61.232C177.448 62.256 177.853 63.4294 177.853 64.752C177.853 65.9467 177.555 67.0027 176.957 67.92C176.381 68.816 175.539 69.52 174.429 70.032C173.32 70.544 172.008 70.8 170.493 70.8H160.861V48.464H170.077C171.592 48.464 172.893 48.7094 173.981 49.2C175.091 49.6907 175.923 50.3734 176.477 51.248C177.053 52.1227 177.341 53.1147 177.341 54.224C177.341 55.5254 176.989 56.6134 176.285 57.488C175.603 58.3627 174.685 58.9814 173.533 59.344ZM165.341 57.68H169.437C170.504 57.68 171.325 57.4454 171.901 56.976C172.477 56.4854 172.765 55.792 172.765 54.896C172.765 54 172.477 53.3067 171.901 52.816C171.325 52.3254 170.504 52.08 169.437 52.08H165.341V57.68ZM169.853 67.152C170.941 67.152 171.784 66.896 172.381 66.384C173 65.872 173.309 65.1467 173.309 64.208C173.309 63.248 172.989 62.5014 172.349 61.968C171.709 61.4134 170.845 61.136 169.757 61.136H165.341V67.152H169.853ZM186.224 67.248H193.584V70.8H181.744V48.464H186.224V67.248ZM201.231 52.08V57.68H208.751V61.232H201.231V67.152H209.711V70.8H196.751V48.432H209.711V52.08H201.231ZM238.455 48.464V70.8H233.975V56.272L227.991 70.8H224.599L218.583 56.272V70.8H214.103V48.464H219.191L226.295 65.072L233.399 48.464H238.455Z" fill="#3B3C44"/>
<path d="M368.524 58.6438C368.524 59.1667 368.369 59.6779 368.078 60.1127C367.788 60.5475 367.375 60.8863 366.892 61.0864C366.409 61.2865 365.877 61.3389 365.364 61.2369C364.852 61.1349 364.38 60.8831 364.011 60.5133C363.641 60.1436 363.389 59.6725 363.287 59.1596C363.185 58.6468 363.237 58.1152 363.438 57.6321C363.638 57.149 363.977 56.7361 364.411 56.4456C364.846 56.1551 365.357 56 365.88 56C366.581 56 367.254 56.2785 367.75 56.7744C368.245 57.2702 368.524 57.9427 368.524 58.6438ZM354.644 56C354.121 56 353.61 56.1551 353.175 56.4456C352.74 56.7361 352.401 57.149 352.201 57.6321C352.001 58.1152 351.949 58.6468 352.051 59.1596C352.153 59.6725 352.405 60.1436 352.774 60.5133C353.144 60.8831 353.615 61.1349 354.128 61.2369C354.641 61.3389 355.172 61.2865 355.656 61.0864C356.139 60.8863 356.552 60.5475 356.842 60.1127C357.133 59.6779 357.288 59.1667 357.288 58.6438C357.288 57.9427 357.009 57.2702 356.513 56.7744C356.018 56.2785 355.345 56 354.644 56ZM377.116 56C376.594 56 376.082 56.1551 375.648 56.4456C375.213 56.7361 374.874 57.149 374.674 57.6321C374.474 58.1152 374.421 58.6468 374.523 59.1596C374.625 59.6725 374.877 60.1436 375.247 60.5133C375.617 60.8831 376.088 61.1349 376.601 61.2369C377.114 61.3389 377.645 61.2865 378.128 61.0864C378.611 60.8863 379.024 60.5475 379.315 60.1127C379.605 59.6779 379.76 59.1667 379.76 58.6438C379.76 57.9427 379.482 57.2702 378.986 56.7744C378.49 56.2785 377.818 56 377.116 56Z" fill="#3B3C44"/>
<rect width="198" height="36" transform="translate(59.5996 96.2)" fill="white"/>
<rect x="59.8082" y="96.7667" width="208.951" height="34.866" rx="17.433" fill="white"/>
<rect x="59.8082" y="96.7667" width="208.951" height="34.866" rx="17.433" stroke="#D2D2D2" stroke-width="1.134"/>
<g clip-path="url(#clip0_38_1126)">
<path d="M82.7486 123.845C83.9576 125.054 85.6422 125.035 86.8509 123.826L94.4088 116.268C95.6179 115.059 95.637 113.365 94.4373 112.166L86.8131 104.541C85.6041 103.342 83.9194 103.37 82.7104 104.579L75.1622 112.128C73.9535 113.337 73.9247 115.021 75.1337 116.23L82.7486 123.845ZM84.4905 116.754C83.9763 116.754 83.6908 116.487 83.6908 115.973V115.84C83.6908 114.86 84.224 114.326 84.9474 113.832C85.823 113.232 86.2421 112.89 86.2421 112.204C86.2421 111.452 85.6516 110.938 84.7378 110.938C84.0717 110.938 83.5673 111.271 83.2627 111.814C82.9391 112.194 82.8534 112.49 82.282 112.49C81.9489 112.49 81.5968 112.252 81.5968 111.804C81.5968 111.633 81.6252 111.471 81.6825 111.309C81.9302 110.386 83.0816 109.577 84.8048 109.577C86.4987 109.577 87.9742 110.471 87.9742 112.128C87.9742 113.327 87.2797 113.898 86.318 114.555C85.6329 115.021 85.2901 115.364 85.2901 115.926V116.05C85.2901 116.439 84.9949 116.754 84.4905 116.754ZM84.5286 119.619C83.9763 119.619 83.4626 119.181 83.4626 118.591C83.4626 118 83.967 117.563 84.5286 117.563C85.081 117.563 85.5947 117.991 85.5947 118.591C85.5947 119.191 85.0708 119.619 84.5286 119.619Z" fill="#A4A4A4"/>
</g>
<path d="M111.861 120.892C110.679 120.892 109.696 120.674 108.912 120.237C108.141 119.8 107.556 119.19 107.158 118.406C106.759 117.622 106.541 116.709 106.502 115.668C106.489 115.141 106.483 114.576 106.483 113.972C106.483 113.368 106.489 112.789 106.502 112.237C106.541 111.196 106.759 110.283 107.158 109.499C107.556 108.715 108.141 108.105 108.912 107.668C109.696 107.231 110.679 107.012 111.861 107.012C112.748 107.012 113.526 107.134 114.194 107.379C114.862 107.623 115.415 107.951 115.852 108.362C116.302 108.773 116.642 109.236 116.874 109.75C117.105 110.251 117.234 110.772 117.259 111.311C117.272 111.427 117.234 111.523 117.144 111.6C117.066 111.678 116.97 111.716 116.854 111.716H115.794C115.678 111.716 115.576 111.684 115.486 111.62C115.409 111.556 115.351 111.44 115.312 111.273C115.094 110.27 114.682 109.583 114.078 109.21C113.487 108.837 112.742 108.651 111.842 108.651C110.814 108.651 109.998 108.947 109.394 109.538C108.79 110.116 108.462 111.048 108.411 112.333C108.372 113.387 108.372 114.466 108.411 115.572C108.462 116.857 108.79 117.795 109.394 118.386C109.998 118.965 110.814 119.254 111.842 119.254C112.742 119.254 113.487 119.068 114.078 118.695C114.682 118.322 115.094 117.635 115.312 116.632C115.351 116.465 115.409 116.349 115.486 116.285C115.576 116.221 115.678 116.189 115.794 116.189H116.854C116.97 116.189 117.066 116.227 117.144 116.304C117.234 116.381 117.272 116.478 117.259 116.593C117.234 117.133 117.105 117.66 116.874 118.174C116.642 118.676 116.302 119.132 115.852 119.543C115.415 119.954 114.862 120.282 114.194 120.526C113.526 120.77 112.748 120.892 111.861 120.892ZM124.662 120.892C123.686 120.892 122.869 120.706 122.214 120.333C121.559 119.961 121.057 119.447 120.71 118.791C120.363 118.123 120.171 117.365 120.132 116.516C120.119 116.298 120.113 116.022 120.113 115.687C120.113 115.34 120.119 115.064 120.132 114.858C120.171 113.997 120.363 113.239 120.71 112.584C121.07 111.928 121.578 111.414 122.233 111.041C122.889 110.669 123.698 110.482 124.662 110.482C125.626 110.482 126.436 110.669 127.091 111.041C127.747 111.414 128.248 111.928 128.595 112.584C128.955 113.239 129.154 113.997 129.193 114.858C129.205 115.064 129.212 115.34 129.212 115.687C129.212 116.022 129.205 116.298 129.193 116.516C129.154 117.365 128.961 118.123 128.614 118.791C128.267 119.447 127.766 119.961 127.111 120.333C126.455 120.706 125.639 120.892 124.662 120.892ZM124.662 119.408C125.459 119.408 126.095 119.157 126.571 118.656C127.046 118.142 127.303 117.397 127.342 116.42C127.355 116.227 127.361 115.983 127.361 115.687C127.361 115.392 127.355 115.148 127.342 114.955C127.303 113.978 127.046 113.239 126.571 112.738C126.095 112.224 125.459 111.967 124.662 111.967C123.865 111.967 123.223 112.224 122.735 112.738C122.259 113.239 122.008 113.978 121.983 114.955C121.97 115.148 121.963 115.392 121.963 115.687C121.963 115.983 121.97 116.227 121.983 116.42C122.008 117.397 122.259 118.142 122.735 118.656C123.223 119.157 123.865 119.408 124.662 119.408ZM133.033 120.7C132.905 120.7 132.795 120.661 132.705 120.584C132.628 120.494 132.59 120.385 132.59 120.256V111.138C132.59 111.009 132.628 110.9 132.705 110.81C132.795 110.72 132.905 110.675 133.033 110.675H133.92C134.048 110.675 134.158 110.72 134.248 110.81C134.338 110.9 134.383 111.009 134.383 111.138V111.986C134.64 111.549 134.993 111.221 135.443 111.003C135.893 110.784 136.433 110.675 137.062 110.675H137.833C137.962 110.675 138.065 110.72 138.142 110.81C138.219 110.887 138.258 110.99 138.258 111.119V111.909C138.258 112.037 138.219 112.14 138.142 112.217C138.065 112.294 137.962 112.333 137.833 112.333H136.677C135.983 112.333 135.436 112.539 135.038 112.95C134.64 113.348 134.44 113.895 134.44 114.589V120.256C134.44 120.385 134.395 120.494 134.306 120.584C134.216 120.661 134.106 120.7 133.978 120.7H133.033ZM144.679 120.892C143.356 120.892 142.302 120.488 141.518 119.678C140.734 118.855 140.303 117.737 140.226 116.324C140.213 116.157 140.207 115.944 140.207 115.687C140.207 115.418 140.213 115.199 140.226 115.032C140.278 114.119 140.49 113.323 140.862 112.642C141.235 111.947 141.743 111.414 142.385 111.041C143.041 110.669 143.805 110.482 144.679 110.482C145.656 110.482 146.472 110.688 147.128 111.099C147.796 111.511 148.304 112.095 148.651 112.854C148.998 113.612 149.171 114.499 149.171 115.514V115.842C149.171 115.983 149.126 116.092 149.036 116.169C148.959 116.246 148.856 116.285 148.728 116.285H142.058C142.058 116.298 142.058 116.324 142.058 116.362C142.058 116.401 142.058 116.433 142.058 116.459C142.083 116.985 142.199 117.48 142.405 117.943C142.61 118.393 142.906 118.759 143.291 119.042C143.677 119.325 144.14 119.466 144.679 119.466C145.142 119.466 145.528 119.395 145.836 119.254C146.144 119.112 146.395 118.958 146.588 118.791C146.781 118.611 146.909 118.476 146.973 118.386C147.089 118.219 147.179 118.123 147.243 118.097C147.308 118.059 147.41 118.039 147.552 118.039H148.477C148.606 118.039 148.708 118.078 148.786 118.155C148.876 118.219 148.914 118.316 148.901 118.444C148.888 118.637 148.786 118.875 148.593 119.157C148.4 119.427 148.124 119.697 147.764 119.967C147.404 120.237 146.967 120.462 146.453 120.642C145.939 120.809 145.348 120.892 144.679 120.892ZM142.058 114.955H147.34V114.897C147.34 114.319 147.23 113.805 147.012 113.355C146.806 112.905 146.504 112.552 146.106 112.294C145.708 112.025 145.232 111.89 144.679 111.89C144.127 111.89 143.651 112.025 143.253 112.294C142.867 112.552 142.572 112.905 142.366 113.355C142.16 113.805 142.058 114.319 142.058 114.897V114.955ZM163.238 120.892C162.056 120.892 161.072 120.674 160.288 120.237C159.517 119.8 158.933 119.19 158.534 118.406C158.136 117.622 157.917 116.709 157.879 115.668C157.866 115.141 157.859 114.576 157.859 113.972C157.859 113.368 157.866 112.789 157.879 112.237C157.917 111.196 158.136 110.283 158.534 109.499C158.933 108.715 159.517 108.105 160.288 107.668C161.072 107.231 162.056 107.012 163.238 107.012C164.125 107.012 164.902 107.134 165.571 107.379C166.239 107.623 166.792 107.951 167.229 108.362C167.678 108.773 168.019 109.236 168.25 109.75C168.482 110.251 168.61 110.772 168.636 111.311C168.649 111.427 168.61 111.523 168.52 111.6C168.443 111.678 168.347 111.716 168.231 111.716H167.171C167.055 111.716 166.952 111.684 166.862 111.62C166.785 111.556 166.727 111.44 166.689 111.273C166.47 110.27 166.059 109.583 165.455 109.21C164.864 108.837 164.118 108.651 163.219 108.651C162.191 108.651 161.374 108.947 160.77 109.538C160.166 110.116 159.839 111.048 159.787 112.333C159.749 113.387 159.749 114.466 159.787 115.572C159.839 116.857 160.166 117.795 160.77 118.386C161.374 118.965 162.191 119.254 163.219 119.254C164.118 119.254 164.864 119.068 165.455 118.695C166.059 118.322 166.47 117.635 166.689 116.632C166.727 116.465 166.785 116.349 166.862 116.285C166.952 116.221 167.055 116.189 167.171 116.189H168.231C168.347 116.189 168.443 116.227 168.52 116.304C168.61 116.381 168.649 116.478 168.636 116.593C168.61 117.133 168.482 117.66 168.25 118.174C168.019 118.676 167.678 119.132 167.229 119.543C166.792 119.954 166.239 120.282 165.571 120.526C164.902 120.77 164.125 120.892 163.238 120.892ZM172.395 120.7C172.267 120.7 172.158 120.661 172.068 120.584C171.991 120.494 171.952 120.385 171.952 120.256V107.456C171.952 107.327 171.991 107.224 172.068 107.147C172.158 107.057 172.267 107.012 172.395 107.012H173.359C173.501 107.012 173.61 107.057 173.687 107.147C173.764 107.224 173.803 107.327 173.803 107.456V111.947C174.15 111.511 174.574 111.157 175.075 110.887C175.576 110.617 176.212 110.482 176.984 110.482C177.819 110.482 178.526 110.669 179.104 111.041C179.695 111.401 180.139 111.909 180.434 112.564C180.743 113.207 180.897 113.959 180.897 114.82V120.256C180.897 120.385 180.858 120.494 180.781 120.584C180.704 120.661 180.595 120.7 180.454 120.7H179.49C179.361 120.7 179.252 120.661 179.162 120.584C179.085 120.494 179.046 120.385 179.046 120.256V114.916C179.046 114.017 178.828 113.316 178.391 112.815C177.954 112.301 177.311 112.044 176.463 112.044C175.666 112.044 175.024 112.301 174.535 112.815C174.047 113.316 173.803 114.017 173.803 114.916V120.256C173.803 120.385 173.764 120.494 173.687 120.584C173.61 120.661 173.501 120.7 173.359 120.7H172.395ZM187.439 120.892C186.797 120.892 186.212 120.764 185.685 120.507C185.158 120.25 184.734 119.903 184.413 119.466C184.092 119.029 183.931 118.534 183.931 117.982C183.931 117.095 184.291 116.388 185.01 115.861C185.73 115.334 186.668 114.987 187.825 114.82L190.697 114.415V113.856C190.697 113.239 190.518 112.757 190.158 112.41C189.811 112.063 189.239 111.89 188.442 111.89C187.864 111.89 187.394 112.005 187.035 112.237C186.688 112.468 186.443 112.764 186.302 113.123C186.225 113.316 186.09 113.413 185.897 113.413H185.03C184.888 113.413 184.779 113.374 184.702 113.297C184.638 113.207 184.606 113.104 184.606 112.989C184.606 112.796 184.676 112.558 184.818 112.275C184.972 111.992 185.203 111.716 185.512 111.446C185.82 111.176 186.212 110.951 186.688 110.772C187.176 110.579 187.767 110.482 188.461 110.482C189.232 110.482 189.881 110.585 190.408 110.791C190.935 110.984 191.346 111.247 191.642 111.581C191.951 111.915 192.169 112.294 192.298 112.719C192.439 113.143 192.51 113.573 192.51 114.01V120.256C192.51 120.385 192.465 120.494 192.375 120.584C192.298 120.661 192.195 120.7 192.066 120.7H191.179C191.038 120.7 190.929 120.661 190.852 120.584C190.775 120.494 190.736 120.385 190.736 120.256V119.427C190.569 119.659 190.344 119.89 190.061 120.121C189.779 120.34 189.425 120.526 189.001 120.68C188.577 120.822 188.056 120.892 187.439 120.892ZM187.844 119.447C188.371 119.447 188.853 119.337 189.29 119.119C189.727 118.888 190.068 118.534 190.312 118.059C190.569 117.583 190.697 116.985 190.697 116.266V115.726L188.461 116.054C187.549 116.182 186.861 116.401 186.398 116.709C185.936 117.005 185.704 117.384 185.704 117.847C185.704 118.206 185.807 118.508 186.013 118.753C186.231 118.984 186.501 119.157 186.823 119.273C187.157 119.389 187.497 119.447 187.844 119.447ZM196.707 120.7C196.579 120.7 196.47 120.661 196.38 120.584C196.303 120.494 196.264 120.385 196.264 120.256V107.456C196.264 107.327 196.303 107.224 196.38 107.147C196.47 107.057 196.579 107.012 196.707 107.012H197.614C197.755 107.012 197.864 107.057 197.941 107.147C198.018 107.224 198.057 107.327 198.057 107.456V120.256C198.057 120.385 198.018 120.494 197.941 120.584C197.864 120.661 197.755 120.7 197.614 120.7H196.707ZM202.359 120.7C202.231 120.7 202.121 120.661 202.031 120.584C201.954 120.494 201.916 120.385 201.916 120.256V107.456C201.916 107.327 201.954 107.224 202.031 107.147C202.121 107.057 202.231 107.012 202.359 107.012H203.265C203.407 107.012 203.516 107.057 203.593 107.147C203.67 107.224 203.709 107.327 203.709 107.456V120.256C203.709 120.385 203.67 120.494 203.593 120.584C203.516 120.661 203.407 120.7 203.265 120.7H202.359ZM211.539 120.892C210.215 120.892 209.161 120.488 208.377 119.678C207.593 118.855 207.163 117.737 207.085 116.324C207.073 116.157 207.066 115.944 207.066 115.687C207.066 115.418 207.073 115.199 207.085 115.032C207.137 114.119 207.349 113.323 207.722 112.642C208.094 111.947 208.602 111.414 209.245 111.041C209.9 110.669 210.665 110.482 211.539 110.482C212.515 110.482 213.331 110.688 213.987 111.099C214.655 111.511 215.163 112.095 215.51 112.854C215.857 113.612 216.03 114.499 216.03 115.514V115.842C216.03 115.983 215.985 116.092 215.895 116.169C215.818 116.246 215.716 116.285 215.587 116.285H208.917C208.917 116.298 208.917 116.324 208.917 116.362C208.917 116.401 208.917 116.433 208.917 116.459C208.943 116.985 209.058 117.48 209.264 117.943C209.469 118.393 209.765 118.759 210.151 119.042C210.536 119.325 210.999 119.466 211.539 119.466C212.001 119.466 212.387 119.395 212.695 119.254C213.004 119.112 213.254 118.958 213.447 118.791C213.64 118.611 213.768 118.476 213.833 118.386C213.948 118.219 214.038 118.123 214.103 118.097C214.167 118.059 214.27 118.039 214.411 118.039H215.336C215.465 118.039 215.568 118.078 215.645 118.155C215.735 118.219 215.773 118.316 215.76 118.444C215.748 118.637 215.645 118.875 215.452 119.157C215.259 119.427 214.983 119.697 214.623 119.967C214.263 120.237 213.826 120.462 213.312 120.642C212.798 120.809 212.207 120.892 211.539 120.892ZM208.917 114.955H214.199V114.897C214.199 114.319 214.09 113.805 213.871 113.355C213.666 112.905 213.364 112.552 212.965 112.294C212.567 112.025 212.091 111.89 211.539 111.89C210.986 111.89 210.51 112.025 210.112 112.294C209.726 112.552 209.431 112.905 209.225 113.355C209.02 113.805 208.917 114.319 208.917 114.897V114.955ZM219.743 120.7C219.614 120.7 219.505 120.661 219.415 120.584C219.338 120.494 219.299 120.385 219.299 120.256V111.119C219.299 110.99 219.338 110.887 219.415 110.81C219.505 110.72 219.614 110.675 219.743 110.675H220.649C220.777 110.675 220.88 110.72 220.957 110.81C221.047 110.887 221.092 110.99 221.092 111.119V111.967C221.426 111.53 221.844 111.176 222.345 110.906C222.859 110.624 223.515 110.482 224.312 110.482C225.147 110.482 225.854 110.669 226.432 111.041C227.023 111.401 227.467 111.909 227.762 112.564C228.058 113.207 228.206 113.959 228.206 114.82V120.256C228.206 120.385 228.167 120.494 228.09 120.584C228.013 120.661 227.91 120.7 227.782 120.7H226.818C226.689 120.7 226.58 120.661 226.49 120.584C226.413 120.494 226.374 120.385 226.374 120.256V114.916C226.374 114.017 226.156 113.316 225.719 112.815C225.282 112.301 224.639 112.044 223.791 112.044C222.994 112.044 222.352 112.301 221.863 112.815C221.388 113.316 221.15 114.017 221.15 114.916V120.256C221.15 120.385 221.105 120.494 221.015 120.584C220.938 120.661 220.835 120.7 220.707 120.7H219.743ZM236.061 124.941C235.187 124.941 234.467 124.825 233.901 124.594C233.349 124.363 232.912 124.08 232.59 123.746C232.282 123.424 232.057 123.097 231.916 122.762C231.787 122.441 231.717 122.184 231.704 121.991C231.691 121.863 231.729 121.754 231.819 121.664C231.922 121.574 232.031 121.529 232.147 121.529H233.072C233.188 121.529 233.284 121.554 233.362 121.606C233.439 121.657 233.503 121.766 233.554 121.933C233.631 122.126 233.747 122.338 233.901 122.57C234.056 122.814 234.293 123.019 234.615 123.187C234.936 123.366 235.386 123.456 235.964 123.456C236.568 123.456 237.076 123.373 237.487 123.206C237.898 123.052 238.207 122.769 238.412 122.358C238.631 121.959 238.74 121.407 238.74 120.7V119.389C238.432 119.787 238.027 120.121 237.526 120.391C237.024 120.648 236.395 120.777 235.636 120.777C234.917 120.777 234.3 120.655 233.786 120.411C233.272 120.153 232.848 119.813 232.513 119.389C232.192 118.952 231.948 118.457 231.781 117.904C231.627 117.352 231.537 116.773 231.511 116.169C231.498 115.81 231.498 115.456 231.511 115.109C231.537 114.505 231.627 113.927 231.781 113.374C231.948 112.821 232.192 112.327 232.513 111.89C232.848 111.453 233.272 111.112 233.786 110.868C234.3 110.611 234.917 110.482 235.636 110.482C236.408 110.482 237.044 110.63 237.545 110.926C238.059 111.209 238.477 111.556 238.798 111.967V111.138C238.798 111.009 238.837 110.9 238.914 110.81C239.004 110.72 239.113 110.675 239.241 110.675H240.128C240.257 110.675 240.366 110.72 240.456 110.81C240.546 110.9 240.591 111.009 240.591 111.138V120.488C240.591 121.349 240.443 122.113 240.147 122.782C239.865 123.45 239.389 123.977 238.721 124.363C238.065 124.748 237.179 124.941 236.061 124.941ZM236.022 119.235C236.665 119.235 237.179 119.087 237.564 118.791C237.963 118.496 238.252 118.123 238.432 117.673C238.624 117.223 238.727 116.767 238.74 116.304C238.753 116.124 238.759 115.906 238.759 115.649C238.759 115.379 238.753 115.154 238.74 114.974C238.727 114.511 238.624 114.055 238.432 113.605C238.252 113.156 237.963 112.783 237.564 112.487C237.179 112.192 236.665 112.044 236.022 112.044C235.379 112.044 234.865 112.192 234.48 112.487C234.094 112.77 233.818 113.149 233.651 113.625C233.484 114.087 233.387 114.589 233.362 115.128C233.349 115.463 233.349 115.803 233.362 116.15C233.387 116.69 233.484 117.198 233.651 117.673C233.818 118.136 234.094 118.515 234.48 118.81C234.865 119.093 235.379 119.235 236.022 119.235ZM248.412 120.892C247.088 120.892 246.034 120.488 245.25 119.678C244.466 118.855 244.035 117.737 243.958 116.324C243.945 116.157 243.939 115.944 243.939 115.687C243.939 115.418 243.945 115.199 243.958 115.032C244.01 114.119 244.222 113.323 244.595 112.642C244.967 111.947 245.475 111.414 246.117 111.041C246.773 110.669 247.538 110.482 248.412 110.482C249.388 110.482 250.204 110.688 250.86 111.099C251.528 111.511 252.036 112.095 252.383 112.854C252.73 113.612 252.903 114.499 252.903 115.514V115.842C252.903 115.983 252.858 116.092 252.768 116.169C252.691 116.246 252.588 116.285 252.46 116.285H245.79C245.79 116.298 245.79 116.324 245.79 116.362C245.79 116.401 245.79 116.433 245.79 116.459C245.815 116.985 245.931 117.48 246.137 117.943C246.342 118.393 246.638 118.759 247.024 119.042C247.409 119.325 247.872 119.466 248.412 119.466C248.874 119.466 249.26 119.395 249.568 119.254C249.877 119.112 250.127 118.958 250.32 118.791C250.513 118.611 250.641 118.476 250.706 118.386C250.821 118.219 250.911 118.123 250.976 118.097C251.04 118.059 251.143 118.039 251.284 118.039H252.209C252.338 118.039 252.441 118.078 252.518 118.155C252.608 118.219 252.646 118.316 252.633 118.444C252.621 118.637 252.518 118.875 252.325 119.157C252.132 119.427 251.856 119.697 251.496 119.967C251.136 120.237 250.699 120.462 250.185 120.642C249.671 120.809 249.08 120.892 248.412 120.892ZM245.79 114.955H251.072V114.897C251.072 114.319 250.963 113.805 250.744 113.355C250.539 112.905 250.237 112.552 249.838 112.294C249.44 112.025 248.964 111.89 248.412 111.89C247.859 111.89 247.383 112.025 246.985 112.294C246.599 112.552 246.304 112.905 246.098 113.355C245.893 113.805 245.79 114.319 245.79 114.897V114.955Z" fill="#A4A4A4"/>
</g>
<defs>
<filter id="filter0_d_38_1126" x="0" y="0" width="441.4" height="176" filterUnits="userSpaceOnUse" color-interpolation-filters="sRGB">
<feFlood flood-opacity="0" result="BackgroundImageFix"/>
<feColorMatrix in="SourceAlpha" type="matrix" values="0 0 0 0 0 0 0 0 0 0 0 0 0 0 0 0 0 0 127 0" result="hardAlpha"/>
<feOffset/>
<feGaussianBlur stdDeviation="10"/>
<feComposite in2="hardAlpha" operator="out"/>
<feColorMatrix type="matrix" values="0 0 0 0 0 0 0 0 0 0 0 0 0 0 0 0 0 0 0.04 0"/>
<feBlend mode="normal" in2="BackgroundImageFix" result="effect1_dropShadow_38_1126"/>
<feBlend mode="normal" in="SourceGraphic" in2="effect1_dropShadow_38_1126" result="shape"/>
</filter>
<clipPath id="clip0_38_1126">
<rect width="21.0852" height="45.0855" fill="white" transform="translate(74.2412 91.657)"/>
</clipPath>
</defs>
</svg>
