<svg width="300" height="73" viewBox="0 0 300 73" fill="none" xmlns="http://www.w3.org/2000/svg">
<path d="M0.943756 72.35V17.375H11.2188L10.9938 22.4H11.2938C13.9438 18.3 17.6688 16.25 22.4688 16.25C26.7688 16.25 30.1688 17.925 32.6688 21.275C35.1688 24.575 36.4188 29.2 36.4188 35.15C36.4188 42.25 34.5688 47.675 30.8688 51.425C27.2188 55.175 21.9938 57.05 15.1938 57.05C14.5438 57.05 13.8938 57.025 13.2438 56.975C12.6438 56.975 12.0188 56.95 11.3688 56.9V72.35H0.943756ZM16.2438 47.825C19.3938 47.825 21.7688 46.8 23.3688 44.75C25.0188 42.7 25.8438 39.7 25.8438 35.75C25.8438 32.5 25.3188 29.975 24.2688 28.175C23.2688 26.375 21.8688 25.475 20.0688 25.475C18.5188 25.475 16.9688 26.175 15.4188 27.575C13.9188 28.925 12.5688 30.875 11.3688 33.425V47.15C13.1188 47.6 14.7438 47.825 16.2438 47.825ZM41.9049 56V17.375H52.4799V23.675H53.0799C54.3799 21.375 55.7299 19.575 57.1299 18.275C58.5799 16.925 60.4549 16.25 62.7549 16.25C63.6549 16.25 64.4049 16.35 65.0049 16.55L63.8799 27.95C63.3299 27.8 62.8049 27.675 62.3049 27.575C61.8049 27.475 61.2799 27.425 60.7299 27.425C58.8799 27.425 57.4049 27.975 56.3049 29.075C55.2049 30.125 53.9299 31.55 52.4799 33.35V56H41.9049ZM85.6176 57.125C81.6676 57.125 78.2176 56.275 75.2676 54.575C72.3176 52.875 70.0176 50.5 68.3676 47.45C66.7176 44.4 65.8926 40.825 65.8926 36.725C65.8926 32.625 66.7176 29.05 68.3676 26C70.0176 22.95 72.3176 20.575 75.2676 18.875C78.2176 17.175 81.6426 16.325 85.5426 16.325C89.4926 16.325 92.9176 17.175 95.8176 18.875C98.7676 20.525 101.068 22.875 102.718 25.925C104.368 28.925 105.193 32.45 105.193 36.5C105.193 40.6 104.368 44.2 102.718 47.3C101.118 50.4 98.8426 52.825 95.8926 54.575C92.9426 56.275 89.5176 57.125 85.6176 57.125ZM85.5426 47.975C88.2426 47.975 90.3926 46.95 91.9926 44.9C93.6426 42.8 94.4676 40.05 94.4676 36.65C94.4676 33.25 93.6426 30.55 91.9926 28.55C90.3926 26.5 88.2426 25.475 85.5426 25.475C82.8426 25.475 80.6676 26.5 79.0176 28.55C77.4176 30.55 76.6176 33.25 76.6176 36.65C76.6176 40.05 77.4176 42.8 79.0176 44.9C80.6676 46.95 82.8426 47.975 85.5426 47.975ZM124.656 57.125C122.656 57.125 120.431 56.95 117.981 56.6C115.531 56.3 113.031 55.875 110.481 55.325V1.25H120.906V21.125C123.856 17.925 127.481 16.325 131.781 16.325C136.231 16.325 139.681 18 142.131 21.35C144.631 24.65 145.881 29.275 145.881 35.225C145.881 42.325 144.056 47.75 140.406 51.5C136.756 55.25 131.506 57.125 124.656 57.125ZM125.781 47.9C132.131 47.9 135.306 43.875 135.306 35.825C135.306 32.575 134.781 30.05 133.731 28.25C132.681 26.45 131.156 25.55 129.156 25.55C125.906 25.55 123.156 27.75 120.906 32.15V47.225C121.706 47.425 122.531 47.6 123.381 47.75C124.231 47.85 125.031 47.9 125.781 47.9ZM148.028 56V46.925H154.853V10.25H148.403V1.25H165.428V46.925H172.253V56H148.028ZM193.992 57.125C187.792 57.125 182.892 55.325 179.292 51.725C175.692 48.125 173.892 43.125 173.892 36.725C173.892 32.525 174.667 28.9 176.217 25.85C177.767 22.8 179.942 20.45 182.742 18.8C185.592 17.15 188.917 16.325 192.717 16.325C198.317 16.325 202.617 18.125 205.617 21.725C208.617 25.325 210.117 30.525 210.117 37.325C210.117 37.775 210.117 38.225 210.117 38.675C210.117 39.075 210.092 39.475 210.042 39.875H184.542C185.542 45.275 189.117 47.975 195.267 47.975C197.167 47.975 199.092 47.75 201.042 47.3C203.042 46.8 204.792 46.15 206.292 45.35L208.017 53.825C203.867 56.025 199.192 57.125 193.992 57.125ZM184.467 31.925H199.992C199.842 29.775 199.092 28.075 197.742 26.825C196.392 25.525 194.592 24.875 192.342 24.875C190.192 24.875 188.417 25.5 187.017 26.75C185.667 28 184.817 29.725 184.467 31.925ZM215.478 56V17.375H225.828V23.375C228.878 18.675 233.003 16.325 238.203 16.325C241.153 16.325 243.653 17.025 245.703 18.425C247.803 19.825 249.328 21.775 250.278 24.275C252.028 21.525 253.978 19.525 256.128 18.275C258.328 16.975 260.828 16.325 263.628 16.325C267.778 16.325 271.003 17.575 273.303 20.075C275.653 22.525 276.828 25.95 276.828 30.35V56H266.253V32C266.253 29.95 265.753 28.375 264.753 27.275C263.803 26.175 262.503 25.625 260.853 25.625C258.753 25.625 256.828 26.475 255.078 28.175C253.378 29.875 252.103 32.05 251.253 34.7V56H240.678V32C240.678 30 240.178 28.45 239.178 27.35C238.178 26.2 236.853 25.625 235.203 25.625C233.403 25.625 231.678 26.325 230.028 27.725C228.378 29.075 227.053 31 226.053 33.5V56H215.478ZM291.405 58.55C289.305 58.55 287.48 57.775 285.93 56.225C284.43 54.725 283.68 52.925 283.68 50.825C283.68 48.675 284.43 46.85 285.93 45.35C287.48 43.8 289.305 43.025 291.405 43.025C293.555 43.025 295.38 43.8 296.88 45.35C298.38 46.85 299.13 48.675 299.13 50.825C299.13 52.925 298.38 54.725 296.88 56.225C295.38 57.775 293.555 58.55 291.405 58.55Z" fill="#3B3C44"/>
<path d="M0.943756 72.35H0.443756V72.85H0.943756V72.35ZM0.943756 17.375V16.875H0.443756V17.375H0.943756ZM11.2188 17.375L11.7183 17.3974L11.7416 16.875H11.2188V17.375ZM10.9938 22.4L10.4943 22.3776L10.4709 22.9H10.9938V22.4ZM11.2938 22.4V22.9H11.5659L11.7137 22.6714L11.2938 22.4ZM32.6688 21.275L32.268 21.574L32.2702 21.5769L32.6688 21.275ZM30.8688 51.425L30.5128 51.0738L30.5105 51.0763L30.8688 51.425ZM13.2438 56.975L13.2821 56.4765L13.263 56.475H13.2438V56.975ZM11.3688 56.9L11.4071 56.4015L10.8688 56.3601V56.9H11.3688ZM11.3688 72.35V72.85H11.8688V72.35H11.3688ZM23.3688 44.75L22.9792 44.4365L22.9746 44.4424L23.3688 44.75ZM24.2688 28.175L23.8316 28.4179L23.8369 28.4269L24.2688 28.175ZM15.4188 27.575L15.7532 27.9466L15.7539 27.9461L15.4188 27.575ZM11.3688 33.425L10.9163 33.2121L10.8688 33.3132V33.425H11.3688ZM11.3688 47.15H10.8688V47.5377L11.2442 47.6342L11.3688 47.15ZM0.943756 72.35H1.44376V17.375H0.943756H0.443756V72.35H0.943756ZM0.943756 17.375V17.875H11.2188V17.375V16.875H0.943756V17.375ZM11.2188 17.375L10.7193 17.3526L10.4943 22.3776L10.9938 22.4L11.4933 22.4224L11.7183 17.3974L11.2188 17.375ZM10.9938 22.4V22.9H11.2938V22.4V21.9H10.9938V22.4ZM11.2938 22.4L11.7137 22.6714C14.2735 18.711 17.8419 16.75 22.4688 16.75V16.25V15.75C17.4956 15.75 13.614 17.889 10.8738 22.1286L11.2938 22.4ZM22.4688 16.25V16.75C26.6163 16.75 29.8656 18.3547 32.268 21.574L32.6688 21.275L33.0695 20.976C30.472 17.4953 26.9212 15.75 22.4688 15.75V16.25ZM32.6688 21.275L32.2702 21.5769C34.6811 24.7593 35.9188 29.2629 35.9188 35.15H36.4188H36.9188C36.9188 29.1371 35.6564 24.3907 33.0673 20.9731L32.6688 21.275ZM36.4188 35.15H35.9188C35.9188 42.1655 34.0921 47.4462 30.5128 51.0738L30.8688 51.425L31.2247 51.7762C35.0454 47.9038 36.9188 42.3345 36.9188 35.15H36.4188ZM30.8688 51.425L30.5105 51.0763C26.9805 54.7029 21.9011 56.55 15.1938 56.55V57.05V57.55C22.0864 57.55 27.457 55.6471 31.2271 51.7737L30.8688 51.425ZM15.1938 57.05V56.55C14.5566 56.55 13.9194 56.5255 13.2821 56.4765L13.2438 56.975L13.2054 57.4735C13.8681 57.5245 14.5309 57.55 15.1938 57.55V57.05ZM13.2438 56.975V56.475C12.6576 56.475 12.0454 56.4506 11.4071 56.4015L11.3688 56.9L11.3304 57.3985C11.9921 57.4494 12.6299 57.475 13.2438 57.475V56.975ZM11.3688 56.9H10.8688V72.35H11.3688H11.8688V56.9H11.3688ZM11.3688 72.35V71.85H0.943756V72.35V72.85H11.3688V72.35ZM16.2438 47.825V48.325C19.5115 48.325 22.0479 47.255 23.7629 45.0576L23.3688 44.75L22.9746 44.4424C21.4896 46.345 19.276 47.325 16.2438 47.325V47.825ZM23.3688 44.75L23.7583 45.0635C25.5079 42.8898 26.3438 39.7593 26.3438 35.75H25.8438H25.3438C25.3438 39.6407 24.5297 42.5102 22.9793 44.4365L23.3688 44.75ZM25.8438 35.75H26.3438C26.3438 32.4567 25.8135 29.8309 24.7006 27.9231L24.2688 28.175L23.8369 28.4269C24.824 30.1191 25.3438 32.5433 25.3438 35.75H25.8438ZM24.2688 28.175L24.7058 27.9322C23.633 26.001 22.0799 24.975 20.0688 24.975V25.475V25.975C21.6577 25.975 22.9045 26.749 23.8317 28.4178L24.2688 28.175ZM20.0688 25.475V24.975C18.3573 24.975 16.6931 25.7502 15.0836 27.2039L15.4188 27.575L15.7539 27.9461C17.2444 26.5998 18.6802 25.975 20.0688 25.975V25.475ZM15.4188 27.575L15.0843 27.2034C13.5193 28.6118 12.1342 30.6241 10.9163 33.2121L11.3688 33.425L11.8212 33.6379C13.0033 31.1259 14.3182 29.2382 15.7532 27.9466L15.4188 27.575ZM11.3688 33.425H10.8688V47.15H11.3688H11.8688V33.425H11.3688ZM11.3688 47.15L11.2442 47.6342C13.0269 48.0927 14.6942 48.325 16.2438 48.325V47.825V47.325C14.7933 47.325 13.2106 47.1073 11.4933 46.6658L11.3688 47.15ZM41.9049 56H41.4049V56.5H41.9049V56ZM41.9049 17.375V16.875H41.4049V17.375H41.9049ZM52.4799 17.375H52.9799V16.875H52.4799V17.375ZM52.4799 23.675H51.9799V24.175H52.4799V23.675ZM53.0799 23.675V24.175H53.3716L53.5152 23.921L53.0799 23.675ZM57.1299 18.275L57.4701 18.6414L57.4706 18.6409L57.1299 18.275ZM65.0049 16.55L65.5025 16.5991L65.5417 16.2019L65.163 16.0757L65.0049 16.55ZM63.8799 27.95L63.7483 28.4324L64.3193 28.5881L64.3775 27.9991L63.8799 27.95ZM62.3049 27.575L62.2068 28.0653L62.2068 28.0653L62.3049 27.575ZM56.3049 29.075L56.6502 29.4368L56.6584 29.4286L56.3049 29.075ZM52.4799 33.35L52.0905 33.0363L51.9799 33.1737V33.35H52.4799ZM52.4799 56V56.5H52.9799V56H52.4799ZM41.9049 56H42.4049V17.375H41.9049H41.4049V56H41.9049ZM41.9049 17.375V17.875H52.4799V17.375V16.875H41.9049V17.375ZM52.4799 17.375H51.9799V23.675H52.4799H52.9799V17.375H52.4799ZM52.4799 23.675V24.175H53.0799V23.675V23.175H52.4799V23.675ZM53.0799 23.675L53.5152 23.921C54.7988 21.65 56.1191 19.8959 57.4701 18.6414L57.1299 18.275L56.7897 17.9086C55.3406 19.2541 53.961 21.1 52.6446 23.429L53.0799 23.675ZM57.1299 18.275L57.4706 18.6409C58.8133 17.3909 60.5596 16.75 62.7549 16.75V16.25V15.75C60.3502 15.75 58.3465 16.4591 56.7892 17.9091L57.1299 18.275ZM62.7549 16.25V16.75C63.6219 16.75 64.3143 16.8469 64.8468 17.0243L65.0049 16.55L65.163 16.0757C64.4955 15.8531 63.6878 15.75 62.7549 15.75V16.25ZM65.0049 16.55L64.5073 16.5009L63.3823 27.9009L63.8799 27.95L64.3775 27.9991L65.5025 16.5991L65.0049 16.55ZM63.8799 27.95L64.0115 27.4676C63.4516 27.3149 62.9154 27.1872 62.4029 27.0847L62.3049 27.575L62.2068 28.0653C62.6944 28.1628 63.2081 28.2851 63.7483 28.4324L63.8799 27.95ZM62.3049 27.575L62.4029 27.0847C61.8682 26.9778 61.3103 26.925 60.7299 26.925V27.425V27.925C61.2495 27.925 61.7415 27.9722 62.2068 28.0653L62.3049 27.575ZM60.7299 27.425V26.925C58.7742 26.925 57.1626 27.5102 55.9513 28.7214L56.3049 29.075L56.6584 29.4286C57.6472 28.4398 58.9856 27.925 60.7299 27.925V27.425ZM56.3049 29.075L55.9597 28.7133C54.8381 29.7839 53.5479 31.2271 52.0905 33.0363L52.4799 33.35L52.8693 33.6637C54.3118 31.8729 55.5717 30.4661 56.6501 29.4367L56.3049 29.075ZM52.4799 33.35H51.9799V56H52.4799H52.9799V33.35H52.4799ZM52.4799 56V55.5H41.9049V56V56.5H52.4799V56ZM68.3676 47.45L68.8074 47.2121L68.8074 47.2121L68.3676 47.45ZM68.3676 26L68.8074 26.2379L68.8074 26.2379L68.3676 26ZM95.8176 18.875L95.5647 19.3064L95.5735 19.3114L95.8176 18.875ZM102.718 25.925L102.278 26.1629L102.279 26.166L102.718 25.925ZM102.718 47.3L102.276 47.0651L102.273 47.0707L102.718 47.3ZM95.8926 54.575L96.1423 55.0082L96.1477 55.005L95.8926 54.575ZM91.9926 44.9L91.5994 44.5911L91.5984 44.5924L91.9926 44.9ZM91.9926 28.55L91.5983 28.8577L91.6069 28.8682L91.9926 28.55ZM79.0176 28.55L78.6281 28.2365L78.6272 28.2377L79.0176 28.55ZM79.0176 44.9L78.6197 45.2031L78.6281 45.2135L79.0176 44.9ZM85.6176 57.125V56.625C81.741 56.625 78.3799 55.7915 75.5172 54.1418L75.2676 54.575L75.0179 55.0082C78.0553 56.7585 81.5941 57.625 85.6176 57.625V57.125ZM75.2676 54.575L75.5172 54.1418C72.649 52.4889 70.4142 50.1822 68.8074 47.2121L68.3676 47.45L67.9278 47.6879C69.621 50.8178 71.9861 53.2611 75.0179 55.0082L75.2676 54.575ZM68.3676 47.45L68.8074 47.2121C67.2035 44.2474 66.3926 40.7571 66.3926 36.725H65.8926H65.3926C65.3926 40.8929 66.2317 44.5526 67.9278 47.6879L68.3676 47.45ZM65.8926 36.725H66.3926C66.3926 32.6929 67.2035 29.2026 68.8074 26.2379L68.3676 26L67.9278 25.7621C66.2317 28.8974 65.3926 32.5571 65.3926 36.725H65.8926ZM68.3676 26L68.8074 26.2379C70.4142 23.2678 72.649 20.9611 75.5172 19.3082L75.2676 18.875L75.0179 18.4418C71.9861 20.1889 69.621 22.6322 67.9278 25.7621L68.3676 26ZM75.2676 18.875L75.5172 19.3082C78.3808 17.658 81.7173 16.825 85.5426 16.825V16.325V15.825C81.5679 15.825 78.0543 16.692 75.0179 18.4418L75.2676 18.875ZM85.5426 16.325V16.825C89.4194 16.825 92.7539 17.6586 95.5647 19.3063L95.8176 18.875L96.0704 18.4436C93.0813 16.6914 89.5658 15.825 85.5426 15.825V16.325ZM95.8176 18.875L95.5735 19.3114C98.4386 20.9139 100.672 23.194 102.278 26.1629L102.718 25.925L103.157 25.6871C101.463 22.556 99.0966 20.1361 96.0617 18.4386L95.8176 18.875ZM102.718 25.925L102.279 26.166C103.882 29.0797 104.693 32.5188 104.693 36.5H105.193H105.693C105.693 32.3812 104.853 28.7703 103.156 25.684L102.718 25.925ZM105.193 36.5H104.693C104.693 40.5318 103.882 44.0486 102.276 47.0651L102.718 47.3L103.159 47.5349C104.853 44.3514 105.693 40.6682 105.693 36.5H105.193ZM102.718 47.3L102.273 47.0707C100.716 50.0889 98.5054 52.4437 95.6375 54.145L95.8926 54.575L96.1477 55.005C99.1798 53.2063 101.52 50.7111 103.162 47.5293L102.718 47.3ZM95.8926 54.575L95.6429 54.1418C92.7793 55.792 89.4429 56.625 85.6176 56.625V57.125V57.625C89.5923 57.625 93.1058 56.758 96.1422 55.0082L95.8926 54.575ZM85.5426 47.975V48.475C88.3897 48.475 90.6879 47.3843 92.3867 45.2076L91.9926 44.9L91.5984 44.5924C90.0973 46.5157 88.0954 47.475 85.5426 47.475V47.975ZM91.9926 44.9L92.3857 45.2089C94.122 42.9992 94.9676 40.131 94.9676 36.65H94.4676H93.9676C93.9676 39.969 93.1632 42.6008 91.5994 44.5911L91.9926 44.9ZM94.4676 36.65H94.9676C94.9676 33.1704 94.1225 30.346 92.3783 28.2318L91.9926 28.55L91.6069 28.8682C93.1627 30.754 93.9676 33.3296 93.9676 36.65H94.4676ZM91.9926 28.55L92.3867 28.2424C90.6879 26.0657 88.3897 24.975 85.5426 24.975V25.475V25.975C88.0954 25.975 90.0973 26.9343 91.5984 28.8576L91.9926 28.55ZM85.5426 25.475V24.975C82.6958 24.975 80.3758 26.0651 78.6281 28.2365L79.0176 28.55L79.4071 28.8635C80.9593 26.9349 82.9894 25.975 85.5426 25.975V25.475ZM79.0176 28.55L78.6272 28.2377C76.936 30.3516 76.1176 33.1737 76.1176 36.65H76.6176H77.1176C77.1176 33.3263 77.8992 30.7484 79.408 28.8623L79.0176 28.55ZM76.6176 36.65H76.1176C76.1176 40.1277 76.9366 42.9937 78.6199 45.203L79.0176 44.9L79.4153 44.597C77.8986 42.6063 77.1176 39.9722 77.1176 36.65H76.6176ZM79.0176 44.9L78.6281 45.2135C80.3758 47.3849 82.6958 48.475 85.5426 48.475V47.975V47.475C82.9894 47.475 80.9593 46.5151 79.4071 44.5865L79.0176 44.9ZM117.981 56.6L118.052 56.1049L118.042 56.1037L117.981 56.6ZM110.481 55.325H109.981V55.7287L110.376 55.8138L110.481 55.325ZM110.481 1.25V0.749999H109.981V1.25H110.481ZM120.906 1.25H121.406V0.749999H120.906V1.25ZM120.906 21.125H120.406V22.405L121.274 21.4639L120.906 21.125ZM142.131 21.35L141.728 21.6452L141.733 21.6519L142.131 21.35ZM133.731 28.25L134.163 27.9981L134.163 27.9981L133.731 28.25ZM120.906 32.15L120.461 31.9224L120.406 32.0296V32.15H120.906ZM120.906 47.225H120.406V47.6154L120.785 47.7101L120.906 47.225ZM123.381 47.75L123.294 48.2424L123.309 48.2449L123.323 48.2466L123.381 47.75ZM124.656 57.125V56.625C122.685 56.625 120.484 56.4524 118.052 56.105L117.981 56.6L117.911 57.095C120.379 57.4476 122.628 57.625 124.656 57.625V57.125ZM117.981 56.6L118.042 56.1037C115.608 55.8056 113.123 55.3832 110.587 54.8362L110.481 55.325L110.376 55.8138C112.94 56.3668 115.455 56.7944 117.92 57.0963L117.981 56.6ZM110.481 55.325H110.981V1.25H110.481H109.981V55.325H110.481ZM110.481 1.25V1.75H120.906V1.25V0.749999H110.481V1.25ZM120.906 1.25H120.406V21.125H120.906H121.406V1.25H120.906ZM120.906 21.125L121.274 21.4639C124.131 18.3652 127.623 16.825 131.781 16.825V16.325V15.825C127.34 15.825 123.582 17.4848 120.539 20.7861L120.906 21.125ZM131.781 16.325V16.825C136.085 16.825 139.38 18.4344 141.728 21.6452L142.131 21.35L142.535 21.0548C139.983 17.5656 136.377 15.825 131.781 15.825V16.325ZM142.131 21.35L141.733 21.6519C144.144 24.8343 145.381 29.3379 145.381 35.225H145.881H146.381C146.381 29.2121 145.119 24.4657 142.53 21.0481L142.131 21.35ZM145.881 35.225H145.381C145.381 42.2422 143.579 47.5239 140.048 51.1513L140.406 51.5L140.765 51.8487C144.534 47.9761 146.381 42.4078 146.381 35.225H145.881ZM140.406 51.5L140.048 51.1513C136.519 54.7773 131.415 56.625 124.656 56.625V57.125V57.625C131.598 57.625 136.994 55.7227 140.765 51.8487L140.406 51.5ZM125.781 47.9V48.4C129.069 48.4 131.613 47.352 133.318 45.1909C135.004 43.0524 135.806 39.9022 135.806 35.825H135.306H134.806C134.806 39.7978 134.021 42.6851 132.532 44.5716C131.062 46.4355 128.843 47.4 125.781 47.4V47.9ZM135.306 35.825H135.806C135.806 32.5317 135.276 29.9059 134.163 27.9981L133.731 28.25L133.299 28.5019C134.286 30.1941 134.806 32.6183 134.806 35.825H135.306ZM133.731 28.25L134.163 27.9981C133.028 26.0524 131.343 25.05 129.156 25.05V25.55V26.05C130.969 26.05 132.334 26.8476 133.299 28.5019L133.731 28.25ZM129.156 25.55V25.05C125.631 25.05 122.747 27.4514 120.461 31.9224L120.906 32.15L121.351 32.3776C123.565 28.0486 126.182 26.05 129.156 26.05V25.55ZM120.906 32.15H120.406V47.225H120.906H121.406V32.15H120.906ZM120.906 47.225L120.785 47.7101C121.597 47.913 122.433 48.0904 123.294 48.2424L123.381 47.75L123.468 47.2576C122.629 47.1096 121.816 46.937 121.028 46.7399L120.906 47.225ZM123.381 47.75L123.323 48.2466C124.19 48.3485 125.009 48.4 125.781 48.4V47.9V47.4C125.053 47.4 124.273 47.3515 123.44 47.2534L123.381 47.75ZM148.028 56H147.528V56.5H148.028V56ZM148.028 46.925V46.425H147.528V46.925H148.028ZM154.853 46.925V47.425H155.353V46.925H154.853ZM154.853 10.25H155.353V9.75H154.853V10.25ZM148.403 10.25H147.903V10.75H148.403V10.25ZM148.403 1.25V0.749999H147.903V1.25H148.403ZM165.428 1.25H165.928V0.749999H165.428V1.25ZM165.428 46.925H164.928V47.425H165.428V46.925ZM172.253 46.925H172.753V46.425H172.253V46.925ZM172.253 56V56.5H172.753V56H172.253ZM148.028 56H148.528V46.925H148.028H147.528V56H148.028ZM148.028 46.925V47.425H154.853V46.925V46.425H148.028V46.925ZM154.853 46.925H155.353V10.25H154.853H154.353V46.925H154.853ZM154.853 10.25V9.75H148.403V10.25V10.75H154.853V10.25ZM148.403 10.25H148.903V1.25H148.403H147.903V10.25H148.403ZM148.403 1.25V1.75H165.428V1.25V0.749999H148.403V1.25ZM165.428 1.25H164.928V46.925H165.428H165.928V1.25H165.428ZM165.428 46.925V47.425H172.253V46.925V46.425H165.428V46.925ZM172.253 46.925H171.753V56H172.253H172.753V46.925H172.253ZM172.253 56V55.5H148.028V56V56.5H172.253V56ZM179.292 51.725L178.938 52.0786L178.938 52.0786L179.292 51.725ZM176.217 25.85L176.663 26.0765L176.663 26.0765L176.217 25.85ZM182.742 18.8L182.491 18.3673L182.488 18.3692L182.742 18.8ZM205.617 21.725L206.001 21.4049L206.001 21.4049L205.617 21.725ZM210.042 39.875V40.375H210.483L210.538 39.937L210.042 39.875ZM184.542 39.875V39.375H183.941L184.05 39.966L184.542 39.875ZM201.042 47.3L201.154 47.7873L201.163 47.7851L201.042 47.3ZM206.292 45.35L206.782 45.2503L206.648 44.5933L206.057 44.9088L206.292 45.35ZM208.017 53.825L208.251 54.2668L208.582 54.0916L208.507 53.7253L208.017 53.825ZM184.467 31.925L183.973 31.8464L183.881 32.425H184.467V31.925ZM199.992 31.925V32.425H200.528L200.491 31.8902L199.992 31.925ZM197.742 26.825L197.395 27.1852L197.402 27.1919L197.742 26.825ZM187.017 26.75L186.684 26.377L186.677 26.3831L187.017 26.75ZM193.992 57.125V56.625C187.894 56.625 183.132 54.858 179.646 51.3714L179.292 51.725L178.938 52.0786C182.652 55.792 187.69 57.625 193.992 57.625V57.125ZM179.292 51.725L179.646 51.3714C176.162 47.8879 174.392 43.0283 174.392 36.725H173.892H173.392C173.392 43.2217 175.222 48.3621 178.938 52.0786L179.292 51.725ZM173.892 36.725H174.392C174.392 32.5861 175.156 29.0422 176.663 26.0765L176.217 25.85L175.771 25.6235C174.178 28.7578 173.392 32.4639 173.392 36.725H173.892ZM176.217 25.85L176.663 26.0765C178.172 23.1068 180.282 20.8298 182.996 19.2308L182.742 18.8L182.488 18.3692C179.602 20.0702 177.362 22.4932 175.771 25.6235L176.217 25.85ZM182.742 18.8L182.993 19.2327C185.755 17.6332 188.991 16.825 192.717 16.825V16.325V15.825C188.843 15.825 185.429 16.6668 182.491 18.3673L182.742 18.8ZM192.717 16.325V16.825C198.201 16.825 202.347 18.5816 205.233 22.0451L205.617 21.725L206.001 21.4049C202.887 17.6684 198.433 15.825 192.717 15.825V16.325ZM205.617 21.725L205.233 22.0451C208.131 25.5223 209.617 30.5905 209.617 37.325H210.117H210.617C210.617 30.4595 209.103 25.1276 206.001 21.4049L205.617 21.725ZM210.117 37.325H209.617C209.617 37.3259 209.617 37.3268 209.617 37.3276C209.617 37.3285 209.617 37.3294 209.617 37.3303C209.617 37.3312 209.617 37.332 209.617 37.3329C209.617 37.3338 209.617 37.3347 209.617 37.3355C209.617 37.3364 209.617 37.3373 209.617 37.3382C209.617 37.3391 209.617 37.3399 209.617 37.3408C209.617 37.3417 209.617 37.3426 209.617 37.3435C209.617 37.3443 209.617 37.3452 209.617 37.3461C209.617 37.347 209.617 37.3479 209.617 37.3487C209.617 37.3496 209.617 37.3505 209.617 37.3514C209.617 37.3522 209.617 37.3531 209.617 37.354C209.617 37.3549 209.617 37.3558 209.617 37.3566C209.617 37.3575 209.617 37.3584 209.617 37.3593C209.617 37.3602 209.617 37.361 209.617 37.3619C209.617 37.3628 209.617 37.3637 209.617 37.3645C209.617 37.3654 209.617 37.3663 209.617 37.3672C209.617 37.3681 209.617 37.3689 209.617 37.3698C209.617 37.3707 209.617 37.3716 209.617 37.3725C209.617 37.3733 209.617 37.3742 209.617 37.3751C209.617 37.376 209.617 37.3769 209.617 37.3777C209.617 37.3786 209.617 37.3795 209.617 37.3804C209.617 37.3812 209.617 37.3821 209.617 37.383C209.617 37.3839 209.617 37.3848 209.617 37.3856C209.617 37.3865 209.617 37.3874 209.617 37.3883C209.617 37.3892 209.617 37.39 209.617 37.3909C209.617 37.3918 209.617 37.3927 209.617 37.3936C209.617 37.3944 209.617 37.3953 209.617 37.3962C209.617 37.3971 209.617 37.3979 209.617 37.3988C209.617 37.3997 209.617 37.4006 209.617 37.4015C209.617 37.4023 209.617 37.4032 209.617 37.4041C209.617 37.405 209.617 37.4059 209.617 37.4067C209.617 37.4076 209.617 37.4085 209.617 37.4094C209.617 37.4103 209.617 37.4111 209.617 37.412C209.617 37.4129 209.617 37.4138 209.617 37.4146C209.617 37.4155 209.617 37.4164 209.617 37.4173C209.617 37.4182 209.617 37.419 209.617 37.4199C209.617 37.4208 209.617 37.4217 209.617 37.4226C209.617 37.4234 209.617 37.4243 209.617 37.4252C209.617 37.4261 209.617 37.427 209.617 37.4278C209.617 37.4287 209.617 37.4296 209.617 37.4305C209.617 37.4313 209.617 37.4322 209.617 37.4331C209.617 37.434 209.617 37.4349 209.617 37.4357C209.617 37.4366 209.617 37.4375 209.617 37.4384C209.617 37.4393 209.617 37.4401 209.617 37.441C209.617 37.4419 209.617 37.4428 209.617 37.4437C209.617 37.4445 209.617 37.4454 209.617 37.4463C209.617 37.4472 209.617 37.448 209.617 37.4489C209.617 37.4498 209.617 37.4507 209.617 37.4516C209.617 37.4524 209.617 37.4533 209.617 37.4542C209.617 37.4551 209.617 37.456 209.617 37.4568C209.617 37.4577 209.617 37.4586 209.617 37.4595C209.617 37.4604 209.617 37.4612 209.617 37.4621C209.617 37.463 209.617 37.4639 209.617 37.4647C209.617 37.4656 209.617 37.4665 209.617 37.4674C209.617 37.4683 209.617 37.4691 209.617 37.47C209.617 37.4709 209.617 37.4718 209.617 37.4727C209.617 37.4735 209.617 37.4744 209.617 37.4753C209.617 37.4762 209.617 37.477 209.617 37.4779C209.617 37.4788 209.617 37.4797 209.617 37.4806C209.617 37.4814 209.617 37.4823 209.617 37.4832C209.617 37.4841 209.617 37.485 209.617 37.4858C209.617 37.4867 209.617 37.4876 209.617 37.4885C209.617 37.4894 209.617 37.4902 209.617 37.4911C209.617 37.492 209.617 37.4929 209.617 37.4937C209.617 37.4946 209.617 37.4955 209.617 37.4964C209.617 37.4973 209.617 37.4981 209.617 37.499C209.617 37.4999 209.617 37.5008 209.617 37.5017C209.617 37.5025 209.617 37.5034 209.617 37.5043C209.617 37.5052 209.617 37.5061 209.617 37.5069C209.617 37.5078 209.617 37.5087 209.617 37.5096C209.617 37.5104 209.617 37.5113 209.617 37.5122C209.617 37.5131 209.617 37.514 209.617 37.5148C209.617 37.5157 209.617 37.5166 209.617 37.5175C209.617 37.5184 209.617 37.5192 209.617 37.5201C209.617 37.521 209.617 37.5219 209.617 37.5228C209.617 37.5236 209.617 37.5245 209.617 37.5254C209.617 37.5263 209.617 37.5271 209.617 37.528C209.617 37.5289 209.617 37.5298 209.617 37.5307C209.617 37.5315 209.617 37.5324 209.617 37.5333C209.617 37.5342 209.617 37.5351 209.617 37.5359C209.617 37.5368 209.617 37.5377 209.617 37.5386C209.617 37.5395 209.617 37.5403 209.617 37.5412C209.617 37.5421 209.617 37.543 209.617 37.5438C209.617 37.5447 209.617 37.5456 209.617 37.5465C209.617 37.5474 209.617 37.5482 209.617 37.5491C209.617 37.55 209.617 37.5509 209.617 37.5518C209.617 37.5526 209.617 37.5535 209.617 37.5544C209.617 37.5553 209.617 37.5562 209.617 37.557C209.617 37.5579 209.617 37.5588 209.617 37.5597C209.617 37.5605 209.617 37.5614 209.617 37.5623C209.617 37.5632 209.617 37.5641 209.617 37.5649C209.617 37.5658 209.617 37.5667 209.617 37.5676C209.617 37.5685 209.617 37.5693 209.617 37.5702C209.617 37.5711 209.617 37.572 209.617 37.5729C209.617 37.5737 209.617 37.5746 209.617 37.5755C209.617 37.5764 209.617 37.5772 209.617 37.5781C209.617 37.579 209.617 37.5799 209.617 37.5808C209.617 37.5816 209.617 37.5825 209.617 37.5834C209.617 37.5843 209.617 37.5852 209.617 37.586C209.617 37.5869 209.617 37.5878 209.617 37.5887C209.617 37.5895 209.617 37.5904 209.617 37.5913C209.617 37.5922 209.617 37.5931 209.617 37.5939C209.617 37.5948 209.617 37.5957 209.617 37.5966C209.617 37.5975 209.617 37.5983 209.617 37.5992C209.617 37.6001 209.617 37.601 209.617 37.6019C209.617 37.6027 209.617 37.6036 209.617 37.6045C209.617 37.6054 209.617 37.6062 209.617 37.6071C209.617 37.608 209.617 37.6089 209.617 37.6098C209.617 37.6106 209.617 37.6115 209.617 37.6124C209.617 37.6133 209.617 37.6142 209.617 37.615C209.617 37.6159 209.617 37.6168 209.617 37.6177C209.617 37.6186 209.617 37.6194 209.617 37.6203C209.617 37.6212 209.617 37.6221 209.617 37.6229C209.617 37.6238 209.617 37.6247 209.617 37.6256C209.617 37.6265 209.617 37.6273 209.617 37.6282C209.617 37.6291 209.617 37.63 209.617 37.6309C209.617 37.6317 209.617 37.6326 209.617 37.6335C209.617 37.6344 209.617 37.6353 209.617 37.6361C209.617 37.637 209.617 37.6379 209.617 37.6388C209.617 37.6396 209.617 37.6405 209.617 37.6414C209.617 37.6423 209.617 37.6432 209.617 37.644C209.617 37.6449 209.617 37.6458 209.617 37.6467C209.617 37.6476 209.617 37.6484 209.617 37.6493C209.617 37.6502 209.617 37.6511 209.617 37.652C209.617 37.6528 209.617 37.6537 209.617 37.6546C209.617 37.6555 209.617 37.6563 209.617 37.6572C209.617 37.6581 209.617 37.659 209.617 37.6599C209.617 37.6607 209.617 37.6616 209.617 37.6625C209.617 37.6634 209.617 37.6643 209.617 37.6651C209.617 37.666 209.617 37.6669 209.617 37.6678C209.617 37.6687 209.617 37.6695 209.617 37.6704C209.617 37.6713 209.617 37.6722 209.617 37.673C209.617 37.6739 209.617 37.6748 209.617 37.6757C209.617 37.6766 209.617 37.6774 209.617 37.6783C209.617 37.6792 209.617 37.6801 209.617 37.681C209.617 37.6818 209.617 37.6827 209.617 37.6836C209.617 37.6845 209.617 37.6854 209.617 37.6862C209.617 37.6871 209.617 37.688 209.617 37.6889C209.617 37.6897 209.617 37.6906 209.617 37.6915C209.617 37.6924 209.617 37.6933 209.617 37.6941C209.617 37.695 209.617 37.6959 209.617 37.6968C209.617 37.6977 209.617 37.6985 209.617 37.6994C209.617 37.7003 209.617 37.7012 209.617 37.702C209.617 37.7029 209.617 37.7038 209.617 37.7047C209.617 37.7056 209.617 37.7064 209.617 37.7073C209.617 37.7082 209.617 37.7091 209.617 37.71C209.617 37.7108 209.617 37.7117 209.617 37.7126C209.617 37.7135 209.617 37.7144 209.617 37.7152C209.617 37.7161 209.617 37.717 209.617 37.7179C209.617 37.7187 209.617 37.7196 209.617 37.7205C209.617 37.7214 209.617 37.7223 209.617 37.7231C209.617 37.724 209.617 37.7249 209.617 37.7258C209.617 37.7267 209.617 37.7275 209.617 37.7284C209.617 37.7293 209.617 37.7302 209.617 37.7311C209.617 37.7319 209.617 37.7328 209.617 37.7337C209.617 37.7346 209.617 37.7354 209.617 37.7363C209.617 37.7372 209.617 37.7381 209.617 37.739C209.617 37.7398 209.617 37.7407 209.617 37.7416C209.617 37.7425 209.617 37.7434 209.617 37.7442C209.617 37.7451 209.617 37.746 209.617 37.7469C209.617 37.7478 209.617 37.7486 209.617 37.7495C209.617 37.7504 209.617 37.7513 209.617 37.7521C209.617 37.753 209.617 37.7539 209.617 37.7548C209.617 37.7557 209.617 37.7565 209.617 37.7574C209.617 37.7583 209.617 37.7592 209.617 37.7601C209.617 37.7609 209.617 37.7618 209.617 37.7627C209.617 37.7636 209.617 37.7645 209.617 37.7653C209.617 37.7662 209.617 37.7671 209.617 37.768C209.617 37.7688 209.617 37.7697 209.617 37.7706C209.617 37.7715 209.617 37.7724 209.617 37.7732C209.617 37.7741 209.617 37.775 209.617 37.7759C209.617 37.7768 209.617 37.7776 209.617 37.7785C209.617 37.7794 209.617 37.7803 209.617 37.7812C209.617 37.782 209.617 37.7829 209.617 37.7838C209.617 37.7847 209.617 37.7855 209.617 37.7864C209.617 37.7873 209.617 37.7882 209.617 37.7891C209.617 37.7899 209.617 37.7908 209.617 37.7917C209.617 37.7926 209.617 37.7935 209.617 37.7943C209.617 37.7952 209.617 37.7961 209.617 37.797C209.617 37.7979 209.617 37.7987 209.617 37.7996C209.617 37.8005 209.617 37.8014 209.617 37.8022C209.617 37.8031 209.617 37.804 209.617 37.8049C209.617 37.8058 209.617 37.8066 209.617 37.8075C209.617 37.8084 209.617 37.8093 209.617 37.8102C209.617 37.811 209.617 37.8119 209.617 37.8128C209.617 37.8137 209.617 37.8145 209.617 37.8154C209.617 37.8163 209.617 37.8172 209.617 37.8181C209.617 37.8189 209.617 37.8198 209.617 37.8207C209.617 37.8216 209.617 37.8225 209.617 37.8233C209.617 37.8242 209.617 37.8251 209.617 37.826C209.617 37.8269 209.617 37.8277 209.617 37.8286C209.617 37.8295 209.617 37.8304 209.617 37.8312C209.617 37.8321 209.617 37.833 209.617 37.8339C209.617 37.8348 209.617 37.8356 209.617 37.8365C209.617 37.8374 209.617 37.8383 209.617 37.8392C209.617 37.84 209.617 37.8409 209.617 37.8418C209.617 37.8427 209.617 37.8436 209.617 37.8444C209.617 37.8453 209.617 37.8462 209.617 37.8471C209.617 37.8479 209.617 37.8488 209.617 37.8497C209.617 37.8506 209.617 37.8515 209.617 37.8523C209.617 37.8532 209.617 37.8541 209.617 37.855C209.617 37.8559 209.617 37.8567 209.617 37.8576C209.617 37.8585 209.617 37.8594 209.617 37.8603C209.617 37.8611 209.617 37.862 209.617 37.8629C209.617 37.8638 209.617 37.8646 209.617 37.8655C209.617 37.8664 209.617 37.8673 209.617 37.8682C209.617 37.869 209.617 37.8699 209.617 37.8708C209.617 37.8717 209.617 37.8726 209.617 37.8734C209.617 37.8743 209.617 37.8752 209.617 37.8761C209.617 37.877 209.617 37.8778 209.617 37.8787C209.617 37.8796 209.617 37.8805 209.617 37.8813C209.617 37.8822 209.617 37.8831 209.617 37.884C209.617 37.8849 209.617 37.8857 209.617 37.8866C209.617 37.8875 209.617 37.8884 209.617 37.8893C209.617 37.8901 209.617 37.891 209.617 37.8919C209.617 37.8928 209.617 37.8937 209.617 37.8945C209.617 37.8954 209.617 37.8963 209.617 37.8972C209.617 37.898 209.617 37.8989 209.617 37.8998C209.617 37.9007 209.617 37.9016 209.617 37.9024C209.617 37.9033 209.617 37.9042 209.617 37.9051C209.617 37.906 209.617 37.9068 209.617 37.9077C209.617 37.9086 209.617 37.9095 209.617 37.9104C209.617 37.9112 209.617 37.9121 209.617 37.913C209.617 37.9139 209.617 37.9147 209.617 37.9156C209.617 37.9165 209.617 37.9174 209.617 37.9183C209.617 37.9191 209.617 37.92 209.617 37.9209C209.617 37.9218 209.617 37.9227 209.617 37.9235C209.617 37.9244 209.617 37.9253 209.617 37.9262C209.617 37.9271 209.617 37.9279 209.617 37.9288C209.617 37.9297 209.617 37.9306 209.617 37.9314C209.617 37.9323 209.617 37.9332 209.617 37.9341C209.617 37.935 209.617 37.9358 209.617 37.9367C209.617 37.9376 209.617 37.9385 209.617 37.9394C209.617 37.9402 209.617 37.9411 209.617 37.942C209.617 37.9429 209.617 37.9437 209.617 37.9446C209.617 37.9455 209.617 37.9464 209.617 37.9473C209.617 37.9481 209.617 37.949 209.617 37.9499C209.617 37.9508 209.617 37.9517 209.617 37.9525C209.617 37.9534 209.617 37.9543 209.617 37.9552C209.617 37.9561 209.617 37.9569 209.617 37.9578C209.617 37.9587 209.617 37.9596 209.617 37.9604C209.617 37.9613 209.617 37.9622 209.617 37.9631C209.617 37.964 209.617 37.9648 209.617 37.9657C209.617 37.9666 209.617 37.9675 209.617 37.9684C209.617 37.9692 209.617 37.9701 209.617 37.971C209.617 37.9719 209.617 37.9728 209.617 37.9736C209.617 37.9745 209.617 37.9754 209.617 37.9763C209.617 37.9771 209.617 37.978 209.617 37.9789C209.617 37.9798 209.617 37.9807 209.617 37.9815C209.617 37.9824 209.617 37.9833 209.617 37.9842C209.617 37.9851 209.617 37.9859 209.617 37.9868C209.617 37.9877 209.617 37.9886 209.617 37.9895C209.617 37.9903 209.617 37.9912 209.617 37.9921C209.617 37.993 209.617 37.9938 209.617 37.9947C209.617 37.9956 209.617 37.9965 209.617 37.9974C209.617 37.9982 209.617 37.9991 209.617 38C209.617 38.0009 209.617 38.0018 209.617 38.0026C209.617 38.0035 209.617 38.0044 209.617 38.0053C209.617 38.0062 209.617 38.007 209.617 38.0079C209.617 38.0088 209.617 38.0097 209.617 38.0105C209.617 38.0114 209.617 38.0123 209.617 38.0132C209.617 38.0141 209.617 38.0149 209.617 38.0158C209.617 38.0167 209.617 38.0176 209.617 38.0185C209.617 38.0193 209.617 38.0202 209.617 38.0211C209.617 38.022 209.617 38.0229 209.617 38.0237C209.617 38.0246 209.617 38.0255 209.617 38.0264C209.617 38.0272 209.617 38.0281 209.617 38.029C209.617 38.0299 209.617 38.0308 209.617 38.0316C209.617 38.0325 209.617 38.0334 209.617 38.0343C209.617 38.0352 209.617 38.036 209.617 38.0369C209.617 38.0378 209.617 38.0387 209.617 38.0396C209.617 38.0404 209.617 38.0413 209.617 38.0422C209.617 38.0431 209.617 38.0439 209.617 38.0448C209.617 38.0457 209.617 38.0466 209.617 38.0475C209.617 38.0483 209.617 38.0492 209.617 38.0501C209.617 38.051 209.617 38.0519 209.617 38.0527C209.617 38.0536 209.617 38.0545 209.617 38.0554C209.617 38.0562 209.617 38.0571 209.617 38.058C209.617 38.0589 209.617 38.0598 209.617 38.0606C209.617 38.0615 209.617 38.0624 209.617 38.0633C209.617 38.0642 209.617 38.065 209.617 38.0659C209.617 38.0668 209.617 38.0677 209.617 38.0686C209.617 38.0694 209.617 38.0703 209.617 38.0712C209.617 38.0721 209.617 38.0729 209.617 38.0738C209.617 38.0747 209.617 38.0756 209.617 38.0765C209.617 38.0773 209.617 38.0782 209.617 38.0791C209.617 38.08 209.617 38.0809 209.617 38.0817C209.617 38.0826 209.617 38.0835 209.617 38.0844C209.617 38.0853 209.617 38.0861 209.617 38.087C209.617 38.0879 209.617 38.0888 209.617 38.0896C209.617 38.0905 209.617 38.0914 209.617 38.0923C209.617 38.0932 209.617 38.094 209.617 38.0949C209.617 38.0958 209.617 38.0967 209.617 38.0976C209.617 38.0984 209.617 38.0993 209.617 38.1002C209.617 38.1011 209.617 38.102 209.617 38.1028C209.617 38.1037 209.617 38.1046 209.617 38.1055C209.617 38.1063 209.617 38.1072 209.617 38.1081C209.617 38.109 209.617 38.1099 209.617 38.1107C209.617 38.1116 209.617 38.1125 209.617 38.1134C209.617 38.1143 209.617 38.1151 209.617 38.116C209.617 38.1169 209.617 38.1178 209.617 38.1187C209.617 38.1195 209.617 38.1204 209.617 38.1213C209.617 38.1222 209.617 38.123 209.617 38.1239C209.617 38.1248 209.617 38.1257 209.617 38.1266C209.617 38.1274 209.617 38.1283 209.617 38.1292C209.617 38.1301 209.617 38.131 209.617 38.1318C209.617 38.1327 209.617 38.1336 209.617 38.1345C209.617 38.1354 209.617 38.1362 209.617 38.1371C209.617 38.138 209.617 38.1389 209.617 38.1397C209.617 38.1406 209.617 38.1415 209.617 38.1424C209.617 38.1433 209.617 38.1441 209.617 38.145C209.617 38.1459 209.617 38.1468 209.617 38.1477C209.617 38.1485 209.617 38.1494 209.617 38.1503C209.617 38.1512 209.617 38.1521 209.617 38.1529C209.617 38.1538 209.617 38.1547 209.617 38.1556C209.617 38.1564 209.617 38.1573 209.617 38.1582C209.617 38.1591 209.617 38.16 209.617 38.1608C209.617 38.1617 209.617 38.1626 209.617 38.1635C209.617 38.1644 209.617 38.1652 209.617 38.1661C209.617 38.167 209.617 38.1679 209.617 38.1687C209.617 38.1696 209.617 38.1705 209.617 38.1714C209.617 38.1723 209.617 38.1731 209.617 38.174C209.617 38.1749 209.617 38.1758 209.617 38.1767C209.617 38.1775 209.617 38.1784 209.617 38.1793C209.617 38.1802 209.617 38.1811 209.617 38.1819C209.617 38.1828 209.617 38.1837 209.617 38.1846C209.617 38.1854 209.617 38.1863 209.617 38.1872C209.617 38.1881 209.617 38.189 209.617 38.1898C209.617 38.1907 209.617 38.1916 209.617 38.1925C209.617 38.1934 209.617 38.1942 209.617 38.1951C209.617 38.196 209.617 38.1969 209.617 38.1978C209.617 38.1986 209.617 38.1995 209.617 38.2004C209.617 38.2013 209.617 38.2021 209.617 38.203C209.617 38.2039 209.617 38.2048 209.617 38.2057C209.617 38.2065 209.617 38.2074 209.617 38.2083C209.617 38.2092 209.617 38.2101 209.617 38.2109C209.617 38.2118 209.617 38.2127 209.617 38.2136C209.617 38.2145 209.617 38.2153 209.617 38.2162C209.617 38.2171 209.617 38.218 209.617 38.2188C209.617 38.2197 209.617 38.2206 209.617 38.2215C209.617 38.2224 209.617 38.2232 209.617 38.2241C209.617 38.225 209.617 38.2259 209.617 38.2268C209.617 38.2276 209.617 38.2285 209.617 38.2294C209.617 38.2303 209.617 38.2312 209.617 38.232C209.617 38.2329 209.617 38.2338 209.617 38.2347C209.617 38.2355 209.617 38.2364 209.617 38.2373C209.617 38.2382 209.617 38.2391 209.617 38.2399C209.617 38.2408 209.617 38.2417 209.617 38.2426C209.617 38.2435 209.617 38.2443 209.617 38.2452C209.617 38.2461 209.617 38.247 209.617 38.2479C209.617 38.2487 209.617 38.2496 209.617 38.2505C209.617 38.2514 209.617 38.2522 209.617 38.2531C209.617 38.254 209.617 38.2549 209.617 38.2558C209.617 38.2566 209.617 38.2575 209.617 38.2584C209.617 38.2593 209.617 38.2602 209.617 38.261C209.617 38.2619 209.617 38.2628 209.617 38.2637C209.617 38.2646 209.617 38.2654 209.617 38.2663C209.617 38.2672 209.617 38.2681 209.617 38.2689C209.617 38.2698 209.617 38.2707 209.617 38.2716C209.617 38.2725 209.617 38.2733 209.617 38.2742C209.617 38.2751 209.617 38.276 209.617 38.2769C209.617 38.2777 209.617 38.2786 209.617 38.2795C209.617 38.2804 209.617 38.2812 209.617 38.2821C209.617 38.283 209.617 38.2839 209.617 38.2848C209.617 38.2856 209.617 38.2865 209.617 38.2874C209.617 38.2883 209.617 38.2892 209.617 38.29C209.617 38.2909 209.617 38.2918 209.617 38.2927C209.617 38.2936 209.617 38.2944 209.617 38.2953C209.617 38.2962 209.617 38.2971 209.617 38.2979C209.617 38.2988 209.617 38.2997 209.617 38.3006C209.617 38.3015 209.617 38.3023 209.617 38.3032C209.617 38.3041 209.617 38.305 209.617 38.3059C209.617 38.3067 209.617 38.3076 209.617 38.3085C209.617 38.3094 209.617 38.3103 209.617 38.3111C209.617 38.312 209.617 38.3129 209.617 38.3138C209.617 38.3146 209.617 38.3155 209.617 38.3164C209.617 38.3173 209.617 38.3182 209.617 38.319C209.617 38.3199 209.617 38.3208 209.617 38.3217C209.617 38.3226 209.617 38.3234 209.617 38.3243C209.617 38.3252 209.617 38.3261 209.617 38.327C209.617 38.3278 209.617 38.3287 209.617 38.3296C209.617 38.3305 209.617 38.3313 209.617 38.3322C209.617 38.3331 209.617 38.334 209.617 38.3349C209.617 38.3357 209.617 38.3366 209.617 38.3375C209.617 38.3384 209.617 38.3393 209.617 38.3401C209.617 38.341 209.617 38.3419 209.617 38.3428C209.617 38.3437 209.617 38.3445 209.617 38.3454C209.617 38.3463 209.617 38.3472 209.617 38.348C209.617 38.3489 209.617 38.3498 209.617 38.3507C209.617 38.3516 209.617 38.3524 209.617 38.3533C209.617 38.3542 209.617 38.3551 209.617 38.356C209.617 38.3568 209.617 38.3577 209.617 38.3586C209.617 38.3595 209.617 38.3604 209.617 38.3612C209.617 38.3621 209.617 38.363 209.617 38.3639C209.617 38.3647 209.617 38.3656 209.617 38.3665C209.617 38.3674 209.617 38.3683 209.617 38.3691C209.617 38.37 209.617 38.3709 209.617 38.3718C209.617 38.3727 209.617 38.3735 209.617 38.3744C209.617 38.3753 209.617 38.3762 209.617 38.3771C209.617 38.3779 209.617 38.3788 209.617 38.3797C209.617 38.3806 209.617 38.3814 209.617 38.3823C209.617 38.3832 209.617 38.3841 209.617 38.385C209.617 38.3858 209.617 38.3867 209.617 38.3876C209.617 38.3885 209.617 38.3894 209.617 38.3902C209.617 38.3911 209.617 38.392 209.617 38.3929C209.617 38.3937 209.617 38.3946 209.617 38.3955C209.617 38.3964 209.617 38.3973 209.617 38.3981C209.617 38.399 209.617 38.3999 209.617 38.4008C209.617 38.4017 209.617 38.4025 209.617 38.4034C209.617 38.4043 209.617 38.4052 209.617 38.4061C209.617 38.4069 209.617 38.4078 209.617 38.4087C209.617 38.4096 209.617 38.4104 209.617 38.4113C209.617 38.4122 209.617 38.4131 209.617 38.414C209.617 38.4148 209.617 38.4157 209.617 38.4166C209.617 38.4175 209.617 38.4184 209.617 38.4192C209.617 38.4201 209.617 38.421 209.617 38.4219C209.617 38.4228 209.617 38.4236 209.617 38.4245C209.617 38.4254 209.617 38.4263 209.617 38.4271C209.617 38.428 209.617 38.4289 209.617 38.4298C209.617 38.4307 209.617 38.4315 209.617 38.4324C209.617 38.4333 209.617 38.4342 209.617 38.4351C209.617 38.4359 209.617 38.4368 209.617 38.4377C209.617 38.4386 209.617 38.4395 209.617 38.4403C209.617 38.4412 209.617 38.4421 209.617 38.443C209.617 38.4438 209.617 38.4447 209.617 38.4456C209.617 38.4465 209.617 38.4474 209.617 38.4482C209.617 38.4491 209.617 38.45 209.617 38.4509C209.617 38.4518 209.617 38.4526 209.617 38.4535C209.617 38.4544 209.617 38.4553 209.617 38.4562C209.617 38.457 209.617 38.4579 209.617 38.4588C209.617 38.4597 209.617 38.4605 209.617 38.4614C209.617 38.4623 209.617 38.4632 209.617 38.4641C209.617 38.4649 209.617 38.4658 209.617 38.4667C209.617 38.4676 209.617 38.4685 209.617 38.4693C209.617 38.4702 209.617 38.4711 209.617 38.472C209.617 38.4729 209.617 38.4737 209.617 38.4746C209.617 38.4755 209.617 38.4764 209.617 38.4772C209.617 38.4781 209.617 38.479 209.617 38.4799C209.617 38.4808 209.617 38.4816 209.617 38.4825C209.617 38.4834 209.617 38.4843 209.617 38.4852C209.617 38.486 209.617 38.4869 209.617 38.4878C209.617 38.4887 209.617 38.4896 209.617 38.4904C209.617 38.4913 209.617 38.4922 209.617 38.4931C209.617 38.4939 209.617 38.4948 209.617 38.4957C209.617 38.4966 209.617 38.4975 209.617 38.4983C209.617 38.4992 209.617 38.5001 209.617 38.501C209.617 38.5019 209.617 38.5027 209.617 38.5036C209.617 38.5045 209.617 38.5054 209.617 38.5062C209.617 38.5071 209.617 38.508 209.617 38.5089C209.617 38.5098 209.617 38.5106 209.617 38.5115C209.617 38.5124 209.617 38.5133 209.617 38.5142C209.617 38.515 209.617 38.5159 209.617 38.5168C209.617 38.5177 209.617 38.5186 209.617 38.5194C209.617 38.5203 209.617 38.5212 209.617 38.5221C209.617 38.5229 209.617 38.5238 209.617 38.5247C209.617 38.5256 209.617 38.5265 209.617 38.5273C209.617 38.5282 209.617 38.5291 209.617 38.53C209.617 38.5309 209.617 38.5317 209.617 38.5326C209.617 38.5335 209.617 38.5344 209.617 38.5353C209.617 38.5361 209.617 38.537 209.617 38.5379C209.617 38.5388 209.617 38.5396 209.617 38.5405C209.617 38.5414 209.617 38.5423 209.617 38.5432C209.617 38.544 209.617 38.5449 209.617 38.5458C209.617 38.5467 209.617 38.5476 209.617 38.5484C209.617 38.5493 209.617 38.5502 209.617 38.5511C209.617 38.552 209.617 38.5528 209.617 38.5537C209.617 38.5546 209.617 38.5555 209.617 38.5563C209.617 38.5572 209.617 38.5581 209.617 38.559C209.617 38.5599 209.617 38.5607 209.617 38.5616C209.617 38.5625 209.617 38.5634 209.617 38.5643C209.617 38.5651 209.617 38.566 209.617 38.5669C209.617 38.5678 209.617 38.5687 209.617 38.5695C209.617 38.5704 209.617 38.5713 209.617 38.5722C209.617 38.573 209.617 38.5739 209.617 38.5748C209.617 38.5757 209.617 38.5766 209.617 38.5774C209.617 38.5783 209.617 38.5792 209.617 38.5801C209.617 38.581 209.617 38.5818 209.617 38.5827C209.617 38.5836 209.617 38.5845 209.617 38.5854C209.617 38.5862 209.617 38.5871 209.617 38.588C209.617 38.5889 209.617 38.5897 209.617 38.5906C209.617 38.5915 209.617 38.5924 209.617 38.5933C209.617 38.5941 209.617 38.595 209.617 38.5959C209.617 38.5968 209.617 38.5977 209.617 38.5985C209.617 38.5994 209.617 38.6003 209.617 38.6012C209.617 38.6021 209.617 38.6029 209.617 38.6038C209.617 38.6047 209.617 38.6056 209.617 38.6064C209.617 38.6073 209.617 38.6082 209.617 38.6091C209.617 38.61 209.617 38.6108 209.617 38.6117C209.617 38.6126 209.617 38.6135 209.617 38.6144C209.617 38.6152 209.617 38.6161 209.617 38.617C209.617 38.6179 209.617 38.6187 209.617 38.6196C209.617 38.6205 209.617 38.6214 209.617 38.6223C209.617 38.6231 209.617 38.624 209.617 38.6249C209.617 38.6258 209.617 38.6267 209.617 38.6275C209.617 38.6284 209.617 38.6293 209.617 38.6302C209.617 38.6311 209.617 38.6319 209.617 38.6328C209.617 38.6337 209.617 38.6346 209.617 38.6354C209.617 38.6363 209.617 38.6372 209.617 38.6381C209.617 38.639 209.617 38.6398 209.617 38.6407C209.617 38.6416 209.617 38.6425 209.617 38.6434C209.617 38.6442 209.617 38.6451 209.617 38.646C209.617 38.6469 209.617 38.6478 209.617 38.6486C209.617 38.6495 209.617 38.6504 209.617 38.6513C209.617 38.6521 209.617 38.653 209.617 38.6539C209.617 38.6548 209.617 38.6557 209.617 38.6565C209.617 38.6574 209.617 38.6583 209.617 38.6592C209.617 38.6601 209.617 38.6609 209.617 38.6618C209.617 38.6627 209.617 38.6636 209.617 38.6645C209.617 38.6653 209.617 38.6662 209.617 38.6671C209.617 38.668 209.617 38.6688 209.617 38.6697C209.617 38.6706 209.617 38.6715 209.617 38.6724C209.617 38.6732 209.617 38.6741 209.617 38.675H210.117H210.617C210.617 38.6741 210.617 38.6732 210.617 38.6724C210.617 38.6715 210.617 38.6706 210.617 38.6697C210.617 38.6688 210.617 38.668 210.617 38.6671C210.617 38.6662 210.617 38.6653 210.617 38.6645C210.617 38.6636 210.617 38.6627 210.617 38.6618C210.617 38.6609 210.617 38.6601 210.617 38.6592C210.617 38.6583 210.617 38.6574 210.617 38.6565C210.617 38.6557 210.617 38.6548 210.617 38.6539C210.617 38.653 210.617 38.6521 210.617 38.6513C210.617 38.6504 210.617 38.6495 210.617 38.6486C210.617 38.6478 210.617 38.6469 210.617 38.646C210.617 38.6451 210.617 38.6442 210.617 38.6434C210.617 38.6425 210.617 38.6416 210.617 38.6407C210.617 38.6398 210.617 38.639 210.617 38.6381C210.617 38.6372 210.617 38.6363 210.617 38.6354C210.617 38.6346 210.617 38.6337 210.617 38.6328C210.617 38.6319 210.617 38.6311 210.617 38.6302C210.617 38.6293 210.617 38.6284 210.617 38.6275C210.617 38.6267 210.617 38.6258 210.617 38.6249C210.617 38.624 210.617 38.6231 210.617 38.6223C210.617 38.6214 210.617 38.6205 210.617 38.6196C210.617 38.6187 210.617 38.6179 210.617 38.617C210.617 38.6161 210.617 38.6152 210.617 38.6144C210.617 38.6135 210.617 38.6126 210.617 38.6117C210.617 38.6108 210.617 38.61 210.617 38.6091C210.617 38.6082 210.617 38.6073 210.617 38.6064C210.617 38.6056 210.617 38.6047 210.617 38.6038C210.617 38.6029 210.617 38.6021 210.617 38.6012C210.617 38.6003 210.617 38.5994 210.617 38.5985C210.617 38.5977 210.617 38.5968 210.617 38.5959C210.617 38.595 210.617 38.5941 210.617 38.5933C210.617 38.5924 210.617 38.5915 210.617 38.5906C210.617 38.5897 210.617 38.5889 210.617 38.588C210.617 38.5871 210.617 38.5862 210.617 38.5854C210.617 38.5845 210.617 38.5836 210.617 38.5827C210.617 38.5818 210.617 38.581 210.617 38.5801C210.617 38.5792 210.617 38.5783 210.617 38.5774C210.617 38.5766 210.617 38.5757 210.617 38.5748C210.617 38.5739 210.617 38.573 210.617 38.5722C210.617 38.5713 210.617 38.5704 210.617 38.5695C210.617 38.5687 210.617 38.5678 210.617 38.5669C210.617 38.566 210.617 38.5651 210.617 38.5643C210.617 38.5634 210.617 38.5625 210.617 38.5616C210.617 38.5607 210.617 38.5599 210.617 38.559C210.617 38.5581 210.617 38.5572 210.617 38.5563C210.617 38.5555 210.617 38.5546 210.617 38.5537C210.617 38.5528 210.617 38.552 210.617 38.5511C210.617 38.5502 210.617 38.5493 210.617 38.5484C210.617 38.5476 210.617 38.5467 210.617 38.5458C210.617 38.5449 210.617 38.544 210.617 38.5432C210.617 38.5423 210.617 38.5414 210.617 38.5405C210.617 38.5396 210.617 38.5388 210.617 38.5379C210.617 38.537 210.617 38.5361 210.617 38.5353C210.617 38.5344 210.617 38.5335 210.617 38.5326C210.617 38.5317 210.617 38.5309 210.617 38.53C210.617 38.5291 210.617 38.5282 210.617 38.5273C210.617 38.5265 210.617 38.5256 210.617 38.5247C210.617 38.5238 210.617 38.5229 210.617 38.5221C210.617 38.5212 210.617 38.5203 210.617 38.5194C210.617 38.5186 210.617 38.5177 210.617 38.5168C210.617 38.5159 210.617 38.515 210.617 38.5142C210.617 38.5133 210.617 38.5124 210.617 38.5115C210.617 38.5106 210.617 38.5098 210.617 38.5089C210.617 38.508 210.617 38.5071 210.617 38.5062C210.617 38.5054 210.617 38.5045 210.617 38.5036C210.617 38.5027 210.617 38.5019 210.617 38.501C210.617 38.5001 210.617 38.4992 210.617 38.4983C210.617 38.4975 210.617 38.4966 210.617 38.4957C210.617 38.4948 210.617 38.4939 210.617 38.4931C210.617 38.4922 210.617 38.4913 210.617 38.4904C210.617 38.4896 210.617 38.4887 210.617 38.4878C210.617 38.4869 210.617 38.486 210.617 38.4852C210.617 38.4843 210.617 38.4834 210.617 38.4825C210.617 38.4816 210.617 38.4808 210.617 38.4799C210.617 38.479 210.617 38.4781 210.617 38.4772C210.617 38.4764 210.617 38.4755 210.617 38.4746C210.617 38.4737 210.617 38.4729 210.617 38.472C210.617 38.4711 210.617 38.4702 210.617 38.4693C210.617 38.4685 210.617 38.4676 210.617 38.4667C210.617 38.4658 210.617 38.4649 210.617 38.4641C210.617 38.4632 210.617 38.4623 210.617 38.4614C210.617 38.4605 210.617 38.4597 210.617 38.4588C210.617 38.4579 210.617 38.457 210.617 38.4562C210.617 38.4553 210.617 38.4544 210.617 38.4535C210.617 38.4526 210.617 38.4518 210.617 38.4509C210.617 38.45 210.617 38.4491 210.617 38.4482C210.617 38.4474 210.617 38.4465 210.617 38.4456C210.617 38.4447 210.617 38.4438 210.617 38.443C210.617 38.4421 210.617 38.4412 210.617 38.4403C210.617 38.4395 210.617 38.4386 210.617 38.4377C210.617 38.4368 210.617 38.4359 210.617 38.4351C210.617 38.4342 210.617 38.4333 210.617 38.4324C210.617 38.4315 210.617 38.4307 210.617 38.4298C210.617 38.4289 210.617 38.428 210.617 38.4271C210.617 38.4263 210.617 38.4254 210.617 38.4245C210.617 38.4236 210.617 38.4228 210.617 38.4219C210.617 38.421 210.617 38.4201 210.617 38.4192C210.617 38.4184 210.617 38.4175 210.617 38.4166C210.617 38.4157 210.617 38.4148 210.617 38.414C210.617 38.4131 210.617 38.4122 210.617 38.4113C210.617 38.4104 210.617 38.4096 210.617 38.4087C210.617 38.4078 210.617 38.4069 210.617 38.4061C210.617 38.4052 210.617 38.4043 210.617 38.4034C210.617 38.4025 210.617 38.4017 210.617 38.4008C210.617 38.3999 210.617 38.399 210.617 38.3981C210.617 38.3973 210.617 38.3964 210.617 38.3955C210.617 38.3946 210.617 38.3937 210.617 38.3929C210.617 38.392 210.617 38.3911 210.617 38.3902C210.617 38.3894 210.617 38.3885 210.617 38.3876C210.617 38.3867 210.617 38.3858 210.617 38.385C210.617 38.3841 210.617 38.3832 210.617 38.3823C210.617 38.3814 210.617 38.3806 210.617 38.3797C210.617 38.3788 210.617 38.3779 210.617 38.3771C210.617 38.3762 210.617 38.3753 210.617 38.3744C210.617 38.3735 210.617 38.3727 210.617 38.3718C210.617 38.3709 210.617 38.37 210.617 38.3691C210.617 38.3683 210.617 38.3674 210.617 38.3665C210.617 38.3656 210.617 38.3647 210.617 38.3639C210.617 38.363 210.617 38.3621 210.617 38.3612C210.617 38.3604 210.617 38.3595 210.617 38.3586C210.617 38.3577 210.617 38.3568 210.617 38.356C210.617 38.3551 210.617 38.3542 210.617 38.3533C210.617 38.3524 210.617 38.3516 210.617 38.3507C210.617 38.3498 210.617 38.3489 210.617 38.348C210.617 38.3472 210.617 38.3463 210.617 38.3454C210.617 38.3445 210.617 38.3437 210.617 38.3428C210.617 38.3419 210.617 38.341 210.617 38.3401C210.617 38.3393 210.617 38.3384 210.617 38.3375C210.617 38.3366 210.617 38.3357 210.617 38.3349C210.617 38.334 210.617 38.3331 210.617 38.3322C210.617 38.3313 210.617 38.3305 210.617 38.3296C210.617 38.3287 210.617 38.3278 210.617 38.327C210.617 38.3261 210.617 38.3252 210.617 38.3243C210.617 38.3234 210.617 38.3226 210.617 38.3217C210.617 38.3208 210.617 38.3199 210.617 38.319C210.617 38.3182 210.617 38.3173 210.617 38.3164C210.617 38.3155 210.617 38.3146 210.617 38.3138C210.617 38.3129 210.617 38.312 210.617 38.3111C210.617 38.3103 210.617 38.3094 210.617 38.3085C210.617 38.3076 210.617 38.3067 210.617 38.3059C210.617 38.305 210.617 38.3041 210.617 38.3032C210.617 38.3023 210.617 38.3015 210.617 38.3006C210.617 38.2997 210.617 38.2988 210.617 38.2979C210.617 38.2971 210.617 38.2962 210.617 38.2953C210.617 38.2944 210.617 38.2936 210.617 38.2927C210.617 38.2918 210.617 38.2909 210.617 38.29C210.617 38.2892 210.617 38.2883 210.617 38.2874C210.617 38.2865 210.617 38.2856 210.617 38.2848C210.617 38.2839 210.617 38.283 210.617 38.2821C210.617 38.2812 210.617 38.2804 210.617 38.2795C210.617 38.2786 210.617 38.2777 210.617 38.2769C210.617 38.276 210.617 38.2751 210.617 38.2742C210.617 38.2733 210.617 38.2725 210.617 38.2716C210.617 38.2707 210.617 38.2698 210.617 38.2689C210.617 38.2681 210.617 38.2672 210.617 38.2663C210.617 38.2654 210.617 38.2646 210.617 38.2637C210.617 38.2628 210.617 38.2619 210.617 38.261C210.617 38.2602 210.617 38.2593 210.617 38.2584C210.617 38.2575 210.617 38.2566 210.617 38.2558C210.617 38.2549 210.617 38.254 210.617 38.2531C210.617 38.2522 210.617 38.2514 210.617 38.2505C210.617 38.2496 210.617 38.2487 210.617 38.2479C210.617 38.247 210.617 38.2461 210.617 38.2452C210.617 38.2443 210.617 38.2435 210.617 38.2426C210.617 38.2417 210.617 38.2408 210.617 38.2399C210.617 38.2391 210.617 38.2382 210.617 38.2373C210.617 38.2364 210.617 38.2355 210.617 38.2347C210.617 38.2338 210.617 38.2329 210.617 38.232C210.617 38.2312 210.617 38.2303 210.617 38.2294C210.617 38.2285 210.617 38.2276 210.617 38.2268C210.617 38.2259 210.617 38.225 210.617 38.2241C210.617 38.2232 210.617 38.2224 210.617 38.2215C210.617 38.2206 210.617 38.2197 210.617 38.2188C210.617 38.218 210.617 38.2171 210.617 38.2162C210.617 38.2153 210.617 38.2145 210.617 38.2136C210.617 38.2127 210.617 38.2118 210.617 38.2109C210.617 38.2101 210.617 38.2092 210.617 38.2083C210.617 38.2074 210.617 38.2065 210.617 38.2057C210.617 38.2048 210.617 38.2039 210.617 38.203C210.617 38.2021 210.617 38.2013 210.617 38.2004C210.617 38.1995 210.617 38.1986 210.617 38.1978C210.617 38.1969 210.617 38.196 210.617 38.1951C210.617 38.1942 210.617 38.1934 210.617 38.1925C210.617 38.1916 210.617 38.1907 210.617 38.1898C210.617 38.189 210.617 38.1881 210.617 38.1872C210.617 38.1863 210.617 38.1854 210.617 38.1846C210.617 38.1837 210.617 38.1828 210.617 38.1819C210.617 38.1811 210.617 38.1802 210.617 38.1793C210.617 38.1784 210.617 38.1775 210.617 38.1767C210.617 38.1758 210.617 38.1749 210.617 38.174C210.617 38.1731 210.617 38.1723 210.617 38.1714C210.617 38.1705 210.617 38.1696 210.617 38.1687C210.617 38.1679 210.617 38.167 210.617 38.1661C210.617 38.1652 210.617 38.1644 210.617 38.1635C210.617 38.1626 210.617 38.1617 210.617 38.1608C210.617 38.16 210.617 38.1591 210.617 38.1582C210.617 38.1573 210.617 38.1564 210.617 38.1556C210.617 38.1547 210.617 38.1538 210.617 38.1529C210.617 38.1521 210.617 38.1512 210.617 38.1503C210.617 38.1494 210.617 38.1485 210.617 38.1477C210.617 38.1468 210.617 38.1459 210.617 38.145C210.617 38.1441 210.617 38.1433 210.617 38.1424C210.617 38.1415 210.617 38.1406 210.617 38.1397C210.617 38.1389 210.617 38.138 210.617 38.1371C210.617 38.1362 210.617 38.1354 210.617 38.1345C210.617 38.1336 210.617 38.1327 210.617 38.1318C210.617 38.131 210.617 38.1301 210.617 38.1292C210.617 38.1283 210.617 38.1274 210.617 38.1266C210.617 38.1257 210.617 38.1248 210.617 38.1239C210.617 38.123 210.617 38.1222 210.617 38.1213C210.617 38.1204 210.617 38.1195 210.617 38.1187C210.617 38.1178 210.617 38.1169 210.617 38.116C210.617 38.1151 210.617 38.1143 210.617 38.1134C210.617 38.1125 210.617 38.1116 210.617 38.1107C210.617 38.1099 210.617 38.109 210.617 38.1081C210.617 38.1072 210.617 38.1063 210.617 38.1055C210.617 38.1046 210.617 38.1037 210.617 38.1028C210.617 38.102 210.617 38.1011 210.617 38.1002C210.617 38.0993 210.617 38.0984 210.617 38.0976C210.617 38.0967 210.617 38.0958 210.617 38.0949C210.617 38.094 210.617 38.0932 210.617 38.0923C210.617 38.0914 210.617 38.0905 210.617 38.0896C210.617 38.0888 210.617 38.0879 210.617 38.087C210.617 38.0861 210.617 38.0853 210.617 38.0844C210.617 38.0835 210.617 38.0826 210.617 38.0817C210.617 38.0809 210.617 38.08 210.617 38.0791C210.617 38.0782 210.617 38.0773 210.617 38.0765C210.617 38.0756 210.617 38.0747 210.617 38.0738C210.617 38.0729 210.617 38.0721 210.617 38.0712C210.617 38.0703 210.617 38.0694 210.617 38.0686C210.617 38.0677 210.617 38.0668 210.617 38.0659C210.617 38.065 210.617 38.0642 210.617 38.0633C210.617 38.0624 210.617 38.0615 210.617 38.0606C210.617 38.0598 210.617 38.0589 210.617 38.058C210.617 38.0571 210.617 38.0562 210.617 38.0554C210.617 38.0545 210.617 38.0536 210.617 38.0527C210.617 38.0519 210.617 38.051 210.617 38.0501C210.617 38.0492 210.617 38.0483 210.617 38.0475C210.617 38.0466 210.617 38.0457 210.617 38.0448C210.617 38.0439 210.617 38.0431 210.617 38.0422C210.617 38.0413 210.617 38.0404 210.617 38.0396C210.617 38.0387 210.617 38.0378 210.617 38.0369C210.617 38.036 210.617 38.0352 210.617 38.0343C210.617 38.0334 210.617 38.0325 210.617 38.0316C210.617 38.0308 210.617 38.0299 210.617 38.029C210.617 38.0281 210.617 38.0272 210.617 38.0264C210.617 38.0255 210.617 38.0246 210.617 38.0237C210.617 38.0229 210.617 38.022 210.617 38.0211C210.617 38.0202 210.617 38.0193 210.617 38.0185C210.617 38.0176 210.617 38.0167 210.617 38.0158C210.617 38.0149 210.617 38.0141 210.617 38.0132C210.617 38.0123 210.617 38.0114 210.617 38.0105C210.617 38.0097 210.617 38.0088 210.617 38.0079C210.617 38.007 210.617 38.0062 210.617 38.0053C210.617 38.0044 210.617 38.0035 210.617 38.0026C210.617 38.0018 210.617 38.0009 210.617 38C210.617 37.9991 210.617 37.9982 210.617 37.9974C210.617 37.9965 210.617 37.9956 210.617 37.9947C210.617 37.9938 210.617 37.993 210.617 37.9921C210.617 37.9912 210.617 37.9903 210.617 37.9895C210.617 37.9886 210.617 37.9877 210.617 37.9868C210.617 37.9859 210.617 37.9851 210.617 37.9842C210.617 37.9833 210.617 37.9824 210.617 37.9815C210.617 37.9807 210.617 37.9798 210.617 37.9789C210.617 37.978 210.617 37.9771 210.617 37.9763C210.617 37.9754 210.617 37.9745 210.617 37.9736C210.617 37.9728 210.617 37.9719 210.617 37.971C210.617 37.9701 210.617 37.9692 210.617 37.9684C210.617 37.9675 210.617 37.9666 210.617 37.9657C210.617 37.9648 210.617 37.964 210.617 37.9631C210.617 37.9622 210.617 37.9613 210.617 37.9604C210.617 37.9596 210.617 37.9587 210.617 37.9578C210.617 37.9569 210.617 37.9561 210.617 37.9552C210.617 37.9543 210.617 37.9534 210.617 37.9525C210.617 37.9517 210.617 37.9508 210.617 37.9499C210.617 37.949 210.617 37.9481 210.617 37.9473C210.617 37.9464 210.617 37.9455 210.617 37.9446C210.617 37.9437 210.617 37.9429 210.617 37.942C210.617 37.9411 210.617 37.9402 210.617 37.9394C210.617 37.9385 210.617 37.9376 210.617 37.9367C210.617 37.9358 210.617 37.935 210.617 37.9341C210.617 37.9332 210.617 37.9323 210.617 37.9314C210.617 37.9306 210.617 37.9297 210.617 37.9288C210.617 37.9279 210.617 37.9271 210.617 37.9262C210.617 37.9253 210.617 37.9244 210.617 37.9235C210.617 37.9227 210.617 37.9218 210.617 37.9209C210.617 37.92 210.617 37.9191 210.617 37.9183C210.617 37.9174 210.617 37.9165 210.617 37.9156C210.617 37.9147 210.617 37.9139 210.617 37.913C210.617 37.9121 210.617 37.9112 210.617 37.9104C210.617 37.9095 210.617 37.9086 210.617 37.9077C210.617 37.9068 210.617 37.906 210.617 37.9051C210.617 37.9042 210.617 37.9033 210.617 37.9024C210.617 37.9016 210.617 37.9007 210.617 37.8998C210.617 37.8989 210.617 37.898 210.617 37.8972C210.617 37.8963 210.617 37.8954 210.617 37.8945C210.617 37.8937 210.617 37.8928 210.617 37.8919C210.617 37.891 210.617 37.8901 210.617 37.8893C210.617 37.8884 210.617 37.8875 210.617 37.8866C210.617 37.8857 210.617 37.8849 210.617 37.884C210.617 37.8831 210.617 37.8822 210.617 37.8813C210.617 37.8805 210.617 37.8796 210.617 37.8787C210.617 37.8778 210.617 37.877 210.617 37.8761C210.617 37.8752 210.617 37.8743 210.617 37.8734C210.617 37.8726 210.617 37.8717 210.617 37.8708C210.617 37.8699 210.617 37.869 210.617 37.8682C210.617 37.8673 210.617 37.8664 210.617 37.8655C210.617 37.8646 210.617 37.8638 210.617 37.8629C210.617 37.862 210.617 37.8611 210.617 37.8603C210.617 37.8594 210.617 37.8585 210.617 37.8576C210.617 37.8567 210.617 37.8559 210.617 37.855C210.617 37.8541 210.617 37.8532 210.617 37.8523C210.617 37.8515 210.617 37.8506 210.617 37.8497C210.617 37.8488 210.617 37.8479 210.617 37.8471C210.617 37.8462 210.617 37.8453 210.617 37.8444C210.617 37.8436 210.617 37.8427 210.617 37.8418C210.617 37.8409 210.617 37.84 210.617 37.8392C210.617 37.8383 210.617 37.8374 210.617 37.8365C210.617 37.8356 210.617 37.8348 210.617 37.8339C210.617 37.833 210.617 37.8321 210.617 37.8312C210.617 37.8304 210.617 37.8295 210.617 37.8286C210.617 37.8277 210.617 37.8269 210.617 37.826C210.617 37.8251 210.617 37.8242 210.617 37.8233C210.617 37.8225 210.617 37.8216 210.617 37.8207C210.617 37.8198 210.617 37.8189 210.617 37.8181C210.617 37.8172 210.617 37.8163 210.617 37.8154C210.617 37.8145 210.617 37.8137 210.617 37.8128C210.617 37.8119 210.617 37.811 210.617 37.8102C210.617 37.8093 210.617 37.8084 210.617 37.8075C210.617 37.8066 210.617 37.8058 210.617 37.8049C210.617 37.804 210.617 37.8031 210.617 37.8022C210.617 37.8014 210.617 37.8005 210.617 37.7996C210.617 37.7987 210.617 37.7979 210.617 37.797C210.617 37.7961 210.617 37.7952 210.617 37.7943C210.617 37.7935 210.617 37.7926 210.617 37.7917C210.617 37.7908 210.617 37.7899 210.617 37.7891C210.617 37.7882 210.617 37.7873 210.617 37.7864C210.617 37.7855 210.617 37.7847 210.617 37.7838C210.617 37.7829 210.617 37.782 210.617 37.7812C210.617 37.7803 210.617 37.7794 210.617 37.7785C210.617 37.7776 210.617 37.7768 210.617 37.7759C210.617 37.775 210.617 37.7741 210.617 37.7732C210.617 37.7724 210.617 37.7715 210.617 37.7706C210.617 37.7697 210.617 37.7688 210.617 37.768C210.617 37.7671 210.617 37.7662 210.617 37.7653C210.617 37.7645 210.617 37.7636 210.617 37.7627C210.617 37.7618 210.617 37.7609 210.617 37.7601C210.617 37.7592 210.617 37.7583 210.617 37.7574C210.617 37.7565 210.617 37.7557 210.617 37.7548C210.617 37.7539 210.617 37.753 210.617 37.7521C210.617 37.7513 210.617 37.7504 210.617 37.7495C210.617 37.7486 210.617 37.7478 210.617 37.7469C210.617 37.746 210.617 37.7451 210.617 37.7442C210.617 37.7434 210.617 37.7425 210.617 37.7416C210.617 37.7407 210.617 37.7398 210.617 37.739C210.617 37.7381 210.617 37.7372 210.617 37.7363C210.617 37.7354 210.617 37.7346 210.617 37.7337C210.617 37.7328 210.617 37.7319 210.617 37.7311C210.617 37.7302 210.617 37.7293 210.617 37.7284C210.617 37.7275 210.617 37.7267 210.617 37.7258C210.617 37.7249 210.617 37.724 210.617 37.7231C210.617 37.7223 210.617 37.7214 210.617 37.7205C210.617 37.7196 210.617 37.7187 210.617 37.7179C210.617 37.717 210.617 37.7161 210.617 37.7152C210.617 37.7144 210.617 37.7135 210.617 37.7126C210.617 37.7117 210.617 37.7108 210.617 37.71C210.617 37.7091 210.617 37.7082 210.617 37.7073C210.617 37.7064 210.617 37.7056 210.617 37.7047C210.617 37.7038 210.617 37.7029 210.617 37.702C210.617 37.7012 210.617 37.7003 210.617 37.6994C210.617 37.6985 210.617 37.6977 210.617 37.6968C210.617 37.6959 210.617 37.695 210.617 37.6941C210.617 37.6933 210.617 37.6924 210.617 37.6915C210.617 37.6906 210.617 37.6897 210.617 37.6889C210.617 37.688 210.617 37.6871 210.617 37.6862C210.617 37.6854 210.617 37.6845 210.617 37.6836C210.617 37.6827 210.617 37.6818 210.617 37.681C210.617 37.6801 210.617 37.6792 210.617 37.6783C210.617 37.6774 210.617 37.6766 210.617 37.6757C210.617 37.6748 210.617 37.6739 210.617 37.673C210.617 37.6722 210.617 37.6713 210.617 37.6704C210.617 37.6695 210.617 37.6687 210.617 37.6678C210.617 37.6669 210.617 37.666 210.617 37.6651C210.617 37.6643 210.617 37.6634 210.617 37.6625C210.617 37.6616 210.617 37.6607 210.617 37.6599C210.617 37.659 210.617 37.6581 210.617 37.6572C210.617 37.6563 210.617 37.6555 210.617 37.6546C210.617 37.6537 210.617 37.6528 210.617 37.652C210.617 37.6511 210.617 37.6502 210.617 37.6493C210.617 37.6484 210.617 37.6476 210.617 37.6467C210.617 37.6458 210.617 37.6449 210.617 37.644C210.617 37.6432 210.617 37.6423 210.617 37.6414C210.617 37.6405 210.617 37.6396 210.617 37.6388C210.617 37.6379 210.617 37.637 210.617 37.6361C210.617 37.6353 210.617 37.6344 210.617 37.6335C210.617 37.6326 210.617 37.6317 210.617 37.6309C210.617 37.63 210.617 37.6291 210.617 37.6282C210.617 37.6273 210.617 37.6265 210.617 37.6256C210.617 37.6247 210.617 37.6238 210.617 37.6229C210.617 37.6221 210.617 37.6212 210.617 37.6203C210.617 37.6194 210.617 37.6186 210.617 37.6177C210.617 37.6168 210.617 37.6159 210.617 37.615C210.617 37.6142 210.617 37.6133 210.617 37.6124C210.617 37.6115 210.617 37.6106 210.617 37.6098C210.617 37.6089 210.617 37.608 210.617 37.6071C210.617 37.6062 210.617 37.6054 210.617 37.6045C210.617 37.6036 210.617 37.6027 210.617 37.6019C210.617 37.601 210.617 37.6001 210.617 37.5992C210.617 37.5983 210.617 37.5975 210.617 37.5966C210.617 37.5957 210.617 37.5948 210.617 37.5939C210.617 37.5931 210.617 37.5922 210.617 37.5913C210.617 37.5904 210.617 37.5895 210.617 37.5887C210.617 37.5878 210.617 37.5869 210.617 37.586C210.617 37.5852 210.617 37.5843 210.617 37.5834C210.617 37.5825 210.617 37.5816 210.617 37.5808C210.617 37.5799 210.617 37.579 210.617 37.5781C210.617 37.5772 210.617 37.5764 210.617 37.5755C210.617 37.5746 210.617 37.5737 210.617 37.5729C210.617 37.572 210.617 37.5711 210.617 37.5702C210.617 37.5693 210.617 37.5685 210.617 37.5676C210.617 37.5667 210.617 37.5658 210.617 37.5649C210.617 37.5641 210.617 37.5632 210.617 37.5623C210.617 37.5614 210.617 37.5605 210.617 37.5597C210.617 37.5588 210.617 37.5579 210.617 37.557C210.617 37.5562 210.617 37.5553 210.617 37.5544C210.617 37.5535 210.617 37.5526 210.617 37.5518C210.617 37.5509 210.617 37.55 210.617 37.5491C210.617 37.5482 210.617 37.5474 210.617 37.5465C210.617 37.5456 210.617 37.5447 210.617 37.5438C210.617 37.543 210.617 37.5421 210.617 37.5412C210.617 37.5403 210.617 37.5395 210.617 37.5386C210.617 37.5377 210.617 37.5368 210.617 37.5359C210.617 37.5351 210.617 37.5342 210.617 37.5333C210.617 37.5324 210.617 37.5315 210.617 37.5307C210.617 37.5298 210.617 37.5289 210.617 37.528C210.617 37.5271 210.617 37.5263 210.617 37.5254C210.617 37.5245 210.617 37.5236 210.617 37.5228C210.617 37.5219 210.617 37.521 210.617 37.5201C210.617 37.5192 210.617 37.5184 210.617 37.5175C210.617 37.5166 210.617 37.5157 210.617 37.5148C210.617 37.514 210.617 37.5131 210.617 37.5122C210.617 37.5113 210.617 37.5104 210.617 37.5096C210.617 37.5087 210.617 37.5078 210.617 37.5069C210.617 37.5061 210.617 37.5052 210.617 37.5043C210.617 37.5034 210.617 37.5025 210.617 37.5017C210.617 37.5008 210.617 37.4999 210.617 37.499C210.617 37.4981 210.617 37.4973 210.617 37.4964C210.617 37.4955 210.617 37.4946 210.617 37.4937C210.617 37.4929 210.617 37.492 210.617 37.4911C210.617 37.4902 210.617 37.4894 210.617 37.4885C210.617 37.4876 210.617 37.4867 210.617 37.4858C210.617 37.485 210.617 37.4841 210.617 37.4832C210.617 37.4823 210.617 37.4814 210.617 37.4806C210.617 37.4797 210.617 37.4788 210.617 37.4779C210.617 37.477 210.617 37.4762 210.617 37.4753C210.617 37.4744 210.617 37.4735 210.617 37.4727C210.617 37.4718 210.617 37.4709 210.617 37.47C210.617 37.4691 210.617 37.4683 210.617 37.4674C210.617 37.4665 210.617 37.4656 210.617 37.4647C210.617 37.4639 210.617 37.463 210.617 37.4621C210.617 37.4612 210.617 37.4604 210.617 37.4595C210.617 37.4586 210.617 37.4577 210.617 37.4568C210.617 37.456 210.617 37.4551 210.617 37.4542C210.617 37.4533 210.617 37.4524 210.617 37.4516C210.617 37.4507 210.617 37.4498 210.617 37.4489C210.617 37.448 210.617 37.4472 210.617 37.4463C210.617 37.4454 210.617 37.4445 210.617 37.4437C210.617 37.4428 210.617 37.4419 210.617 37.441C210.617 37.4401 210.617 37.4393 210.617 37.4384C210.617 37.4375 210.617 37.4366 210.617 37.4357C210.617 37.4349 210.617 37.434 210.617 37.4331C210.617 37.4322 210.617 37.4313 210.617 37.4305C210.617 37.4296 210.617 37.4287 210.617 37.4278C210.617 37.427 210.617 37.4261 210.617 37.4252C210.617 37.4243 210.617 37.4234 210.617 37.4226C210.617 37.4217 210.617 37.4208 210.617 37.4199C210.617 37.419 210.617 37.4182 210.617 37.4173C210.617 37.4164 210.617 37.4155 210.617 37.4146C210.617 37.4138 210.617 37.4129 210.617 37.412C210.617 37.4111 210.617 37.4103 210.617 37.4094C210.617 37.4085 210.617 37.4076 210.617 37.4067C210.617 37.4059 210.617 37.405 210.617 37.4041C210.617 37.4032 210.617 37.4023 210.617 37.4015C210.617 37.4006 210.617 37.3997 210.617 37.3988C210.617 37.3979 210.617 37.3971 210.617 37.3962C210.617 37.3953 210.617 37.3944 210.617 37.3936C210.617 37.3927 210.617 37.3918 210.617 37.3909C210.617 37.39 210.617 37.3892 210.617 37.3883C210.617 37.3874 210.617 37.3865 210.617 37.3856C210.617 37.3848 210.617 37.3839 210.617 37.383C210.617 37.3821 210.617 37.3812 210.617 37.3804C210.617 37.3795 210.617 37.3786 210.617 37.3777C210.617 37.3769 210.617 37.376 210.617 37.3751C210.617 37.3742 210.617 37.3733 210.617 37.3725C210.617 37.3716 210.617 37.3707 210.617 37.3698C210.617 37.3689 210.617 37.3681 210.617 37.3672C210.617 37.3663 210.617 37.3654 210.617 37.3645C210.617 37.3637 210.617 37.3628 210.617 37.3619C210.617 37.361 210.617 37.3602 210.617 37.3593C210.617 37.3584 210.617 37.3575 210.617 37.3566C210.617 37.3558 210.617 37.3549 210.617 37.354C210.617 37.3531 210.617 37.3522 210.617 37.3514C210.617 37.3505 210.617 37.3496 210.617 37.3487C210.617 37.3479 210.617 37.347 210.617 37.3461C210.617 37.3452 210.617 37.3443 210.617 37.3435C210.617 37.3426 210.617 37.3417 210.617 37.3408C210.617 37.3399 210.617 37.3391 210.617 37.3382C210.617 37.3373 210.617 37.3364 210.617 37.3355C210.617 37.3347 210.617 37.3338 210.617 37.3329C210.617 37.332 210.617 37.3312 210.617 37.3303C210.617 37.3294 210.617 37.3285 210.617 37.3276C210.617 37.3268 210.617 37.3259 210.617 37.325H210.117ZM210.117 38.675H209.617C209.617 39.0541 209.593 39.4334 209.546 39.813L210.042 39.875L210.538 39.937C210.591 39.5166 210.617 39.0959 210.617 38.675H210.117ZM210.042 39.875V39.375H184.542V39.875V40.375H210.042V39.875ZM184.542 39.875L184.05 39.966C184.568 42.7598 185.763 44.9076 187.672 46.349C189.573 47.7851 192.123 48.475 195.267 48.475V47.975V47.475C192.261 47.475 189.948 46.8149 188.275 45.551C186.608 44.2924 185.516 42.3902 185.034 39.784L184.542 39.875ZM195.267 47.975V48.475C197.207 48.475 199.17 48.2453 201.154 47.7872L201.042 47.3L200.93 46.8128C199.014 47.2547 197.127 47.475 195.267 47.475V47.975ZM201.042 47.3L201.163 47.7851C203.195 47.2772 204.985 46.614 206.527 45.7912L206.292 45.35L206.057 44.9088C204.599 45.686 202.889 46.3228 200.921 46.8149L201.042 47.3ZM206.292 45.35L205.802 45.4497L207.527 53.9247L208.017 53.825L208.507 53.7253L206.782 45.2503L206.292 45.35ZM208.017 53.825L207.783 53.3832C203.712 55.541 199.119 56.625 193.992 56.625V57.125V57.625C199.265 57.625 204.022 56.509 208.251 54.2668L208.017 53.825ZM184.467 31.925V32.425H199.992V31.925V31.425H184.467V31.925ZM199.992 31.925L200.491 31.8902C200.334 29.6365 199.541 27.8092 198.082 26.4581L197.742 26.825L197.402 27.1919C198.643 28.3408 199.35 29.9135 199.493 31.9598L199.992 31.925ZM197.742 26.825L198.089 26.4648C196.628 25.0576 194.694 24.375 192.342 24.375V24.875V25.375C194.49 25.375 196.156 25.9924 197.395 27.1852L197.742 26.825ZM192.342 24.875V24.375C190.088 24.375 188.189 25.0333 186.684 26.377L187.017 26.75L187.35 27.123C188.645 25.9667 190.296 25.375 192.342 25.375V24.875ZM187.017 26.75L186.677 26.3831C185.229 27.7243 184.337 29.5598 183.973 31.8464L184.467 31.925L184.961 32.0036C185.297 29.8902 186.105 28.2757 187.357 27.1169L187.017 26.75ZM215.478 56H214.978V56.5H215.478V56ZM215.478 17.375V16.875H214.978V17.375H215.478ZM225.828 17.375H226.328V16.875H225.828V17.375ZM225.828 23.375H225.328V25.064L226.247 23.6472L225.828 23.375ZM245.703 18.425L245.421 18.8379L245.425 18.841L245.703 18.425ZM250.278 24.275L249.81 24.4526L250.164 25.3844L250.7 24.5434L250.278 24.275ZM256.128 18.275L256.379 18.7073L256.382 18.7055L256.128 18.275ZM273.303 20.075L272.935 20.4136L272.942 20.4211L273.303 20.075ZM276.828 56V56.5H277.328V56H276.828ZM266.253 56H265.753V56.5H266.253V56ZM264.753 27.275L264.374 27.6019L264.383 27.6113L264.753 27.275ZM255.078 28.175L254.729 27.8163L254.724 27.8214L255.078 28.175ZM251.253 34.7L250.777 34.5473L250.753 34.6218V34.7H251.253ZM251.253 56V56.5H251.753V56H251.253ZM240.678 56H240.178V56.5H240.678V56ZM239.178 27.35L238.8 27.6782L238.808 27.6863L239.178 27.35ZM230.028 27.725L230.344 28.112L230.351 28.1063L230.028 27.725ZM226.053 33.5L225.589 33.3143L225.553 33.4037V33.5H226.053ZM226.053 56V56.5H226.553V56H226.053ZM215.478 56H215.978V17.375H215.478H214.978V56H215.478ZM215.478 17.375V17.875H225.828V17.375V16.875H215.478V17.375ZM225.828 17.375H225.328V23.375H225.828H226.328V17.375H225.828ZM225.828 23.375L226.247 23.6472C229.213 19.0761 233.187 16.825 238.203 16.825V16.325V15.825C232.818 15.825 228.542 18.2739 225.408 23.1028L225.828 23.375ZM238.203 16.325V16.825C241.071 16.825 243.469 17.5046 245.421 18.8379L245.703 18.425L245.985 18.0121C243.837 16.5453 241.234 15.825 238.203 15.825V16.325ZM245.703 18.425L245.425 18.841C247.433 20.1797 248.895 22.0438 249.81 24.4526L250.278 24.275L250.745 24.0974C249.76 21.5062 248.172 19.4703 245.98 18.009L245.703 18.425ZM250.278 24.275L250.7 24.5434C252.42 21.8407 254.316 19.9065 256.379 18.7073L256.128 18.275L255.876 17.8427C253.639 19.1435 251.636 21.2093 249.856 24.0066L250.278 24.275ZM256.128 18.275L256.382 18.7055C258.498 17.4553 260.908 16.825 263.628 16.825V16.325V15.825C260.747 15.825 258.158 16.4947 255.873 17.8445L256.128 18.275ZM263.628 16.325V16.825C267.671 16.825 270.75 18.0387 272.935 20.4135L273.303 20.075L273.671 19.7365C271.256 17.1113 267.884 15.825 263.628 15.825V16.325ZM273.303 20.075L272.942 20.4211C275.179 22.7529 276.328 26.0394 276.328 30.35H276.828H277.328C277.328 25.8606 276.127 22.2971 273.664 19.7289L273.303 20.075ZM276.828 30.35H276.328V56H276.828H277.328V30.35H276.828ZM276.828 56V55.5H266.253V56V56.5H276.828V56ZM266.253 56H266.753V32H266.253H265.753V56H266.253ZM266.253 32H266.753C266.753 29.873 266.234 28.1606 265.123 26.9387L264.753 27.275L264.383 27.6113C265.272 28.5894 265.753 30.0269 265.753 32H266.253ZM264.753 27.275L265.131 26.9482C264.073 25.7226 262.626 25.125 260.853 25.125V25.625V26.125C262.379 26.125 263.533 26.6274 264.374 27.6018L264.753 27.275ZM260.853 25.625V25.125C258.602 25.125 256.556 26.0415 254.729 27.8164L255.078 28.175L255.426 28.5336C257.099 26.9085 258.904 26.125 260.853 26.125V25.625ZM255.078 28.175L254.724 27.8214C252.96 29.586 251.647 31.8335 250.777 34.5473L251.253 34.7L251.729 34.8527C252.558 32.2665 253.796 30.164 255.431 28.5286L255.078 28.175ZM251.253 34.7H250.753V56H251.253H251.753V34.7H251.253ZM251.253 56V55.5H240.678V56V56.5H251.253V56ZM240.678 56H241.178V32H240.678H240.178V56H240.678ZM240.678 32H241.178C241.178 29.9192 240.657 28.2335 239.548 27.0137L239.178 27.35L238.808 27.6863C239.699 28.6665 240.178 30.0808 240.178 32H240.678ZM239.178 27.35L239.555 27.0219C238.452 25.7529 236.984 25.125 235.203 25.125V25.625V26.125C236.722 26.125 237.904 26.6471 238.8 27.6781L239.178 27.35ZM235.203 25.625V25.125C233.261 25.125 231.426 25.8833 229.704 27.3437L230.028 27.725L230.351 28.1063C231.93 26.7667 233.544 26.125 235.203 26.125V25.625ZM230.028 27.725L229.711 27.338C227.981 28.7539 226.612 30.7561 225.589 33.3143L226.053 33.5L226.517 33.6857C227.494 31.2439 228.775 29.3961 230.344 28.112L230.028 27.725ZM226.053 33.5H225.553V56H226.053H226.553V33.5H226.053ZM226.053 56V55.5H215.478V56V56.5H226.053V56ZM285.93 56.225L286.283 55.8714L286.283 55.8714L285.93 56.225ZM285.93 45.35L286.283 45.7036L286.283 45.7036L285.93 45.35ZM296.88 45.35L296.52 45.6978L296.526 45.7036L296.88 45.35ZM296.88 56.225L296.526 55.8714L296.52 55.8773L296.88 56.225ZM291.405 58.55V58.05C289.444 58.05 287.744 57.3323 286.283 55.8714L285.93 56.225L285.576 56.5786C287.215 58.2177 289.166 59.05 291.405 59.05V58.55ZM285.93 56.225L286.283 55.8714C284.876 54.4641 284.18 52.7909 284.18 50.825H283.68H283.18C283.18 53.0591 283.983 54.9859 285.576 56.5786L285.93 56.225ZM283.68 50.825H284.18C284.18 48.8056 284.878 47.1084 286.283 45.7036L285.93 45.35L285.576 44.9964C283.981 46.5916 283.18 48.5444 283.18 50.825H283.68ZM285.93 45.35L286.283 45.7036C287.744 44.2427 289.444 43.525 291.405 43.525V43.025V42.525C289.166 42.525 287.215 43.3573 285.576 44.9964L285.93 45.35ZM291.405 43.025V43.525C293.419 43.525 295.114 44.2447 296.52 45.6977L296.88 45.35L297.239 45.0023C295.645 43.3553 293.691 42.525 291.405 42.525V43.025ZM296.88 45.35L296.526 45.7036C297.931 47.1084 298.63 48.8056 298.63 50.825H299.13H299.63C299.63 48.5444 298.828 46.5916 297.233 44.9964L296.88 45.35ZM299.13 50.825H298.63C298.63 52.7909 297.933 54.4641 296.526 55.8714L296.88 56.225L297.233 56.5786C298.826 54.9859 299.63 53.0591 299.63 50.825H299.13ZM296.88 56.225L296.52 55.8773C295.114 57.3303 293.419 58.05 291.405 58.05V58.55V59.05C293.691 59.05 295.645 58.2197 297.239 56.5727L296.88 56.225Z" fill="white"/>
</svg>
