<svg width="442" height="176" viewBox="0 0 442 176" fill="none" xmlns="http://www.w3.org/2000/svg">
<g filter="url(#filter0_d_38_1165)">
<rect x="20" y="20" width="401.4" height="136" rx="50" fill="white" shape-rendering="crispEdges"/>
<rect x="21.5" y="21.5" width="398.4" height="133" rx="48.5" stroke="#378D5E" stroke-width="3" shape-rendering="crispEdges"/>
<rect width="264.6" height="32.4" transform="translate(59.5996 43.8)" fill="white"/>
<circle cx="68.5996" cy="60" r="9" fill="#378D5E"/>
<path d="M106.328 70.8L101.4 62.096H99.2876V70.8H94.8076V48.464H103.192C104.92 48.464 106.392 48.7734 107.608 49.392C108.824 49.9894 109.73 50.8107 110.328 51.856C110.946 52.88 111.256 54.032 111.256 55.312C111.256 56.784 110.829 58.1174 109.976 59.312C109.122 60.4854 107.853 61.296 106.168 61.744L111.512 70.8H106.328ZM99.2876 58.736H103.032C104.248 58.736 105.154 58.448 105.752 57.872C106.349 57.2747 106.648 56.4534 106.648 55.408C106.648 54.384 106.349 53.5947 105.752 53.04C105.154 52.464 104.248 52.176 103.032 52.176H99.2876V58.736ZM120.108 52.08V57.68H127.628V61.232H120.108V67.152H128.588V70.8H115.628V48.432H128.588V52.08H120.108ZM140.691 71.024C139.134 71.024 137.726 70.7574 136.467 70.224C135.23 69.6907 134.248 68.9227 133.523 67.92C132.798 66.9174 132.424 65.7334 132.403 64.368H137.203C137.267 65.2854 137.587 66.0107 138.163 66.544C138.76 67.0774 139.571 67.344 140.595 67.344C141.64 67.344 142.462 67.0987 143.059 66.608C143.656 66.096 143.955 65.4347 143.955 64.624C143.955 63.9627 143.752 63.4187 143.347 62.992C142.942 62.5654 142.43 62.2347 141.811 62C141.214 61.744 140.382 61.4667 139.315 61.168C137.864 60.7414 136.68 60.3254 135.763 59.92C134.867 59.4934 134.088 58.864 133.427 58.032C132.787 57.1787 132.467 56.048 132.467 54.64C132.467 53.3174 132.798 52.1654 133.459 51.184C134.12 50.2027 135.048 49.456 136.243 48.944C137.438 48.4107 138.803 48.144 140.339 48.144C142.643 48.144 144.51 48.7094 145.939 49.84C147.39 50.9494 148.19 52.5067 148.339 54.512H143.411C143.368 53.744 143.038 53.1147 142.419 52.624C141.822 52.112 141.022 51.856 140.019 51.856C139.144 51.856 138.44 52.08 137.907 52.528C137.395 52.976 137.139 53.6267 137.139 54.48C137.139 55.0774 137.331 55.5787 137.715 55.984C138.12 56.368 138.611 56.688 139.187 56.944C139.784 57.1787 140.616 57.456 141.683 57.776C143.134 58.2027 144.318 58.6294 145.235 59.056C146.152 59.4827 146.942 60.1227 147.603 60.976C148.264 61.8294 148.595 62.9494 148.595 64.336C148.595 65.5307 148.286 66.64 147.667 67.664C147.048 68.688 146.142 69.5094 144.947 70.128C143.752 70.7254 142.334 71.024 140.691 71.024ZM157.279 52.08V57.68H164.799V61.232H157.279V67.152H165.759V70.8H152.799V48.432H165.759V52.08H157.279ZM183.846 66.544H174.95L173.478 70.8H168.774L176.806 48.432H182.022L190.054 70.8H185.318L183.846 66.544ZM182.63 62.96L179.398 53.616L176.166 62.96H182.63ZM204.896 70.8L199.968 62.096H197.856V70.8H193.376V48.464H201.76C203.488 48.464 204.96 48.7734 206.176 49.392C207.392 49.9894 208.299 50.8107 208.896 51.856C209.515 52.88 209.824 54.032 209.824 55.312C209.824 56.784 209.398 58.1174 208.544 59.312C207.691 60.4854 206.422 61.296 204.736 61.744L210.08 70.8H204.896ZM197.856 58.736H201.6C202.816 58.736 203.723 58.448 204.32 57.872C204.918 57.2747 205.216 56.4534 205.216 55.408C205.216 54.384 204.918 53.5947 204.32 53.04C203.723 52.464 202.816 52.176 201.6 52.176H197.856V58.736ZM213.108 59.6C213.108 57.4027 213.599 55.44 214.58 53.712C215.583 51.9627 216.938 50.608 218.644 49.648C220.372 48.6667 222.303 48.176 224.436 48.176C226.932 48.176 229.119 48.816 230.996 50.096C232.874 51.376 234.186 53.1467 234.932 55.408H229.78C229.268 54.3414 228.543 53.5414 227.604 53.008C226.687 52.4747 225.62 52.208 224.404 52.208C223.103 52.208 221.94 52.5174 220.916 53.136C219.914 53.7334 219.124 54.5867 218.548 55.696C217.994 56.8054 217.716 58.1067 217.716 59.6C217.716 61.072 217.994 62.3734 218.548 63.504C219.124 64.6134 219.914 65.4774 220.916 66.096C221.94 66.6934 223.103 66.992 224.404 66.992C225.62 66.992 226.687 66.7254 227.604 66.192C228.543 65.6374 229.268 64.8267 229.78 63.76H234.932C234.186 66.0427 232.874 67.824 230.996 69.104C229.14 70.3627 226.954 70.992 224.436 70.992C222.303 70.992 220.372 70.512 218.644 69.552C216.938 68.5707 215.583 67.216 214.58 65.488C213.599 63.76 213.108 61.7974 213.108 59.6ZM257.607 48.464V70.8H253.127V61.296H243.559V70.8H239.079V48.464H243.559V57.648H253.127V48.464H257.607Z" fill="#3B3C44"/>
<path d="M368.524 58.6438C368.524 59.1667 368.369 59.6779 368.078 60.1127C367.788 60.5475 367.375 60.8863 366.892 61.0864C366.409 61.2865 365.877 61.3389 365.364 61.2369C364.852 61.1349 364.38 60.8831 364.011 60.5133C363.641 60.1436 363.389 59.6725 363.287 59.1596C363.185 58.6468 363.237 58.1152 363.438 57.6321C363.638 57.149 363.977 56.7361 364.411 56.4456C364.846 56.1551 365.357 56 365.88 56C366.581 56 367.254 56.2785 367.75 56.7744C368.245 57.2702 368.524 57.9427 368.524 58.6438ZM354.644 56C354.121 56 353.61 56.1551 353.175 56.4456C352.74 56.7361 352.401 57.149 352.201 57.6321C352.001 58.1152 351.949 58.6468 352.051 59.1596C352.153 59.6725 352.405 60.1436 352.774 60.5133C353.144 60.8831 353.615 61.1349 354.128 61.2369C354.641 61.3389 355.172 61.2865 355.656 61.0864C356.139 60.8863 356.552 60.5475 356.842 60.1127C357.133 59.6779 357.288 59.1667 357.288 58.6438C357.288 57.9427 357.009 57.2702 356.513 56.7744C356.018 56.2785 355.345 56 354.644 56ZM377.116 56C376.594 56 376.082 56.1551 375.648 56.4456C375.213 56.7361 374.874 57.149 374.674 57.6321C374.474 58.1152 374.421 58.6468 374.523 59.1596C374.625 59.6725 374.877 60.1436 375.247 60.5133C375.617 60.8831 376.088 61.1349 376.601 61.2369C377.114 61.3389 377.645 61.2865 378.128 61.0864C378.611 60.8863 379.024 60.5475 379.315 60.1127C379.605 59.6779 379.76 59.1667 379.76 58.6438C379.76 57.9427 379.482 57.2702 378.986 56.7744C378.49 56.2785 377.818 56 377.116 56Z" fill="#3B3C44"/>
<rect width="198" height="36" transform="translate(59.5996 96.2)" fill="white"/>
<rect x="59.8082" y="96.7667" width="187.383" height="34.866" rx="17.433" fill="white"/>
<rect x="59.8082" y="96.7667" width="187.383" height="34.866" rx="17.433" stroke="#D2D2D2" stroke-width="1.134"/>
<g clip-path="url(#clip0_38_1165)">
<g clip-path="url(#clip1_38_1165)">
<path d="M88.9023 119.285C88.6977 119.285 88.5014 119.366 88.3567 119.511C88.212 119.656 88.1307 119.852 88.1307 120.056V121.723C88.1307 121.774 88.1104 121.823 88.0742 121.86C88.038 121.896 87.9889 121.916 87.9378 121.916H75.9774C75.9288 121.916 75.8819 121.898 75.8462 121.865C75.8104 121.832 75.7884 121.787 75.7845 121.739V108.621C75.7845 108.57 75.8048 108.521 75.841 108.484C75.8772 108.448 75.9262 108.428 75.9774 108.428H76.9419C77.1466 108.428 77.3429 108.347 77.4876 108.202C77.6323 108.057 77.7136 107.861 77.7136 107.656C77.7136 107.452 77.6323 107.255 77.4876 107.111C77.3429 106.966 77.1466 106.885 76.9419 106.885H75.7845C75.3752 106.885 74.9826 107.047 74.6932 107.337C74.4038 107.626 74.2412 108.019 74.2412 108.428V121.916C74.2412 122.325 74.4038 122.718 74.6932 123.007C74.9826 123.297 75.3752 123.459 75.7845 123.459H88.1307C88.54 123.459 88.9325 123.297 89.2219 123.007C89.5114 122.718 89.674 122.325 89.674 121.916V120.056C89.674 119.852 89.5927 119.656 89.448 119.511C89.3032 119.366 89.107 119.285 88.9023 119.285ZM86.9732 108.412H87.9378C87.9889 108.412 88.038 108.433 88.0742 108.469C88.1104 108.505 88.1307 108.554 88.1307 108.605V109.184C88.1307 109.389 88.212 109.585 88.3567 109.73C88.5014 109.874 88.6977 109.956 88.9023 109.956C89.107 109.956 89.3032 109.874 89.448 109.73C89.5927 109.585 89.674 109.389 89.674 109.184V108.412C89.674 108.003 89.5114 107.611 89.2219 107.321C88.9325 107.032 88.54 106.869 88.1307 106.869H86.9732C86.7686 106.869 86.5723 106.95 86.4276 107.095C86.2829 107.24 86.2016 107.436 86.2016 107.641C86.2016 107.845 86.2829 108.042 86.4276 108.186C86.5723 108.331 86.7686 108.412 86.9732 108.412Z" fill="#A4A4A4"/>
<path d="M79.643 109.184H84.2729C84.5798 109.184 84.8742 109.062 85.0913 108.845C85.3084 108.628 85.4303 108.333 85.4303 108.026V107.641C85.4303 107.334 85.3084 107.039 85.0913 106.822C84.8742 106.605 84.5798 106.483 84.2729 106.483H83.5012C83.5012 106.074 83.3386 105.681 83.0492 105.392C82.7598 105.103 82.3673 104.94 81.958 104.94C81.5486 104.94 81.1561 105.103 80.8667 105.392C80.5773 105.681 80.4147 106.074 80.4147 106.483H79.643C79.3361 106.483 79.0417 106.605 78.8246 106.822C78.6075 107.039 78.4856 107.334 78.4856 107.641V108.026C78.4856 108.333 78.6075 108.628 78.8246 108.845C79.0417 109.062 79.3361 109.184 79.643 109.184ZM77.3281 112.656C77.3281 112.861 77.4094 113.057 77.5541 113.202C77.6988 113.347 77.8951 113.428 78.0998 113.428H84.2729C84.4775 113.428 84.6738 113.347 84.8185 113.202C84.9632 113.057 85.0445 112.861 85.0445 112.656C85.0445 112.452 84.9632 112.255 84.8185 112.111C84.6738 111.966 84.4775 111.885 84.2729 111.885H78.0998C77.8951 111.885 77.6988 111.966 77.5541 112.111C77.4094 112.255 77.3281 112.452 77.3281 112.656ZM78.0998 115.743C77.8951 115.743 77.6988 115.824 77.5541 115.969C77.4094 116.114 77.3281 116.31 77.3281 116.515C77.3281 116.719 77.4094 116.915 77.5541 117.06C77.6988 117.205 77.8951 117.286 78.0998 117.286H81.5721C81.7768 117.286 81.9731 117.205 82.1178 117.06C82.2625 116.915 82.3438 116.719 82.3438 116.515C82.3438 116.31 82.2625 116.114 82.1178 115.969C81.9731 115.824 81.7768 115.743 81.5721 115.743H78.0998ZM92.3056 111.298C92.0165 111.011 91.6253 110.849 91.2176 110.849C90.8099 110.849 90.4187 111.011 90.1296 111.298L84.0568 117.371C84.0189 117.408 83.9899 117.453 83.9719 117.502L82.8762 120.226C82.849 120.296 82.8425 120.373 82.8575 120.447C82.8726 120.521 82.9085 120.589 82.9611 120.643C83.014 120.697 83.0821 120.734 83.1564 120.749C83.2307 120.764 83.3078 120.757 83.3778 120.728L86.1094 119.64C86.1576 119.619 86.2019 119.59 86.2405 119.555L92.3056 113.482C92.4491 113.339 92.5629 113.168 92.6406 112.981C92.7183 112.794 92.7582 112.593 92.7582 112.39C92.7582 112.187 92.7183 111.986 92.6406 111.799C92.5629 111.612 92.4491 111.442 92.3056 111.298Z" fill="#A4A4A4"/>
</g>
</g>
<path d="M109.524 120.892C108.445 120.892 107.513 120.7 106.729 120.314C105.958 119.929 105.36 119.344 104.936 118.56C104.525 117.763 104.319 116.741 104.319 115.495V107.668C104.319 107.526 104.358 107.417 104.435 107.34C104.512 107.25 104.621 107.205 104.763 107.205H105.746C105.887 107.205 105.997 107.25 106.074 107.34C106.164 107.417 106.209 107.526 106.209 107.668V115.533C106.209 116.793 106.504 117.724 107.095 118.329C107.687 118.933 108.496 119.235 109.524 119.235C110.54 119.235 111.343 118.933 111.934 118.329C112.538 117.724 112.84 116.793 112.84 115.533V107.668C112.84 107.526 112.879 107.417 112.956 107.34C113.046 107.25 113.155 107.205 113.284 107.205H114.286C114.415 107.205 114.517 107.25 114.595 107.34C114.684 107.417 114.729 107.526 114.729 107.668V115.495C114.729 116.741 114.517 117.763 114.093 118.56C113.682 119.344 113.091 119.929 112.32 120.314C111.549 120.7 110.617 120.892 109.524 120.892ZM122.06 120.892C121.34 120.892 120.724 120.803 120.21 120.623C119.695 120.443 119.278 120.224 118.956 119.967C118.635 119.71 118.391 119.453 118.224 119.196C118.07 118.939 117.986 118.733 117.973 118.579C117.96 118.438 118.005 118.329 118.108 118.251C118.211 118.174 118.314 118.136 118.417 118.136H119.265C119.342 118.136 119.4 118.149 119.438 118.174C119.49 118.187 119.554 118.239 119.631 118.329C119.798 118.508 119.985 118.688 120.19 118.868C120.396 119.048 120.646 119.196 120.942 119.312C121.251 119.427 121.63 119.485 122.079 119.485C122.735 119.485 123.275 119.363 123.699 119.119C124.123 118.862 124.335 118.489 124.335 118.001C124.335 117.679 124.245 117.422 124.065 117.23C123.898 117.037 123.59 116.863 123.14 116.709C122.703 116.555 122.099 116.394 121.328 116.227C120.557 116.047 119.946 115.829 119.496 115.572C119.046 115.302 118.725 114.987 118.532 114.627C118.34 114.254 118.243 113.837 118.243 113.374C118.243 112.899 118.385 112.442 118.667 112.005C118.95 111.556 119.361 111.189 119.901 110.906C120.454 110.624 121.141 110.482 121.964 110.482C122.632 110.482 123.204 110.566 123.68 110.733C124.155 110.9 124.547 111.112 124.856 111.369C125.164 111.613 125.395 111.858 125.55 112.102C125.704 112.346 125.787 112.552 125.8 112.719C125.813 112.847 125.774 112.956 125.684 113.046C125.595 113.123 125.492 113.162 125.376 113.162H124.566C124.476 113.162 124.399 113.143 124.335 113.104C124.284 113.066 124.232 113.021 124.181 112.969C124.052 112.802 123.898 112.635 123.718 112.468C123.551 112.301 123.326 112.166 123.043 112.063C122.773 111.947 122.414 111.89 121.964 111.89C121.321 111.89 120.839 112.025 120.518 112.294C120.197 112.564 120.036 112.905 120.036 113.316C120.036 113.56 120.107 113.779 120.248 113.972C120.389 114.164 120.659 114.338 121.058 114.492C121.456 114.646 122.047 114.813 122.831 114.993C123.68 115.16 124.348 115.385 124.836 115.668C125.325 115.951 125.672 116.279 125.877 116.651C126.083 117.024 126.186 117.455 126.186 117.943C126.186 118.483 126.025 118.978 125.704 119.427C125.395 119.877 124.933 120.237 124.316 120.507C123.712 120.764 122.96 120.892 122.06 120.892ZM133.372 120.892C132.048 120.892 130.994 120.488 130.21 119.678C129.426 118.855 128.996 117.737 128.919 116.324C128.906 116.157 128.899 115.944 128.899 115.687C128.899 115.418 128.906 115.199 128.919 115.032C128.97 114.119 129.182 113.323 129.555 112.642C129.928 111.947 130.435 111.414 131.078 111.041C131.733 110.669 132.498 110.482 133.372 110.482C134.349 110.482 135.165 110.688 135.82 111.099C136.488 111.511 136.996 112.095 137.343 112.854C137.69 113.612 137.864 114.499 137.864 115.514V115.842C137.864 115.983 137.819 116.092 137.729 116.169C137.652 116.246 137.549 116.285 137.42 116.285H130.75C130.75 116.298 130.75 116.324 130.75 116.362C130.75 116.401 130.75 116.433 130.75 116.459C130.776 116.985 130.891 117.48 131.097 117.943C131.303 118.393 131.598 118.759 131.984 119.042C132.369 119.325 132.832 119.466 133.372 119.466C133.835 119.466 134.22 119.395 134.529 119.254C134.837 119.112 135.088 118.958 135.28 118.791C135.473 118.611 135.602 118.476 135.666 118.386C135.782 118.219 135.872 118.123 135.936 118.097C136 118.059 136.103 118.039 136.244 118.039H137.17C137.298 118.039 137.401 118.078 137.478 118.155C137.568 118.219 137.607 118.316 137.594 118.444C137.581 118.637 137.478 118.875 137.285 119.157C137.093 119.427 136.816 119.697 136.456 119.967C136.096 120.237 135.66 120.462 135.145 120.642C134.631 120.809 134.04 120.892 133.372 120.892ZM130.75 114.955H136.032V114.897C136.032 114.319 135.923 113.805 135.705 113.355C135.499 112.905 135.197 112.552 134.798 112.294C134.4 112.025 133.925 111.89 133.372 111.89C132.819 111.89 132.344 112.025 131.945 112.294C131.56 112.552 131.264 112.905 131.059 113.355C130.853 113.805 130.75 114.319 130.75 114.897V114.955ZM141.576 120.7C141.448 120.7 141.338 120.661 141.248 120.584C141.171 120.494 141.133 120.385 141.133 120.256V111.138C141.133 111.009 141.171 110.9 141.248 110.81C141.338 110.72 141.448 110.675 141.576 110.675H142.463C142.591 110.675 142.701 110.72 142.791 110.81C142.88 110.9 142.925 111.009 142.925 111.138V111.986C143.183 111.549 143.536 111.221 143.986 111.003C144.436 110.784 144.975 110.675 145.605 110.675H146.376C146.505 110.675 146.608 110.72 146.685 110.81C146.762 110.887 146.8 110.99 146.8 111.119V111.909C146.8 112.037 146.762 112.14 146.685 112.217C146.608 112.294 146.505 112.333 146.376 112.333H145.22C144.526 112.333 143.979 112.539 143.581 112.95C143.183 113.348 142.983 113.895 142.983 114.589V120.256C142.983 120.385 142.938 120.494 142.848 120.584C142.758 120.661 142.649 120.7 142.521 120.7H141.576ZM155.351 120.7C155.21 120.7 155.101 120.661 155.024 120.584C154.947 120.494 154.908 120.385 154.908 120.256V107.649C154.908 107.52 154.947 107.417 155.024 107.34C155.101 107.25 155.21 107.205 155.351 107.205H156.373C156.502 107.205 156.604 107.25 156.682 107.34C156.771 107.417 156.816 107.52 156.816 107.649V120.256C156.816 120.385 156.771 120.494 156.682 120.584C156.604 120.661 156.502 120.7 156.373 120.7H155.351ZM161.336 120.7C161.207 120.7 161.098 120.661 161.008 120.584C160.931 120.494 160.893 120.385 160.893 120.256V111.119C160.893 110.99 160.931 110.887 161.008 110.81C161.098 110.72 161.207 110.675 161.336 110.675H162.242C162.371 110.675 162.473 110.72 162.55 110.81C162.64 110.887 162.685 110.99 162.685 111.119V111.967C163.02 111.53 163.437 111.176 163.938 110.906C164.453 110.624 165.108 110.482 165.905 110.482C166.74 110.482 167.447 110.669 168.025 111.041C168.617 111.401 169.06 111.909 169.356 112.564C169.651 113.207 169.799 113.959 169.799 114.82V120.256C169.799 120.385 169.76 120.494 169.683 120.584C169.606 120.661 169.503 120.7 169.375 120.7H168.411C168.282 120.7 168.173 120.661 168.083 120.584C168.006 120.494 167.968 120.385 167.968 120.256V114.916C167.968 114.017 167.749 113.316 167.312 112.815C166.875 112.301 166.233 112.044 165.384 112.044C164.588 112.044 163.945 112.301 163.457 112.815C162.981 113.316 162.743 114.017 162.743 114.916V120.256C162.743 120.385 162.698 120.494 162.608 120.584C162.531 120.661 162.428 120.7 162.3 120.7H161.336ZM177.018 120.892C176.298 120.892 175.681 120.803 175.167 120.623C174.653 120.443 174.235 120.224 173.914 119.967C173.593 119.71 173.348 119.453 173.181 119.196C173.027 118.939 172.943 118.733 172.931 118.579C172.918 118.438 172.963 118.329 173.066 118.251C173.168 118.174 173.271 118.136 173.374 118.136H174.222C174.299 118.136 174.357 118.149 174.396 118.174C174.447 118.187 174.511 118.239 174.589 118.329C174.756 118.508 174.942 118.688 175.148 118.868C175.353 119.048 175.604 119.196 175.899 119.312C176.208 119.427 176.587 119.485 177.037 119.485C177.692 119.485 178.232 119.363 178.656 119.119C179.08 118.862 179.292 118.489 179.292 118.001C179.292 117.679 179.202 117.422 179.022 117.23C178.855 117.037 178.547 116.863 178.097 116.709C177.66 116.555 177.056 116.394 176.285 116.227C175.514 116.047 174.903 115.829 174.454 115.572C174.004 115.302 173.682 114.987 173.49 114.627C173.297 114.254 173.201 113.837 173.201 113.374C173.201 112.899 173.342 112.442 173.625 112.005C173.907 111.556 174.319 111.189 174.858 110.906C175.411 110.624 176.099 110.482 176.921 110.482C177.589 110.482 178.161 110.566 178.637 110.733C179.112 110.9 179.504 111.112 179.813 111.369C180.121 111.613 180.353 111.858 180.507 112.102C180.661 112.346 180.745 112.552 180.757 112.719C180.77 112.847 180.732 112.956 180.642 113.046C180.552 113.123 180.449 113.162 180.333 113.162H179.524C179.434 113.162 179.357 113.143 179.292 113.104C179.241 113.066 179.19 113.021 179.138 112.969C179.01 112.802 178.855 112.635 178.675 112.468C178.508 112.301 178.283 112.166 178.001 112.063C177.731 111.947 177.371 111.89 176.921 111.89C176.279 111.89 175.797 112.025 175.475 112.294C175.154 112.564 174.993 112.905 174.993 113.316C174.993 113.56 175.064 113.779 175.205 113.972C175.347 114.164 175.617 114.338 176.015 114.492C176.414 114.646 177.005 114.813 177.789 114.993C178.637 115.16 179.305 115.385 179.794 115.668C180.282 115.951 180.629 116.279 180.835 116.651C181.04 117.024 181.143 117.455 181.143 117.943C181.143 118.483 180.982 118.978 180.661 119.427C180.353 119.877 179.89 120.237 179.273 120.507C178.669 120.764 177.917 120.892 177.018 120.892ZM184.782 120.7C184.654 120.7 184.544 120.661 184.454 120.584C184.377 120.494 184.339 120.385 184.339 120.256V111.119C184.339 110.99 184.377 110.887 184.454 110.81C184.544 110.72 184.654 110.675 184.782 110.675H185.707C185.836 110.675 185.939 110.72 186.016 110.81C186.093 110.887 186.132 110.99 186.132 111.119V120.256C186.132 120.385 186.093 120.494 186.016 120.584C185.939 120.661 185.836 120.7 185.707 120.7H184.782ZM184.628 108.805C184.499 108.805 184.39 108.767 184.3 108.69C184.223 108.6 184.184 108.49 184.184 108.362V107.321C184.184 107.192 184.223 107.089 184.3 107.012C184.39 106.922 184.499 106.877 184.628 106.877H185.842C185.971 106.877 186.074 106.922 186.151 107.012C186.241 107.089 186.286 107.192 186.286 107.321V108.362C186.286 108.49 186.241 108.6 186.151 108.69C186.074 108.767 185.971 108.805 185.842 108.805H184.628ZM194.078 124.941C193.204 124.941 192.484 124.825 191.919 124.594C191.366 124.363 190.929 124.08 190.608 123.746C190.299 123.424 190.074 123.097 189.933 122.762C189.804 122.441 189.734 122.184 189.721 121.991C189.708 121.863 189.747 121.754 189.837 121.664C189.939 121.574 190.049 121.529 190.164 121.529H191.09C191.205 121.529 191.302 121.554 191.379 121.606C191.456 121.657 191.52 121.766 191.572 121.933C191.649 122.126 191.764 122.338 191.919 122.57C192.073 122.814 192.311 123.019 192.632 123.187C192.953 123.366 193.403 123.456 193.981 123.456C194.585 123.456 195.093 123.373 195.504 123.206C195.916 123.052 196.224 122.769 196.43 122.358C196.648 121.959 196.757 121.407 196.757 120.7V119.389C196.449 119.787 196.044 120.121 195.543 120.391C195.042 120.648 194.412 120.777 193.654 120.777C192.934 120.777 192.317 120.655 191.803 120.411C191.289 120.153 190.865 119.813 190.531 119.389C190.209 118.952 189.965 118.457 189.798 117.904C189.644 117.352 189.554 116.773 189.528 116.169C189.515 115.81 189.515 115.456 189.528 115.109C189.554 114.505 189.644 113.927 189.798 113.374C189.965 112.821 190.209 112.327 190.531 111.89C190.865 111.453 191.289 111.112 191.803 110.868C192.317 110.611 192.934 110.482 193.654 110.482C194.425 110.482 195.061 110.63 195.562 110.926C196.076 111.209 196.494 111.556 196.815 111.967V111.138C196.815 111.009 196.854 110.9 196.931 110.81C197.021 110.72 197.13 110.675 197.259 110.675H198.145C198.274 110.675 198.383 110.72 198.473 110.81C198.563 110.9 198.608 111.009 198.608 111.138V120.488C198.608 121.349 198.46 122.113 198.165 122.782C197.882 123.45 197.406 123.977 196.738 124.363C196.083 124.748 195.196 124.941 194.078 124.941ZM194.039 119.235C194.682 119.235 195.196 119.087 195.581 118.791C195.98 118.496 196.269 118.123 196.449 117.673C196.642 117.223 196.744 116.767 196.757 116.304C196.77 116.124 196.777 115.906 196.777 115.649C196.777 115.379 196.77 115.154 196.757 114.974C196.744 114.511 196.642 114.055 196.449 113.605C196.269 113.156 195.98 112.783 195.581 112.487C195.196 112.192 194.682 112.044 194.039 112.044C193.397 112.044 192.882 112.192 192.497 112.487C192.111 112.77 191.835 113.149 191.668 113.625C191.501 114.087 191.404 114.589 191.379 115.128C191.366 115.463 191.366 115.803 191.379 116.15C191.404 116.69 191.501 117.198 191.668 117.673C191.835 118.136 192.111 118.515 192.497 118.81C192.882 119.093 193.397 119.235 194.039 119.235ZM202.901 120.7C202.772 120.7 202.663 120.661 202.573 120.584C202.496 120.494 202.457 120.385 202.457 120.256V107.456C202.457 107.327 202.496 107.224 202.573 107.147C202.663 107.057 202.772 107.012 202.901 107.012H203.865C204.006 107.012 204.115 107.057 204.192 107.147C204.27 107.224 204.308 107.327 204.308 107.456V111.947C204.655 111.511 205.079 111.157 205.58 110.887C206.082 110.617 206.718 110.482 207.489 110.482C208.324 110.482 209.031 110.669 209.61 111.041C210.201 111.401 210.644 111.909 210.94 112.564C211.248 113.207 211.402 113.959 211.402 114.82V120.256C211.402 120.385 211.364 120.494 211.287 120.584C211.21 120.661 211.1 120.7 210.959 120.7H209.995C209.867 120.7 209.757 120.661 209.667 120.584C209.59 120.494 209.552 120.385 209.552 120.256V114.916C209.552 114.017 209.333 113.316 208.896 112.815C208.459 112.301 207.817 112.044 206.968 112.044C206.172 112.044 205.529 112.301 205.041 112.815C204.552 113.316 204.308 114.017 204.308 114.916V120.256C204.308 120.385 204.27 120.494 204.192 120.584C204.115 120.661 204.006 120.7 203.865 120.7H202.901ZM218.931 120.7C218.212 120.7 217.627 120.565 217.177 120.295C216.727 120.012 216.399 119.62 216.194 119.119C215.988 118.605 215.885 118.001 215.885 117.307V112.217H214.382C214.253 112.217 214.144 112.179 214.054 112.102C213.977 112.012 213.938 111.903 213.938 111.774V111.119C213.938 110.99 213.977 110.887 214.054 110.81C214.144 110.72 214.253 110.675 214.382 110.675H215.885V107.456C215.885 107.327 215.924 107.224 216.001 107.147C216.091 107.057 216.2 107.012 216.329 107.012H217.235C217.363 107.012 217.466 107.057 217.543 107.147C217.633 107.224 217.678 107.327 217.678 107.456V110.675H220.069C220.197 110.675 220.3 110.72 220.377 110.81C220.467 110.887 220.512 110.99 220.512 111.119V111.774C220.512 111.903 220.467 112.012 220.377 112.102C220.3 112.179 220.197 112.217 220.069 112.217H217.678V117.172C217.678 117.776 217.781 118.251 217.987 118.598C218.192 118.945 218.559 119.119 219.085 119.119H220.261C220.39 119.119 220.493 119.164 220.57 119.254C220.66 119.331 220.705 119.434 220.705 119.562V120.256C220.705 120.385 220.66 120.494 220.57 120.584C220.493 120.661 220.39 120.7 220.261 120.7H218.931ZM226.982 120.892C226.263 120.892 225.646 120.803 225.132 120.623C224.617 120.443 224.2 120.224 223.878 119.967C223.557 119.71 223.313 119.453 223.146 119.196C222.992 118.939 222.908 118.733 222.895 118.579C222.882 118.438 222.927 118.329 223.03 118.251C223.133 118.174 223.236 118.136 223.339 118.136H224.187C224.264 118.136 224.322 118.149 224.36 118.174C224.412 118.187 224.476 118.239 224.553 118.329C224.72 118.508 224.907 118.688 225.112 118.868C225.318 119.048 225.569 119.196 225.864 119.312C226.173 119.427 226.552 119.485 227.001 119.485C227.657 119.485 228.197 119.363 228.621 119.119C229.045 118.862 229.257 118.489 229.257 118.001C229.257 117.679 229.167 117.422 228.987 117.23C228.82 117.037 228.512 116.863 228.062 116.709C227.625 116.555 227.021 116.394 226.25 116.227C225.479 116.047 224.868 115.829 224.418 115.572C223.968 115.302 223.647 114.987 223.454 114.627C223.262 114.254 223.165 113.837 223.165 113.374C223.165 112.899 223.307 112.442 223.589 112.005C223.872 111.556 224.283 111.189 224.823 110.906C225.376 110.624 226.063 110.482 226.886 110.482C227.554 110.482 228.126 110.566 228.602 110.733C229.077 110.9 229.469 111.112 229.778 111.369C230.086 111.613 230.317 111.858 230.472 112.102C230.626 112.346 230.709 112.552 230.722 112.719C230.735 112.847 230.696 112.956 230.606 113.046C230.517 113.123 230.414 113.162 230.298 113.162H229.488C229.398 113.162 229.321 113.143 229.257 113.104C229.206 113.066 229.154 113.021 229.103 112.969C228.974 112.802 228.82 112.635 228.64 112.468C228.473 112.301 228.248 112.166 227.965 112.063C227.696 111.947 227.336 111.89 226.886 111.89C226.243 111.89 225.761 112.025 225.44 112.294C225.119 112.564 224.958 112.905 224.958 113.316C224.958 113.56 225.029 113.779 225.17 113.972C225.311 114.164 225.581 114.338 225.98 114.492C226.378 114.646 226.969 114.813 227.753 114.993C228.602 115.16 229.27 115.385 229.758 115.668C230.247 115.951 230.594 116.279 230.799 116.651C231.005 117.024 231.108 117.455 231.108 117.943C231.108 118.483 230.947 118.978 230.626 119.427C230.317 119.877 229.855 120.237 229.238 120.507C228.634 120.764 227.882 120.892 226.982 120.892Z" fill="#A4A4A4"/>
</g>
<defs>
<filter id="filter0_d_38_1165" x="0" y="0" width="441.4" height="176" filterUnits="userSpaceOnUse" color-interpolation-filters="sRGB">
<feFlood flood-opacity="0" result="BackgroundImageFix"/>
<feColorMatrix in="SourceAlpha" type="matrix" values="0 0 0 0 0 0 0 0 0 0 0 0 0 0 0 0 0 0 127 0" result="hardAlpha"/>
<feOffset/>
<feGaussianBlur stdDeviation="10"/>
<feComposite in2="hardAlpha" operator="out"/>
<feColorMatrix type="matrix" values="0 0 0 0 0 0 0 0 0 0 0 0 0 0 0 0 0 0 0.04 0"/>
<feBlend mode="normal" in2="BackgroundImageFix" result="effect1_dropShadow_38_1165"/>
<feBlend mode="normal" in="SourceGraphic" in2="effect1_dropShadow_38_1165" result="shape"/>
</filter>
<clipPath id="clip0_38_1165">
<rect width="18.517" height="42.5194" fill="white" transform="translate(74.2412 92.9399)"/>
</clipPath>
<clipPath id="clip1_38_1165">
<rect width="18.517" height="18.5194" fill="white" transform="translate(74.2412 104.94)"/>
</clipPath>
</defs>
</svg>
