<svg width="161" height="30" viewBox="0 0 161 30" fill="none" xmlns="http://www.w3.org/2000/svg">
<path d="M17.7964 23.198C16.8431 23.198 15.9851 23.0293 15.2224 22.692C14.4744 22.34 13.8804 21.8707 13.4404 21.284C13.0004 20.6827 12.7658 20.0153 12.7364 19.282H15.3324C15.3764 19.7953 15.6184 20.228 16.0584 20.58C16.5131 20.9173 17.0778 21.086 17.7524 21.086C18.4564 21.086 18.9991 20.954 19.3804 20.69C19.7764 20.4113 19.9744 20.0593 19.9744 19.634C19.9744 19.1793 19.7544 18.842 19.3144 18.622C18.8891 18.402 18.2071 18.16 17.2684 17.896C16.3591 17.6467 15.6184 17.4047 15.0464 17.17C14.4744 16.9353 13.9758 16.576 13.5504 16.092C13.1398 15.608 12.9344 14.97 12.9344 14.178C12.9344 13.5327 13.1251 12.946 13.5064 12.418C13.8878 11.8753 14.4304 11.45 15.1344 11.142C15.8531 10.834 16.6744 10.68 17.5984 10.68C18.9771 10.68 20.0844 11.032 20.9204 11.736C21.7711 12.4253 22.2258 13.3713 22.2844 14.574H19.7764C19.7324 14.0313 19.5124 13.5987 19.1164 13.276C18.7204 12.9533 18.1851 12.792 17.5104 12.792C16.8504 12.792 16.3444 12.9167 15.9924 13.166C15.6404 13.4153 15.4644 13.7453 15.4644 14.156C15.4644 14.4787 15.5818 14.75 15.8164 14.97C16.0511 15.19 16.3371 15.366 16.6744 15.498C17.0118 15.6153 17.5104 15.7693 18.1704 15.96C19.0504 16.1947 19.7691 16.4367 20.3264 16.686C20.8984 16.9207 21.3898 17.2727 21.8004 17.742C22.2111 18.2113 22.4238 18.8347 22.4384 19.612C22.4384 20.3013 22.2478 20.9173 21.8664 21.46C21.4851 22.0027 20.9424 22.428 20.2384 22.736C19.5491 23.044 18.7351 23.198 17.7964 23.198ZM23.8724 16.928C23.8724 15.6813 24.1217 14.5887 24.6204 13.65C25.1337 12.6967 25.8377 11.9633 26.7324 11.45C27.6271 10.9367 28.6537 10.68 29.8124 10.68C31.2791 10.68 32.4891 11.032 33.4424 11.736C34.4104 12.4253 35.0631 13.4153 35.4004 14.706H32.6944C32.4744 14.1047 32.1224 13.6353 31.6384 13.298C31.1544 12.9607 30.5457 12.792 29.8124 12.792C28.7857 12.792 27.9644 13.1587 27.3484 13.892C26.7471 14.6107 26.4464 15.6227 26.4464 16.928C26.4464 18.2333 26.7471 19.2527 27.3484 19.986C27.9644 20.7193 28.7857 21.086 29.8124 21.086C31.2644 21.086 32.2251 20.448 32.6944 19.172H35.4004C35.0484 20.404 34.3884 21.3867 33.4204 22.12C32.4524 22.8387 31.2497 23.198 29.8124 23.198C28.6537 23.198 27.6271 22.9413 26.7324 22.428C25.8377 21.9 25.1337 21.1667 24.6204 20.228C24.1217 19.2747 23.8724 18.1747 23.8724 16.928ZM39.9678 12.638C40.3345 12.022 40.8185 11.5453 41.4198 11.208C42.0358 10.856 42.7618 10.68 43.5978 10.68V13.276H42.9598C41.9771 13.276 41.2291 13.5253 40.7158 14.024C40.2171 14.5227 39.9678 15.388 39.9678 16.62V23H37.4598V10.878H39.9678V12.638ZM50.7212 23.198C49.5772 23.198 48.5432 22.9413 47.6192 22.428C46.6952 21.9 45.9692 21.1667 45.4412 20.228C44.9132 19.2747 44.6492 18.1747 44.6492 16.928C44.6492 15.696 44.9205 14.6033 45.4632 13.65C46.0058 12.6967 46.7465 11.9633 47.6852 11.45C48.6238 10.9367 49.6725 10.68 50.8312 10.68C51.9898 10.68 53.0385 10.9367 53.9772 11.45C54.9158 11.9633 55.6565 12.6967 56.1992 13.65C56.7418 14.6033 57.0132 15.696 57.0132 16.928C57.0132 18.16 56.7345 19.2527 56.1772 20.206C55.6198 21.1593 54.8572 21.9 53.8892 22.428C52.9358 22.9413 51.8798 23.198 50.7212 23.198ZM50.7212 21.02C51.3665 21.02 51.9678 20.866 52.5252 20.558C53.0972 20.25 53.5592 19.788 53.9112 19.172C54.2632 18.556 54.4392 17.808 54.4392 16.928C54.4392 16.048 54.2705 15.3073 53.9332 14.706C53.5958 14.09 53.1485 13.628 52.5912 13.32C52.0338 13.012 51.4325 12.858 50.7872 12.858C50.1418 12.858 49.5405 13.012 48.9832 13.32C48.4405 13.628 48.0078 14.09 47.6852 14.706C47.3625 15.3073 47.2012 16.048 47.2012 16.928C47.2012 18.2333 47.5312 19.2453 48.1912 19.964C48.8658 20.668 49.7092 21.02 50.7212 21.02ZM61.5605 6.72V23H59.0525V6.72H61.5605ZM66.9212 6.72V23H64.4132V6.72H66.9212ZM77.9749 12.924V19.634C77.9749 20.0887 78.0775 20.4187 78.2829 20.624C78.5029 20.8147 78.8695 20.91 79.3829 20.91H80.9229V23H78.9429C77.8135 23 76.9482 22.736 76.3469 22.208C75.7455 21.68 75.4449 20.822 75.4449 19.634V12.924H74.0149V10.878H75.4449V7.864H77.9749V10.878H80.9229V12.924H77.9749ZM88.0524 23.198C86.9084 23.198 85.8744 22.9413 84.9504 22.428C84.0264 21.9 83.3004 21.1667 82.7724 20.228C82.2444 19.2747 81.9804 18.1747 81.9804 16.928C81.9804 15.696 82.2518 14.6033 82.7944 13.65C83.3371 12.6967 84.0778 11.9633 85.0164 11.45C85.9551 10.9367 87.0038 10.68 88.1624 10.68C89.3211 10.68 90.3698 10.9367 91.3084 11.45C92.2471 11.9633 92.9878 12.6967 93.5304 13.65C94.0731 14.6033 94.3444 15.696 94.3444 16.928C94.3444 18.16 94.0658 19.2527 93.5084 20.206C92.9511 21.1593 92.1884 21.9 91.2204 22.428C90.2671 22.9413 89.2111 23.198 88.0524 23.198ZM88.0524 21.02C88.6978 21.02 89.2991 20.866 89.8564 20.558C90.4284 20.25 90.8904 19.788 91.2424 19.172C91.5944 18.556 91.7704 17.808 91.7704 16.928C91.7704 16.048 91.6018 15.3073 91.2644 14.706C90.9271 14.09 90.4798 13.628 89.9224 13.32C89.3651 13.012 88.7638 12.858 88.1184 12.858C87.4731 12.858 86.8718 13.012 86.3144 13.32C85.7718 13.628 85.3391 14.09 85.0164 14.706C84.6938 15.3073 84.5324 16.048 84.5324 16.928C84.5324 18.2333 84.8624 19.2453 85.5224 19.964C86.1971 20.668 87.0404 21.02 88.0524 21.02ZM104.585 12.924V19.634C104.585 20.0887 104.687 20.4187 104.893 20.624C105.113 20.8147 105.479 20.91 105.993 20.91H107.533V23H105.553C104.423 23 103.558 22.736 102.957 22.208C102.355 21.68 102.055 20.822 102.055 19.634V12.924H100.625V10.878H102.055V7.864H104.585V10.878H107.533V12.924H104.585ZM114.662 23.198C113.518 23.198 112.484 22.9413 111.56 22.428C110.636 21.9 109.91 21.1667 109.382 20.228C108.854 19.2747 108.59 18.1747 108.59 16.928C108.59 15.696 108.861 14.6033 109.404 13.65C109.947 12.6967 110.687 11.9633 111.626 11.45C112.565 10.9367 113.613 10.68 114.772 10.68C115.931 10.68 116.979 10.9367 117.918 11.45C118.857 11.9633 119.597 12.6967 120.14 13.65C120.683 14.6033 120.954 15.696 120.954 16.928C120.954 18.16 120.675 19.2527 120.118 20.206C119.561 21.1593 118.798 21.9 117.83 22.428C116.877 22.9413 115.821 23.198 114.662 23.198ZM114.662 21.02C115.307 21.02 115.909 20.866 116.466 20.558C117.038 20.25 117.5 19.788 117.852 19.172C118.204 18.556 118.38 17.808 118.38 16.928C118.38 16.048 118.211 15.3073 117.874 14.706C117.537 14.09 117.089 13.628 116.532 13.32C115.975 13.012 115.373 12.858 114.728 12.858C114.083 12.858 113.481 13.012 112.924 13.32C112.381 13.628 111.949 14.09 111.626 14.706C111.303 15.3073 111.142 16.048 111.142 16.928C111.142 18.2333 111.472 19.2453 112.132 19.964C112.807 20.668 113.65 21.02 114.662 21.02ZM125.501 12.66C125.927 12.1027 126.506 11.6333 127.239 11.252C127.973 10.8707 128.801 10.68 129.725 10.68C130.781 10.68 131.742 10.944 132.607 11.472C133.487 11.9853 134.177 12.7113 134.675 13.65C135.174 14.5887 135.423 15.6667 135.423 16.884C135.423 18.1013 135.174 19.194 134.675 20.162C134.177 21.1153 133.487 21.8633 132.607 22.406C131.742 22.934 130.781 23.198 129.725 23.198C128.801 23.198 127.98 23.0147 127.261 22.648C126.543 22.2667 125.956 21.7973 125.501 21.24V28.764H122.993V10.878H125.501V12.66ZM132.871 16.884C132.871 16.048 132.695 15.3293 132.343 14.728C132.006 14.112 131.551 13.65 130.979 13.342C130.422 13.0193 129.821 12.858 129.175 12.858C128.545 12.858 127.943 13.0193 127.371 13.342C126.814 13.6647 126.359 14.134 126.007 14.75C125.67 15.366 125.501 16.092 125.501 16.928C125.501 17.764 125.67 18.4973 126.007 19.128C126.359 19.744 126.814 20.2133 127.371 20.536C127.943 20.8587 128.545 21.02 129.175 21.02C129.821 21.02 130.422 20.8587 130.979 20.536C131.551 20.1987 132.006 19.7147 132.343 19.084C132.695 18.4533 132.871 17.72 132.871 16.884Z" fill="black"/>
<path fill-rule="evenodd" clip-rule="evenodd" d="M148.383 12.6623C147.842 12.1115 147.879 11.2529 148.465 10.7445L153.52 6.35992C154.074 5.88003 154.926 5.88003 155.48 6.35991L160.535 10.7445C161.121 11.2529 161.158 12.1115 160.617 12.6623C160.076 13.213 159.162 13.2474 158.576 12.739L155.944 10.4568L155.944 23.6429C155.944 24.3924 155.298 25 154.5 25C153.702 25 153.056 24.3924 153.056 23.6429L153.056 10.4569L150.424 12.739C149.838 13.2474 148.924 13.213 148.383 12.6623Z" fill="black"/>
</svg>
