<svg width="301" height="25" viewBox="0 0 301 25" fill="none" xmlns="http://www.w3.org/2000/svg">
<path d="M6.82288 19.154C5.81088 19.154 4.90154 18.978 4.09488 18.626C3.30288 18.2593 2.67954 17.7607 2.22488 17.13C1.77021 16.4847 1.53554 15.744 1.52088 14.908H3.65488C3.72821 15.6267 4.02154 16.2353 4.53488 16.734C5.06288 17.218 5.82554 17.46 6.82288 17.46C7.77621 17.46 8.52421 17.2253 9.06688 16.756C9.62421 16.272 9.90288 15.656 9.90288 14.908C9.90288 14.3213 9.74154 13.8447 9.41888 13.478C9.09621 13.1113 8.69288 12.8327 8.20888 12.642C7.72488 12.4513 7.07221 12.246 6.25088 12.026C5.23888 11.762 4.42488 11.498 3.80888 11.234C3.20754 10.97 2.68688 10.5593 2.24688 10.002C1.82154 9.43 1.60888 8.66733 1.60888 7.714C1.60888 6.878 1.82154 6.13733 2.24688 5.492C2.67221 4.84667 3.26621 4.348 4.02888 3.996C4.80621 3.644 5.69354 3.468 6.69088 3.468C8.12821 3.468 9.30154 3.82733 10.2109 4.546C11.1349 5.26467 11.6555 6.218 11.7729 7.406H9.57288C9.49954 6.81933 9.19154 6.306 8.64888 5.866C8.10621 5.41133 7.38754 5.184 6.49288 5.184C5.65688 5.184 4.97488 5.404 4.44688 5.844C3.91888 6.26933 3.65488 6.87067 3.65488 7.648C3.65488 8.20533 3.80888 8.66 4.11688 9.012C4.43954 9.364 4.82821 9.63533 5.28288 9.826C5.75221 10.002 6.40488 10.2073 7.24088 10.442C8.25288 10.7207 9.06688 10.9993 9.68288 11.278C10.2989 11.542 10.8269 11.96 11.2669 12.532C11.7069 13.0893 11.9269 13.852 11.9269 14.82C11.9269 15.568 11.7289 16.272 11.3329 16.932C10.9369 17.592 10.3502 18.1273 9.57288 18.538C8.79554 18.9487 7.87888 19.154 6.82288 19.154ZM13.685 12.95C13.685 11.7033 13.9343 10.618 14.433 9.694C14.9317 8.75533 15.621 8.02933 16.501 7.516C17.3957 7.00267 18.415 6.746 19.559 6.746C21.0403 6.746 22.2577 7.10533 23.211 7.824C24.179 8.54267 24.817 9.54 25.125 10.816H22.969C22.7637 10.0827 22.3603 9.50333 21.759 9.078C21.1723 8.65267 20.439 8.44 19.559 8.44C18.415 8.44 17.491 8.836 16.787 9.628C16.083 10.4053 15.731 11.5127 15.731 12.95C15.731 14.402 16.083 15.524 16.787 16.316C17.491 17.108 18.415 17.504 19.559 17.504C20.439 17.504 21.1723 17.2987 21.759 16.888C22.3457 16.4773 22.749 15.8907 22.969 15.128H25.125C24.8023 16.36 24.157 17.35 23.189 18.098C22.221 18.8313 21.011 19.198 19.559 19.198C18.415 19.198 17.3957 18.9413 16.501 18.428C15.621 17.9147 14.9317 17.1887 14.433 16.25C13.9343 15.3113 13.685 14.2113 13.685 12.95ZM29.3583 8.902C29.7103 8.21267 30.2089 7.67733 30.8543 7.296C31.5143 6.91467 32.3136 6.724 33.2523 6.724V8.792H32.7243C30.4803 8.792 29.3583 10.0093 29.3583 12.444V19H27.3563V6.944H29.3583V8.902ZM40.3813 19.198C39.252 19.198 38.2253 18.9413 37.3013 18.428C36.392 17.9147 35.6733 17.1887 35.1453 16.25C34.632 15.2967 34.3753 14.1967 34.3753 12.95C34.3753 11.718 34.6393 10.6327 35.1673 9.694C35.71 8.74067 36.4433 8.01467 37.3673 7.516C38.2913 7.00267 39.3253 6.746 40.4693 6.746C41.6133 6.746 42.6473 7.00267 43.5713 7.516C44.4953 8.01467 45.2213 8.73333 45.7493 9.672C46.292 10.6107 46.5633 11.7033 46.5633 12.95C46.5633 14.1967 46.2846 15.2967 45.7273 16.25C45.1846 17.1887 44.444 17.9147 43.5053 18.428C42.5666 18.9413 41.5253 19.198 40.3813 19.198ZM40.3813 17.438C41.1 17.438 41.7746 17.2693 42.4053 16.932C43.036 16.5947 43.542 16.0887 43.9233 15.414C44.3193 14.7393 44.5173 13.918 44.5173 12.95C44.5173 11.982 44.3266 11.1607 43.9453 10.486C43.564 9.81133 43.0653 9.31267 42.4493 8.99C41.8333 8.65267 41.166 8.484 40.4473 8.484C39.714 8.484 39.0393 8.65267 38.4233 8.99C37.822 9.31267 37.338 9.81133 36.9713 10.486C36.6046 11.1607 36.4213 11.982 36.4213 12.95C36.4213 13.9327 36.5973 14.7613 36.9493 15.436C37.316 16.1107 37.8 16.6167 38.4013 16.954C39.0026 17.2767 39.6626 17.438 40.3813 17.438ZM50.7576 2.72V19H48.7556V2.72H50.7576ZM55.7316 2.72V19H53.7296V2.72H55.7316ZM69.0349 8.594H66.5049V19H64.5029V8.594H62.9409V6.944H64.5029V6.086C64.5029 4.73667 64.8476 3.754 65.5369 3.138C66.2409 2.50733 67.3629 2.192 68.9029 2.192V3.864C68.0229 3.864 67.3996 4.04 67.0329 4.392C66.6809 4.72933 66.5049 5.294 66.5049 6.086V6.944H69.0349V8.594ZM76.1872 19.198C75.0578 19.198 74.0312 18.9413 73.1072 18.428C72.1978 17.9147 71.4792 17.1887 70.9512 16.25C70.4378 15.2967 70.1812 14.1967 70.1812 12.95C70.1812 11.718 70.4452 10.6327 70.9732 9.694C71.5158 8.74067 72.2492 8.01467 73.1732 7.516C74.0972 7.00267 75.1312 6.746 76.2752 6.746C77.4192 6.746 78.4532 7.00267 79.3772 7.516C80.3012 8.01467 81.0272 8.73333 81.5552 9.672C82.0978 10.6107 82.3692 11.7033 82.3692 12.95C82.3692 14.1967 82.0905 15.2967 81.5332 16.25C80.9905 17.1887 80.2498 17.9147 79.3112 18.428C78.3725 18.9413 77.3312 19.198 76.1872 19.198ZM76.1872 17.438C76.9058 17.438 77.5805 17.2693 78.2112 16.932C78.8418 16.5947 79.3478 16.0887 79.7292 15.414C80.1252 14.7393 80.3232 13.918 80.3232 12.95C80.3232 11.982 80.1325 11.1607 79.7512 10.486C79.3698 9.81133 78.8712 9.31267 78.2552 8.99C77.6392 8.65267 76.9718 8.484 76.2532 8.484C75.5198 8.484 74.8452 8.65267 74.2292 8.99C73.6278 9.31267 73.1438 9.81133 72.7772 10.486C72.4105 11.1607 72.2272 11.982 72.2272 12.95C72.2272 13.9327 72.4032 14.7613 72.7552 15.436C73.1218 16.1107 73.6058 16.6167 74.2072 16.954C74.8085 17.2767 75.4685 17.438 76.1872 17.438ZM86.5634 8.902C86.9154 8.21267 87.4141 7.67733 88.0594 7.296C88.7194 6.91467 89.5188 6.724 90.4574 6.724V8.792H89.9294C87.6854 8.792 86.5634 10.0093 86.5634 12.444V19H84.5614V6.944H86.5634V8.902ZM108.006 8.154C108.006 9.43 107.566 10.4933 106.686 11.344C105.82 12.18 104.493 12.598 102.704 12.598H99.7557V19H97.7537V3.666H102.704C104.434 3.666 105.747 4.084 106.642 4.92C107.551 5.756 108.006 6.834 108.006 8.154ZM102.704 10.948C103.818 10.948 104.64 10.706 105.168 10.222C105.696 9.738 105.96 9.04867 105.96 8.154C105.96 6.262 104.874 5.316 102.704 5.316H99.7557V10.948H102.704ZM112.056 8.902C112.408 8.21267 112.907 7.67733 113.552 7.296C114.212 6.91467 115.011 6.724 115.95 6.724V8.792H115.422C113.178 8.792 112.056 10.0093 112.056 12.444V19H110.054V6.944H112.056V8.902ZM123.079 19.198C121.95 19.198 120.923 18.9413 119.999 18.428C119.09 17.9147 118.371 17.1887 117.843 16.25C117.33 15.2967 117.073 14.1967 117.073 12.95C117.073 11.718 117.337 10.6327 117.865 9.694C118.408 8.74067 119.141 8.01467 120.065 7.516C120.989 7.00267 122.023 6.746 123.167 6.746C124.311 6.746 125.345 7.00267 126.269 7.516C127.193 8.01467 127.919 8.73333 128.447 9.672C128.99 10.6107 129.261 11.7033 129.261 12.95C129.261 14.1967 128.982 15.2967 128.425 16.25C127.882 17.1887 127.142 17.9147 126.203 18.428C125.264 18.9413 124.223 19.198 123.079 19.198ZM123.079 17.438C123.798 17.438 124.472 17.2693 125.103 16.932C125.734 16.5947 126.24 16.0887 126.621 15.414C127.017 14.7393 127.215 13.918 127.215 12.95C127.215 11.982 127.024 11.1607 126.643 10.486C126.262 9.81133 125.763 9.31267 125.147 8.99C124.531 8.65267 123.864 8.484 123.145 8.484C122.412 8.484 121.737 8.65267 121.121 8.99C120.52 9.31267 120.036 9.81133 119.669 10.486C119.302 11.1607 119.119 11.982 119.119 12.95C119.119 13.9327 119.295 14.7613 119.647 15.436C120.014 16.1107 120.498 16.6167 121.099 16.954C121.7 17.2767 122.36 17.438 123.079 17.438ZM132.531 4.986C132.15 4.986 131.827 4.854 131.563 4.59C131.314 4.326 131.189 4.00333 131.189 3.622C131.189 3.24067 131.314 2.918 131.563 2.654C131.827 2.39 132.15 2.258 132.531 2.258C132.913 2.258 133.228 2.39 133.477 2.654C133.741 2.918 133.873 3.24067 133.873 3.622C133.873 4.00333 133.741 4.326 133.477 4.59C133.228 4.854 132.913 4.986 132.531 4.986ZM133.521 21.618C133.521 22.6887 133.25 23.4733 132.707 23.972C132.165 24.4707 131.373 24.72 130.331 24.72H129.165V23.026H130.001C130.559 23.026 130.947 22.916 131.167 22.696C131.402 22.476 131.519 22.102 131.519 21.574V6.944H133.521V21.618ZM147.47 12.51C147.47 12.8913 147.448 13.2947 147.404 13.72H137.768C137.842 14.908 138.245 15.8393 138.978 16.514C139.726 17.174 140.628 17.504 141.684 17.504C142.55 17.504 143.268 17.306 143.84 16.91C144.427 16.4993 144.838 15.9567 145.072 15.282H147.228C146.906 16.4407 146.26 17.3867 145.292 18.12C144.324 18.8387 143.122 19.198 141.684 19.198C140.54 19.198 139.514 18.9413 138.604 18.428C137.71 17.9147 137.006 17.1887 136.492 16.25C135.979 15.2967 135.722 14.1967 135.722 12.95C135.722 11.7033 135.972 10.6107 136.47 9.672C136.969 8.73333 137.666 8.01467 138.56 7.516C139.47 7.00267 140.511 6.746 141.684 6.746C142.828 6.746 143.84 6.99533 144.72 7.494C145.6 7.99267 146.275 8.682 146.744 9.562C147.228 10.4273 147.47 11.41 147.47 12.51ZM145.402 12.092C145.402 11.3293 145.234 10.6767 144.896 10.134C144.559 9.57667 144.097 9.15867 143.51 8.88C142.938 8.58667 142.3 8.44 141.596 8.44C140.584 8.44 139.719 8.76267 139 9.408C138.296 10.0533 137.893 10.948 137.79 12.092H145.402ZM148.925 12.95C148.925 11.7033 149.174 10.618 149.673 9.694C150.172 8.75533 150.861 8.02933 151.741 7.516C152.636 7.00267 153.655 6.746 154.799 6.746C156.28 6.746 157.498 7.10533 158.451 7.824C159.419 8.54267 160.057 9.54 160.365 10.816H158.209C158.004 10.0827 157.6 9.50333 156.999 9.078C156.412 8.65267 155.679 8.44 154.799 8.44C153.655 8.44 152.731 8.836 152.027 9.628C151.323 10.4053 150.971 11.5127 150.971 12.95C150.971 14.402 151.323 15.524 152.027 16.316C152.731 17.108 153.655 17.504 154.799 17.504C155.679 17.504 156.412 17.2987 156.999 16.888C157.586 16.4773 157.989 15.8907 158.209 15.128H160.365C160.042 16.36 159.397 17.35 158.429 18.098C157.461 18.8313 156.251 19.198 154.799 19.198C153.655 19.198 152.636 18.9413 151.741 18.428C150.861 17.9147 150.172 17.1887 149.673 16.25C149.174 15.3113 148.925 14.2113 148.925 12.95ZM165.038 8.594V15.7C165.038 16.2867 165.163 16.7047 165.412 16.954C165.661 17.1887 166.094 17.306 166.71 17.306H168.184V19H166.38C165.265 19 164.429 18.7433 163.872 18.23C163.315 17.7167 163.036 16.8733 163.036 15.7V8.594H161.474V6.944H163.036V3.908H165.038V6.944H168.184V8.594H165.038ZM182.547 19.154C181.124 19.154 179.826 18.824 178.653 18.164C177.48 17.4893 176.548 16.558 175.859 15.37C175.184 14.1673 174.847 12.818 174.847 11.322C174.847 9.826 175.184 8.484 175.859 7.296C176.548 6.09333 177.48 5.162 178.653 4.502C179.826 3.82733 181.124 3.49 182.547 3.49C183.984 3.49 185.29 3.82733 186.463 4.502C187.636 5.162 188.56 6.086 189.235 7.274C189.91 8.462 190.247 9.81133 190.247 11.322C190.247 12.8327 189.91 14.182 189.235 15.37C188.56 16.558 187.636 17.4893 186.463 18.164C185.29 18.824 183.984 19.154 182.547 19.154ZM182.547 17.416C183.618 17.416 184.578 17.1667 185.429 16.668C186.294 16.1693 186.969 15.458 187.453 14.534C187.952 13.61 188.201 12.5393 188.201 11.322C188.201 10.09 187.952 9.01933 187.453 8.11C186.969 7.186 186.302 6.47467 185.451 5.976C184.6 5.47733 183.632 5.228 182.547 5.228C181.462 5.228 180.494 5.47733 179.643 5.976C178.792 6.47467 178.118 7.186 177.619 8.11C177.135 9.01933 176.893 10.09 176.893 11.322C176.893 12.5393 177.135 13.61 177.619 14.534C178.118 15.458 178.792 16.1693 179.643 16.668C180.508 17.1667 181.476 17.416 182.547 17.416ZM196.938 17.152L200.678 6.944H202.812L198.082 19H195.75L191.02 6.944H193.176L196.938 17.152ZM215.342 12.51C215.342 12.8913 215.32 13.2947 215.276 13.72H205.64C205.713 14.908 206.117 15.8393 206.85 16.514C207.598 17.174 208.5 17.504 209.556 17.504C210.421 17.504 211.14 17.306 211.712 16.91C212.299 16.4993 212.709 15.9567 212.944 15.282H215.1C214.777 16.4407 214.132 17.3867 213.164 18.12C212.196 18.8387 210.993 19.198 209.556 19.198C208.412 19.198 207.385 18.9413 206.476 18.428C205.581 17.9147 204.877 17.1887 204.364 16.25C203.851 15.2967 203.594 14.1967 203.594 12.95C203.594 11.7033 203.843 10.6107 204.342 9.672C204.841 8.73333 205.537 8.01467 206.432 7.516C207.341 7.00267 208.383 6.746 209.556 6.746C210.7 6.746 211.712 6.99533 212.592 7.494C213.472 7.99267 214.147 8.682 214.616 9.562C215.1 10.4273 215.342 11.41 215.342 12.51ZM213.274 12.092C213.274 11.3293 213.105 10.6767 212.768 10.134C212.431 9.57667 211.969 9.15867 211.382 8.88C210.81 8.58667 210.172 8.44 209.468 8.44C208.456 8.44 207.591 8.76267 206.872 9.408C206.168 10.0533 205.765 10.948 205.662 12.092H213.274ZM219.547 8.902C219.899 8.21267 220.397 7.67733 221.043 7.296C221.703 6.91467 222.502 6.724 223.441 6.724V8.792H222.913C220.669 8.792 219.547 10.0093 219.547 12.444V19H217.545V6.944H219.547V8.902ZM229.8 17.152L233.54 6.944H235.674L230.944 19H228.612L223.882 6.944H226.038L229.8 17.152ZM238.238 4.986C237.856 4.986 237.534 4.854 237.27 4.59C237.006 4.326 236.874 4.00333 236.874 3.622C236.874 3.24067 237.006 2.918 237.27 2.654C237.534 2.39 237.856 2.258 238.238 2.258C238.604 2.258 238.912 2.39 239.162 2.654C239.426 2.918 239.558 3.24067 239.558 3.622C239.558 4.00333 239.426 4.326 239.162 4.59C238.912 4.854 238.604 4.986 238.238 4.986ZM239.206 6.944V19H237.204V6.944H239.206ZM253.178 12.51C253.178 12.8913 253.156 13.2947 253.112 13.72H243.476C243.549 14.908 243.952 15.8393 244.686 16.514C245.434 17.174 246.336 17.504 247.392 17.504C248.257 17.504 248.976 17.306 249.548 16.91C250.134 16.4993 250.545 15.9567 250.78 15.282H252.936C252.613 16.4407 251.968 17.3867 251 18.12C250.032 18.8387 248.829 19.198 247.392 19.198C246.248 19.198 245.221 18.9413 244.312 18.428C243.417 17.9147 242.713 17.1887 242.2 16.25C241.686 15.2967 241.43 14.1967 241.43 12.95C241.43 11.7033 241.679 10.6107 242.178 9.672C242.676 8.73333 243.373 8.01467 244.268 7.516C245.177 7.00267 246.218 6.746 247.392 6.746C248.536 6.746 249.548 6.99533 250.428 7.494C251.308 7.99267 251.982 8.682 252.452 9.562C252.936 10.4273 253.178 11.41 253.178 12.51ZM251.11 12.092C251.11 11.3293 250.941 10.6767 250.604 10.134C250.266 9.57667 249.804 9.15867 249.218 8.88C248.646 8.58667 248.008 8.44 247.304 8.44C246.292 8.44 245.426 8.76267 244.708 9.408C244.004 10.0533 243.6 10.948 243.498 12.092H251.11ZM271.44 6.944L267.678 19H265.61L262.706 9.43L259.802 19H257.734L253.95 6.944H255.996L258.768 17.064L261.76 6.944H263.806L266.732 17.086L269.46 6.944H271.44Z" fill="#6E6F77"/>
<path fill-rule="evenodd" clip-rule="evenodd" d="M300.646 12.9871C301.146 13.5668 301.112 14.4706 300.571 15.0058L295.904 19.6211C295.394 20.1263 294.606 20.1263 294.096 19.6212L289.429 15.0058C288.888 14.4706 288.854 13.5668 289.354 12.9871C289.853 12.4073 290.697 12.3712 291.238 12.9063L293.667 15.3086L293.667 1.42857C293.667 0.639594 294.264 1.70299e-07 295 0C295.736 -1.70299e-07 296.333 0.639593 296.333 1.42857L296.333 15.3086L298.762 12.9063C299.303 12.3712 300.147 12.4073 300.646 12.9871Z" fill="#6E6F77"/>
</svg>
