<svg width="442" height="176" viewBox="0 0 442 176" fill="none" xmlns="http://www.w3.org/2000/svg">
<g filter="url(#filter0_d_38_1145)">
<rect x="20" y="20" width="401.4" height="136" rx="50" fill="white" shape-rendering="crispEdges"/>
<rect x="21.5" y="21.5" width="398.4" height="133" rx="48.5" stroke="#1F95AF" stroke-width="3" shape-rendering="crispEdges"/>
<rect width="264.6" height="32.4" transform="translate(59.5996 43.8)" fill="white"/>
<circle cx="68.5996" cy="60" r="9" fill="#1F95AF"/>
<path d="M102.52 71.024C100.962 71.024 99.5543 70.7574 98.2956 70.224C97.0583 69.6907 96.0769 68.9227 95.3516 67.92C94.6263 66.9174 94.2529 65.7334 94.2316 64.368H99.0316C99.0956 65.2854 99.4156 66.0107 99.9916 66.544C100.589 67.0774 101.4 67.344 102.424 67.344C103.469 67.344 104.29 67.0987 104.888 66.608C105.485 66.096 105.784 65.4347 105.784 64.624C105.784 63.9627 105.581 63.4187 105.176 62.992C104.77 62.5654 104.258 62.2347 103.64 62C103.042 61.744 102.21 61.4667 101.144 61.168C99.6929 60.7414 98.5089 60.3254 97.5916 59.92C96.6956 59.4934 95.9169 58.864 95.2556 58.032C94.6156 57.1787 94.2956 56.048 94.2956 54.64C94.2956 53.3174 94.6263 52.1654 95.2876 51.184C95.9489 50.2027 96.8769 49.456 98.0716 48.944C99.2663 48.4107 100.632 48.144 102.168 48.144C104.472 48.144 106.338 48.7094 107.768 49.84C109.218 50.9494 110.018 52.5067 110.168 54.512H105.24C105.197 53.744 104.866 53.1147 104.248 52.624C103.65 52.112 102.85 51.856 101.848 51.856C100.973 51.856 100.269 52.08 99.7356 52.528C99.2236 52.976 98.9676 53.6267 98.9676 54.48C98.9676 55.0774 99.1596 55.5787 99.5436 55.984C99.9489 56.368 100.44 56.688 101.016 56.944C101.613 57.1787 102.445 57.456 103.512 57.776C104.962 58.2027 106.146 58.6294 107.064 59.056C107.981 59.4827 108.77 60.1227 109.432 60.976C110.093 61.8294 110.424 62.9494 110.424 64.336C110.424 65.5307 110.114 66.64 109.496 67.664C108.877 68.688 107.97 69.5094 106.776 70.128C105.581 70.7254 104.162 71.024 102.52 71.024ZM124.996 71.024C122.905 71.024 120.985 70.5334 119.236 69.552C117.486 68.5707 116.1 67.216 115.076 65.488C114.052 63.7387 113.54 61.7654 113.54 59.568C113.54 57.392 114.052 55.44 115.076 53.712C116.1 51.9627 117.486 50.5974 119.236 49.616C120.985 48.6347 122.905 48.144 124.996 48.144C127.108 48.144 129.028 48.6347 130.756 49.616C132.505 50.5974 133.881 51.9627 134.884 53.712C135.908 55.44 136.42 57.392 136.42 59.568C136.42 61.7654 135.908 63.7387 134.884 65.488C133.881 67.216 132.505 68.5707 130.756 69.552C129.006 70.5334 127.086 71.024 124.996 71.024ZM124.996 67.024C126.34 67.024 127.524 66.7254 128.548 66.128C129.572 65.5094 130.372 64.6347 130.948 63.504C131.524 62.3734 131.812 61.0614 131.812 59.568C131.812 58.0747 131.524 56.7734 130.948 55.664C130.372 54.5334 129.572 53.6694 128.548 53.072C127.524 52.4747 126.34 52.176 124.996 52.176C123.652 52.176 122.457 52.4747 121.412 53.072C120.388 53.6694 119.588 54.5334 119.012 55.664C118.436 56.7734 118.148 58.0747 118.148 59.568C118.148 61.0614 118.436 62.3734 119.012 63.504C119.588 64.6347 120.388 65.5094 121.412 66.128C122.457 66.7254 123.652 67.024 124.996 67.024ZM144.553 67.248H151.913V70.8H140.073V48.464H144.553V67.248ZM159.496 48.464V62.288C159.496 63.8027 159.891 64.9654 160.68 65.776C161.469 66.5654 162.579 66.96 164.008 66.96C165.459 66.96 166.579 66.5654 167.368 65.776C168.157 64.9654 168.552 63.8027 168.552 62.288V48.464H173.064V62.256C173.064 64.1547 172.648 65.7654 171.816 67.088C171.005 68.3894 169.907 69.3707 168.52 70.032C167.155 70.6934 165.629 71.024 163.944 71.024C162.28 71.024 160.765 70.6934 159.4 70.032C158.056 69.3707 156.989 68.3894 156.2 67.088C155.411 65.7654 155.016 64.1547 155.016 62.256V48.464H159.496ZM192.913 48.464V52.08H186.961V70.8H182.481V52.08H176.529V48.464H192.913ZM200.981 48.464V70.8H196.501V48.464H200.981ZM216.096 71.024C214.005 71.024 212.085 70.5334 210.336 69.552C208.586 68.5707 207.2 67.216 206.176 65.488C205.152 63.7387 204.64 61.7654 204.64 59.568C204.64 57.392 205.152 55.44 206.176 53.712C207.2 51.9627 208.586 50.5974 210.336 49.616C212.085 48.6347 214.005 48.144 216.096 48.144C218.208 48.144 220.128 48.6347 221.856 49.616C223.605 50.5974 224.981 51.9627 225.984 53.712C227.008 55.44 227.52 57.392 227.52 59.568C227.52 61.7654 227.008 63.7387 225.984 65.488C224.981 67.216 223.605 68.5707 221.856 69.552C220.106 70.5334 218.186 71.024 216.096 71.024ZM216.096 67.024C217.44 67.024 218.624 66.7254 219.648 66.128C220.672 65.5094 221.472 64.6347 222.048 63.504C222.624 62.3734 222.912 61.0614 222.912 59.568C222.912 58.0747 222.624 56.7734 222.048 55.664C221.472 54.5334 220.672 53.6694 219.648 53.072C218.624 52.4747 217.44 52.176 216.096 52.176C214.752 52.176 213.557 52.4747 212.512 53.072C211.488 53.6694 210.688 54.5334 210.112 55.664C209.536 56.7734 209.248 58.0747 209.248 59.568C209.248 61.0614 209.536 62.3734 210.112 63.504C210.688 64.6347 211.488 65.5094 212.512 66.128C213.557 66.7254 214.752 67.024 216.096 67.024ZM250.277 70.8H245.797L235.653 55.472V70.8H231.173V48.432H235.653L245.797 63.792V48.432H250.277V70.8Z" fill="#3B3C44"/>
<path d="M368.524 58.6438C368.524 59.1667 368.369 59.6779 368.078 60.1127C367.788 60.5475 367.375 60.8863 366.892 61.0864C366.409 61.2865 365.877 61.3389 365.364 61.2369C364.852 61.1349 364.38 60.8831 364.011 60.5133C363.641 60.1436 363.389 59.6725 363.287 59.1596C363.185 58.6468 363.237 58.1152 363.438 57.6321C363.638 57.149 363.977 56.7361 364.411 56.4456C364.846 56.1551 365.357 56 365.88 56C366.581 56 367.254 56.2785 367.75 56.7744C368.245 57.2702 368.524 57.9427 368.524 58.6438ZM354.644 56C354.121 56 353.61 56.1551 353.175 56.4456C352.74 56.7361 352.401 57.149 352.201 57.6321C352.001 58.1152 351.949 58.6468 352.051 59.1596C352.153 59.6725 352.405 60.1436 352.774 60.5133C353.144 60.8831 353.615 61.1349 354.128 61.2369C354.641 61.3389 355.172 61.2865 355.656 61.0864C356.139 60.8863 356.552 60.5475 356.842 60.1127C357.133 59.6779 357.288 59.1667 357.288 58.6438C357.288 57.9427 357.009 57.2702 356.513 56.7744C356.018 56.2785 355.345 56 354.644 56ZM377.116 56C376.594 56 376.082 56.1551 375.648 56.4456C375.213 56.7361 374.874 57.149 374.674 57.6321C374.474 58.1152 374.421 58.6468 374.523 59.1596C374.625 59.6725 374.877 60.1436 375.247 60.5133C375.617 60.8831 376.088 61.1349 376.601 61.2369C377.114 61.3389 377.645 61.2865 378.128 61.0864C378.611 60.8863 379.024 60.5475 379.315 60.1127C379.605 59.6779 379.76 59.1667 379.76 58.6438C379.76 57.9427 379.482 57.2702 378.986 56.7744C378.49 56.2785 377.818 56 377.116 56Z" fill="#3B3C44"/>
<rect width="198" height="36" transform="translate(59.5996 96.2)" fill="white"/>
<rect x="59.8082" y="96.7667" width="172.941" height="34.866" rx="17.433" fill="white"/>
<rect x="59.8082" y="96.7667" width="172.941" height="34.866" rx="17.433" stroke="#D2D2D2" stroke-width="1.134"/>
<g clip-path="url(#clip0_38_1145)">
<g opacity="0.98" clip-path="url(#clip1_38_1145)">
<path fill-rule="evenodd" clip-rule="evenodd" d="M76.1557 106.775C77.07 105.861 78.2349 105.238 79.5031 104.986C80.7713 104.734 82.0858 104.863 83.2804 105.358C84.475 105.853 85.496 106.691 86.2143 107.766C86.9327 108.841 87.316 110.105 87.3159 111.398C87.3159 113.646 86.1981 115.016 85.2744 116.146L85.2371 116.191C84.2994 117.34 83.5803 118.253 83.5803 119.803C83.5803 120.051 83.4819 120.289 83.3068 120.464C83.1316 120.639 82.8941 120.737 82.6464 120.737H78.9108C78.6631 120.737 78.4255 120.639 78.2504 120.464C78.0752 120.289 77.9768 120.051 77.9768 119.803C77.9768 118.298 77.2577 117.363 76.3145 116.184L76.2725 116.132C75.3554 114.986 74.2412 113.595 74.2412 111.398C74.2411 110.54 74.4102 109.69 74.7387 108.896C75.0672 108.103 75.5487 107.382 76.1557 106.775ZM77.9768 122.605C77.9768 122.357 78.0752 122.12 78.2504 121.945C78.4255 121.77 78.6631 121.671 78.9108 121.671H82.6464C82.8941 121.671 83.1316 121.77 83.3068 121.945C83.4819 122.12 83.5803 122.357 83.5803 122.605C83.5803 122.853 83.4819 123.09 83.3068 123.265C83.1316 123.441 82.8941 123.539 82.6464 123.539H78.9108C78.6631 123.539 78.4255 123.441 78.2504 123.265C78.0752 123.09 77.9768 122.853 77.9768 122.605ZM79.458 110.078C79.8082 109.727 80.2832 109.53 80.7786 109.53C81.0263 109.53 81.2638 109.432 81.439 109.257C81.6141 109.082 81.7125 108.844 81.7125 108.596C81.7125 108.349 81.6141 108.111 81.439 107.936C81.2638 107.761 81.0263 107.663 80.7786 107.663C79.7878 107.663 78.8377 108.056 78.1371 108.757C77.4365 109.457 77.0429 110.407 77.0429 111.398C77.0429 111.646 77.1413 111.883 77.3165 112.059C77.4916 112.234 77.7292 112.332 77.9768 112.332C78.2245 112.332 78.4621 112.234 78.6372 112.059C78.8124 111.883 78.9108 111.646 78.9108 111.398C78.9109 110.903 79.1077 110.428 79.458 110.078Z" fill="#A4A4A4"/>
</g>
</g>
<path d="M99.437 120.7C99.2956 120.7 99.1864 120.661 99.1093 120.584C99.0321 120.494 98.9936 120.385 98.9936 120.256V107.668C98.9936 107.526 99.0321 107.417 99.1093 107.34C99.1864 107.25 99.2956 107.205 99.437 107.205H107.302C107.444 107.205 107.553 107.25 107.63 107.34C107.707 107.417 107.746 107.526 107.746 107.668V108.439C107.746 108.58 107.707 108.69 107.63 108.767C107.553 108.844 107.444 108.882 107.302 108.882H100.864V113.374H106.917C107.058 113.374 107.167 113.419 107.245 113.509C107.322 113.586 107.36 113.695 107.36 113.837V114.608C107.36 114.736 107.322 114.846 107.245 114.936C107.167 115.013 107.058 115.051 106.917 115.051H100.864V120.256C100.864 120.385 100.819 120.494 100.729 120.584C100.651 120.661 100.542 120.7 100.401 120.7H99.437ZM111.408 120.7C111.28 120.7 111.171 120.661 111.081 120.584C111.003 120.494 110.965 120.385 110.965 120.256V111.119C110.965 110.99 111.003 110.887 111.081 110.81C111.171 110.72 111.28 110.675 111.408 110.675H112.334C112.462 110.675 112.565 110.72 112.642 110.81C112.719 110.887 112.758 110.99 112.758 111.119V120.256C112.758 120.385 112.719 120.494 112.642 120.584C112.565 120.661 112.462 120.7 112.334 120.7H111.408ZM111.254 108.805C111.126 108.805 111.016 108.767 110.926 108.69C110.849 108.6 110.811 108.49 110.811 108.362V107.321C110.811 107.192 110.849 107.089 110.926 107.012C111.016 106.922 111.126 106.877 111.254 106.877H112.469C112.597 106.877 112.7 106.922 112.777 107.012C112.867 107.089 112.912 107.192 112.912 107.321V108.362C112.912 108.49 112.867 108.6 112.777 108.69C112.7 108.767 112.597 108.805 112.469 108.805H111.254ZM117.041 120.7C116.913 120.7 116.803 120.661 116.713 120.584C116.636 120.494 116.598 120.385 116.598 120.256V111.119C116.598 110.99 116.636 110.887 116.713 110.81C116.803 110.72 116.913 110.675 117.041 110.675H117.947C118.076 110.675 118.179 110.72 118.256 110.81C118.346 110.887 118.391 110.99 118.391 111.119V111.967C118.725 111.53 119.142 111.176 119.644 110.906C120.158 110.624 120.813 110.482 121.61 110.482C122.445 110.482 123.152 110.669 123.731 111.041C124.322 111.401 124.765 111.909 125.061 112.564C125.356 113.207 125.504 113.959 125.504 114.82V120.256C125.504 120.385 125.466 120.494 125.388 120.584C125.311 120.661 125.209 120.7 125.08 120.7H124.116C123.988 120.7 123.878 120.661 123.788 120.584C123.711 120.494 123.673 120.385 123.673 120.256V114.916C123.673 114.017 123.454 113.316 123.017 112.815C122.58 112.301 121.938 112.044 121.089 112.044C120.293 112.044 119.65 112.301 119.162 112.815C118.686 113.316 118.448 114.017 118.448 114.916V120.256C118.448 120.385 118.403 120.494 118.313 120.584C118.236 120.661 118.134 120.7 118.005 120.7H117.041ZM132.048 120.892C131.405 120.892 130.821 120.764 130.294 120.507C129.767 120.25 129.343 119.903 129.021 119.466C128.7 119.029 128.539 118.534 128.539 117.982C128.539 117.095 128.899 116.388 129.619 115.861C130.339 115.334 131.277 114.987 132.434 114.82L135.306 114.415V113.856C135.306 113.239 135.126 112.757 134.766 112.41C134.419 112.063 133.847 111.89 133.05 111.89C132.472 111.89 132.003 112.005 131.643 112.237C131.296 112.468 131.052 112.764 130.911 113.123C130.833 113.316 130.699 113.413 130.506 113.413H129.638C129.497 113.413 129.388 113.374 129.311 113.297C129.246 113.207 129.214 113.104 129.214 112.989C129.214 112.796 129.285 112.558 129.426 112.275C129.58 111.992 129.812 111.716 130.12 111.446C130.429 111.176 130.821 110.951 131.296 110.772C131.785 110.579 132.376 110.482 133.07 110.482C133.841 110.482 134.49 110.585 135.017 110.791C135.544 110.984 135.955 111.247 136.251 111.581C136.559 111.915 136.778 112.294 136.906 112.719C137.047 113.143 137.118 113.573 137.118 114.01V120.256C137.118 120.385 137.073 120.494 136.983 120.584C136.906 120.661 136.803 120.7 136.675 120.7H135.788C135.647 120.7 135.537 120.661 135.46 120.584C135.383 120.494 135.345 120.385 135.345 120.256V119.427C135.177 119.659 134.953 119.89 134.67 120.121C134.387 120.34 134.034 120.526 133.609 120.68C133.185 120.822 132.665 120.892 132.048 120.892ZM132.453 119.447C132.98 119.447 133.462 119.337 133.899 119.119C134.336 118.888 134.676 118.534 134.92 118.059C135.177 117.583 135.306 116.985 135.306 116.266V115.726L133.07 116.054C132.157 116.182 131.47 116.401 131.007 116.709C130.544 117.005 130.313 117.384 130.313 117.847C130.313 118.206 130.416 118.508 130.621 118.753C130.84 118.984 131.11 119.157 131.431 119.273C131.765 119.389 132.106 119.447 132.453 119.447ZM141.316 120.7C141.188 120.7 141.078 120.661 140.988 120.584C140.911 120.494 140.873 120.385 140.873 120.256V107.456C140.873 107.327 140.911 107.224 140.988 107.147C141.078 107.057 141.188 107.012 141.316 107.012H142.222C142.363 107.012 142.473 107.057 142.55 107.147C142.627 107.224 142.665 107.327 142.665 107.456V120.256C142.665 120.385 142.627 120.494 142.55 120.584C142.473 120.661 142.363 120.7 142.222 120.7H141.316ZM152.888 120.7C152.747 120.7 152.638 120.661 152.561 120.584C152.483 120.494 152.445 120.385 152.445 120.256V107.668C152.445 107.526 152.483 107.417 152.561 107.34C152.638 107.25 152.747 107.205 152.888 107.205H157.264C158.588 107.205 159.655 107.404 160.465 107.803C161.274 108.201 161.865 108.792 162.238 109.576C162.611 110.347 162.804 111.298 162.816 112.429C162.829 113.008 162.836 113.515 162.836 113.952C162.836 114.389 162.829 114.891 162.816 115.456C162.791 116.638 162.592 117.622 162.219 118.406C161.859 119.177 161.281 119.755 160.484 120.141C159.7 120.513 158.659 120.7 157.361 120.7H152.888ZM154.334 119.061H157.264C158.151 119.061 158.858 118.939 159.385 118.695C159.912 118.451 160.291 118.059 160.522 117.519C160.767 116.979 160.895 116.266 160.908 115.379C160.934 114.993 160.946 114.659 160.946 114.377C160.946 114.081 160.946 113.792 160.946 113.509C160.946 113.213 160.934 112.879 160.908 112.507C160.882 111.26 160.587 110.341 160.021 109.75C159.456 109.146 158.505 108.844 157.168 108.844H154.334V119.061ZM170.44 120.892C169.116 120.892 168.062 120.488 167.278 119.678C166.494 118.855 166.064 117.737 165.987 116.324C165.974 116.157 165.967 115.944 165.967 115.687C165.967 115.418 165.974 115.199 165.987 115.032C166.038 114.119 166.25 113.323 166.623 112.642C166.996 111.947 167.503 111.414 168.146 111.041C168.801 110.669 169.566 110.482 170.44 110.482C171.417 110.482 172.233 110.688 172.888 111.099C173.557 111.511 174.064 112.095 174.411 112.854C174.758 113.612 174.932 114.499 174.932 115.514V115.842C174.932 115.983 174.887 116.092 174.797 116.169C174.72 116.246 174.617 116.285 174.488 116.285H167.818C167.818 116.298 167.818 116.324 167.818 116.362C167.818 116.401 167.818 116.433 167.818 116.459C167.844 116.985 167.96 117.48 168.165 117.943C168.371 118.393 168.666 118.759 169.052 119.042C169.438 119.325 169.9 119.466 170.44 119.466C170.903 119.466 171.288 119.395 171.597 119.254C171.905 119.112 172.156 118.958 172.348 118.791C172.541 118.611 172.67 118.476 172.734 118.386C172.85 118.219 172.94 118.123 173.004 118.097C173.068 118.059 173.171 118.039 173.312 118.039H174.238C174.366 118.039 174.469 118.078 174.546 118.155C174.636 118.219 174.675 118.316 174.662 118.444C174.649 118.637 174.546 118.875 174.353 119.157C174.161 119.427 173.884 119.697 173.524 119.967C173.165 120.237 172.728 120.462 172.214 120.642C171.699 120.809 171.108 120.892 170.44 120.892ZM167.818 114.955H173.1V114.897C173.1 114.319 172.991 113.805 172.773 113.355C172.567 112.905 172.265 112.552 171.867 112.294C171.468 112.025 170.993 111.89 170.44 111.89C169.887 111.89 169.412 112.025 169.013 112.294C168.628 112.552 168.332 112.905 168.127 113.355C167.921 113.805 167.818 114.319 167.818 114.897V114.955ZM181.671 120.892C180.951 120.892 180.334 120.803 179.82 120.623C179.306 120.443 178.888 120.224 178.567 119.967C178.246 119.71 178.002 119.453 177.834 119.196C177.68 118.939 177.597 118.733 177.584 118.579C177.571 118.438 177.616 118.329 177.719 118.251C177.822 118.174 177.924 118.136 178.027 118.136H178.875C178.953 118.136 179.01 118.149 179.049 118.174C179.1 118.187 179.165 118.239 179.242 118.329C179.409 118.508 179.595 118.688 179.801 118.868C180.006 119.048 180.257 119.196 180.553 119.312C180.861 119.427 181.24 119.485 181.69 119.485C182.345 119.485 182.885 119.363 183.309 119.119C183.733 118.862 183.946 118.489 183.946 118.001C183.946 117.679 183.856 117.422 183.676 117.23C183.509 117.037 183.2 116.863 182.75 116.709C182.313 116.555 181.709 116.394 180.938 116.227C180.167 116.047 179.557 115.829 179.107 115.572C178.657 115.302 178.336 114.987 178.143 114.627C177.95 114.254 177.854 113.837 177.854 113.374C177.854 112.899 177.995 112.442 178.278 112.005C178.561 111.556 178.972 111.189 179.512 110.906C180.064 110.624 180.752 110.482 181.574 110.482C182.243 110.482 182.815 110.566 183.29 110.733C183.766 110.9 184.158 111.112 184.466 111.369C184.775 111.613 185.006 111.858 185.16 112.102C185.314 112.346 185.398 112.552 185.411 112.719C185.424 112.847 185.385 112.956 185.295 113.046C185.205 113.123 185.102 113.162 184.987 113.162H184.177C184.087 113.162 184.01 113.143 183.946 113.104C183.894 113.066 183.843 113.021 183.791 112.969C183.663 112.802 183.509 112.635 183.329 112.468C183.162 112.301 182.937 112.166 182.654 112.063C182.384 111.947 182.024 111.89 181.574 111.89C180.932 111.89 180.45 112.025 180.129 112.294C179.807 112.564 179.647 112.905 179.647 113.316C179.647 113.56 179.717 113.779 179.859 113.972C180 114.164 180.27 114.338 180.668 114.492C181.067 114.646 181.658 114.813 182.442 114.993C183.29 115.16 183.958 115.385 184.447 115.668C184.935 115.951 185.282 116.279 185.488 116.651C185.693 117.024 185.796 117.455 185.796 117.943C185.796 118.483 185.636 118.978 185.314 119.427C185.006 119.877 184.543 120.237 183.926 120.507C183.322 120.764 182.57 120.892 181.671 120.892ZM189.435 120.7C189.307 120.7 189.198 120.661 189.108 120.584C189.03 120.494 188.992 120.385 188.992 120.256V111.119C188.992 110.99 189.03 110.887 189.108 110.81C189.198 110.72 189.307 110.675 189.435 110.675H190.361C190.489 110.675 190.592 110.72 190.669 110.81C190.746 110.887 190.785 110.99 190.785 111.119V120.256C190.785 120.385 190.746 120.494 190.669 120.584C190.592 120.661 190.489 120.7 190.361 120.7H189.435ZM189.281 108.805C189.153 108.805 189.043 108.767 188.953 108.69C188.876 108.6 188.838 108.49 188.838 108.362V107.321C188.838 107.192 188.876 107.089 188.953 107.012C189.043 106.922 189.153 106.877 189.281 106.877H190.496C190.624 106.877 190.727 106.922 190.804 107.012C190.894 107.089 190.939 107.192 190.939 107.321V108.362C190.939 108.49 190.894 108.6 190.804 108.69C190.727 108.767 190.624 108.805 190.496 108.805H189.281ZM198.731 124.941C197.857 124.941 197.137 124.825 196.572 124.594C196.019 124.363 195.582 124.08 195.261 123.746C194.952 123.424 194.727 123.097 194.586 122.762C194.458 122.441 194.387 122.184 194.374 121.991C194.361 121.863 194.4 121.754 194.49 121.664C194.593 121.574 194.702 121.529 194.817 121.529H195.743C195.858 121.529 195.955 121.554 196.032 121.606C196.109 121.657 196.173 121.766 196.225 121.933C196.302 122.126 196.418 122.338 196.572 122.57C196.726 122.814 196.964 123.019 197.285 123.187C197.606 123.366 198.056 123.456 198.634 123.456C199.239 123.456 199.746 123.373 200.157 123.206C200.569 123.052 200.877 122.769 201.083 122.358C201.301 121.959 201.411 121.407 201.411 120.7V119.389C201.102 119.787 200.697 120.121 200.196 120.391C199.695 120.648 199.065 120.777 198.307 120.777C197.587 120.777 196.97 120.655 196.456 120.411C195.942 120.153 195.518 119.813 195.184 119.389C194.862 118.952 194.618 118.457 194.451 117.904C194.297 117.352 194.207 116.773 194.181 116.169C194.168 115.81 194.168 115.456 194.181 115.109C194.207 114.505 194.297 113.927 194.451 113.374C194.618 112.821 194.862 112.327 195.184 111.89C195.518 111.453 195.942 111.112 196.456 110.868C196.97 110.611 197.587 110.482 198.307 110.482C199.078 110.482 199.714 110.63 200.215 110.926C200.729 111.209 201.147 111.556 201.468 111.967V111.138C201.468 111.009 201.507 110.9 201.584 110.81C201.674 110.72 201.783 110.675 201.912 110.675H202.799C202.927 110.675 203.036 110.72 203.126 110.81C203.216 110.9 203.261 111.009 203.261 111.138V120.488C203.261 121.349 203.113 122.113 202.818 122.782C202.535 123.45 202.06 123.977 201.391 124.363C200.736 124.748 199.849 124.941 198.731 124.941ZM198.692 119.235C199.335 119.235 199.849 119.087 200.235 118.791C200.633 118.496 200.922 118.123 201.102 117.673C201.295 117.223 201.398 116.767 201.411 116.304C201.423 116.124 201.43 115.906 201.43 115.649C201.43 115.379 201.423 115.154 201.411 114.974C201.398 114.511 201.295 114.055 201.102 113.605C200.922 113.156 200.633 112.783 200.235 112.487C199.849 112.192 199.335 112.044 198.692 112.044C198.05 112.044 197.536 112.192 197.15 112.487C196.765 112.77 196.488 113.149 196.321 113.625C196.154 114.087 196.058 114.589 196.032 115.128C196.019 115.463 196.019 115.803 196.032 116.15C196.058 116.69 196.154 117.198 196.321 117.673C196.488 118.136 196.765 118.515 197.15 118.81C197.536 119.093 198.05 119.235 198.692 119.235ZM207.535 120.7C207.406 120.7 207.297 120.661 207.207 120.584C207.13 120.494 207.091 120.385 207.091 120.256V111.119C207.091 110.99 207.13 110.887 207.207 110.81C207.297 110.72 207.406 110.675 207.535 110.675H208.441C208.569 110.675 208.672 110.72 208.749 110.81C208.839 110.887 208.884 110.99 208.884 111.119V111.967C209.218 111.53 209.636 111.176 210.137 110.906C210.651 110.624 211.307 110.482 212.104 110.482C212.939 110.482 213.646 110.669 214.224 111.041C214.815 111.401 215.259 111.909 215.554 112.564C215.85 113.207 215.998 113.959 215.998 114.82V120.256C215.998 120.385 215.959 120.494 215.882 120.584C215.805 120.661 215.702 120.7 215.574 120.7H214.61C214.481 120.7 214.372 120.661 214.282 120.584C214.205 120.494 214.166 120.385 214.166 120.256V114.916C214.166 114.017 213.948 113.316 213.511 112.815C213.074 112.301 212.431 112.044 211.583 112.044C210.786 112.044 210.144 112.301 209.655 112.815C209.18 113.316 208.942 114.017 208.942 114.916V120.256C208.942 120.385 208.897 120.494 208.807 120.584C208.73 120.661 208.627 120.7 208.499 120.7H207.535Z" fill="#A4A4A4"/>
</g>
<defs>
<filter id="filter0_d_38_1145" x="0" y="0" width="441.4" height="176" filterUnits="userSpaceOnUse" color-interpolation-filters="sRGB">
<feFlood flood-opacity="0" result="BackgroundImageFix"/>
<feColorMatrix in="SourceAlpha" type="matrix" values="0 0 0 0 0 0 0 0 0 0 0 0 0 0 0 0 0 0 127 0" result="hardAlpha"/>
<feOffset/>
<feGaussianBlur stdDeviation="10"/>
<feComposite in2="hardAlpha" operator="out"/>
<feColorMatrix type="matrix" values="0 0 0 0 0 0 0 0 0 0 0 0 0 0 0 0 0 0 0.04 0"/>
<feBlend mode="normal" in2="BackgroundImageFix" result="effect1_dropShadow_38_1145"/>
<feBlend mode="normal" in="SourceGraphic" in2="effect1_dropShadow_38_1145" result="shape"/>
</filter>
<clipPath id="clip0_38_1145">
<rect width="13.0747" height="42.6787" fill="white" transform="translate(74.2412 92.8604)"/>
</clipPath>
<clipPath id="clip1_38_1145">
<rect width="13.0747" height="18.6787" fill="white" transform="translate(74.2412 104.86)"/>
</clipPath>
</defs>
</svg>
