<svg width="303" height="60" viewBox="0 0 303 60" fill="none" xmlns="http://www.w3.org/2000/svg">
<path d="M13.7869 57.125C11.3369 57.125 8.96191 56.875 6.66191 56.375C4.41191 55.875 2.48691 55.2 0.886908 54.35L1.86191 45.35C3.56191 46.4 5.43691 47.25 7.48691 47.9C9.53691 48.55 11.4619 48.875 13.2619 48.875C14.8619 48.875 16.2619 48.575 17.4619 47.975C18.6619 47.375 19.2619 46.45 19.2619 45.2C19.2619 44 18.6119 43.125 17.3119 42.575C16.0619 42.025 14.1119 41.25 11.4619 40.25C10.4619 39.85 9.33691 39.4 8.08691 38.9C6.88691 38.4 5.73691 37.75 4.63691 36.95C3.53691 36.1 2.63691 35.025 1.93691 33.725C1.23691 32.375 0.886908 30.7 0.886908 28.7C0.886908 26 1.56191 23.75 2.91191 21.95C4.31191 20.1 6.21191 18.7 8.61191 17.75C11.0119 16.8 13.7119 16.325 16.7119 16.325C18.7619 16.325 20.7619 16.525 22.7119 16.925C24.7119 17.325 26.6119 17.85 28.4119 18.5L26.9869 27.425C25.5369 26.575 23.8869 25.9 22.0369 25.4C20.2369 24.85 18.5369 24.575 16.9369 24.575C15.3869 24.575 14.0869 24.85 13.0369 25.4C12.0369 25.9 11.5369 26.7 11.5369 27.8C11.5369 28.7 11.8869 29.425 12.5869 29.975C13.2869 30.475 14.2369 30.925 15.4369 31.325C16.6369 31.675 17.9619 32.15 19.4119 32.75C20.8619 33.3 22.3869 34 23.9869 34.85C25.6369 35.7 27.0369 36.9 28.1869 38.45C29.3369 40 29.9119 42.125 29.9119 44.825C29.9119 47.675 29.1869 50.025 27.7369 51.875C26.3369 53.675 24.4119 55 21.9619 55.85C19.5619 56.7 16.8369 57.125 13.7869 57.125ZM52.7019 57.125C48.7519 57.125 45.3019 56.275 42.3519 54.575C39.4019 52.875 37.1019 50.5 35.4519 47.45C33.8019 44.4 32.9769 40.825 32.9769 36.725C32.9769 32.625 33.8019 29.05 35.4519 26C37.1019 22.95 39.4019 20.575 42.3519 18.875C45.3019 17.175 48.7269 16.325 52.6269 16.325C56.5769 16.325 60.0019 17.175 62.9019 18.875C65.8519 20.525 68.1519 22.875 69.8019 25.925C71.4519 28.925 72.2769 32.45 72.2769 36.5C72.2769 40.6 71.4519 44.2 69.8019 47.3C68.2019 50.4 65.9269 52.825 62.9769 54.575C60.0269 56.275 56.6019 57.125 52.7019 57.125ZM52.6269 47.975C55.3269 47.975 57.4769 46.95 59.0769 44.9C60.7269 42.8 61.552 40.05 61.552 36.65C61.552 33.25 60.7269 30.55 59.0769 28.55C57.4769 26.5 55.3269 25.475 52.6269 25.475C49.9269 25.475 47.7519 26.5 46.1019 28.55C44.5019 30.55 43.7019 33.25 43.7019 36.65C43.7019 40.05 44.5019 42.8 46.1019 44.9C47.7519 46.95 49.9269 47.975 52.6269 47.975ZM74.3758 56V46.925H81.2008V10.25H74.7508V1.25H91.7758V46.925H98.6008V56H74.3758ZM115.453 57.05C111.353 57.05 108.128 55.8 105.778 53.3C103.428 50.75 102.253 47.325 102.253 43.025V17.375H112.828V41.3C112.828 43.35 113.328 44.95 114.328 46.1C115.328 47.2 116.678 47.75 118.378 47.75C120.128 47.75 121.778 47.2 123.328 46.1C124.878 45 126.178 43.525 127.228 41.675V17.375H137.803V56H127.228V50.9C125.928 52.65 124.353 54.125 122.503 55.325C120.653 56.475 118.303 57.05 115.453 57.05ZM159.15 57.125C155.55 57.125 152.75 56.225 150.75 54.425C148.8 52.575 147.825 49.975 147.825 46.625V26.45H141.825V17.375H147.825V9.125C151.425 8.525 154.925 8.075 158.325 7.775V17.375H168.075V26.45H158.325V44.675C158.325 46.825 159.525 47.9 161.925 47.9C163.325 47.9 164.925 47.575 166.725 46.925L169.05 54.875C165.85 56.375 162.55 57.125 159.15 57.125ZM178.493 11V1.25H190.568V11H178.493ZM172.643 56V46.925H179.843V26.45H172.643V17.375H190.418V46.925H196.868V56H172.643ZM218.443 57.125C214.493 57.125 211.043 56.275 208.093 54.575C205.143 52.875 202.843 50.5 201.193 47.45C199.543 44.4 198.718 40.825 198.718 36.725C198.718 32.625 199.543 29.05 201.193 26C202.843 22.95 205.143 20.575 208.093 18.875C211.043 17.175 214.468 16.325 218.368 16.325C222.318 16.325 225.743 17.175 228.643 18.875C231.593 20.525 233.893 22.875 235.543 25.925C237.193 28.925 238.018 32.45 238.018 36.5C238.018 40.6 237.193 44.2 235.543 47.3C233.943 50.4 231.668 52.825 228.718 54.575C225.768 56.275 222.343 57.125 218.443 57.125ZM218.368 47.975C221.068 47.975 223.218 46.95 224.818 44.9C226.468 42.8 227.293 40.05 227.293 36.65C227.293 33.25 226.468 30.55 224.818 28.55C223.218 26.5 221.068 25.475 218.368 25.475C215.668 25.475 213.493 26.5 211.843 28.55C210.243 30.55 209.443 33.25 209.443 36.65C209.443 40.05 210.243 42.8 211.843 44.9C213.493 46.95 215.668 47.975 218.368 47.975ZM243.307 56V17.375H253.657V24.05C255.257 21.35 257.107 19.4 259.207 18.2C261.357 16.95 263.807 16.325 266.557 16.325C270.707 16.325 273.957 17.575 276.307 20.075C278.657 22.525 279.832 25.95 279.832 30.35V56H269.257V32C269.257 29.95 268.757 28.375 267.757 27.275C266.757 26.175 265.407 25.625 263.707 25.625C261.657 25.625 259.732 26.4 257.932 27.95C256.182 29.45 254.832 31.325 253.882 33.575V56H243.307ZM294.405 58.55C292.305 58.55 290.48 57.775 288.93 56.225C287.43 54.725 286.68 52.925 286.68 50.825C286.68 48.675 287.43 46.85 288.93 45.35C290.48 43.8 292.305 43.025 294.405 43.025C296.555 43.025 298.38 43.8 299.88 45.35C301.38 46.85 302.13 48.675 302.13 50.825C302.13 52.925 301.38 54.725 299.88 56.225C298.38 57.775 296.555 58.55 294.405 58.55Z" fill="#3B3C44"/>
<path d="M6.66191 56.375L6.55344 56.8631L6.55569 56.8636L6.66191 56.375ZM0.886908 54.35L0.389817 54.2961L0.353354 54.6327L0.652331 54.7916L0.886908 54.35ZM1.86191 45.35L2.12465 44.9246L1.4502 44.508L1.36482 45.2961L1.86191 45.35ZM7.48691 47.9L7.33579 48.3766L7.33579 48.3766L7.48691 47.9ZM17.3119 42.575L17.1105 43.0327L17.1171 43.0355L17.3119 42.575ZM11.4619 40.25L11.2762 40.7143L11.2854 40.7178L11.4619 40.25ZM8.08691 38.9L7.89458 39.3616L7.90121 39.3642L8.08691 38.9ZM4.63691 36.95L4.33118 37.3456L4.33694 37.3501L4.34282 37.3544L4.63691 36.95ZM1.93691 33.725L1.49298 33.9552L1.49667 33.962L1.93691 33.725ZM2.91191 21.95L2.5132 21.6483L2.51191 21.65L2.91191 21.95ZM8.61191 17.75L8.42788 17.2851L8.42788 17.2851L8.61191 17.75ZM22.7119 16.925L22.6114 17.4148L22.6139 17.4153L22.7119 16.925ZM28.4119 18.5L28.9057 18.5788L28.9709 18.1703L28.5817 18.0297L28.4119 18.5ZM26.9869 27.425L26.734 27.8563L27.3653 28.2264L27.4807 27.5038L26.9869 27.425ZM22.0369 25.4L21.8908 25.8782L21.8986 25.8806L21.9065 25.8827L22.0369 25.4ZM13.0369 25.4L13.2606 25.8473L13.2689 25.8429L13.0369 25.4ZM12.5869 29.975L12.278 30.3682L12.287 30.3752L12.2963 30.3819L12.5869 29.975ZM15.4369 31.325L15.2788 31.7993L15.2878 31.8023L15.2969 31.805L15.4369 31.325ZM19.4119 32.75L19.2207 33.212L19.2276 33.2149L19.2346 33.2175L19.4119 32.75ZM23.9869 34.85L23.7523 35.2916L23.7579 35.2945L23.9869 34.85ZM27.7369 51.875L27.3434 51.5666L27.3422 51.568L27.7369 51.875ZM21.9619 55.85L21.798 55.3776L21.795 55.3787L21.9619 55.85ZM13.7869 57.125V56.625C11.3712 56.625 9.03183 56.3785 6.76812 55.8864L6.66191 56.375L6.55569 56.8636C8.89199 57.3715 11.3027 57.625 13.7869 57.625V57.125ZM6.66191 56.375L6.77037 55.8869C4.553 55.3942 2.67266 54.7325 1.12149 53.9084L0.886908 54.35L0.652331 54.7916C2.30116 55.6675 4.27081 56.3558 6.55344 56.8631L6.66191 56.375ZM0.886908 54.35L1.384 54.4039L2.359 45.4039L1.86191 45.35L1.36482 45.2961L0.389817 54.2961L0.886908 54.35ZM1.86191 45.35L1.59916 45.7754C3.33668 46.8486 5.24958 47.7151 7.33579 48.3766L7.48691 47.9L7.63803 47.4234C5.62424 46.7849 3.78714 45.9514 2.12465 44.9246L1.86191 45.35ZM7.48691 47.9L7.33579 48.3766C9.42544 49.0392 11.4018 49.375 13.2619 49.375V48.875V48.375C11.522 48.375 9.64837 48.0608 7.63803 47.4234L7.48691 47.9ZM13.2619 48.875V49.375C14.9247 49.375 16.4039 49.063 17.6855 48.4222L17.4619 47.975L17.2383 47.5278C16.1199 48.087 14.7991 48.375 13.2619 48.375V48.875ZM17.4619 47.975L17.6855 48.4222C18.348 48.091 18.8734 47.6553 19.2314 47.1033C19.5907 46.5493 19.7619 45.9083 19.7619 45.2H19.2619H18.7619C18.7619 45.7417 18.6331 46.1882 18.3924 46.5592C18.1505 46.9322 17.7758 47.259 17.2383 47.5278L17.4619 47.975ZM19.2619 45.2H19.7619C19.7619 44.504 19.5713 43.878 19.1758 43.3456C18.7841 42.8184 18.2151 42.4142 17.5067 42.1145L17.3119 42.575L17.1171 43.0355C17.7087 43.2858 18.1147 43.5941 18.373 43.9419C18.6275 44.2845 18.7619 44.696 18.7619 45.2H19.2619ZM17.3119 42.575L17.5133 42.1173C16.2504 41.5617 14.2899 40.7828 11.6384 39.7822L11.4619 40.25L11.2854 40.7178C13.9339 41.7172 15.8735 42.4883 17.1105 43.0327L17.3119 42.575ZM11.4619 40.25L11.6476 39.7858C10.6476 39.3858 9.5226 38.9358 8.2726 38.4358L8.08691 38.9L7.90121 39.3642C9.15121 39.8642 10.2762 40.3142 11.2762 40.7142L11.4619 40.25ZM8.08691 38.9L8.27922 38.4385C7.11689 37.9542 6.00088 37.3237 4.93099 36.5456L4.63691 36.95L4.34282 37.3544C5.47294 38.1763 6.65693 38.8458 7.8946 39.3615L8.08691 38.9ZM4.63691 36.95L4.94263 36.5544C3.90149 35.7498 3.04602 34.7301 2.37714 33.4879L1.93691 33.725L1.49667 33.962C2.2278 35.3199 3.17233 36.4502 4.33118 37.3456L4.63691 36.95ZM1.93691 33.725L2.38079 33.4948C1.72743 32.2348 1.38691 30.6442 1.38691 28.7H0.886908H0.386908C0.386908 30.7558 0.746389 32.5152 1.49303 33.9552L1.93691 33.725ZM0.886908 28.7H1.38691C1.38691 26.0859 2.03901 23.9472 3.31191 22.25L2.91191 21.95L2.51191 21.65C1.08481 23.5528 0.386908 25.9141 0.386908 28.7H0.886908ZM2.91191 21.95L3.31061 22.2517C4.64928 20.4828 6.47123 19.1351 8.79593 18.2149L8.61191 17.75L8.42788 17.2851C5.95259 18.2649 3.97454 19.7172 2.51321 21.6483L2.91191 21.95ZM8.61191 17.75L8.79593 18.2149C11.1287 17.2915 13.7648 16.825 16.7119 16.825V16.325V15.825C13.659 15.825 10.8952 16.3085 8.42788 17.2851L8.61191 17.75ZM16.7119 16.325V16.825C18.7292 16.825 20.6955 17.0218 22.6114 17.4148L22.7119 16.925L22.8124 16.4352C20.8283 16.0282 18.7947 15.825 16.7119 15.825V16.325ZM22.7119 16.925L22.6139 17.4153C24.591 17.8107 26.4669 18.3293 28.2421 18.9703L28.4119 18.5L28.5817 18.0297C26.7569 17.3707 24.8328 16.8393 22.81 16.4347L22.7119 16.925ZM28.4119 18.5L27.9182 18.4212L26.4932 27.3462L26.9869 27.425L27.4807 27.5038L28.9057 18.5788L28.4119 18.5ZM26.9869 27.425L27.2398 26.9937C25.7465 26.1183 24.0544 25.4273 22.1674 24.9173L22.0369 25.4L21.9065 25.8827C23.7194 26.3727 25.3273 27.0317 26.734 27.8563L26.9869 27.425ZM22.0369 25.4L22.183 24.9218C20.3438 24.3598 18.5943 24.075 16.9369 24.075V24.575V25.075C18.4796 25.075 20.13 25.3402 21.8908 25.8782L22.0369 25.4ZM16.9369 24.575V24.075C15.3301 24.075 13.9451 24.3598 12.8049 24.9571L13.0369 25.4L13.2689 25.8429C14.2287 25.3402 15.4437 25.075 16.9369 25.075V24.575ZM13.0369 25.4L12.8133 24.9528C12.2464 25.2362 11.795 25.6186 11.4879 26.11C11.1805 26.6019 11.0369 27.1721 11.0369 27.8H11.5369H12.0369C12.0369 27.3279 12.1433 26.9481 12.3359 26.64C12.5288 26.3314 12.8274 26.0638 13.2605 25.8472L13.0369 25.4ZM11.5369 27.8H11.0369C11.0369 28.8515 11.4558 29.7222 12.278 30.3682L12.5869 29.975L12.8958 29.5818C12.318 29.1278 12.0369 28.5485 12.0369 27.8H11.5369ZM12.5869 29.975L12.2963 30.3819C13.0511 30.921 14.0516 31.3903 15.2788 31.7993L15.4369 31.325L15.595 30.8507C14.4223 30.4597 13.5228 30.029 12.8775 29.5681L12.5869 29.975ZM15.4369 31.325L15.2969 31.805C16.4758 32.1488 17.7834 32.6173 19.2207 33.212L19.4119 32.75L19.6031 32.288C18.1404 31.6827 16.798 31.2011 15.5769 30.845L15.4369 31.325ZM19.4119 32.75L19.2346 33.2175C20.662 33.7589 22.1679 34.4498 23.7523 35.2916L23.9869 34.85L24.2215 34.4084C22.606 33.5502 21.0618 32.8411 19.5892 32.2825L19.4119 32.75ZM23.9869 34.85L23.7579 35.2945C25.3372 36.1081 26.6791 37.2568 27.7854 38.7479L28.1869 38.45L28.5885 38.1521C27.3948 36.5432 25.9366 35.2919 24.2159 34.4055L23.9869 34.85ZM28.1869 38.45L27.7854 38.7479C28.8504 40.1834 29.4119 42.1906 29.4119 44.825H29.9119H30.4119C30.4119 42.0594 29.8234 39.8166 28.5885 38.1521L28.1869 38.45ZM29.9119 44.825H29.4119C29.4119 47.5877 28.7107 49.8221 27.3434 51.5666L27.7369 51.875L28.1304 52.1834C29.6631 50.2279 30.4119 47.7623 30.4119 44.825H29.9119ZM27.7369 51.875L27.3422 51.568C26.0094 53.2817 24.1696 54.5548 21.798 55.3776L21.9619 55.85L22.1258 56.3224C24.6542 55.4452 26.6644 54.0683 28.1316 52.182L27.7369 51.875ZM21.9619 55.85L21.795 55.3787C19.458 56.2064 16.791 56.625 13.7869 56.625V57.125V57.625C16.8828 57.625 19.6658 57.1936 22.1288 56.3213L21.9619 55.85ZM35.4519 47.45L35.8917 47.2121L35.8917 47.2121L35.4519 47.45ZM35.4519 26L35.8917 26.2379L35.8917 26.2379L35.4519 26ZM62.9019 18.875L62.649 19.3064L62.6579 19.3114L62.9019 18.875ZM69.8019 25.925L69.3622 26.1629L69.3638 26.166L69.8019 25.925ZM69.8019 47.3L69.3605 47.0651L69.3576 47.0707L69.8019 47.3ZM62.9769 54.575L63.2266 55.0082L63.2321 55.005L62.9769 54.575ZM59.0769 44.9L58.6838 44.5911L58.6828 44.5924L59.0769 44.9ZM59.0769 28.55L58.6826 28.8577L58.6913 28.8682L59.0769 28.55ZM46.1019 28.55L45.7124 28.2365L45.7115 28.2377L46.1019 28.55ZM46.1019 44.9L45.7041 45.2031L45.7124 45.2135L46.1019 44.9ZM52.7019 57.125V56.625C48.8254 56.625 45.4643 55.7915 42.6016 54.1418L42.3519 54.575L42.1023 55.0082C45.1396 56.7585 48.6785 57.625 52.7019 57.625V57.125ZM42.3519 54.575L42.6016 54.1418C39.7334 52.4889 37.4985 50.1822 35.8917 47.2121L35.4519 47.45L35.0122 47.6879C36.7054 50.8178 39.0705 53.2611 42.1023 55.0082L42.3519 54.575ZM35.4519 47.45L35.8917 47.2121C34.2879 44.2474 33.4769 40.7571 33.4769 36.725H32.9769H32.4769C32.4769 40.8929 33.316 44.5526 35.0122 47.6879L35.4519 47.45ZM32.9769 36.725H33.4769C33.4769 32.6929 34.2879 29.2026 35.8917 26.2379L35.4519 26L35.0122 25.7621C33.316 28.8974 32.4769 32.5571 32.4769 36.725H32.9769ZM35.4519 26L35.8917 26.2379C37.4985 23.2678 39.7334 20.9611 42.6016 19.3082L42.3519 18.875L42.1023 18.4418C39.0705 20.1889 36.7054 22.6322 35.0122 25.7621L35.4519 26ZM42.3519 18.875L42.6016 19.3082C45.4652 17.658 48.8016 16.825 52.6269 16.825V16.325V15.825C48.6523 15.825 45.1387 16.692 42.1023 18.4418L42.3519 18.875ZM52.6269 16.325V16.825C56.5038 16.825 59.8383 17.6586 62.6491 19.3063L62.9019 18.875L63.1548 18.4436C60.1656 16.6914 56.6501 15.825 52.6269 15.825V16.325ZM62.9019 18.875L62.6579 19.3114C65.5229 20.9139 67.756 23.194 69.3622 26.1629L69.8019 25.925L70.2417 25.6871C68.5479 22.556 66.181 20.1361 63.146 18.4386L62.9019 18.875ZM69.8019 25.925L69.3638 26.166C70.9664 29.0797 71.7769 32.5188 71.7769 36.5H72.2769H72.7769C72.7769 32.3812 71.9375 28.7703 70.2401 25.684L69.8019 25.925ZM72.2769 36.5H71.7769C71.7769 40.5318 70.9661 44.0486 69.3606 47.0651L69.8019 47.3L70.2433 47.5349C71.9378 44.3514 72.7769 40.6682 72.7769 36.5H72.2769ZM69.8019 47.3L69.3576 47.0707C67.7999 50.0889 65.5898 52.4437 62.7218 54.145L62.9769 54.575L63.2321 55.005C66.2641 53.2063 68.604 50.7111 70.2463 47.5293L69.8019 47.3ZM62.9769 54.575L62.7273 54.1418C59.8637 55.792 56.5273 56.625 52.7019 56.625V57.125V57.625C56.6766 57.625 60.1902 56.758 63.2266 55.0082L62.9769 54.575ZM52.6269 47.975V48.475C55.4741 48.475 57.7722 47.3843 59.4711 45.2076L59.0769 44.9L58.6828 44.5924C57.1817 46.5157 55.1798 47.475 52.6269 47.475V47.975ZM59.0769 44.9L59.4701 45.2089C61.2063 42.9992 62.052 40.131 62.052 36.65H61.552H61.052C61.052 39.969 60.2476 42.6008 58.6838 44.5911L59.0769 44.9ZM61.552 36.65H62.052C62.052 33.1704 61.2069 30.346 59.4626 28.2318L59.0769 28.55L58.6913 28.8682C60.247 30.754 61.052 33.3296 61.052 36.65H61.552ZM59.0769 28.55L59.4711 28.2424C57.7722 26.0657 55.4741 24.975 52.6269 24.975V25.475V25.975C55.1798 25.975 57.1817 26.9343 58.6828 28.8576L59.0769 28.55ZM52.6269 25.475V24.975C49.7802 24.975 47.4602 26.0651 45.7124 28.2365L46.1019 28.55L46.4915 28.8635C48.0437 26.9349 50.0737 25.975 52.6269 25.975V25.475ZM46.1019 28.55L45.7115 28.2377C44.0204 30.3516 43.2019 33.1737 43.2019 36.65H43.7019H44.2019C44.2019 33.3263 44.9835 30.7484 46.4924 28.8623L46.1019 28.55ZM43.7019 36.65H43.2019C43.2019 40.1277 44.0209 42.9937 45.7042 45.203L46.1019 44.9L46.4997 44.597C44.983 42.6063 44.2019 39.9722 44.2019 36.65H43.7019ZM46.1019 44.9L45.7124 45.2135C47.4602 47.3849 49.7802 48.475 52.6269 48.475V47.975V47.475C50.0737 47.475 48.0437 46.5151 46.4915 44.5865L46.1019 44.9ZM74.3758 56H73.8758V56.5H74.3758V56ZM74.3758 46.925V46.425H73.8758V46.925H74.3758ZM81.2008 46.925V47.425H81.7008V46.925H81.2008ZM81.2008 10.25H81.7008V9.75H81.2008V10.25ZM74.7508 10.25H74.2508V10.75H74.7508V10.25ZM74.7508 1.25V0.749999H74.2508V1.25H74.7508ZM91.7758 1.25H92.2758V0.749999H91.7758V1.25ZM91.7758 46.925H91.2758V47.425H91.7758V46.925ZM98.6008 46.925H99.1008V46.425H98.6008V46.925ZM98.6008 56V56.5H99.1008V56H98.6008ZM74.3758 56H74.8758V46.925H74.3758H73.8758V56H74.3758ZM74.3758 46.925V47.425H81.2008V46.925V46.425H74.3758V46.925ZM81.2008 46.925H81.7008V10.25H81.2008H80.7008V46.925H81.2008ZM81.2008 10.25V9.75H74.7508V10.25V10.75H81.2008V10.25ZM74.7508 10.25H75.2508V1.25H74.7508H74.2508V10.25H74.7508ZM74.7508 1.25V1.75H91.7758V1.25V0.749999H74.7508V1.25ZM91.7758 1.25H91.2758V46.925H91.7758H92.2758V1.25H91.7758ZM91.7758 46.925V47.425H98.6008V46.925V46.425H91.7758V46.925ZM98.6008 46.925H98.1008V56H98.6008H99.1008V46.925H98.6008ZM98.6008 56V55.5H74.3758V56V56.5H98.6008V56ZM105.778 53.3L105.41 53.6389L105.414 53.6425L105.778 53.3ZM102.253 17.375V16.875H101.753V17.375H102.253ZM112.828 17.375H113.328V16.875H112.828V17.375ZM114.328 46.1L113.951 46.4282L113.958 46.4363L114.328 46.1ZM123.328 46.1L123.617 46.5078L123.617 46.5078L123.328 46.1ZM127.228 41.675L127.663 41.9218L127.728 41.807V41.675H127.228ZM127.228 17.375V16.875H126.728V17.375H127.228ZM137.803 17.375H138.303V16.875H137.803V17.375ZM137.803 56V56.5H138.303V56H137.803ZM127.228 56H126.728V56.5H127.228V56ZM127.228 50.9H127.728V49.3885L126.827 50.6018L127.228 50.9ZM122.503 55.325L122.767 55.7497L122.775 55.7445L122.503 55.325ZM115.453 57.05V56.55C111.462 56.55 108.379 55.3376 106.142 52.9575L105.778 53.3L105.414 53.6425C107.876 56.2624 111.244 57.55 115.453 57.55V57.05ZM105.778 53.3L106.146 52.9612C103.9 50.5243 102.753 47.231 102.753 43.025H102.253H101.753C101.753 47.419 102.956 50.9757 105.41 53.6388L105.778 53.3ZM102.253 43.025H102.753V17.375H102.253H101.753V43.025H102.253ZM102.253 17.375V17.875H112.828V17.375V16.875H102.253V17.375ZM112.828 17.375H112.328V41.3H112.828H113.328V17.375H112.828ZM112.828 41.3H112.328C112.328 43.4286 112.848 45.1598 113.951 46.4281L114.328 46.1L114.705 45.7719C113.808 44.7402 113.328 43.2714 113.328 41.3H112.828ZM114.328 46.1L113.958 46.4363C115.067 47.656 116.559 48.25 118.378 48.25V47.75V47.25C116.796 47.25 115.589 46.744 114.698 45.7637L114.328 46.1ZM118.378 47.75V48.25C120.241 48.25 121.99 47.6623 123.617 46.5078L123.328 46.1L123.039 45.6922C121.565 46.7377 120.015 47.25 118.378 47.25V47.75ZM123.328 46.1L123.617 46.5078C125.234 45.3606 126.581 43.8278 127.663 41.9218L127.228 41.675L126.793 41.4282C125.775 43.2222 124.522 44.6394 123.039 45.6922L123.328 46.1ZM127.228 41.675H127.728V17.375H127.228H126.728V41.675H127.228ZM127.228 17.375V17.875H137.803V17.375V16.875H127.228V17.375ZM137.803 17.375H137.303V56H137.803H138.303V17.375H137.803ZM137.803 56V55.5H127.228V56V56.5H137.803V56ZM127.228 56H127.728V50.9H127.228H126.728V56H127.228ZM127.228 50.9L126.827 50.6018C125.562 52.3035 124.031 53.7376 122.231 54.9055L122.503 55.325L122.775 55.7445C124.674 54.5124 126.293 52.9965 127.629 51.1982L127.228 50.9ZM122.503 55.325L122.239 54.9004C120.489 55.9881 118.238 56.55 115.453 56.55V57.05V57.55C118.368 57.55 120.817 56.9619 122.767 55.7496L122.503 55.325ZM150.75 54.425L150.406 54.7879L150.416 54.7966L150.75 54.425ZM147.825 26.45H148.325V25.95H147.825V26.45ZM141.825 26.45H141.325V26.95H141.825V26.45ZM141.825 17.375V16.875H141.325V17.375H141.825ZM147.825 17.375V17.875H148.325V17.375H147.825ZM147.825 9.125L147.743 8.6318L147.325 8.70144V9.125H147.825ZM158.325 7.775H158.825V7.22894L158.281 7.27693L158.325 7.775ZM158.325 17.375H157.825V17.875H158.325V17.375ZM168.075 17.375H168.575V16.875H168.075V17.375ZM168.075 26.45V26.95H168.575V26.45H168.075ZM158.325 26.45V25.95H157.825V26.45H158.325ZM166.725 46.925L167.205 46.7847L167.056 46.274L166.556 46.4547L166.725 46.925ZM169.05 54.875L169.263 55.3277L169.651 55.1459L169.53 54.7347L169.05 54.875ZM159.15 57.125V56.625C155.632 56.625 152.966 55.7462 151.085 54.0534L150.75 54.425L150.416 54.7966C152.535 56.7038 155.469 57.625 159.15 57.625V57.125ZM150.75 54.425L151.095 54.0623C149.267 52.3289 148.325 49.8739 148.325 46.625H147.825H147.325C147.325 50.0761 148.333 52.8211 150.406 54.7877L150.75 54.425ZM147.825 46.625H148.325V26.45H147.825H147.325V46.625H147.825ZM147.825 26.45V25.95H141.825V26.45V26.95H147.825V26.45ZM141.825 26.45H142.325V17.375H141.825H141.325V26.45H141.825ZM141.825 17.375V17.875H147.825V17.375V16.875H141.825V17.375ZM147.825 17.375H148.325V9.125H147.825H147.325V17.375H147.825ZM147.825 9.125L147.908 9.6182C151.496 9.02017 154.983 8.57186 158.369 8.27306L158.325 7.775L158.281 7.27693C154.868 7.57814 151.355 8.02983 147.743 8.6318L147.825 9.125ZM158.325 7.775H157.825V17.375H158.325H158.825V7.775H158.325ZM158.325 17.375V17.875H168.075V17.375V16.875H158.325V17.375ZM168.075 17.375H167.575V26.45H168.075H168.575V17.375H168.075ZM168.075 26.45V25.95H158.325V26.45V26.95H168.075V26.45ZM158.325 26.45H157.825V44.675H158.325H158.825V26.45H158.325ZM158.325 44.675H157.825C157.825 45.8422 158.154 46.8049 158.892 47.4662C159.619 48.118 160.661 48.4 161.925 48.4V47.9V47.4C160.79 47.4 160.031 47.1445 159.559 46.7213C159.097 46.3076 158.825 45.6578 158.825 44.675H158.325ZM161.925 47.9V48.4C163.4 48.4 165.059 48.0582 166.895 47.3953L166.725 46.925L166.556 46.4547C164.791 47.0918 163.251 47.4 161.925 47.4V47.9ZM166.725 46.925L166.245 47.0653L168.57 55.0153L169.05 54.875L169.53 54.7347L167.205 46.7847L166.725 46.925ZM169.05 54.875L168.838 54.4223C165.702 55.8924 162.474 56.625 159.15 56.625V57.125V57.625C162.627 57.625 165.999 56.8576 169.263 55.3277L169.05 54.875ZM178.493 11H177.993V11.5H178.493V11ZM178.493 1.25V0.749999H177.993V1.25H178.493ZM190.568 1.25H191.068V0.749999H190.568V1.25ZM190.568 11V11.5H191.068V11H190.568ZM172.643 56H172.143V56.5H172.643V56ZM172.643 46.925V46.425H172.143V46.925H172.643ZM179.843 46.925V47.425H180.343V46.925H179.843ZM179.843 26.45H180.343V25.95H179.843V26.45ZM172.643 26.45H172.143V26.95H172.643V26.45ZM172.643 17.375V16.875H172.143V17.375H172.643ZM190.418 17.375H190.918V16.875H190.418V17.375ZM190.418 46.925H189.918V47.425H190.418V46.925ZM196.868 46.925H197.368V46.425H196.868V46.925ZM196.868 56V56.5H197.368V56H196.868ZM178.493 11H178.993V1.25H178.493H177.993V11H178.493ZM178.493 1.25V1.75H190.568V1.25V0.749999H178.493V1.25ZM190.568 1.25H190.068V11H190.568H191.068V1.25H190.568ZM190.568 11V10.5H178.493V11V11.5H190.568V11ZM172.643 56H173.143V46.925H172.643H172.143V56H172.643ZM172.643 46.925V47.425H179.843V46.925V46.425H172.643V46.925ZM179.843 46.925H180.343V26.45H179.843H179.343V46.925H179.843ZM179.843 26.45V25.95H172.643V26.45V26.95H179.843V26.45ZM172.643 26.45H173.143V17.375H172.643H172.143V26.45H172.643ZM172.643 17.375V17.875H190.418V17.375V16.875H172.643V17.375ZM190.418 17.375H189.918V46.925H190.418H190.918V17.375H190.418ZM190.418 46.925V47.425H196.868V46.925V46.425H190.418V46.925ZM196.868 46.925H196.368V56H196.868H197.368V46.925H196.868ZM196.868 56V55.5H172.643V56V56.5H196.868V56ZM201.193 47.45L201.633 47.2121L201.633 47.2121L201.193 47.45ZM201.193 26L201.633 26.2379L201.633 26.2379L201.193 26ZM228.643 18.875L228.39 19.3064L228.399 19.3114L228.643 18.875ZM235.543 25.925L235.103 26.1629L235.105 26.166L235.543 25.925ZM235.543 47.3L235.102 47.0651L235.099 47.0707L235.543 47.3ZM228.718 54.575L228.968 55.0082L228.973 55.005L228.718 54.575ZM224.818 44.9L224.425 44.5911L224.424 44.5924L224.818 44.9ZM224.818 28.55L224.424 28.8577L224.432 28.8682L224.818 28.55ZM211.843 28.55L211.454 28.2365L211.453 28.2377L211.843 28.55ZM211.843 44.9L211.445 45.2031L211.454 45.2135L211.843 44.9ZM218.443 57.125V56.625C214.567 56.625 211.205 55.7915 208.343 54.1418L208.093 54.575L207.844 55.0082C210.881 56.7585 214.42 57.625 218.443 57.625V57.125ZM208.093 54.575L208.343 54.1418C205.475 52.4889 203.24 50.1822 201.633 47.2121L201.193 47.45L200.753 47.6879C202.447 50.8178 204.812 53.2611 207.844 55.0082L208.093 54.575ZM201.193 47.45L201.633 47.2121C200.029 44.2474 199.218 40.7571 199.218 36.725H198.718H198.218C198.218 40.8929 199.057 44.5526 200.753 47.6879L201.193 47.45ZM198.718 36.725H199.218C199.218 32.6929 200.029 29.2026 201.633 26.2379L201.193 26L200.753 25.7621C199.057 28.8974 198.218 32.5571 198.218 36.725H198.718ZM201.193 26L201.633 26.2379C203.24 23.2678 205.475 20.9611 208.343 19.3082L208.093 18.875L207.844 18.4418C204.812 20.1889 202.447 22.6322 200.753 25.7621L201.193 26ZM208.093 18.875L208.343 19.3082C211.206 17.658 214.543 16.825 218.368 16.825V16.325V15.825C214.393 15.825 210.88 16.692 207.844 18.4418L208.093 18.875ZM218.368 16.325V16.825C222.245 16.825 225.579 17.6586 228.39 19.3063L228.643 18.875L228.896 18.4436C225.907 16.6914 222.391 15.825 218.368 15.825V16.325ZM228.643 18.875L228.399 19.3114C231.264 20.9139 233.497 23.194 235.103 26.1629L235.543 25.925L235.983 25.6871C234.289 22.556 231.922 20.1361 228.887 18.4386L228.643 18.875ZM235.543 25.925L235.105 26.166C236.708 29.0797 237.518 32.5188 237.518 36.5H238.018H238.518C238.518 32.3812 237.679 28.7703 235.981 25.684L235.543 25.925ZM238.018 36.5H237.518C237.518 40.5318 236.707 44.0486 235.102 47.0651L235.543 47.3L235.985 47.5349C237.679 44.3514 238.518 40.6682 238.518 36.5H238.018ZM235.543 47.3L235.099 47.0707C233.541 50.0889 231.331 52.4437 228.463 54.145L228.718 54.575L228.973 55.005C232.005 53.2063 234.345 50.7111 235.987 47.5293L235.543 47.3ZM228.718 54.575L228.469 54.1418C225.605 55.792 222.268 56.625 218.443 56.625V57.125V57.625C222.418 57.625 225.931 56.758 228.968 55.0082L228.718 54.575ZM218.368 47.975V48.475C221.215 48.475 223.513 47.3843 225.212 45.2076L224.818 44.9L224.424 44.5924C222.923 46.5157 220.921 47.475 218.368 47.475V47.975ZM224.818 44.9L225.211 45.2089C226.948 42.9992 227.793 40.131 227.793 36.65H227.293H226.793C226.793 39.969 225.989 42.6008 224.425 44.5911L224.818 44.9ZM227.293 36.65H227.793C227.793 33.1704 226.948 30.346 225.204 28.2318L224.818 28.55L224.432 28.8682C225.988 30.754 226.793 33.3296 226.793 36.65H227.293ZM224.818 28.55L225.212 28.2424C223.513 26.0657 221.215 24.975 218.368 24.975V25.475V25.975C220.921 25.975 222.923 26.9343 224.424 28.8576L224.818 28.55ZM218.368 25.475V24.975C215.521 24.975 213.201 26.0651 211.454 28.2365L211.843 28.55L212.233 28.8635C213.785 26.9349 215.815 25.975 218.368 25.975V25.475ZM211.843 28.55L211.453 28.2377C209.762 30.3516 208.943 33.1737 208.943 36.65H209.443H209.943C209.943 33.3263 210.725 30.7484 212.234 28.8623L211.843 28.55ZM209.443 36.65H208.943C208.943 40.1277 209.762 42.9937 211.445 45.203L211.843 44.9L212.241 44.597C210.724 42.6063 209.943 39.9722 209.943 36.65H209.443ZM211.843 44.9L211.454 45.2135C213.201 47.3849 215.521 48.475 218.368 48.475V47.975V47.475C215.815 47.475 213.785 46.5151 212.233 44.5865L211.843 44.9ZM243.307 56H242.807V56.5H243.307V56ZM243.307 17.375V16.875H242.807V17.375H243.307ZM253.657 17.375H254.157V16.875H253.657V17.375ZM253.657 24.05H253.157V25.8745L254.087 24.3049L253.657 24.05ZM259.207 18.2L259.455 18.6341L259.458 18.6323L259.207 18.2ZM276.307 20.075L275.942 20.4175L275.946 20.4211L276.307 20.075ZM279.832 56V56.5H280.332V56H279.832ZM269.257 56H268.757V56.5H269.257V56ZM267.757 27.275L268.127 26.9387L268.127 26.9387L267.757 27.275ZM257.932 27.95L258.257 28.3296L258.258 28.3289L257.932 27.95ZM253.882 33.575L253.421 33.3805L253.382 33.4738V33.575H253.882ZM253.882 56V56.5H254.382V56H253.882ZM243.307 56H243.807V17.375H243.307H242.807V56H243.307ZM243.307 17.375V17.875H253.657V17.375V16.875H243.307V17.375ZM253.657 17.375H253.157V24.05H253.657H254.157V17.375H253.657ZM253.657 24.05L254.087 24.3049C255.656 21.6578 257.449 19.7802 259.455 18.6341L259.207 18.2L258.959 17.7659C256.764 19.0198 254.858 21.0422 253.227 23.7951L253.657 24.05ZM259.207 18.2L259.458 18.6323C261.524 17.4312 263.886 16.825 266.557 16.825V16.325V15.825C263.728 15.825 261.19 16.4688 258.956 17.7677L259.207 18.2ZM266.557 16.325V16.825C270.6 16.825 273.706 18.0386 275.943 20.4175L276.307 20.075L276.671 19.7325C274.207 17.1114 270.814 15.825 266.557 15.825V16.325ZM276.307 20.075L275.946 20.4211C278.183 22.7529 279.332 26.0394 279.332 30.35H279.832H280.332C280.332 25.8606 279.131 22.2971 276.668 19.7289L276.307 20.075ZM279.832 30.35H279.332V56H279.832H280.332V30.35H279.832ZM279.832 56V55.5H269.257V56V56.5H279.832V56ZM269.257 56H269.757V32H269.257H268.757V56H269.257ZM269.257 32H269.757C269.757 29.873 269.238 28.1606 268.127 26.9387L267.757 27.275L267.387 27.6113C268.276 28.5894 268.757 30.0269 268.757 32H269.257ZM267.757 27.275L268.127 26.9387C267.018 25.719 265.525 25.125 263.707 25.125V25.625V26.125C265.288 26.125 266.496 26.631 267.387 27.6113L267.757 27.275ZM263.707 25.625V25.125C261.518 25.125 259.481 25.9561 257.606 27.5711L257.932 27.95L258.258 28.3289C259.983 26.8439 261.795 26.125 263.707 26.125V25.625ZM257.932 27.95L257.606 27.5704C255.794 29.1238 254.399 31.0635 253.421 33.3805L253.882 33.575L254.342 33.7695C255.264 31.5865 256.57 29.7762 258.257 28.3296L257.932 27.95ZM253.882 33.575H253.382V56H253.882H254.382V33.575H253.882ZM253.882 56V55.5H243.307V56V56.5H253.882V56ZM288.93 56.225L289.283 55.8714L289.283 55.8714L288.93 56.225ZM288.93 45.35L289.283 45.7036L289.283 45.7036L288.93 45.35ZM299.88 45.35L299.52 45.6978L299.526 45.7036L299.88 45.35ZM299.88 56.225L299.526 55.8714L299.52 55.8773L299.88 56.225ZM294.405 58.55V58.05C292.444 58.05 290.744 57.3323 289.283 55.8714L288.93 56.225L288.576 56.5786C290.215 58.2177 292.166 59.05 294.405 59.05V58.55ZM288.93 56.225L289.283 55.8714C287.876 54.4641 287.18 52.7909 287.18 50.825H286.68H286.18C286.18 53.0591 286.983 54.9859 288.576 56.5786L288.93 56.225ZM286.68 50.825H287.18C287.18 48.8056 287.878 47.1084 289.283 45.7036L288.93 45.35L288.576 44.9964C286.981 46.5916 286.18 48.5444 286.18 50.825H286.68ZM288.93 45.35L289.283 45.7036C290.744 44.2427 292.444 43.525 294.405 43.525V43.025V42.525C292.166 42.525 290.215 43.3573 288.576 44.9964L288.93 45.35ZM294.405 43.025V43.525C296.419 43.525 298.114 44.2447 299.52 45.6977L299.88 45.35L300.239 45.0023C298.645 43.3553 296.691 42.525 294.405 42.525V43.025ZM299.88 45.35L299.526 45.7036C300.931 47.1084 301.63 48.8056 301.63 50.825H302.13H302.63C302.63 48.5444 301.828 46.5916 300.233 44.9964L299.88 45.35ZM302.13 50.825H301.63C301.63 52.7909 300.933 54.4641 299.526 55.8714L299.88 56.225L300.233 56.5786C301.826 54.9859 302.63 53.0591 302.63 50.825H302.13ZM299.88 56.225L299.52 55.8773C298.114 57.3303 296.419 58.05 294.405 58.05V58.55V59.05C296.691 59.05 298.645 58.2197 300.239 56.5727L299.88 56.225Z" fill="white"/>
</svg>
