<svg width="622" height="189" viewBox="0 0 622 189" fill="none" xmlns="http://www.w3.org/2000/svg">
<path d="M43.43 183.675C35.4267 183.675 27.6683 182.858 20.155 181.225C12.805 179.592 6.51667 177.387 1.29 174.61L4.475 145.21C10.0283 148.64 16.1533 151.417 22.85 153.54C29.5467 155.663 35.835 156.725 41.715 156.725C46.9417 156.725 51.515 155.745 55.435 153.785C59.355 151.825 61.315 148.803 61.315 144.72C61.315 140.8 59.1917 137.942 54.945 136.145C50.8617 134.348 44.4917 131.817 35.835 128.55C32.5683 127.243 28.8933 125.773 24.81 124.14C20.89 122.507 17.1333 120.383 13.54 117.77C9.94667 114.993 7.00667 111.482 4.72 107.235C2.43333 102.825 1.29 97.3533 1.29 90.82C1.29 82 3.495 74.65 7.905 68.77C12.4783 62.7267 18.685 58.1533 26.525 55.05C34.365 51.9467 43.185 50.395 52.985 50.395C59.6817 50.395 66.215 51.0483 72.585 52.355C79.1183 53.6617 85.325 55.3767 91.205 57.5L86.55 86.655C81.8133 83.8783 76.4233 81.6733 70.38 80.04C64.5 78.2433 58.9467 77.345 53.72 77.345C48.6567 77.345 44.41 78.2433 40.98 80.04C37.7133 81.6733 36.08 84.2867 36.08 87.88C36.08 90.82 37.2233 93.1883 39.51 94.985C41.7967 96.6183 44.9 98.0883 48.82 99.395C52.74 100.538 57.0683 102.09 61.805 104.05C66.5417 105.847 71.5233 108.133 76.75 110.91C82.14 113.687 86.7133 117.607 90.47 122.67C94.2267 127.733 96.105 134.675 96.105 143.495C96.105 152.805 93.7367 160.482 89 166.525C84.4267 172.405 78.1383 176.733 70.135 179.51C62.295 182.287 53.3933 183.675 43.43 183.675ZM159.744 183.675C147.984 183.675 138.837 180.735 132.304 174.855C125.934 168.812 122.749 160.318 122.749 149.375V83.47H103.149V53.825H122.749V26.875C134.509 24.915 145.942 23.445 157.049 22.465V53.825H188.899V83.47H157.049V143.005C157.049 150.028 160.969 153.54 168.809 153.54C173.382 153.54 178.609 152.478 184.489 150.355L192.084 176.325C181.63 181.225 170.85 183.675 159.744 183.675ZM238.752 183.675C225.849 183.675 215.477 178.203 207.637 167.26C199.961 156.153 196.122 140.963 196.122 121.69C196.122 98.4967 202.002 80.8567 213.762 68.77C225.522 56.52 242.427 50.395 264.477 50.395C276.891 50.395 291.427 52.355 308.087 56.275V180H275.257L275.992 159.91H275.012C266.519 175.753 254.432 183.675 238.752 183.675ZM246.102 153.54C251.492 153.54 256.637 150.682 261.537 144.965C266.437 139.248 270.847 132.225 274.767 123.895V82.735C272.154 81.9183 269.459 81.3467 266.682 81.02C263.906 80.6933 261.374 80.53 259.087 80.53C239.324 80.53 229.442 93.76 229.442 120.22C229.442 130.51 230.912 138.677 233.852 144.72C236.792 150.6 240.876 153.54 246.102 153.54ZM390.291 183.675C369.384 183.675 353.132 178.122 341.536 167.015C330.102 155.908 324.386 140.228 324.386 119.975C324.386 106.092 327.081 93.9233 332.471 83.47C337.861 73.0167 345.456 64.9317 355.256 59.215C365.056 53.335 376.407 50.395 389.311 50.395C395.517 50.395 401.887 51.13 408.421 52.6C414.954 53.9067 420.017 55.4583 423.611 57.255L416.996 86.41C413.239 84.6133 409.074 83.225 404.501 82.245C399.927 81.1017 395.762 80.53 392.006 80.53C382.042 80.53 373.957 83.96 367.751 90.82C361.544 97.68 358.441 106.745 358.441 118.015C358.441 129.448 361.626 138.268 367.996 144.475C374.366 150.682 383.267 153.785 394.701 153.785C402.377 153.785 410.626 152.315 419.446 149.375L424.591 177.305C419.037 179.428 413.402 180.98 407.686 181.96C402.132 183.103 396.334 183.675 390.291 183.675ZM520.991 183.675L475.421 125.12V180H440.876V0.904998H475.421V99.885L514.866 53.825H555.781L505.311 110.42L558.476 178.53L520.991 183.675ZM596.072 188.33C589.212 188.33 583.25 185.798 578.187 180.735C573.287 175.835 570.837 169.955 570.837 163.095C570.837 156.072 573.287 150.11 578.187 145.21C583.25 140.147 589.212 137.615 596.072 137.615C603.095 137.615 609.057 140.147 613.957 145.21C618.857 150.11 621.307 156.072 621.307 163.095C621.307 169.955 618.857 175.835 613.957 180.735C609.057 185.798 603.095 188.33 596.072 188.33Z" fill="#3B3C44"/>
<path d="M20.155 181.225L20.0465 181.713L20.0488 181.714L20.155 181.225ZM1.29 174.61L0.792909 174.556L0.756447 174.893L1.05542 175.052L1.29 174.61ZM4.475 145.21L4.73775 144.785L4.06329 144.368L3.97791 145.156L4.475 145.21ZM22.85 153.54L22.6989 154.017L22.6989 154.017L22.85 153.54ZM55.435 153.785L55.6586 154.232L55.435 153.785ZM54.945 136.145L54.7436 136.603L54.7502 136.605L54.945 136.145ZM35.835 128.55L35.6493 129.014L35.6585 129.018L35.835 128.55ZM24.81 124.14L24.6177 124.602L24.6243 124.604L24.81 124.14ZM13.54 117.77L13.2343 118.166L13.24 118.17L13.2459 118.174L13.54 117.77ZM4.72 107.235L4.27607 107.465L4.27976 107.472L4.72 107.235ZM7.905 68.77L7.50629 68.4683L7.505 68.47L7.905 68.77ZM26.525 55.05L26.341 54.5851L26.341 54.5851L26.525 55.05ZM72.585 52.355L72.4845 52.8448L72.4869 52.8453L72.585 52.355ZM91.205 57.5L91.6987 57.5788L91.764 57.1703L91.3748 57.0297L91.205 57.5ZM86.55 86.655L86.2971 87.0863L86.9284 87.4564L87.0437 86.7338L86.55 86.655ZM70.38 80.04L70.2339 80.5182L70.2417 80.5206L70.2495 80.5227L70.38 80.04ZM40.98 80.04L41.2036 80.4873L41.212 80.4829L40.98 80.04ZM39.51 94.985L39.2011 95.3782L39.2101 95.3852L39.2194 95.3919L39.51 94.985ZM48.82 99.395L48.6619 99.8693L48.6709 99.8723L48.68 99.875L48.82 99.395ZM61.805 104.05L61.6138 104.512L61.6207 104.515L61.6277 104.517L61.805 104.05ZM76.75 110.91L76.5154 111.352L76.521 111.354L76.75 110.91ZM90.47 122.67L90.0685 122.968L90.47 122.67ZM89 166.525L88.6065 166.217L88.6053 166.218L89 166.525ZM70.135 179.51L69.9711 179.038L69.9681 179.039L70.135 179.51ZM43.43 183.675V183.175C35.4609 183.175 27.7383 182.362 20.2612 180.736L20.155 181.225L20.0488 181.714C27.5984 183.355 35.3924 184.175 43.43 184.175V183.675ZM20.155 181.225L20.2635 180.737C12.9461 179.111 6.70242 176.919 1.52458 174.168L1.29 174.61L1.05542 175.052C6.33092 177.854 12.6639 180.073 20.0465 181.713L20.155 181.225ZM1.29 174.61L1.78709 174.664L4.97209 145.264L4.475 145.21L3.97791 145.156L0.792909 174.556L1.29 174.61ZM4.475 145.21L4.21225 145.635C9.8031 149.089 15.966 151.882 22.6989 154.017L22.85 153.54L23.0011 153.063C16.3407 150.952 10.2536 148.191 4.73775 144.785L4.475 145.21ZM22.85 153.54L22.6989 154.017C29.4352 156.153 35.7749 157.225 41.715 157.225V156.725V156.225C35.8951 156.225 29.6581 155.174 23.0011 153.063L22.85 153.54ZM41.715 156.725V157.225C47.0045 157.225 51.657 156.233 55.6586 154.232L55.435 153.785L55.2114 153.338C51.373 155.257 46.8789 156.225 41.715 156.225V156.725ZM55.435 153.785L55.6586 154.232C57.6811 153.221 59.2264 151.921 60.2645 150.321C61.3038 148.719 61.815 146.845 61.815 144.72H61.315H60.815C60.815 146.678 60.3462 148.357 59.4255 149.777C58.5036 151.198 57.1089 152.389 55.2114 153.338L55.435 153.785ZM61.315 144.72H61.815C61.815 142.664 61.2561 140.862 60.1239 139.338C58.9956 137.819 57.3216 136.608 55.1398 135.685L54.945 136.145L54.7502 136.605C56.8151 137.479 58.3261 138.595 59.3211 139.934C60.3123 141.269 60.815 142.856 60.815 144.72H61.315ZM54.945 136.145L55.1464 135.687C51.0501 133.885 44.6697 131.349 36.0115 128.082L35.835 128.55L35.6585 129.018C44.3136 132.284 50.6732 134.812 54.7436 136.603L54.945 136.145ZM35.835 128.55L36.0207 128.086C32.754 126.779 29.079 125.309 24.9957 123.676L24.81 124.14L24.6243 124.604C28.7076 126.238 32.3826 127.708 35.6493 129.014L35.835 128.55ZM24.81 124.14L25.0023 123.678C21.12 122.061 17.3973 119.957 13.8341 117.366L13.54 117.77L13.2459 118.174C16.8694 120.81 20.66 122.953 24.6177 124.602L24.81 124.14ZM13.54 117.77L13.8457 117.374C10.3112 114.643 7.41578 111.187 5.16024 106.998L4.72 107.235L4.27976 107.472C6.59756 111.777 9.58209 115.343 13.2343 118.166L13.54 117.77ZM4.72 107.235L5.16388 107.005C2.92385 102.685 1.79 97.2975 1.79 90.82H1.29H0.790001C0.790001 97.4091 1.94281 102.965 4.27612 107.465L4.72 107.235ZM1.29 90.82H1.79C1.79 82.0859 3.9721 74.8472 8.305 69.07L7.905 68.77L7.505 68.47C3.0179 74.4528 0.790001 81.9141 0.790001 90.82H1.29ZM7.905 68.77L8.3037 69.0717C12.8157 63.1094 18.9443 58.5884 26.709 55.5149L26.525 55.05L26.341 54.5851C18.4257 57.7182 12.141 62.3439 7.5063 68.4683L7.905 68.77ZM26.525 55.05L26.709 55.5149C34.4818 52.4382 43.2379 50.895 52.985 50.895V50.395V49.895C43.1321 49.895 34.2483 51.4551 26.341 54.5851L26.525 55.05ZM52.985 50.395V50.895C59.6489 50.895 66.1486 51.5451 72.4845 52.8448L72.585 52.355L72.6855 51.8652C66.2814 50.5515 59.7144 49.895 52.985 49.895V50.395ZM72.585 52.355L72.4869 52.8453C78.9975 54.1474 85.18 55.8559 91.0352 57.9703L91.205 57.5L91.3748 57.0297C85.47 54.8974 79.2392 53.1759 72.6831 51.8647L72.585 52.355ZM91.205 57.5L90.7113 57.4212L86.0563 86.5762L86.55 86.655L87.0437 86.7338L91.6987 57.5788L91.205 57.5ZM86.55 86.655L86.8029 86.2236C82.0229 83.4216 76.5908 81.2007 70.5105 79.5573L70.38 80.04L70.2495 80.5227C76.2559 82.146 81.6037 84.335 86.2971 87.0863L86.55 86.655ZM70.38 80.04L70.5261 79.5618C64.6069 77.7532 59.004 76.845 53.72 76.845V77.345V77.845C58.8893 77.845 64.3931 78.7335 70.2339 80.5182L70.38 80.04ZM53.72 77.345V76.845C48.5999 76.845 44.2682 77.7532 40.748 79.5971L40.98 80.04L41.212 80.4829C44.5518 78.7335 48.7135 77.845 53.72 77.845V77.345ZM40.98 80.04L40.7564 79.5928C39.0562 80.4429 37.7548 81.5619 36.881 82.96C36.0069 84.3586 35.58 86.0054 35.58 87.88H36.08H36.58C36.58 86.1612 36.9698 84.7048 37.729 83.49C38.4885 82.2747 39.6372 81.2704 41.2036 80.4872L40.98 80.04ZM36.08 87.88H35.58C35.58 90.9715 36.7922 93.4855 39.2011 95.3782L39.51 94.985L39.8189 94.5918C37.6544 92.8912 36.58 90.6685 36.58 87.88H36.08ZM39.51 94.985L39.2194 95.3919C41.5608 97.0643 44.7147 98.5536 48.6619 99.8693L48.82 99.395L48.9781 98.9207C45.0854 97.6231 42.0325 96.1723 39.8006 94.5781L39.51 94.985ZM48.82 99.395L48.68 99.875C52.5789 101.012 56.8899 102.557 61.6138 104.512L61.805 104.05L61.9962 103.588C57.2468 101.623 52.9011 100.064 48.96 98.915L48.82 99.395ZM61.805 104.05L61.6277 104.517C66.3418 106.306 71.3043 108.583 76.5154 111.352L76.75 110.91L76.9846 110.468C71.7424 107.684 66.7415 105.388 61.9823 103.583L61.805 104.05ZM76.75 110.91L76.521 111.354C81.8403 114.095 86.3555 117.963 90.0685 122.968L90.47 122.67L90.8716 122.372C87.0712 117.25 82.4397 113.279 76.979 110.466L76.75 110.91ZM90.47 122.67L90.0685 122.968C93.7401 127.917 95.605 134.741 95.605 143.495H96.105H96.605C96.605 134.609 94.7132 127.55 90.8716 122.372L90.47 122.67ZM96.105 143.495H95.605C95.605 152.718 93.2604 160.279 88.6065 166.217L89 166.525L89.3935 166.833C94.2129 160.685 96.605 152.892 96.605 143.495H96.105ZM89 166.525L88.6053 166.218C84.0992 172.012 77.896 176.288 69.9711 179.038L70.135 179.51L70.2989 179.982C78.3806 177.179 84.7542 172.798 89.3947 166.832L89 166.525ZM70.135 179.51L69.9681 179.039C62.1911 181.793 53.3474 183.175 43.43 183.175V183.675V184.175C53.4393 184.175 62.3989 182.78 70.3019 179.981L70.135 179.51ZM132.304 174.855L131.96 175.218L131.969 175.227L132.304 174.855ZM122.749 83.47H123.249V82.97H122.749V83.47ZM103.149 83.47H102.649V83.97H103.149V83.47ZM103.149 53.825V53.325H102.649V53.825H103.149ZM122.749 53.825V54.325H123.249V53.825H122.749ZM122.749 26.875L122.667 26.3818L122.249 26.4514V26.875H122.749ZM157.049 22.465H157.549V21.9189L157.005 21.9669L157.049 22.465ZM157.049 53.825H156.549V54.325H157.049V53.825ZM188.899 53.825H189.399V53.325H188.899V53.825ZM188.899 83.47V83.97H189.399V83.47H188.899ZM157.049 83.47V82.97H156.549V83.47H157.049ZM184.489 150.355L184.969 150.215L184.819 149.704L184.319 149.885L184.489 150.355ZM192.084 176.325L192.296 176.778L192.684 176.596L192.564 176.185L192.084 176.325ZM159.744 183.675V183.175C148.065 183.175 139.052 180.256 132.638 174.483L132.304 174.855L131.969 175.227C138.622 181.214 147.903 184.175 159.744 184.175V183.675ZM132.304 174.855L132.648 174.492C126.401 168.566 123.249 160.217 123.249 149.375H122.749H122.249C122.249 160.419 125.467 169.058 131.96 175.218L132.304 174.855ZM122.749 149.375H123.249V83.47H122.749H122.249V149.375H122.749ZM122.749 83.47V82.97H103.149V83.47V83.97H122.749V83.47ZM103.149 83.47H103.649V53.825H103.149H102.649V83.47H103.149ZM103.149 53.825V54.325H122.749V53.825V53.325H103.149V53.825ZM122.749 53.825H123.249V26.875H122.749H122.249V53.825H122.749ZM122.749 26.875L122.831 27.3682C134.579 25.4102 146 23.9419 157.093 22.9631L157.049 22.465L157.005 21.9669C145.884 22.9481 134.438 24.4198 122.667 26.3818L122.749 26.875ZM157.049 22.465H156.549V53.825H157.049H157.549V22.465H157.049ZM157.049 53.825V54.325H188.899V53.825V53.325H157.049V53.825ZM188.899 53.825H188.399V83.47H188.899H189.399V53.825H188.899ZM188.899 83.47V82.97H157.049V83.47V83.97H188.899V83.47ZM157.049 83.47H156.549V143.005H157.049H157.549V83.47H157.049ZM157.049 143.005H156.549C156.549 146.609 157.557 149.399 159.655 151.279C161.743 153.149 164.824 154.04 168.809 154.04V153.54V153.04C164.953 153.04 162.155 152.175 160.322 150.534C158.501 148.902 157.549 146.425 157.549 143.005H157.049ZM168.809 153.54V154.04C173.457 154.04 178.743 152.962 184.659 150.825L184.489 150.355L184.319 149.885C178.475 151.995 173.307 153.04 168.809 153.04V153.54ZM184.489 150.355L184.009 150.495L191.604 176.465L192.084 176.325L192.564 176.185L184.969 150.215L184.489 150.355ZM192.084 176.325L191.872 175.872C181.482 180.742 170.774 183.175 159.744 183.175V183.675V184.175C170.927 184.175 181.779 181.708 192.296 176.778L192.084 176.325ZM207.637 167.26L207.226 167.544L207.231 167.551L207.637 167.26ZM213.762 68.77L214.121 69.1187L214.123 69.1163L213.762 68.77ZM308.087 56.275H308.587V55.879L308.202 55.7883L308.087 56.275ZM308.087 180V180.5H308.587V180H308.087ZM275.257 180L274.758 179.982L274.739 180.5H275.257V180ZM275.992 159.91L276.492 159.928L276.511 159.41H275.992V159.91ZM275.012 159.91V159.41H274.713L274.572 159.674L275.012 159.91ZM261.537 144.965L261.158 144.64L261.158 144.64L261.537 144.965ZM274.767 123.895L275.22 124.108L275.267 124.007V123.895H274.767ZM274.767 82.735H275.267V82.3674L274.917 82.2578L274.767 82.735ZM266.682 81.02L266.624 81.5166L266.624 81.5166L266.682 81.02ZM233.852 144.72L233.403 144.939L233.405 144.944L233.852 144.72ZM238.752 183.675V183.175C226.018 183.175 215.795 177.788 208.044 166.969L207.637 167.26L207.231 167.551C215.16 178.619 225.68 184.175 238.752 184.175V183.675ZM207.637 167.26L208.049 166.976C200.45 155.981 196.622 140.903 196.622 121.69H196.122H195.622C195.622 141.023 199.472 156.325 207.226 167.544L207.637 167.26ZM196.122 121.69H196.622C196.622 98.5772 202.481 81.0816 214.121 69.1187L213.762 68.77L213.404 68.4213C201.524 80.6318 195.622 98.4162 195.622 121.69H196.122ZM213.762 68.77L214.123 69.1163C225.763 56.9915 242.521 50.895 264.477 50.895V50.395V49.895C242.334 49.895 225.282 56.0485 213.402 68.4237L213.762 68.77ZM264.477 50.395V50.895C276.841 50.895 291.337 52.8475 307.973 56.7617L308.087 56.275L308.202 55.7883C291.517 51.8625 276.941 49.895 264.477 49.895V50.395ZM308.087 56.275H307.587V180H308.087H308.587V56.275H308.087ZM308.087 180V179.5H275.257V180V180.5H308.087V180ZM275.257 180L275.757 180.018L276.492 159.928L275.992 159.91L275.493 159.892L274.758 179.982L275.257 180ZM275.992 159.91V159.41H275.012V159.91V160.41H275.992V159.91ZM275.012 159.91L274.572 159.674C266.15 175.384 254.218 183.175 238.752 183.175V183.675V184.175C254.647 184.175 266.888 176.123 275.453 160.146L275.012 159.91ZM246.102 153.54V154.04C251.69 154.04 256.961 151.072 261.917 145.29L261.537 144.965L261.158 144.64C256.314 150.291 251.295 153.04 246.102 153.04V153.54ZM261.537 144.965L261.917 145.29C266.852 139.533 271.285 132.47 275.22 124.108L274.767 123.895L274.315 123.682C270.41 131.98 266.023 138.964 261.158 144.64L261.537 144.965ZM274.767 123.895H275.267V82.735H274.767H274.267V123.895H274.767ZM274.767 82.735L274.917 82.2578C272.273 81.4317 269.548 80.8536 266.741 80.5234L266.682 81.02L266.624 81.5166C269.371 81.8397 272.035 82.405 274.618 83.2122L274.767 82.735ZM266.682 81.02L266.741 80.5234C263.949 80.195 261.397 80.03 259.087 80.03V80.53V81.03C261.351 81.03 263.863 81.1917 266.624 81.5166L266.682 81.02ZM259.087 80.53V80.03C249.083 80.03 241.507 83.3863 236.453 90.1533C231.419 96.8929 228.942 106.942 228.942 120.22H229.442H229.942C229.942 107.038 232.406 97.2421 237.254 90.7517C242.082 84.2887 249.329 81.03 259.087 81.03V80.53ZM229.442 120.22H228.942C228.942 130.549 230.417 138.801 233.403 144.939L233.852 144.72L234.302 144.501C231.408 138.553 229.942 130.471 229.942 120.22H229.442ZM233.852 144.72L233.405 144.944C236.404 150.941 240.634 154.04 246.102 154.04V153.54V153.04C241.117 153.04 237.181 150.259 234.3 144.496L233.852 144.72ZM341.536 167.015L341.187 167.374L341.19 167.376L341.536 167.015ZM332.471 83.47L332.915 83.6991L332.915 83.6991L332.471 83.47ZM355.256 59.215L355.508 59.6469L355.513 59.6437L355.256 59.215ZM408.421 52.6L408.311 53.0879L408.323 53.0903L408.421 52.6ZM423.611 57.255L424.098 57.3656L424.185 56.9832L423.834 56.8078L423.611 57.255ZM416.996 86.41L416.78 86.8611L417.345 87.1312L417.483 86.5206L416.996 86.41ZM404.501 82.245L404.379 82.7301L404.388 82.7321L404.396 82.7339L404.501 82.245ZM367.996 144.475L367.647 144.833L367.996 144.475ZM419.446 149.375L419.937 149.284L419.833 148.719L419.288 148.901L419.446 149.375ZM424.591 177.305L424.769 177.772L425.158 177.623L425.082 177.214L424.591 177.305ZM407.686 181.96L407.601 181.467L407.593 181.469L407.585 181.47L407.686 181.96ZM390.291 183.675V183.175C369.473 183.175 353.36 177.647 341.882 166.654L341.536 167.015L341.19 167.376C352.905 178.596 369.295 184.175 390.291 184.175V183.675ZM341.536 167.015L341.884 166.656C330.572 155.668 324.886 140.132 324.886 119.975H324.386H323.886C323.886 140.325 329.632 156.149 341.187 167.374L341.536 167.015ZM324.386 119.975H324.886C324.886 106.157 327.568 94.0699 332.915 83.6991L332.471 83.47L332.026 83.2408C326.594 93.7768 323.886 106.026 323.886 119.975H324.386ZM332.471 83.47L332.915 83.6991C338.263 73.327 345.793 65.3138 355.508 59.6469L355.256 59.215L355.004 58.7831C345.118 64.5495 337.458 72.7063 332.026 83.2408L332.471 83.47ZM355.256 59.215L355.513 59.6437C365.226 53.8162 376.486 50.895 389.311 50.895V50.395V49.895C376.329 49.895 364.886 52.8538 354.998 58.7862L355.256 59.215ZM389.311 50.395V50.895C395.478 50.895 401.811 51.6253 408.311 53.0878L408.421 52.6L408.53 52.1122C401.964 50.6347 395.557 49.895 389.311 49.895V50.395ZM408.421 52.6L408.323 53.0903C414.837 54.3931 419.851 55.9342 423.387 57.7022L423.611 57.255L423.834 56.8078C420.184 54.9825 415.071 53.4202 408.519 52.1097L408.421 52.6ZM423.611 57.255L423.123 57.1444L416.508 86.2994L416.996 86.41L417.483 86.5206L424.098 57.3656L423.611 57.255ZM416.996 86.41L417.211 85.9589C413.415 84.1434 409.212 82.7433 404.605 81.7561L404.501 82.245L404.396 82.7339C408.936 83.7067 413.063 85.0832 416.78 86.8611L416.996 86.41ZM404.501 82.245L404.622 81.7599C400.019 80.6091 395.812 80.03 392.006 80.03V80.53V81.03C395.713 81.03 399.836 81.5943 404.379 82.7301L404.501 82.245ZM392.006 80.53V80.03C381.913 80.03 373.689 83.511 367.38 90.4845L367.751 90.82L368.121 91.1555C374.225 84.409 382.171 81.03 392.006 81.03V80.53ZM367.751 90.82L367.38 90.4845C361.073 97.4555 357.941 106.649 357.941 118.015H358.441H358.941C358.941 106.841 362.015 97.9044 368.121 91.1555L367.751 90.82ZM358.441 118.015H357.941C357.941 129.543 361.155 138.507 367.647 144.833L367.996 144.475L368.345 144.117C362.097 138.029 358.941 129.354 358.941 118.015H358.441ZM367.996 144.475L367.647 144.833C374.135 151.155 383.176 154.285 394.701 154.285V153.785V153.285C383.359 153.285 374.597 150.209 368.345 144.117L367.996 144.475ZM394.701 153.785V154.285C402.441 154.285 410.743 152.803 419.604 149.849L419.446 149.375L419.288 148.901C410.508 151.827 402.314 153.285 394.701 153.285V153.785ZM419.446 149.375L418.954 149.466L424.099 177.396L424.591 177.305L425.082 177.214L419.937 149.284L419.446 149.375ZM424.591 177.305L424.412 176.838C418.888 178.95 413.285 180.493 407.601 181.467L407.686 181.96L407.77 182.453C413.52 181.467 419.186 179.907 424.769 177.772L424.591 177.305ZM407.686 181.96L407.585 181.47C402.067 182.606 396.302 183.175 390.291 183.175V183.675V184.175C396.366 184.175 402.198 183.6 407.787 182.45L407.686 181.96ZM520.991 183.675L520.596 183.982L520.773 184.21L521.058 184.17L520.991 183.675ZM475.421 125.12L475.815 124.813L474.921 123.663V125.12H475.421ZM475.421 180V180.5H475.921V180H475.421ZM440.876 180H440.376V180.5H440.876V180ZM440.876 0.904998V0.404998H440.376V0.904998H440.876ZM475.421 0.904998H475.921V0.404998H475.421V0.904998ZM475.421 99.885H474.921V101.238L475.8 100.21L475.421 99.885ZM514.866 53.825V53.325H514.635L514.486 53.4998L514.866 53.825ZM555.781 53.825L556.154 54.1578L556.896 53.325H555.781V53.825ZM505.311 110.42L504.937 110.087L504.66 110.399L504.916 110.728L505.311 110.42ZM558.476 178.53L558.543 179.025L559.404 178.907L558.87 178.222L558.476 178.53ZM520.991 183.675L521.385 183.368L475.815 124.813L475.421 125.12L475.026 125.427L520.596 183.982L520.991 183.675ZM475.421 125.12H474.921V180H475.421H475.921V125.12H475.421ZM475.421 180V179.5H440.876V180V180.5H475.421V180ZM440.876 180H441.376V0.904998H440.876H440.376V180H440.876ZM440.876 0.904998V1.405H475.421V0.904998V0.404998H440.876V0.904998ZM475.421 0.904998H474.921V99.885H475.421H475.921V0.904998H475.421ZM475.421 99.885L475.8 100.21L515.245 54.1502L514.866 53.825L514.486 53.4998L475.041 99.5598L475.421 99.885ZM514.866 53.825V54.325H555.781V53.825V53.325H514.866V53.825ZM555.781 53.825L555.407 53.4922L504.937 110.087L505.311 110.42L505.684 110.753L556.154 54.1578L555.781 53.825ZM505.311 110.42L504.916 110.728L558.081 178.838L558.476 178.53L558.87 178.222L505.705 110.112L505.311 110.42ZM558.476 178.53L558.408 178.035L520.923 183.18L520.991 183.675L521.058 184.17L558.543 179.025L558.476 178.53ZM578.187 180.735L578.54 180.381L578.54 180.381L578.187 180.735ZM578.187 145.21L578.54 145.564L578.54 145.564L578.187 145.21ZM613.957 145.21L613.597 145.558L613.603 145.564L613.957 145.21ZM613.957 180.735L613.603 180.381L613.597 180.387L613.957 180.735ZM596.072 188.33V187.83C589.35 187.83 583.514 185.356 578.54 180.381L578.187 180.735L577.833 181.089C582.985 186.241 589.073 188.83 596.072 188.83V188.33ZM578.187 180.735L578.54 180.381C573.733 175.574 571.337 169.821 571.337 163.095H570.837H570.337C570.337 170.089 572.84 176.096 577.833 181.089L578.187 180.735ZM570.837 163.095H571.337C571.337 156.202 573.735 150.368 578.54 145.564L578.187 145.21L577.833 144.856C572.838 149.852 570.337 155.941 570.337 163.095H570.837ZM578.187 145.21L578.54 145.564C583.514 140.589 589.35 138.115 596.072 138.115V137.615V137.115C589.073 137.115 582.985 139.704 577.833 144.856L578.187 145.21ZM596.072 137.615V138.115C602.959 138.115 608.791 140.591 613.597 145.558L613.957 145.21L614.316 144.862C609.322 139.702 603.231 137.115 596.072 137.115V137.615ZM613.957 145.21L613.603 145.564C618.408 150.368 620.807 156.202 620.807 163.095H621.307H621.807C621.807 155.941 619.305 149.852 614.31 144.856L613.957 145.21ZM621.307 163.095H620.807C620.807 169.821 618.41 175.574 613.603 180.381L613.957 180.735L614.31 181.089C619.303 176.096 621.807 170.089 621.807 163.095H621.307ZM613.957 180.735L613.597 180.387C608.791 185.354 602.959 187.83 596.072 187.83V188.33V188.83C603.231 188.83 609.322 186.243 614.316 181.083L613.957 180.735Z" fill="white"/>
</svg>
