<svg width="73" height="72" viewBox="0 0 73 72" fill="none" xmlns="http://www.w3.org/2000/svg">
<path d="M51.975 38.115C62.6818 28.3783 72.765 19.2654 72.765 11.4345C72.765 5.02425 67.7408 0 61.3305 0C57.7269 0 54.2272 1.69785 51.975 4.33125C49.6881 1.69785 46.2231 0 42.6195 0C36.2093 0 31.185 5.02425 31.185 11.4345C31.185 19.2654 41.2682 28.3783 51.975 38.115ZM42.6195 6.93C44.1441 6.93 45.7033 7.65765 46.7082 8.83575L51.975 15.0381L57.2418 8.83575C58.2467 7.65765 59.8059 6.93 61.3305 6.93C63.8946 6.93 65.835 8.8704 65.835 11.4345C65.835 15.3153 58.7664 22.4185 51.975 28.7248C45.1836 22.4185 38.115 15.2806 38.115 11.4345C38.115 8.8704 40.0554 6.93 42.6195 6.93ZM62.37 48.51H55.44C55.44 44.352 52.8412 40.6098 48.9604 39.1545L27.6161 31.185H0V69.3H20.79V64.3104L45.045 71.0325L72.765 62.37V58.905C72.765 53.1531 68.1219 48.51 62.37 48.51ZM6.93 62.37V38.115H13.86V62.37H6.93ZM44.9411 63.7906L20.79 57.1032V38.115H26.3686L46.535 45.634C47.7131 46.0845 48.51 47.2279 48.51 48.51C48.51 48.51 41.6146 48.3367 40.5405 47.9902L32.2938 45.2529L30.1108 51.8364L38.3575 54.5737C40.1247 55.1628 41.9611 55.4746 43.8322 55.4746H62.37C63.7213 55.4746 64.9341 56.2716 65.4885 57.415L44.9411 63.7906Z" fill="black"/>
</svg>
