<svg width="896" height="1129" viewBox="0 0 896 1129" fill="none" xmlns="http://www.w3.org/2000/svg">
<path opacity="0.8" d="M829.36 0H447.76H66.16C35.128 0 0 35.128 0 66.16V1062.56C0 1093.59 35.128 1128.72 66.16 1128.72H829.36C860.392 1128.72 895.52 1093.59 895.52 1062.56V564.36V66.16C895.52 35.128 860.392 0 829.36 0ZM849.52 1056.51C849.52 1072.21 835.696 1084.88 818.632 1084.88H588.16C571.096 1084.88 559.36 1072.14 559.36 1056.51V1000.17V943.832C559.36 928.136 544.024 915.464 526.96 915.464H76.888C59.824 915.464 46 902.72 46 887.096V74.368C46 58.672 59.824 46 76.888 46H724.96C742.024 46 746.56 58.744 746.56 74.368V89.92C746.56 105.616 751.096 118.288 768.16 118.288H818.776C835.84 118.288 849.664 131.032 849.664 146.656V1056.51H849.52Z" fill="white"/>
<path d="M815.562 63.1875C815.562 61.2976 813.993 59.0053 810.054 57.0494C806.247 55.1593 800.833 53.9375 794.75 53.9375C788.667 53.9375 783.253 55.1593 779.446 57.0494C775.507 59.0053 773.937 61.2976 773.937 63.1875C773.937 64.854 775.206 66.9022 778.432 68.7954C781.468 70.5771 785.79 71.9193 790.763 72.4019L791.246 72.446L791.365 72.459C792.577 72.6243 793.459 73.7134 793.354 74.9462C793.246 76.2187 792.126 77.1623 790.854 77.054C785.161 76.5695 779.952 75.05 776.091 72.7844C772.322 70.5729 769.312 67.3023 769.312 63.1875C769.312 58.6024 772.946 55.1135 777.39 52.9069C781.966 50.6345 788.115 49.3125 794.75 49.3125C801.385 49.3125 807.534 50.6345 812.11 52.9069C816.554 55.1135 820.187 58.6024 820.187 63.1875C820.187 66.6238 818.131 69.4298 815.35 71.4916C812.556 73.5618 808.76 75.109 804.515 76.0793C803.27 76.3638 802.03 75.5854 801.746 74.3404C801.461 73.0954 802.24 71.8552 803.485 71.5706C807.334 70.6909 810.475 69.3477 812.596 67.7758C814.728 66.1954 815.562 64.6074 815.562 63.1875Z" fill="#3B3C44"/>
<path d="M769.312 74.75C769.312 71.8097 770.922 69.1415 773.108 67.2285C774.07 66.3875 775.531 66.485 776.372 67.4461C777.213 68.4073 777.115 69.8681 776.154 70.7091C774.64 72.0336 773.937 73.5279 773.937 74.75C773.937 76.6399 775.507 78.9322 779.446 80.8881C783.253 82.7782 788.667 84 794.75 84H795.444L795.563 84.0031C796.785 84.0651 797.756 85.0753 797.756 86.3125C797.756 87.5498 796.785 88.56 795.563 88.6219L795.444 88.625H794.75C788.115 88.625 781.966 87.303 777.39 85.0307C772.946 82.8241 769.312 79.3351 769.312 74.75ZM815.562 74.75C815.562 73.5661 814.903 72.1268 813.485 70.8339L813.346 70.7091L813.258 70.6284C812.38 69.7772 812.314 68.3772 813.128 67.4461C813.943 66.515 815.34 66.3943 816.3 67.1523L816.392 67.2285L816.595 67.41C818.677 69.3085 820.187 71.9016 820.187 74.75C820.187 78.1904 818.127 80.9983 815.31 83.0617C812.485 85.1318 808.628 86.6766 804.27 87.6449C803.024 87.922 801.788 87.1358 801.511 85.8891C801.234 84.6424 802.02 83.4071 803.267 83.13C807.234 82.2484 810.431 80.9027 812.577 79.3307C814.732 77.7519 815.562 76.1659 815.562 74.75Z" fill="#3B3C44"/>
<path d="M769.312 86.3125C769.312 83.3722 770.922 80.704 773.108 78.791C774.07 77.95 775.531 78.0475 776.372 79.0086C777.213 79.9698 777.115 81.4306 776.154 82.2716C774.64 83.5961 773.937 85.0904 773.937 86.3125C773.937 88.2024 775.507 90.4947 779.446 92.4506C783.253 94.3407 788.667 95.5625 794.75 95.5625C800.833 95.5625 806.247 94.3407 810.054 92.4506C813.993 90.4947 815.562 88.2024 815.562 86.3125C815.562 85.1286 814.903 83.6893 813.485 82.3964L813.346 82.2716L813.258 82.1909C812.38 81.3397 812.314 79.9397 813.128 79.0086C813.943 78.0775 815.34 77.9568 816.3 78.7148L816.392 78.791L816.595 78.9725C818.677 80.871 820.187 83.4641 820.187 86.3125C820.187 90.8976 816.554 94.3866 812.11 96.5932C807.534 98.8655 801.385 100.188 794.75 100.188C788.115 100.188 781.966 98.8655 777.39 96.5932C772.946 94.3866 769.312 90.8976 769.312 86.3125Z" fill="#3B3C44"/>
<path d="M804 67.8125C804 66.9529 803.45 65.856 801.774 64.855C800.12 63.8677 797.659 63.1875 794.75 63.1875C791.841 63.1875 789.38 63.8677 787.726 64.855C786.05 65.856 785.5 66.9529 785.5 67.8125C785.5 68.3847 785.783 69.1397 786.669 69.9624C787.542 70.7733 788.895 71.5338 790.664 72.0364C794.027 72.7032 797.062 75.5417 797.062 79.375V84C797.062 84.6133 797.306 85.2016 797.74 85.6353C798.173 86.069 798.762 86.3125 799.375 86.3125C799.988 86.3125 800.577 86.069 801.01 85.6353C801.444 85.2016 801.687 84.6133 801.687 84V74.2876C801.687 73.1904 802.098 72.1193 802.447 71.3583C802.803 70.5816 803.237 69.8332 803.581 69.2592C803.928 68.5545 804 68.2336 804 67.8125ZM808.625 67.8125C808.625 69.2292 808.238 70.289 807.687 71.3905C807.661 71.4434 807.632 71.4953 807.602 71.546C807.259 72.1175 806.912 72.7172 806.652 73.2855C806.523 73.566 806.431 73.8049 806.374 73.9991C806.316 74.1987 806.313 74.2876 806.312 74.2876V84C806.312 85.8399 805.582 87.6046 804.281 88.9056C802.98 90.2066 801.215 90.9375 799.375 90.9375C797.535 90.9375 795.77 90.2066 794.469 88.9056C793.168 87.6046 792.437 85.8399 792.437 84V79.375C792.437 78.1684 791.387 76.8672 789.711 76.5626C789.642 76.55 789.574 76.5345 789.506 76.5157C787.151 75.8616 785.063 74.7831 783.522 73.3515C781.98 71.9196 780.875 70.0153 780.875 67.8125C780.875 64.7408 782.869 62.3689 785.355 60.884C787.864 59.3854 791.184 58.5625 794.75 58.5625C798.316 58.5625 801.636 59.3854 804.145 60.884C806.631 62.3689 808.625 64.7408 808.625 67.8125Z" fill="#3B3C44"/>
<g filter="url(#filter0_i_250_2107)">
<path d="M105.098 1077.53C99.5878 1077.53 94.2461 1076.97 89.0732 1075.84C84.0127 1074.72 79.6832 1073.2 76.0847 1071.29L78.2775 1051.05C82.101 1053.41 86.3181 1055.32 90.9287 1056.78C95.5394 1058.24 99.8689 1058.98 103.917 1058.98C107.516 1058.98 110.665 1058.3 113.363 1056.95C116.062 1055.6 117.412 1053.52 117.412 1050.71C117.412 1048.01 115.95 1046.04 113.026 1044.81C110.215 1043.57 105.829 1041.83 99.8689 1039.58C97.6198 1038.68 95.0896 1037.66 92.2782 1036.54C89.5793 1035.42 86.9928 1033.95 84.5188 1032.15C82.0448 1030.24 80.0206 1027.83 78.4462 1024.9C76.8718 1021.87 76.0847 1018.1 76.0847 1013.6C76.0847 1007.53 77.6028 1002.47 80.6391 998.418C83.7878 994.257 88.0611 991.109 93.459 988.972C98.8568 986.835 104.929 985.767 111.677 985.767C116.287 985.767 120.786 986.217 125.171 987.116C129.669 988.016 133.943 989.197 137.991 990.659L134.786 1010.73C131.525 1008.82 127.814 1007.3 123.653 1006.18C119.605 1004.94 115.781 1004.32 112.183 1004.32C108.697 1004.32 105.773 1004.94 103.411 1006.18C101.162 1007.3 100.038 1009.1 100.038 1011.58C100.038 1013.6 100.825 1015.23 102.399 1016.47C103.974 1017.59 106.11 1018.6 108.809 1019.5C111.508 1020.29 114.488 1021.36 117.749 1022.71C121.01 1023.95 124.44 1025.52 128.039 1027.43C131.75 1029.34 134.899 1032.04 137.485 1035.53C140.072 1039.01 141.365 1043.79 141.365 1049.87C141.365 1056.28 139.734 1061.56 136.473 1065.72C133.324 1069.77 128.995 1072.75 123.484 1074.66C118.087 1076.57 111.958 1077.53 105.098 1077.53ZM185.18 1077.53C177.083 1077.53 170.786 1075.51 166.288 1071.46C161.902 1067.3 159.709 1061.45 159.709 1053.91V1008.54H146.214V988.129H159.709V969.573C167.806 968.224 175.678 967.212 183.325 966.537V988.129H205.253V1008.54H183.325V1049.53C183.325 1054.36 186.023 1056.78 191.421 1056.78C194.57 1056.78 198.169 1056.05 202.217 1054.59L207.446 1072.47C200.249 1075.84 192.827 1077.53 185.18 1077.53ZM239.578 1077.53C230.694 1077.53 223.553 1073.76 218.155 1066.23C212.869 1058.58 210.227 1048.12 210.227 1034.85C210.227 1018.88 214.275 1006.74 222.372 998.418C230.469 989.984 242.108 985.767 257.289 985.767C265.836 985.767 275.844 987.116 287.315 989.815V1075H264.711L265.217 1061.17H264.543C258.695 1072.08 250.373 1077.53 239.578 1077.53ZM244.638 1056.78C248.349 1056.78 251.891 1054.81 255.265 1050.88C258.639 1046.94 261.675 1042.11 264.374 1036.37V1008.03C262.575 1007.47 260.719 1007.08 258.807 1006.85C256.896 1006.63 255.153 1006.51 253.578 1006.51C239.971 1006.51 233.168 1015.62 233.168 1033.84C233.168 1040.93 234.18 1046.55 236.204 1050.71C238.228 1054.76 241.039 1056.78 244.638 1056.78ZM343.912 1077.53C329.517 1077.53 318.328 1073.71 310.344 1066.06C302.472 1058.41 298.536 1047.62 298.536 1033.67C298.536 1024.11 300.392 1015.74 304.103 1008.54C307.814 1001.34 313.043 995.775 319.79 991.84C326.537 987.791 334.353 985.767 343.237 985.767C347.51 985.767 351.896 986.273 356.394 987.285C360.892 988.185 364.378 989.253 366.852 990.49L362.298 1010.56C359.712 1009.33 356.844 1008.37 353.695 1007.7C350.546 1006.91 347.679 1006.51 345.092 1006.51C338.233 1006.51 332.666 1008.88 328.393 1013.6C324.12 1018.32 321.983 1024.56 321.983 1032.32C321.983 1040.2 324.176 1046.27 328.561 1050.54C332.947 1054.81 339.076 1056.95 346.948 1056.95C352.233 1056.95 357.912 1055.94 363.985 1053.91L367.527 1073.14C363.704 1074.61 359.824 1075.67 355.888 1076.35C352.065 1077.14 348.072 1077.53 343.912 1077.53ZM433.898 1077.53L402.523 1037.22V1075H378.739V951.693H402.523V1019.84L429.681 988.129H457.851L423.103 1027.09L459.707 1073.99L433.898 1077.53ZM485.592 1080.74C480.869 1080.74 476.764 1078.99 473.278 1075.51C469.904 1072.13 468.217 1068.08 468.217 1063.36C468.217 1058.53 469.904 1054.42 473.278 1051.05C476.764 1047.56 480.869 1045.82 485.592 1045.82C490.427 1045.82 494.532 1047.56 497.906 1051.05C501.279 1054.42 502.966 1058.53 502.966 1063.36C502.966 1068.08 501.279 1072.13 497.906 1075.51C494.532 1078.99 490.427 1080.74 485.592 1080.74Z" fill="#3B3C44"/>
</g>
<path d="M89.0732 1075.84L88.9239 1076.52L88.927 1076.52L89.0732 1075.84ZM76.0847 1071.29L75.4002 1071.21L75.35 1071.68L75.7617 1071.9L76.0847 1071.29ZM78.2775 1051.05L78.6393 1050.46L77.7106 1049.89L77.593 1050.97L78.2775 1051.05ZM90.9287 1056.78L90.7206 1057.44L90.7206 1057.44L90.9287 1056.78ZM113.026 1044.81L112.749 1045.44L112.758 1045.44L113.026 1044.81ZM99.8689 1039.58L99.6131 1040.22L99.6258 1040.22L99.8689 1039.58ZM92.2782 1036.54L92.0133 1037.18L92.0225 1037.18L92.2782 1036.54ZM84.5188 1032.15L84.0978 1032.7L84.1057 1032.71L84.1138 1032.71L84.5188 1032.15ZM78.4462 1024.9L77.8349 1025.22L77.84 1025.23L78.4462 1024.9ZM80.6391 998.418L80.0901 998.003L80.0883 998.005L80.6391 998.418ZM93.459 988.972L93.2056 988.332L93.2056 988.332L93.459 988.972ZM125.171 987.116L125.033 987.791L125.036 987.792L125.171 987.116ZM137.991 990.659L138.671 990.767L138.761 990.205L138.225 990.011L137.991 990.659ZM134.786 1010.73L134.438 1011.33L135.307 1011.84L135.466 1010.84L134.786 1010.73ZM123.653 1006.18L123.452 1006.84L123.463 1006.84L123.473 1006.84L123.653 1006.18ZM103.411 1006.18L103.719 1006.79L103.731 1006.79L103.411 1006.18ZM102.399 1016.47L101.974 1017.01L101.986 1017.02L101.999 1017.03L102.399 1016.47ZM108.809 1019.5L108.591 1020.16L108.604 1020.16L108.616 1020.16L108.809 1019.5ZM117.749 1022.71L117.486 1023.34L117.495 1023.35L117.505 1023.35L117.749 1022.71ZM128.039 1027.43L127.716 1028.04L127.724 1028.04L128.039 1027.43ZM136.473 1065.72L135.931 1065.3L135.93 1065.3L136.473 1065.72ZM123.484 1074.66L123.259 1074.01L123.255 1074.01L123.484 1074.66ZM105.098 1077.53V1076.84C99.6349 1076.84 94.3424 1076.28 89.2195 1075.17L89.0732 1075.84L88.927 1076.52C94.1499 1077.65 99.5406 1078.22 105.098 1078.22V1077.53ZM89.0732 1075.84L89.2226 1075.17C84.207 1074.06 79.939 1072.56 76.4077 1070.68L76.0847 1071.29L75.7617 1071.9C79.4274 1073.84 83.8185 1075.38 88.9239 1076.52L89.0732 1075.84ZM76.0847 1071.29L76.7692 1071.36L78.962 1051.12L78.2775 1051.05L77.593 1050.97L75.4002 1071.21L76.0847 1071.29ZM78.2775 1051.05L77.9157 1051.63C81.7909 1054.03 86.0601 1055.96 90.7206 1057.44L90.9287 1056.78L91.1368 1056.13C86.576 1054.68 82.4112 1052.79 78.6393 1050.46L78.2775 1051.05ZM90.9287 1056.78L90.7206 1057.44C95.3859 1058.92 99.7861 1059.66 103.917 1059.66V1058.98V1058.29C99.9517 1058.29 95.6929 1057.57 91.1368 1056.13L90.9287 1056.78ZM103.917 1058.98V1059.66C107.602 1059.66 110.86 1058.97 113.671 1057.57L113.363 1056.95L113.056 1056.34C110.469 1057.63 107.429 1058.29 103.917 1058.29V1058.98ZM113.363 1056.95L113.671 1057.57C115.107 1056.85 116.223 1055.92 116.977 1054.75C117.734 1053.59 118.1 1052.23 118.1 1050.71H117.412H116.723C116.723 1052 116.415 1053.09 115.822 1054C115.227 1054.92 114.319 1055.7 113.056 1056.34L113.363 1056.95ZM117.412 1050.71H118.1C118.1 1049.23 117.696 1047.91 116.868 1046.8C116.045 1045.69 114.837 1044.82 113.294 1044.17L113.026 1044.81L112.758 1045.44C114.139 1046.02 115.124 1046.76 115.763 1047.62C116.397 1048.47 116.723 1049.49 116.723 1050.71H117.412ZM113.026 1044.81L113.303 1044.18C110.474 1042.93 106.074 1041.18 100.112 1038.93L99.8689 1039.58L99.6258 1040.22C105.584 1042.47 109.955 1044.21 112.749 1045.44L113.026 1044.81ZM99.8689 1039.58L100.125 1038.94C97.8755 1038.04 95.3453 1037.03 92.5339 1035.9L92.2782 1036.54L92.0225 1037.18C94.8339 1038.3 97.3641 1039.32 99.6132 1040.22L99.8689 1039.58ZM92.2782 1036.54L92.543 1035.9C89.8959 1034.8 87.3563 1033.37 84.9237 1031.6L84.5188 1032.15L84.1138 1032.71C86.6293 1034.54 89.2626 1036.03 92.0134 1037.18L92.2782 1036.54ZM84.5188 1032.15L84.9398 1031.61C82.5468 1029.76 80.5839 1027.42 79.0524 1024.57L78.4462 1024.9L77.84 1025.23C79.4572 1028.23 81.5427 1030.73 84.0978 1032.7L84.5188 1032.15ZM78.4462 1024.9L79.0574 1024.58C77.5473 1021.67 76.7732 1018.02 76.7732 1013.6H76.0847H75.3962C75.3962 1018.17 76.1964 1022.06 77.835 1025.22L78.4462 1024.9ZM76.0847 1013.6H76.7732C76.7732 1007.65 78.2598 1002.74 81.1899 998.831L80.6391 998.418L80.0883 998.005C76.9458 1002.19 75.3962 1007.41 75.3962 1013.6H76.0847ZM80.6391 998.418L81.1881 998.834C84.2524 994.784 88.4182 991.708 93.7124 989.612L93.459 988.972L93.2056 988.332C87.704 990.509 83.3233 993.73 80.0901 998.003L80.6391 998.418ZM93.459 988.972L93.7124 989.612C99.0176 987.512 105.002 986.455 111.677 986.455V985.767V985.078C104.856 985.078 98.696 986.158 93.2056 988.332L93.459 988.972ZM111.677 985.767V986.455C116.242 986.455 120.694 986.901 125.033 987.791L125.171 987.116L125.31 986.442C120.877 985.533 116.332 985.078 111.677 985.078V985.767ZM125.171 987.116L125.036 987.792C129.503 988.685 133.743 989.857 137.757 991.306L137.991 990.659L138.225 990.011C134.142 988.537 129.836 987.347 125.306 986.441L125.171 987.116ZM137.991 990.659L137.311 990.55L134.106 1010.62L134.786 1010.73L135.466 1010.84L138.671 990.767L137.991 990.659ZM134.786 1010.73L135.134 1010.14C131.814 1008.19 128.045 1006.65 123.833 1005.51L123.653 1006.18L123.473 1006.84C127.583 1007.95 131.236 1009.45 134.438 1011.33L134.786 1010.73ZM123.653 1006.18L123.854 1005.52C119.752 1004.27 115.86 1003.63 112.183 1003.63V1004.32V1005.01C115.702 1005.01 119.458 1005.62 123.452 1006.84L123.653 1006.18ZM112.183 1004.32V1003.63C108.618 1003.63 105.578 1004.27 103.092 1005.57L103.411 1006.18L103.731 1006.79C105.968 1005.62 108.775 1005.01 112.183 1005.01V1004.32ZM103.411 1006.18L103.103 1005.56C101.887 1006.17 100.938 1006.98 100.297 1008.01C99.6558 1009.03 99.3491 1010.23 99.3491 1011.58H100.038H100.726C100.726 1010.45 100.982 1009.51 101.465 1008.74C101.948 1007.96 102.687 1007.31 103.719 1006.79L103.411 1006.18ZM100.038 1011.58H99.3491C99.3491 1013.81 100.231 1015.64 101.974 1017.01L102.399 1016.47L102.825 1015.93C101.418 1014.82 100.726 1013.39 100.726 1011.58H100.038ZM102.399 1016.47L101.999 1017.03C103.649 1018.21 105.855 1019.24 108.591 1020.16L108.809 1019.5L109.027 1018.85C106.365 1017.96 104.298 1016.98 102.799 1015.91L102.399 1016.47ZM108.809 1019.5L108.616 1020.16C111.286 1020.94 114.242 1022 117.486 1023.34L117.749 1022.71L118.012 1022.07C114.734 1020.72 111.73 1019.64 109.002 1018.84L108.809 1019.5ZM117.749 1022.71L117.505 1023.35C120.735 1024.58 124.139 1026.14 127.716 1028.04L128.039 1027.43L128.362 1026.82C124.742 1024.9 121.286 1023.31 117.993 1022.06L117.749 1022.71ZM128.039 1027.43L127.724 1028.04C131.337 1029.91 134.406 1032.53 136.932 1035.94L137.485 1035.53L138.038 1035.12C135.391 1031.55 132.163 1028.78 128.354 1026.82L128.039 1027.43ZM137.485 1035.53L136.932 1035.94C139.402 1039.27 140.676 1043.88 140.676 1049.87H141.365H142.053C142.053 1043.7 140.742 1038.76 138.038 1035.12L137.485 1035.53ZM141.365 1049.87H140.676C140.676 1056.16 139.078 1061.28 135.931 1065.3L136.473 1065.72L137.015 1066.15C140.39 1061.84 142.053 1056.4 142.053 1049.87H141.365ZM136.473 1065.72L135.93 1065.3C132.873 1069.23 128.661 1072.14 123.259 1074.01L123.484 1074.66L123.71 1075.31C129.328 1073.36 133.775 1070.31 137.016 1066.15L136.473 1065.72ZM123.484 1074.66L123.255 1074.01C117.944 1075.89 111.895 1076.84 105.098 1076.84V1077.53V1078.22C112.021 1078.22 118.23 1077.25 123.714 1075.31L123.484 1074.66ZM166.288 1071.46L165.814 1071.96L165.82 1071.96L165.827 1071.97L166.288 1071.46ZM159.709 1008.54H160.398V1007.85H159.709V1008.54ZM146.214 1008.54H145.526V1009.23H146.214V1008.54ZM146.214 988.129V987.44H145.526V988.129H146.214ZM159.709 988.129V988.817H160.398V988.129H159.709ZM159.709 969.573L159.596 968.894L159.021 968.99V969.573H159.709ZM183.325 966.537H184.013V965.785L183.264 965.851L183.325 966.537ZM183.325 988.129H182.636V988.817H183.325V988.129ZM205.253 988.129H205.942V987.44H205.253V988.129ZM205.253 1008.54V1009.23H205.942V1008.54H205.253ZM183.325 1008.54V1007.85H182.636V1008.54H183.325ZM202.217 1054.59L202.878 1054.4L202.672 1053.69L201.983 1053.94L202.217 1054.59ZM207.446 1072.47L207.738 1073.09L208.273 1072.84L208.107 1072.28L207.446 1072.47ZM185.18 1077.53V1076.84C177.195 1076.84 171.082 1074.85 166.748 1070.95L166.288 1071.46L165.827 1071.97C170.489 1076.17 176.972 1078.22 185.18 1078.22V1077.53ZM166.288 1071.46L166.761 1070.96C162.545 1066.96 160.398 1061.31 160.398 1053.91H159.709H159.021C159.021 1061.59 161.259 1067.64 165.814 1071.96L166.288 1071.46ZM159.709 1053.91H160.398V1008.54H159.709H159.021V1053.91H159.709ZM159.709 1008.54V1007.85H146.214V1008.54V1009.23H159.709V1008.54ZM146.214 1008.54H146.903V988.129H146.214H145.526V1008.54H146.214ZM146.214 988.129V988.817H159.709V988.129V987.44H146.214V988.129ZM159.709 988.129H160.398V969.573H159.709H159.021V988.129H159.709ZM159.709 969.573L159.822 970.253C167.903 968.906 175.757 967.896 183.385 967.223L183.325 966.537L183.264 965.851C175.598 966.528 167.709 967.542 159.596 968.894L159.709 969.573ZM183.325 966.537H182.636V988.129H183.325H184.013V966.537H183.325ZM183.325 988.129V988.817H205.253V988.129V987.44H183.325V988.129ZM205.253 988.129H204.565V1008.54H205.253H205.942V988.129H205.253ZM205.253 1008.54V1007.85H183.325V1008.54V1009.23H205.253V1008.54ZM183.325 1008.54H182.636V1049.53H183.325H184.013V1008.54H183.325ZM183.325 1049.53H182.636C182.636 1052.07 183.35 1054.1 184.889 1055.48C186.415 1056.85 188.634 1057.47 191.421 1057.47V1056.78V1056.09C188.811 1056.09 186.982 1055.51 185.808 1054.46C184.649 1053.42 184.013 1051.82 184.013 1049.53H183.325ZM191.421 1056.78V1057.47C194.673 1057.47 198.353 1056.72 202.451 1055.24L202.217 1054.59L201.983 1053.94C197.984 1055.39 194.467 1056.09 191.421 1056.09V1056.78ZM202.217 1054.59L201.556 1054.78L206.785 1072.66L207.446 1072.47L208.107 1072.28L202.878 1054.4L202.217 1054.59ZM207.446 1072.47L207.154 1071.85C200.045 1075.18 192.722 1076.84 185.18 1076.84V1077.53V1078.22C192.932 1078.22 200.454 1076.51 207.738 1073.09L207.446 1072.47ZM218.155 1066.23L217.588 1066.62L217.595 1066.63L218.155 1066.23ZM222.372 998.418L222.865 998.898L222.869 998.895L222.372 998.418ZM287.315 989.815H288.003V989.27L287.472 989.145L287.315 989.815ZM287.315 1075V1075.69H288.003V1075H287.315ZM264.711 1075L264.023 1074.97L263.997 1075.69H264.711V1075ZM265.217 1061.17L265.905 1061.19L265.931 1060.48H265.217V1061.17ZM264.543 1061.17V1060.48H264.13L263.936 1060.84L264.543 1061.17ZM255.265 1050.88L254.742 1050.43L254.742 1050.43L255.265 1050.88ZM264.374 1036.37L264.997 1036.66L265.062 1036.53V1036.37H264.374ZM264.374 1008.03H265.062V1007.53L264.579 1007.38L264.374 1008.03ZM258.807 1006.85L258.727 1007.54L258.727 1007.54L258.807 1006.85ZM236.204 1050.71L235.585 1051.01L235.588 1051.02L236.204 1050.71ZM239.578 1077.53V1076.84C230.927 1076.84 223.99 1073.19 218.715 1065.83L218.155 1066.23L217.595 1066.63C223.116 1074.34 230.46 1078.22 239.578 1078.22V1077.53ZM218.155 1066.23L218.721 1065.84C213.543 1058.34 210.915 1048.04 210.915 1034.85H210.227H209.538C209.538 1048.21 212.196 1058.82 217.588 1066.62L218.155 1066.23ZM210.227 1034.85H210.915C210.915 1019 214.934 1007.05 222.865 998.898L222.372 998.418L221.878 997.938C213.616 1006.43 209.538 1018.77 209.538 1034.85H210.227ZM222.372 998.418L222.869 998.895C230.8 990.633 242.237 986.455 257.289 986.455V985.767V985.078C241.979 985.078 230.138 989.335 221.875 997.941L222.372 998.418ZM257.289 985.767V986.455C265.767 986.455 275.72 987.795 287.157 990.486L287.315 989.815L287.472 989.145C275.968 986.438 265.905 985.078 257.289 985.078V985.767ZM287.315 989.815H286.626V1075H287.315H288.003V989.815H287.315ZM287.315 1075V1074.31H264.711V1075V1075.69H287.315V1075ZM264.711 1075L265.399 1075.03L265.905 1061.19L265.217 1061.17L264.529 1061.14L264.023 1074.97L264.711 1075ZM265.217 1061.17V1060.48H264.543V1061.17V1061.86H265.217V1061.17ZM264.543 1061.17L263.936 1060.84C258.187 1071.57 250.077 1076.84 239.578 1076.84V1077.53V1078.22C250.669 1078.22 259.203 1072.59 265.149 1061.49L264.543 1061.17ZM244.638 1056.78V1057.47C248.62 1057.47 252.337 1055.35 255.788 1051.33L255.265 1050.88L254.742 1050.43C251.445 1054.28 248.078 1056.09 244.638 1056.09V1056.78ZM255.265 1050.88L255.788 1051.33C259.209 1047.33 262.277 1042.44 264.997 1036.66L264.374 1036.37L263.751 1036.08C261.073 1041.77 258.068 1046.55 254.742 1050.43L255.265 1050.88ZM264.374 1036.37H265.062V1008.03H264.374H263.685V1036.37H264.374ZM264.374 1008.03L264.579 1007.38C262.738 1006.8 260.841 1006.4 258.888 1006.17L258.807 1006.85L258.727 1007.54C260.597 1007.76 262.411 1008.14 264.168 1008.69L264.374 1008.03ZM258.807 1006.85L258.888 1006.17C256.955 1005.94 255.185 1005.83 253.578 1005.83V1006.51V1007.2C255.121 1007.2 256.836 1007.31 258.727 1007.54L258.807 1006.85ZM253.578 1006.51V1005.83C246.606 1005.83 241.277 1008.17 237.719 1012.93C234.189 1017.66 232.479 1024.67 232.479 1033.84H233.168H233.856C233.856 1024.8 235.548 1018.14 238.822 1013.76C242.067 1009.41 246.944 1007.2 253.578 1007.2V1006.51ZM233.168 1033.84H232.479C232.479 1040.98 233.497 1046.72 235.585 1051.01L236.204 1050.71L236.823 1050.41C234.862 1046.38 233.856 1040.87 233.856 1033.84H233.168ZM236.204 1050.71L235.588 1051.02C237.693 1055.23 240.707 1057.47 244.638 1057.47V1056.78V1056.09C241.372 1056.09 238.763 1054.29 236.82 1050.4L236.204 1050.71ZM310.344 1066.06L309.864 1066.55L309.868 1066.56L310.344 1066.06ZM304.103 1008.54L304.714 1008.85L304.714 1008.85L304.103 1008.54ZM319.79 991.84L320.137 992.434L320.144 992.43L319.79 991.84ZM356.394 987.285L356.243 987.957L356.251 987.959L356.259 987.96L356.394 987.285ZM366.852 990.49L367.524 990.642L367.643 990.116L367.16 989.874L366.852 990.49ZM362.298 1010.56L362.001 1011.18L362.779 1011.56L362.969 1010.72L362.298 1010.56ZM353.695 1007.7L353.528 1008.36L353.54 1008.37L353.551 1008.37L353.695 1007.7ZM363.985 1053.91L364.662 1053.79L364.518 1053.01L363.767 1053.26L363.985 1053.91ZM367.527 1073.14L367.773 1073.79L368.308 1073.58L368.204 1073.02L367.527 1073.14ZM355.888 1076.35L355.772 1075.67L355.76 1075.67L355.749 1075.68L355.888 1076.35ZM343.912 1077.53V1076.84C329.639 1076.84 318.641 1073.05 310.82 1065.56L310.344 1066.06L309.868 1066.56C318.015 1074.36 329.395 1078.22 343.912 1078.22V1077.53ZM310.344 1066.06L310.824 1065.57C303.119 1058.08 299.225 1047.48 299.225 1033.67H298.536H297.848C297.848 1047.75 301.825 1058.74 309.864 1066.55L310.344 1066.06ZM298.536 1033.67H299.225C299.225 1024.2 301.062 1015.94 304.714 1008.85L304.103 1008.54L303.491 1008.22C299.721 1015.53 297.848 1024.02 297.848 1033.67H298.536ZM304.103 1008.54L304.714 1008.85C308.368 1001.77 313.507 996.302 320.137 992.434L319.79 991.84L319.443 991.245C312.578 995.249 307.259 1000.91 303.491 1008.22L304.103 1008.54ZM319.79 991.84L320.144 992.43C326.771 988.454 334.461 986.455 343.237 986.455V985.767V985.078C334.245 985.078 326.303 987.129 319.436 991.249L319.79 991.84ZM343.237 985.767V986.455C347.455 986.455 351.79 986.955 356.243 987.957L356.394 987.285L356.545 986.613C352.001 985.591 347.565 985.078 343.237 985.078V985.767ZM356.394 987.285L356.259 987.96C360.731 988.855 364.149 989.908 366.545 991.106L366.852 990.49L367.16 989.874C364.608 988.598 361.054 987.515 356.529 986.61L356.394 987.285ZM366.852 990.49L366.181 990.338L361.627 1010.41L362.298 1010.56L362.969 1010.72L367.524 990.642L366.852 990.49ZM362.298 1010.56L362.595 1009.94C359.954 1008.68 357.035 1007.71 353.839 1007.02L353.695 1007.7L353.551 1008.37C356.653 1009.03 359.469 1009.97 362.001 1011.18L362.298 1010.56ZM353.695 1007.7L353.862 1007.03C350.672 1006.23 347.747 1005.83 345.092 1005.83V1006.51V1007.2C347.61 1007.2 350.421 1007.59 353.528 1008.36L353.695 1007.7ZM345.092 1006.51V1005.83C338.055 1005.83 332.297 1008.26 327.882 1013.14L328.393 1013.6L328.903 1014.06C333.035 1009.49 338.41 1007.2 345.092 1007.2V1006.51ZM328.393 1013.6L327.882 1013.14C323.471 1018.01 321.294 1024.43 321.294 1032.32H321.983H322.671C322.671 1024.7 324.768 1018.63 328.903 1014.06L328.393 1013.6ZM321.983 1032.32H321.294C321.294 1040.33 323.527 1046.6 328.081 1051.03L328.561 1050.54L329.042 1050.05C324.824 1045.94 322.671 1040.07 322.671 1032.32H321.983ZM328.561 1050.54L328.081 1051.03C332.629 1055.47 338.95 1057.64 346.948 1057.64V1056.95V1056.26C339.202 1056.26 333.265 1054.16 329.042 1050.05L328.561 1050.54ZM346.948 1056.95V1057.64C352.321 1057.64 358.074 1056.61 364.203 1054.57L363.985 1053.91L363.767 1053.26C357.75 1055.27 352.146 1056.26 346.948 1056.26V1056.95ZM363.985 1053.91L363.308 1054.04L366.85 1073.27L367.527 1073.14L368.204 1073.02L364.662 1053.79L363.985 1053.91ZM367.527 1073.14L367.281 1072.5C363.499 1073.95 359.662 1075 355.772 1075.67L355.888 1076.35L356.004 1077.03C359.986 1076.35 363.909 1075.27 367.773 1073.79L367.527 1073.14ZM355.888 1076.35L355.749 1075.68C351.974 1076.45 348.029 1076.84 343.912 1076.84V1077.53V1078.22C348.116 1078.22 352.155 1077.82 356.027 1077.02L355.888 1076.35ZM433.898 1077.53L433.355 1077.95L433.599 1078.27L433.992 1078.21L433.898 1077.53ZM402.523 1037.22L403.067 1036.79L401.835 1035.21V1037.22H402.523ZM402.523 1075V1075.69H403.212V1075H402.523ZM378.739 1075H378.051V1075.69H378.739V1075ZM378.739 951.693V951.005H378.051V951.693H378.739ZM402.523 951.693H403.212V951.005H402.523V951.693ZM402.523 1019.84H401.835V1021.7L403.046 1020.29L402.523 1019.84ZM429.681 988.129V987.44H429.365L429.158 987.681L429.681 988.129ZM457.851 988.129L458.365 988.587L459.388 987.44H457.851V988.129ZM423.103 1027.09L422.589 1026.64L422.206 1027.06L422.56 1027.52L423.103 1027.09ZM459.707 1073.99L459.8 1074.67L460.986 1074.51L460.25 1073.56L459.707 1073.99ZM433.898 1077.53L434.442 1077.11L403.067 1036.79L402.523 1037.22L401.98 1037.64L433.355 1077.95L433.898 1077.53ZM402.523 1037.22H401.835V1075H402.523H403.212V1037.22H402.523ZM402.523 1075V1074.31H378.739V1075V1075.69H402.523V1075ZM378.739 1075H379.428V951.693H378.739H378.051V1075H378.739ZM378.739 951.693V952.382H402.523V951.693V951.005H378.739V951.693ZM402.523 951.693H401.835V1019.84H402.523H403.212V951.693H402.523ZM402.523 1019.84L403.046 1020.29L430.204 988.576L429.681 988.129L429.158 987.681L402.001 1019.39L402.523 1019.84ZM429.681 988.129V988.817H457.851V988.129V987.44H429.681V988.129ZM457.851 988.129L457.337 987.67L422.589 1026.64L423.103 1027.09L423.617 1027.55L458.365 988.587L457.851 988.129ZM423.103 1027.09L422.56 1027.52L459.164 1074.41L459.707 1073.99L460.25 1073.56L423.645 1026.67L423.103 1027.09ZM459.707 1073.99L459.613 1073.31L433.805 1076.85L433.898 1077.53L433.992 1078.21L459.8 1074.67L459.707 1073.99ZM473.278 1075.51L473.765 1075.02L473.765 1075.02L473.278 1075.51ZM473.278 1051.05L473.765 1051.53L473.765 1051.53L473.278 1051.05ZM497.906 1051.05L497.411 1051.53L497.419 1051.53L497.906 1051.05ZM497.906 1075.51L497.419 1075.02L497.411 1075.03L497.906 1075.51ZM485.592 1080.74V1080.05C481.06 1080.05 477.128 1078.38 473.765 1075.02L473.278 1075.51L472.791 1075.99C476.4 1079.6 480.677 1081.42 485.592 1081.42V1080.74ZM473.278 1075.51L473.765 1075.02C470.519 1071.77 468.906 1067.9 468.906 1063.36H468.217H467.529C467.529 1068.27 469.29 1072.49 472.791 1075.99L473.278 1075.51ZM468.217 1063.36H468.906C468.906 1058.71 470.522 1054.78 473.765 1051.53L473.278 1051.05L472.791 1050.56C469.286 1054.06 467.529 1058.35 467.529 1063.36H468.217ZM473.278 1051.05L473.765 1051.53C477.128 1048.17 481.06 1046.51 485.592 1046.51V1045.82V1045.13C480.677 1045.13 476.4 1046.95 472.791 1050.56L473.278 1051.05ZM485.592 1045.82V1046.51C490.24 1046.51 494.166 1048.17 497.411 1051.53L497.906 1051.05L498.4 1050.57C494.897 1046.95 490.614 1045.13 485.592 1045.13V1045.82ZM497.906 1051.05L497.419 1051.53C500.661 1054.78 502.278 1058.71 502.278 1063.36H502.966H503.655C503.655 1058.35 501.897 1054.06 498.392 1050.56L497.906 1051.05ZM502.966 1063.36H502.278C502.278 1067.9 500.665 1071.77 497.419 1075.02L497.906 1075.51L498.392 1075.99C501.894 1072.49 503.655 1068.27 503.655 1063.36H502.966ZM497.906 1075.51L497.411 1075.03C494.166 1078.38 490.24 1080.05 485.592 1080.05V1080.74V1081.42C490.614 1081.42 494.897 1079.6 498.4 1075.98L497.906 1075.51Z" fill="white"/>
<path d="M89.0732 1075.84L88.9239 1076.52L88.927 1076.52L89.0732 1075.84ZM76.0847 1071.29L75.4002 1071.21L75.35 1071.68L75.7617 1071.9L76.0847 1071.29ZM78.2775 1051.05L78.6393 1050.46L77.7106 1049.89L77.593 1050.97L78.2775 1051.05ZM90.9287 1056.78L90.7206 1057.44L90.7206 1057.44L90.9287 1056.78ZM113.026 1044.81L112.749 1045.44L112.758 1045.44L113.026 1044.81ZM99.8689 1039.58L99.6131 1040.22L99.6258 1040.22L99.8689 1039.58ZM92.2782 1036.54L92.0133 1037.18L92.0225 1037.18L92.2782 1036.54ZM84.5188 1032.15L84.0978 1032.7L84.1057 1032.71L84.1138 1032.71L84.5188 1032.15ZM78.4462 1024.9L77.8349 1025.22L77.84 1025.23L78.4462 1024.9ZM80.6391 998.418L80.0901 998.003L80.0883 998.005L80.6391 998.418ZM93.459 988.972L93.2056 988.332L93.2056 988.332L93.459 988.972ZM125.171 987.116L125.033 987.791L125.036 987.792L125.171 987.116ZM137.991 990.659L138.671 990.767L138.761 990.205L138.225 990.011L137.991 990.659ZM134.786 1010.73L134.438 1011.33L135.307 1011.84L135.466 1010.84L134.786 1010.73ZM123.653 1006.18L123.452 1006.84L123.463 1006.84L123.473 1006.84L123.653 1006.18ZM103.411 1006.18L103.719 1006.79L103.731 1006.79L103.411 1006.18ZM102.399 1016.47L101.974 1017.01L101.986 1017.02L101.999 1017.03L102.399 1016.47ZM108.809 1019.5L108.591 1020.16L108.604 1020.16L108.616 1020.16L108.809 1019.5ZM117.749 1022.71L117.486 1023.34L117.495 1023.35L117.505 1023.35L117.749 1022.71ZM128.039 1027.43L127.716 1028.04L127.724 1028.04L128.039 1027.43ZM136.473 1065.72L135.931 1065.3L135.93 1065.3L136.473 1065.72ZM123.484 1074.66L123.259 1074.01L123.255 1074.01L123.484 1074.66ZM105.098 1077.53V1076.84C99.6349 1076.84 94.3424 1076.28 89.2195 1075.17L89.0732 1075.84L88.927 1076.52C94.1499 1077.65 99.5406 1078.22 105.098 1078.22V1077.53ZM89.0732 1075.84L89.2226 1075.17C84.207 1074.06 79.939 1072.56 76.4077 1070.68L76.0847 1071.29L75.7617 1071.9C79.4274 1073.84 83.8185 1075.38 88.9239 1076.52L89.0732 1075.84ZM76.0847 1071.29L76.7692 1071.36L78.962 1051.12L78.2775 1051.05L77.593 1050.97L75.4002 1071.21L76.0847 1071.29ZM78.2775 1051.05L77.9157 1051.63C81.7909 1054.03 86.0601 1055.96 90.7206 1057.44L90.9287 1056.78L91.1368 1056.13C86.576 1054.68 82.4112 1052.79 78.6393 1050.46L78.2775 1051.05ZM90.9287 1056.78L90.7206 1057.44C95.3859 1058.92 99.7861 1059.66 103.917 1059.66V1058.98V1058.29C99.9517 1058.29 95.6929 1057.57 91.1368 1056.13L90.9287 1056.78ZM103.917 1058.98V1059.66C107.602 1059.66 110.86 1058.97 113.671 1057.57L113.363 1056.95L113.056 1056.34C110.469 1057.63 107.429 1058.29 103.917 1058.29V1058.98ZM113.363 1056.95L113.671 1057.57C115.107 1056.85 116.223 1055.92 116.977 1054.75C117.734 1053.59 118.1 1052.23 118.1 1050.71H117.412H116.723C116.723 1052 116.415 1053.09 115.822 1054C115.227 1054.92 114.319 1055.7 113.056 1056.34L113.363 1056.95ZM117.412 1050.71H118.1C118.1 1049.23 117.696 1047.91 116.868 1046.8C116.045 1045.69 114.837 1044.82 113.294 1044.17L113.026 1044.81L112.758 1045.44C114.139 1046.02 115.124 1046.76 115.763 1047.62C116.397 1048.47 116.723 1049.49 116.723 1050.71H117.412ZM113.026 1044.81L113.303 1044.18C110.474 1042.93 106.074 1041.18 100.112 1038.93L99.8689 1039.58L99.6258 1040.22C105.584 1042.47 109.955 1044.21 112.749 1045.44L113.026 1044.81ZM99.8689 1039.58L100.125 1038.94C97.8755 1038.04 95.3453 1037.03 92.5339 1035.9L92.2782 1036.54L92.0225 1037.18C94.8339 1038.3 97.3641 1039.32 99.6132 1040.22L99.8689 1039.58ZM92.2782 1036.54L92.543 1035.9C89.8959 1034.8 87.3563 1033.37 84.9237 1031.6L84.5188 1032.15L84.1138 1032.71C86.6293 1034.54 89.2626 1036.03 92.0134 1037.18L92.2782 1036.54ZM84.5188 1032.15L84.9398 1031.61C82.5468 1029.76 80.5839 1027.42 79.0524 1024.57L78.4462 1024.9L77.84 1025.23C79.4572 1028.23 81.5427 1030.73 84.0978 1032.7L84.5188 1032.15ZM78.4462 1024.9L79.0574 1024.58C77.5473 1021.67 76.7732 1018.02 76.7732 1013.6H76.0847H75.3962C75.3962 1018.17 76.1964 1022.06 77.835 1025.22L78.4462 1024.9ZM76.0847 1013.6H76.7732C76.7732 1007.65 78.2598 1002.74 81.1899 998.831L80.6391 998.418L80.0883 998.005C76.9458 1002.19 75.3962 1007.41 75.3962 1013.6H76.0847ZM80.6391 998.418L81.1881 998.834C84.2524 994.784 88.4182 991.708 93.7124 989.612L93.459 988.972L93.2056 988.332C87.704 990.509 83.3233 993.73 80.0901 998.003L80.6391 998.418ZM93.459 988.972L93.7124 989.612C99.0176 987.512 105.002 986.455 111.677 986.455V985.767V985.078C104.856 985.078 98.696 986.158 93.2056 988.332L93.459 988.972ZM111.677 985.767V986.455C116.242 986.455 120.694 986.901 125.033 987.791L125.171 987.116L125.31 986.442C120.877 985.533 116.332 985.078 111.677 985.078V985.767ZM125.171 987.116L125.036 987.792C129.503 988.685 133.743 989.857 137.757 991.306L137.991 990.659L138.225 990.011C134.142 988.537 129.836 987.347 125.306 986.441L125.171 987.116ZM137.991 990.659L137.311 990.55L134.106 1010.62L134.786 1010.73L135.466 1010.84L138.671 990.767L137.991 990.659ZM134.786 1010.73L135.134 1010.14C131.814 1008.19 128.045 1006.65 123.833 1005.51L123.653 1006.18L123.473 1006.84C127.583 1007.95 131.236 1009.45 134.438 1011.33L134.786 1010.73ZM123.653 1006.18L123.854 1005.52C119.752 1004.27 115.86 1003.63 112.183 1003.63V1004.32V1005.01C115.702 1005.01 119.458 1005.62 123.452 1006.84L123.653 1006.18ZM112.183 1004.32V1003.63C108.618 1003.63 105.578 1004.27 103.092 1005.57L103.411 1006.18L103.731 1006.79C105.968 1005.62 108.775 1005.01 112.183 1005.01V1004.32ZM103.411 1006.18L103.103 1005.56C101.887 1006.17 100.938 1006.98 100.297 1008.01C99.6558 1009.03 99.3491 1010.23 99.3491 1011.58H100.038H100.726C100.726 1010.45 100.982 1009.51 101.465 1008.74C101.948 1007.96 102.687 1007.31 103.719 1006.79L103.411 1006.18ZM100.038 1011.58H99.3491C99.3491 1013.81 100.231 1015.64 101.974 1017.01L102.399 1016.47L102.825 1015.93C101.418 1014.82 100.726 1013.39 100.726 1011.58H100.038ZM102.399 1016.47L101.999 1017.03C103.649 1018.21 105.855 1019.24 108.591 1020.16L108.809 1019.5L109.027 1018.85C106.365 1017.96 104.298 1016.98 102.799 1015.91L102.399 1016.47ZM108.809 1019.5L108.616 1020.16C111.286 1020.94 114.242 1022 117.486 1023.34L117.749 1022.71L118.012 1022.07C114.734 1020.72 111.73 1019.64 109.002 1018.84L108.809 1019.5ZM117.749 1022.71L117.505 1023.35C120.735 1024.58 124.139 1026.14 127.716 1028.04L128.039 1027.43L128.362 1026.82C124.742 1024.9 121.286 1023.31 117.993 1022.06L117.749 1022.71ZM128.039 1027.43L127.724 1028.04C131.337 1029.91 134.406 1032.53 136.932 1035.94L137.485 1035.53L138.038 1035.12C135.391 1031.55 132.163 1028.78 128.354 1026.82L128.039 1027.43ZM137.485 1035.53L136.932 1035.94C139.402 1039.27 140.676 1043.88 140.676 1049.87H141.365H142.053C142.053 1043.7 140.742 1038.76 138.038 1035.12L137.485 1035.53ZM141.365 1049.87H140.676C140.676 1056.16 139.078 1061.28 135.931 1065.3L136.473 1065.72L137.015 1066.15C140.39 1061.84 142.053 1056.4 142.053 1049.87H141.365ZM136.473 1065.72L135.93 1065.3C132.873 1069.23 128.661 1072.14 123.259 1074.01L123.484 1074.66L123.71 1075.31C129.328 1073.36 133.775 1070.31 137.016 1066.15L136.473 1065.72ZM123.484 1074.66L123.255 1074.01C117.944 1075.89 111.895 1076.84 105.098 1076.84V1077.53V1078.22C112.021 1078.22 118.23 1077.25 123.714 1075.31L123.484 1074.66ZM166.288 1071.46L165.814 1071.96L165.82 1071.96L165.827 1071.97L166.288 1071.46ZM159.709 1008.54H160.398V1007.85H159.709V1008.54ZM146.214 1008.54H145.526V1009.23H146.214V1008.54ZM146.214 988.129V987.44H145.526V988.129H146.214ZM159.709 988.129V988.817H160.398V988.129H159.709ZM159.709 969.573L159.596 968.894L159.021 968.99V969.573H159.709ZM183.325 966.537H184.013V965.785L183.264 965.851L183.325 966.537ZM183.325 988.129H182.636V988.817H183.325V988.129ZM205.253 988.129H205.942V987.44H205.253V988.129ZM205.253 1008.54V1009.23H205.942V1008.54H205.253ZM183.325 1008.54V1007.85H182.636V1008.54H183.325ZM202.217 1054.59L202.878 1054.4L202.672 1053.69L201.983 1053.94L202.217 1054.59ZM207.446 1072.47L207.738 1073.09L208.273 1072.84L208.107 1072.28L207.446 1072.47ZM185.18 1077.53V1076.84C177.195 1076.84 171.082 1074.85 166.748 1070.95L166.288 1071.46L165.827 1071.97C170.489 1076.17 176.972 1078.22 185.18 1078.22V1077.53ZM166.288 1071.46L166.761 1070.96C162.545 1066.96 160.398 1061.31 160.398 1053.91H159.709H159.021C159.021 1061.59 161.259 1067.64 165.814 1071.96L166.288 1071.46ZM159.709 1053.91H160.398V1008.54H159.709H159.021V1053.91H159.709ZM159.709 1008.54V1007.85H146.214V1008.54V1009.23H159.709V1008.54ZM146.214 1008.54H146.903V988.129H146.214H145.526V1008.54H146.214ZM146.214 988.129V988.817H159.709V988.129V987.44H146.214V988.129ZM159.709 988.129H160.398V969.573H159.709H159.021V988.129H159.709ZM159.709 969.573L159.822 970.253C167.903 968.906 175.757 967.896 183.385 967.223L183.325 966.537L183.264 965.851C175.598 966.528 167.709 967.542 159.596 968.894L159.709 969.573ZM183.325 966.537H182.636V988.129H183.325H184.013V966.537H183.325ZM183.325 988.129V988.817H205.253V988.129V987.44H183.325V988.129ZM205.253 988.129H204.565V1008.54H205.253H205.942V988.129H205.253ZM205.253 1008.54V1007.85H183.325V1008.54V1009.23H205.253V1008.54ZM183.325 1008.54H182.636V1049.53H183.325H184.013V1008.54H183.325ZM183.325 1049.53H182.636C182.636 1052.07 183.35 1054.1 184.889 1055.48C186.415 1056.85 188.634 1057.47 191.421 1057.47V1056.78V1056.09C188.811 1056.09 186.982 1055.51 185.808 1054.46C184.649 1053.42 184.013 1051.82 184.013 1049.53H183.325ZM191.421 1056.78V1057.47C194.673 1057.47 198.353 1056.72 202.451 1055.24L202.217 1054.59L201.983 1053.94C197.984 1055.39 194.467 1056.09 191.421 1056.09V1056.78ZM202.217 1054.59L201.556 1054.78L206.785 1072.66L207.446 1072.47L208.107 1072.28L202.878 1054.4L202.217 1054.59ZM207.446 1072.47L207.154 1071.85C200.045 1075.18 192.722 1076.84 185.18 1076.84V1077.53V1078.22C192.932 1078.22 200.454 1076.51 207.738 1073.09L207.446 1072.47ZM218.155 1066.23L217.588 1066.62L217.595 1066.63L218.155 1066.23ZM222.372 998.418L222.865 998.898L222.869 998.895L222.372 998.418ZM287.315 989.815H288.003V989.27L287.472 989.145L287.315 989.815ZM287.315 1075V1075.69H288.003V1075H287.315ZM264.711 1075L264.023 1074.97L263.997 1075.69H264.711V1075ZM265.217 1061.17L265.905 1061.19L265.931 1060.48H265.217V1061.17ZM264.543 1061.17V1060.48H264.13L263.936 1060.84L264.543 1061.17ZM255.265 1050.88L254.742 1050.43L254.742 1050.43L255.265 1050.88ZM264.374 1036.37L264.997 1036.66L265.062 1036.53V1036.37H264.374ZM264.374 1008.03H265.062V1007.53L264.579 1007.38L264.374 1008.03ZM258.807 1006.85L258.727 1007.54L258.727 1007.54L258.807 1006.85ZM236.204 1050.71L235.585 1051.01L235.588 1051.02L236.204 1050.71ZM239.578 1077.53V1076.84C230.927 1076.84 223.99 1073.19 218.715 1065.83L218.155 1066.23L217.595 1066.63C223.116 1074.34 230.46 1078.22 239.578 1078.22V1077.53ZM218.155 1066.23L218.721 1065.84C213.543 1058.34 210.915 1048.04 210.915 1034.85H210.227H209.538C209.538 1048.21 212.196 1058.82 217.588 1066.62L218.155 1066.23ZM210.227 1034.85H210.915C210.915 1019 214.934 1007.05 222.865 998.898L222.372 998.418L221.878 997.938C213.616 1006.43 209.538 1018.77 209.538 1034.85H210.227ZM222.372 998.418L222.869 998.895C230.8 990.633 242.237 986.455 257.289 986.455V985.767V985.078C241.979 985.078 230.138 989.335 221.875 997.941L222.372 998.418ZM257.289 985.767V986.455C265.767 986.455 275.72 987.795 287.157 990.486L287.315 989.815L287.472 989.145C275.968 986.438 265.905 985.078 257.289 985.078V985.767ZM287.315 989.815H286.626V1075H287.315H288.003V989.815H287.315ZM287.315 1075V1074.31H264.711V1075V1075.69H287.315V1075ZM264.711 1075L265.399 1075.03L265.905 1061.19L265.217 1061.17L264.529 1061.14L264.023 1074.97L264.711 1075ZM265.217 1061.17V1060.48H264.543V1061.17V1061.86H265.217V1061.17ZM264.543 1061.17L263.936 1060.84C258.187 1071.57 250.077 1076.84 239.578 1076.84V1077.53V1078.22C250.669 1078.22 259.203 1072.59 265.149 1061.49L264.543 1061.17ZM244.638 1056.78V1057.47C248.62 1057.47 252.337 1055.35 255.788 1051.33L255.265 1050.88L254.742 1050.43C251.445 1054.28 248.078 1056.09 244.638 1056.09V1056.78ZM255.265 1050.88L255.788 1051.33C259.209 1047.33 262.277 1042.44 264.997 1036.66L264.374 1036.37L263.751 1036.08C261.073 1041.77 258.068 1046.55 254.742 1050.43L255.265 1050.88ZM264.374 1036.37H265.062V1008.03H264.374H263.685V1036.37H264.374ZM264.374 1008.03L264.579 1007.38C262.738 1006.8 260.841 1006.4 258.888 1006.17L258.807 1006.85L258.727 1007.54C260.597 1007.76 262.411 1008.14 264.168 1008.69L264.374 1008.03ZM258.807 1006.85L258.888 1006.17C256.955 1005.94 255.185 1005.83 253.578 1005.83V1006.51V1007.2C255.121 1007.2 256.836 1007.31 258.727 1007.54L258.807 1006.85ZM253.578 1006.51V1005.83C246.606 1005.83 241.277 1008.17 237.719 1012.93C234.189 1017.66 232.479 1024.67 232.479 1033.84H233.168H233.856C233.856 1024.8 235.548 1018.14 238.822 1013.76C242.067 1009.41 246.944 1007.2 253.578 1007.2V1006.51ZM233.168 1033.84H232.479C232.479 1040.98 233.497 1046.72 235.585 1051.01L236.204 1050.71L236.823 1050.41C234.862 1046.38 233.856 1040.87 233.856 1033.84H233.168ZM236.204 1050.71L235.588 1051.02C237.693 1055.23 240.707 1057.47 244.638 1057.47V1056.78V1056.09C241.372 1056.09 238.763 1054.29 236.82 1050.4L236.204 1050.71ZM310.344 1066.06L309.864 1066.55L309.868 1066.56L310.344 1066.06ZM304.103 1008.54L304.714 1008.85L304.714 1008.85L304.103 1008.54ZM319.79 991.84L320.137 992.434L320.144 992.43L319.79 991.84ZM356.394 987.285L356.243 987.957L356.251 987.959L356.259 987.96L356.394 987.285ZM366.852 990.49L367.524 990.642L367.643 990.116L367.16 989.874L366.852 990.49ZM362.298 1010.56L362.001 1011.18L362.779 1011.56L362.969 1010.72L362.298 1010.56ZM353.695 1007.7L353.528 1008.36L353.54 1008.37L353.551 1008.37L353.695 1007.7ZM363.985 1053.91L364.662 1053.79L364.518 1053.01L363.767 1053.26L363.985 1053.91ZM367.527 1073.14L367.773 1073.79L368.308 1073.58L368.204 1073.02L367.527 1073.14ZM355.888 1076.35L355.772 1075.67L355.76 1075.67L355.749 1075.68L355.888 1076.35ZM343.912 1077.53V1076.84C329.639 1076.84 318.641 1073.05 310.82 1065.56L310.344 1066.06L309.868 1066.56C318.015 1074.36 329.395 1078.22 343.912 1078.22V1077.53ZM310.344 1066.06L310.824 1065.57C303.119 1058.08 299.225 1047.48 299.225 1033.67H298.536H297.848C297.848 1047.75 301.825 1058.74 309.864 1066.55L310.344 1066.06ZM298.536 1033.67H299.225C299.225 1024.2 301.062 1015.94 304.714 1008.85L304.103 1008.54L303.491 1008.22C299.721 1015.53 297.848 1024.02 297.848 1033.67H298.536ZM304.103 1008.54L304.714 1008.85C308.368 1001.77 313.507 996.302 320.137 992.434L319.79 991.84L319.443 991.245C312.578 995.249 307.259 1000.91 303.491 1008.22L304.103 1008.54ZM319.79 991.84L320.144 992.43C326.771 988.454 334.461 986.455 343.237 986.455V985.767V985.078C334.245 985.078 326.303 987.129 319.436 991.249L319.79 991.84ZM343.237 985.767V986.455C347.455 986.455 351.79 986.955 356.243 987.957L356.394 987.285L356.545 986.613C352.001 985.591 347.565 985.078 343.237 985.078V985.767ZM356.394 987.285L356.259 987.96C360.731 988.855 364.149 989.908 366.545 991.106L366.852 990.49L367.16 989.874C364.608 988.598 361.054 987.515 356.529 986.61L356.394 987.285ZM366.852 990.49L366.181 990.338L361.627 1010.41L362.298 1010.56L362.969 1010.72L367.524 990.642L366.852 990.49ZM362.298 1010.56L362.595 1009.94C359.954 1008.68 357.035 1007.71 353.839 1007.02L353.695 1007.7L353.551 1008.37C356.653 1009.03 359.469 1009.97 362.001 1011.18L362.298 1010.56ZM353.695 1007.7L353.862 1007.03C350.672 1006.23 347.747 1005.83 345.092 1005.83V1006.51V1007.2C347.61 1007.2 350.421 1007.59 353.528 1008.36L353.695 1007.7ZM345.092 1006.51V1005.83C338.055 1005.83 332.297 1008.26 327.882 1013.14L328.393 1013.6L328.903 1014.06C333.035 1009.49 338.41 1007.2 345.092 1007.2V1006.51ZM328.393 1013.6L327.882 1013.14C323.471 1018.01 321.294 1024.43 321.294 1032.32H321.983H322.671C322.671 1024.7 324.768 1018.63 328.903 1014.06L328.393 1013.6ZM321.983 1032.32H321.294C321.294 1040.33 323.527 1046.6 328.081 1051.03L328.561 1050.54L329.042 1050.05C324.824 1045.94 322.671 1040.07 322.671 1032.32H321.983ZM328.561 1050.54L328.081 1051.03C332.629 1055.47 338.95 1057.64 346.948 1057.64V1056.95V1056.26C339.202 1056.26 333.265 1054.16 329.042 1050.05L328.561 1050.54ZM346.948 1056.95V1057.64C352.321 1057.64 358.074 1056.61 364.203 1054.57L363.985 1053.91L363.767 1053.26C357.75 1055.27 352.146 1056.26 346.948 1056.26V1056.95ZM363.985 1053.91L363.308 1054.04L366.85 1073.27L367.527 1073.14L368.204 1073.02L364.662 1053.79L363.985 1053.91ZM367.527 1073.14L367.281 1072.5C363.499 1073.95 359.662 1075 355.772 1075.67L355.888 1076.35L356.004 1077.03C359.986 1076.35 363.909 1075.27 367.773 1073.79L367.527 1073.14ZM355.888 1076.35L355.749 1075.68C351.974 1076.45 348.029 1076.84 343.912 1076.84V1077.53V1078.22C348.116 1078.22 352.155 1077.82 356.027 1077.02L355.888 1076.35ZM433.898 1077.53L433.355 1077.95L433.599 1078.27L433.992 1078.21L433.898 1077.53ZM402.523 1037.22L403.067 1036.79L401.835 1035.21V1037.22H402.523ZM402.523 1075V1075.69H403.212V1075H402.523ZM378.739 1075H378.051V1075.69H378.739V1075ZM378.739 951.693V951.005H378.051V951.693H378.739ZM402.523 951.693H403.212V951.005H402.523V951.693ZM402.523 1019.84H401.835V1021.7L403.046 1020.29L402.523 1019.84ZM429.681 988.129V987.44H429.365L429.158 987.681L429.681 988.129ZM457.851 988.129L458.365 988.587L459.388 987.44H457.851V988.129ZM423.103 1027.09L422.589 1026.64L422.206 1027.06L422.56 1027.52L423.103 1027.09ZM459.707 1073.99L459.8 1074.67L460.986 1074.51L460.25 1073.56L459.707 1073.99ZM433.898 1077.53L434.442 1077.11L403.067 1036.79L402.523 1037.22L401.98 1037.64L433.355 1077.95L433.898 1077.53ZM402.523 1037.22H401.835V1075H402.523H403.212V1037.22H402.523ZM402.523 1075V1074.31H378.739V1075V1075.69H402.523V1075ZM378.739 1075H379.428V951.693H378.739H378.051V1075H378.739ZM378.739 951.693V952.382H402.523V951.693V951.005H378.739V951.693ZM402.523 951.693H401.835V1019.84H402.523H403.212V951.693H402.523ZM402.523 1019.84L403.046 1020.29L430.204 988.576L429.681 988.129L429.158 987.681L402.001 1019.39L402.523 1019.84ZM429.681 988.129V988.817H457.851V988.129V987.44H429.681V988.129ZM457.851 988.129L457.337 987.67L422.589 1026.64L423.103 1027.09L423.617 1027.55L458.365 988.587L457.851 988.129ZM423.103 1027.09L422.56 1027.52L459.164 1074.41L459.707 1073.99L460.25 1073.56L423.645 1026.67L423.103 1027.09ZM459.707 1073.99L459.613 1073.31L433.805 1076.85L433.898 1077.53L433.992 1078.21L459.8 1074.67L459.707 1073.99ZM473.278 1075.51L473.765 1075.02L473.765 1075.02L473.278 1075.51ZM473.278 1051.05L473.765 1051.53L473.765 1051.53L473.278 1051.05ZM497.906 1051.05L497.411 1051.53L497.419 1051.53L497.906 1051.05ZM497.906 1075.51L497.419 1075.02L497.411 1075.03L497.906 1075.51ZM485.592 1080.74V1080.05C481.06 1080.05 477.128 1078.38 473.765 1075.02L473.278 1075.51L472.791 1075.99C476.4 1079.6 480.677 1081.42 485.592 1081.42V1080.74ZM473.278 1075.51L473.765 1075.02C470.519 1071.77 468.906 1067.9 468.906 1063.36H468.217H467.529C467.529 1068.27 469.29 1072.49 472.791 1075.99L473.278 1075.51ZM468.217 1063.36H468.906C468.906 1058.71 470.522 1054.78 473.765 1051.53L473.278 1051.05L472.791 1050.56C469.286 1054.06 467.529 1058.35 467.529 1063.36H468.217ZM473.278 1051.05L473.765 1051.53C477.128 1048.17 481.06 1046.51 485.592 1046.51V1045.82V1045.13C480.677 1045.13 476.4 1046.95 472.791 1050.56L473.278 1051.05ZM485.592 1045.82V1046.51C490.24 1046.51 494.166 1048.17 497.411 1051.53L497.906 1051.05L498.4 1050.57C494.897 1046.95 490.614 1045.13 485.592 1045.13V1045.82ZM497.906 1051.05L497.419 1051.53C500.661 1054.78 502.278 1058.71 502.278 1063.36H502.966H503.655C503.655 1058.35 501.897 1054.06 498.392 1050.56L497.906 1051.05ZM502.966 1063.36H502.278C502.278 1067.9 500.665 1071.77 497.419 1075.02L497.906 1075.51L498.392 1075.99C501.894 1072.49 503.655 1068.27 503.655 1063.36H502.966ZM497.906 1075.51L497.411 1075.03C494.166 1078.38 490.24 1080.05 485.592 1080.05V1080.74V1081.42C490.614 1081.42 494.897 1079.6 498.4 1075.98L497.906 1075.51Z" fill="#ADB5B9" fill-opacity="0.11"/>
<defs>
<filter id="filter0_i_250_2107" x="75.3496" y="951.005" width="428.305" height="131.796" filterUnits="userSpaceOnUse" color-interpolation-filters="sRGB">
<feFlood flood-opacity="0" result="BackgroundImageFix"/>
<feBlend mode="normal" in="SourceGraphic" in2="BackgroundImageFix" result="shape"/>
<feColorMatrix in="SourceAlpha" type="matrix" values="0 0 0 0 0 0 0 0 0 0 0 0 0 0 0 0 0 0 127 0" result="hardAlpha"/>
<feOffset dy="1.377"/>
<feGaussianBlur stdDeviation="4.06215"/>
<feComposite in2="hardAlpha" operator="arithmetic" k2="-1" k3="1"/>
<feColorMatrix type="matrix" values="0 0 0 0 0 0 0 0 0 0 0 0 0 0 0 0 0 0 0.2 0"/>
<feBlend mode="normal" in2="shape" result="effect1_innerShadow_250_2107"/>
</filter>
</defs>
</svg>
