<svg width="925" height="1159" viewBox="0 0 925 1159" fill="none" xmlns="http://www.w3.org/2000/svg">
<g opacity="0.8" filter="url(#filter0_d_250_2107)">
<path d="M844.36 15H462.76H81.16C50.128 15 15 50.128 15 81.16V1077.56C15 1108.59 50.128 1143.72 81.16 1143.72H844.36C875.392 1143.72 910.52 1108.59 910.52 1077.56V579.36V81.16C910.52 50.128 875.392 15 844.36 15ZM864.52 1071.51C864.52 1087.21 850.696 1099.88 833.632 1099.88H603.16C586.096 1099.88 574.36 1087.14 574.36 1071.51V1015.17V958.832C574.36 943.136 559.024 930.464 541.96 930.464H91.888C74.824 930.464 61 917.72 61 902.096V89.368C61 73.672 74.824 61 91.888 61H739.96C757.024 61 761.56 73.744 761.56 89.368V104.92C761.56 120.616 766.096 133.288 783.16 133.288H833.776C850.84 133.288 864.664 146.032 864.664 161.656V1071.51H864.52Z" fill="white"/>
</g>
<path d="M830.562 78.1875C830.562 76.2976 828.993 74.0053 825.054 72.0494C821.247 70.1593 815.833 68.9375 809.75 68.9375C803.667 68.9375 798.253 70.1593 794.446 72.0494C790.507 74.0053 788.937 76.2976 788.937 78.1875C788.937 79.854 790.206 81.9022 793.432 83.7954C796.468 85.5771 800.79 86.9193 805.763 87.4019L806.246 87.446L806.365 87.459C807.577 87.6243 808.459 88.7134 808.354 89.9462C808.246 91.2187 807.126 92.1623 805.854 92.054C800.161 91.5695 794.952 90.05 791.091 87.7844C787.322 85.5729 784.312 82.3023 784.312 78.1875C784.312 73.6024 787.946 70.1135 792.39 67.9069C796.966 65.6345 803.115 64.3125 809.75 64.3125C816.385 64.3125 822.534 65.6345 827.11 67.9069C831.554 70.1135 835.187 73.6024 835.187 78.1875C835.187 81.6238 833.131 84.4298 830.35 86.4916C827.556 88.5618 823.76 90.109 819.515 91.0793C818.27 91.3638 817.03 90.5854 816.746 89.3404C816.461 88.0954 817.24 86.8552 818.485 86.5706C822.334 85.6909 825.475 84.3477 827.596 82.7758C829.728 81.1954 830.562 79.6074 830.562 78.1875Z" fill="#3B3C44"/>
<path d="M784.312 89.75C784.312 86.8097 785.922 84.1415 788.108 82.2285C789.07 81.3875 790.531 81.485 791.372 82.4461C792.213 83.4073 792.115 84.8681 791.154 85.7091C789.64 87.0336 788.937 88.5279 788.937 89.75C788.937 91.6399 790.507 93.9322 794.446 95.8881C798.253 97.7782 803.667 99 809.75 99H810.444L810.563 99.0031C811.785 99.0651 812.756 100.075 812.756 101.313C812.756 102.55 811.785 103.56 810.563 103.622L810.444 103.625H809.75C803.115 103.625 796.966 102.303 792.39 100.031C787.946 97.8241 784.312 94.3351 784.312 89.75ZM830.562 89.75C830.562 88.5661 829.903 87.1268 828.485 85.8339L828.346 85.7091L828.258 85.6284C827.38 84.7772 827.314 83.3772 828.128 82.4461C828.943 81.515 830.34 81.3943 831.3 82.1523L831.392 82.2285L831.595 82.41C833.677 84.3085 835.187 86.9016 835.187 89.75C835.187 93.1904 833.127 95.9983 830.31 98.0617C827.485 100.132 823.628 101.677 819.27 102.645C818.024 102.922 816.788 102.136 816.511 100.889C816.234 99.6424 817.02 98.4071 818.267 98.13C822.234 97.2484 825.431 95.9027 827.577 94.3307C829.732 92.7519 830.562 91.1659 830.562 89.75Z" fill="#3B3C44"/>
<path d="M784.312 101.313C784.312 98.3722 785.922 95.704 788.108 93.791C789.07 92.95 790.531 93.0475 791.372 94.0086C792.213 94.9698 792.115 96.4306 791.154 97.2716C789.64 98.5961 788.937 100.09 788.937 101.313C788.937 103.202 790.507 105.495 794.446 107.451C798.253 109.341 803.667 110.563 809.75 110.563C815.833 110.563 821.247 109.341 825.054 107.451C828.993 105.495 830.562 103.202 830.562 101.313C830.562 100.129 829.903 98.6893 828.485 97.3964L828.346 97.2716L828.258 97.1909C827.38 96.3397 827.314 94.9397 828.128 94.0086C828.943 93.0775 830.34 92.9568 831.3 93.7148L831.392 93.791L831.595 93.9725C833.677 95.871 835.187 98.4641 835.187 101.313C835.187 105.898 831.554 109.387 827.11 111.593C822.534 113.865 816.385 115.188 809.75 115.188C803.115 115.188 796.966 113.865 792.39 111.593C787.946 109.387 784.312 105.898 784.312 101.313Z" fill="#3B3C44"/>
<path d="M819 82.8125C819 81.9529 818.45 80.856 816.774 79.855C815.12 78.8677 812.659 78.1875 809.75 78.1875C806.841 78.1875 804.38 78.8677 802.726 79.855C801.05 80.856 800.5 81.9529 800.5 82.8125C800.5 83.3847 800.783 84.1397 801.669 84.9624C802.542 85.7733 803.895 86.5338 805.664 87.0364C809.027 87.7032 812.062 90.5417 812.062 94.375V99C812.062 99.6133 812.306 100.202 812.74 100.635C813.173 101.069 813.762 101.312 814.375 101.312C814.988 101.312 815.577 101.069 816.01 100.635C816.444 100.202 816.687 99.6133 816.687 99V89.2876C816.687 88.1904 817.098 87.1193 817.447 86.3583C817.803 85.5816 818.237 84.8332 818.581 84.2592C818.928 83.5545 819 83.2336 819 82.8125ZM823.625 82.8125C823.625 84.2292 823.238 85.289 822.687 86.3905C822.661 86.4434 822.632 86.4953 822.602 86.546C822.259 87.1175 821.912 87.7172 821.652 88.2855C821.523 88.566 821.431 88.8049 821.374 88.9991C821.316 89.1987 821.313 89.2876 821.312 89.2876V99C821.312 100.84 820.582 102.605 819.281 103.906C817.98 105.207 816.215 105.938 814.375 105.938C812.535 105.938 810.77 105.207 809.469 103.906C808.168 102.605 807.437 100.84 807.437 99V94.375C807.437 93.1684 806.387 91.8672 804.711 91.5626C804.642 91.55 804.574 91.5345 804.506 91.5157C802.151 90.8616 800.063 89.7831 798.522 88.3515C796.98 86.9196 795.875 85.0153 795.875 82.8125C795.875 79.7408 797.869 77.3689 800.355 75.884C802.864 74.3854 806.184 73.5625 809.75 73.5625C813.316 73.5625 816.636 74.3854 819.145 75.884C821.631 77.3689 823.625 79.7408 823.625 82.8125Z" fill="#3B3C44"/>
<g filter="url(#filter1_i_250_2107)">
<path d="M120.098 1092.53C114.588 1092.53 109.246 1091.97 104.073 1090.84C99.0127 1089.72 94.6832 1088.2 91.0847 1086.29L93.2775 1066.05C97.101 1068.41 101.318 1070.32 105.929 1071.78C110.539 1073.24 114.869 1073.98 118.917 1073.98C122.516 1073.98 125.665 1073.3 128.363 1071.95C131.062 1070.6 132.412 1068.52 132.412 1065.71C132.412 1063.01 130.95 1061.04 128.026 1059.81C125.215 1058.57 120.829 1056.83 114.869 1054.58C112.62 1053.68 110.09 1052.66 107.278 1051.54C104.579 1050.42 101.993 1048.95 99.5188 1047.15C97.0448 1045.24 95.0206 1042.83 93.4462 1039.9C91.8718 1036.87 91.0847 1033.1 91.0847 1028.6C91.0847 1022.53 92.6028 1017.47 95.6391 1013.42C98.7878 1009.26 103.061 1006.11 108.459 1003.97C113.857 1001.84 119.929 1000.77 126.677 1000.77C131.287 1000.77 135.786 1001.22 140.171 1002.12C144.669 1003.02 148.943 1004.2 152.991 1005.66L149.786 1025.73C146.525 1023.82 142.814 1022.3 138.653 1021.18C134.605 1019.94 130.781 1019.32 127.183 1019.32C123.697 1019.32 120.773 1019.94 118.411 1021.18C116.162 1022.3 115.038 1024.1 115.038 1026.58C115.038 1028.6 115.825 1030.23 117.399 1031.47C118.974 1032.59 121.11 1033.6 123.809 1034.5C126.508 1035.29 129.488 1036.36 132.749 1037.71C136.01 1038.95 139.44 1040.52 143.039 1042.43C146.75 1044.34 149.899 1047.04 152.485 1050.53C155.072 1054.01 156.365 1058.79 156.365 1064.87C156.365 1071.28 154.734 1076.56 151.473 1080.72C148.324 1084.77 143.995 1087.75 138.484 1089.66C133.087 1091.57 126.958 1092.53 120.098 1092.53ZM200.18 1092.53C192.083 1092.53 185.786 1090.51 181.288 1086.46C176.902 1082.3 174.709 1076.45 174.709 1068.91V1023.54H161.214V1003.13H174.709V984.573C182.806 983.224 190.678 982.212 198.325 981.537V1003.13H220.253V1023.54H198.325V1064.53C198.325 1069.36 201.023 1071.78 206.421 1071.78C209.57 1071.78 213.169 1071.05 217.217 1069.59L222.446 1087.47C215.249 1090.84 207.827 1092.53 200.18 1092.53ZM254.578 1092.53C245.694 1092.53 238.553 1088.76 233.155 1081.23C227.869 1073.58 225.227 1063.12 225.227 1049.85C225.227 1033.88 229.275 1021.74 237.372 1013.42C245.469 1004.98 257.108 1000.77 272.289 1000.77C280.836 1000.77 290.844 1002.12 302.315 1004.82V1090H279.711L280.217 1076.17H279.543C273.695 1087.08 265.373 1092.53 254.578 1092.53ZM259.638 1071.78C263.349 1071.78 266.891 1069.81 270.265 1065.88C273.639 1061.94 276.675 1057.11 279.374 1051.37V1023.03C277.575 1022.47 275.719 1022.08 273.807 1021.85C271.896 1021.63 270.153 1021.51 268.578 1021.51C254.971 1021.51 248.168 1030.62 248.168 1048.84C248.168 1055.93 249.18 1061.55 251.204 1065.71C253.228 1069.76 256.039 1071.78 259.638 1071.78ZM358.912 1092.53C344.517 1092.53 333.328 1088.71 325.344 1081.06C317.472 1073.41 313.536 1062.62 313.536 1048.67C313.536 1039.11 315.392 1030.74 319.103 1023.54C322.814 1016.34 328.043 1010.78 334.79 1006.84C341.537 1002.79 349.353 1000.77 358.237 1000.77C362.51 1000.77 366.896 1001.27 371.394 1002.29C375.892 1003.18 379.378 1004.25 381.852 1005.49L377.298 1025.56C374.712 1024.33 371.844 1023.37 368.695 1022.7C365.546 1021.91 362.679 1021.51 360.092 1021.51C353.233 1021.51 347.666 1023.88 343.393 1028.6C339.12 1033.32 336.983 1039.56 336.983 1047.32C336.983 1055.2 339.176 1061.27 343.561 1065.54C347.947 1069.81 354.076 1071.95 361.948 1071.95C367.233 1071.95 372.912 1070.94 378.985 1068.91L382.527 1088.14C378.704 1089.61 374.824 1090.67 370.888 1091.35C367.065 1092.14 363.072 1092.53 358.912 1092.53ZM448.898 1092.53L417.523 1052.22V1090H393.739V966.693H417.523V1034.84L444.681 1003.13H472.851L438.103 1042.09L474.707 1088.99L448.898 1092.53ZM500.592 1095.74C495.869 1095.74 491.764 1093.99 488.278 1090.51C484.904 1087.13 483.217 1083.08 483.217 1078.36C483.217 1073.53 484.904 1069.42 488.278 1066.05C491.764 1062.56 495.869 1060.82 500.592 1060.82C505.427 1060.82 509.532 1062.56 512.906 1066.05C516.279 1069.42 517.966 1073.53 517.966 1078.36C517.966 1083.08 516.279 1087.13 512.906 1090.51C509.532 1093.99 505.427 1095.74 500.592 1095.74Z" fill="#3B3C44"/>
</g>
<path d="M104.073 1090.84L103.924 1091.52L103.927 1091.52L104.073 1090.84ZM91.0847 1086.29L90.4002 1086.21L90.35 1086.68L90.7617 1086.9L91.0847 1086.29ZM93.2775 1066.05L93.6393 1065.46L92.7106 1064.89L92.593 1065.97L93.2775 1066.05ZM105.929 1071.78L105.721 1072.44L105.929 1071.78ZM128.026 1059.81L127.749 1060.44L127.758 1060.44L128.026 1059.81ZM114.869 1054.58L114.613 1055.22L114.626 1055.22L114.869 1054.58ZM107.278 1051.54L107.013 1052.18L107.022 1052.18L107.278 1051.54ZM99.5188 1047.15L99.0978 1047.7L99.1057 1047.71L99.1138 1047.71L99.5188 1047.15ZM93.4462 1039.9L92.8349 1040.22L92.84 1040.23L93.4462 1039.9ZM95.6391 1013.42L95.0901 1013L95.0883 1013.01L95.6391 1013.42ZM108.459 1003.97L108.206 1003.33L108.459 1003.97ZM140.171 1002.12L140.033 1002.79L140.036 1002.79L140.171 1002.12ZM152.991 1005.66L153.671 1005.77L153.761 1005.2L153.225 1005.01L152.991 1005.66ZM149.786 1025.73L149.438 1026.33L150.307 1026.84L150.466 1025.84L149.786 1025.73ZM138.653 1021.18L138.452 1021.84L138.463 1021.84L138.473 1021.84L138.653 1021.18ZM118.411 1021.18L118.719 1021.79L118.731 1021.79L118.411 1021.18ZM117.399 1031.47L116.974 1032.01L116.986 1032.02L116.999 1032.03L117.399 1031.47ZM123.809 1034.5L123.591 1035.16L123.604 1035.16L123.616 1035.16L123.809 1034.5ZM132.749 1037.71L132.486 1038.34L132.495 1038.35L132.505 1038.35L132.749 1037.71ZM143.039 1042.43L142.716 1043.04L142.724 1043.04L143.039 1042.43ZM151.473 1080.72L150.931 1080.3L150.93 1080.3L151.473 1080.72ZM138.484 1089.66L138.259 1089.01L138.255 1089.01L138.484 1089.66ZM120.098 1092.53V1091.84C114.635 1091.84 109.342 1091.28 104.219 1090.17L104.073 1090.84L103.927 1091.52C109.15 1092.65 114.541 1093.22 120.098 1093.22V1092.53ZM104.073 1090.84L104.223 1090.17C99.207 1089.06 94.939 1087.56 91.4077 1085.68L91.0847 1086.29L90.7617 1086.9C94.4274 1088.84 98.8185 1090.38 103.924 1091.52L104.073 1090.84ZM91.0847 1086.29L91.7692 1086.36L93.962 1066.12L93.2775 1066.05L92.593 1065.97L90.4002 1086.21L91.0847 1086.29ZM93.2775 1066.05L92.9157 1066.63C96.7909 1069.03 101.06 1070.96 105.721 1072.44L105.929 1071.78L106.137 1071.13C101.576 1069.68 97.4112 1067.79 93.6393 1065.46L93.2775 1066.05ZM105.929 1071.78L105.721 1072.44C110.386 1073.92 114.786 1074.66 118.917 1074.66V1073.98V1073.29C114.952 1073.29 110.693 1072.57 106.137 1071.13L105.929 1071.78ZM118.917 1073.98V1074.66C122.602 1074.66 125.86 1073.97 128.671 1072.57L128.363 1071.95L128.056 1071.34C125.469 1072.63 122.429 1073.29 118.917 1073.29V1073.98ZM128.363 1071.95L128.671 1072.57C130.107 1071.85 131.223 1070.92 131.977 1069.75C132.734 1068.59 133.1 1067.23 133.1 1065.71H132.412H131.723C131.723 1067 131.415 1068.09 130.822 1069C130.227 1069.92 129.319 1070.7 128.056 1071.34L128.363 1071.95ZM132.412 1065.71H133.1C133.1 1064.23 132.696 1062.91 131.868 1061.8C131.045 1060.69 129.837 1059.82 128.294 1059.17L128.026 1059.81L127.758 1060.44C129.139 1061.02 130.124 1061.76 130.763 1062.62C131.397 1063.47 131.723 1064.49 131.723 1065.71H132.412ZM128.026 1059.81L128.303 1059.18C125.474 1057.93 121.074 1056.18 115.112 1053.93L114.869 1054.58L114.626 1055.22C120.584 1057.47 124.955 1059.21 127.749 1060.44L128.026 1059.81ZM114.869 1054.58L115.125 1053.94C112.875 1053.04 110.345 1052.03 107.534 1050.9L107.278 1051.54L107.022 1052.18C109.834 1053.3 112.364 1054.32 114.613 1055.22L114.869 1054.58ZM107.278 1051.54L107.543 1050.9C104.896 1049.8 102.356 1048.37 99.9237 1046.6L99.5188 1047.15L99.1138 1047.71C101.629 1049.54 104.263 1051.03 107.013 1052.18L107.278 1051.54ZM99.5188 1047.15L99.9398 1046.61C97.5468 1044.76 95.5839 1042.42 94.0524 1039.57L93.4462 1039.9L92.84 1040.23C94.4572 1043.23 96.5428 1045.73 99.0978 1047.7L99.5188 1047.15ZM93.4462 1039.9L94.0574 1039.58C92.5473 1036.67 91.7732 1033.02 91.7732 1028.6H91.0847H90.3962C90.3962 1033.17 91.1964 1037.06 92.835 1040.22L93.4462 1039.9ZM91.0847 1028.6H91.7732C91.7732 1022.65 93.2598 1017.74 96.1899 1013.83L95.6391 1013.42L95.0883 1013.01C91.9458 1017.19 90.3962 1022.41 90.3962 1028.6H91.0847ZM95.6391 1013.42L96.1881 1013.83C99.2524 1009.78 103.418 1006.71 108.712 1004.61L108.459 1003.97L108.206 1003.33C102.704 1005.51 98.3233 1008.73 95.0901 1013L95.6391 1013.42ZM108.459 1003.97L108.712 1004.61C114.018 1002.51 120.002 1001.46 126.677 1001.46V1000.77V1000.08C119.856 1000.08 113.696 1001.16 108.206 1003.33L108.459 1003.97ZM126.677 1000.77V1001.46C131.242 1001.46 135.694 1001.9 140.033 1002.79L140.171 1002.12L140.31 1001.44C135.877 1000.53 131.332 1000.08 126.677 1000.08V1000.77ZM140.171 1002.12L140.036 1002.79C144.503 1003.68 148.743 1004.86 152.757 1006.31L152.991 1005.66L153.225 1005.01C149.142 1003.54 144.836 1002.35 140.306 1001.44L140.171 1002.12ZM152.991 1005.66L152.311 1005.55L149.106 1025.62L149.786 1025.73L150.466 1025.84L153.671 1005.77L152.991 1005.66ZM149.786 1025.73L150.134 1025.14C146.814 1023.19 143.045 1021.65 138.833 1020.51L138.653 1021.18L138.473 1021.84C142.583 1022.95 146.236 1024.45 149.438 1026.33L149.786 1025.73ZM138.653 1021.18L138.854 1020.52C134.752 1019.27 130.86 1018.63 127.183 1018.63V1019.32V1020.01C130.702 1020.01 134.458 1020.62 138.452 1021.84L138.653 1021.18ZM127.183 1019.32V1018.63C123.618 1018.63 120.578 1019.27 118.092 1020.57L118.411 1021.18L118.731 1021.79C120.968 1020.62 123.775 1020.01 127.183 1020.01V1019.32ZM118.411 1021.18L118.103 1020.56C116.887 1021.17 115.938 1021.98 115.297 1023.01C114.656 1024.03 114.349 1025.23 114.349 1026.58H115.038H115.726C115.726 1025.45 115.982 1024.51 116.465 1023.74C116.948 1022.96 117.687 1022.31 118.719 1021.79L118.411 1021.18ZM115.038 1026.58H114.349C114.349 1028.81 115.231 1030.64 116.974 1032.01L117.399 1031.47L117.825 1030.93C116.418 1029.82 115.726 1028.39 115.726 1026.58H115.038ZM117.399 1031.47L116.999 1032.03C118.649 1033.21 120.855 1034.24 123.591 1035.16L123.809 1034.5L124.027 1033.85C121.365 1032.96 119.298 1031.98 117.799 1030.91L117.399 1031.47ZM123.809 1034.5L123.616 1035.16C126.286 1035.94 129.242 1037 132.486 1038.34L132.749 1037.71L133.012 1037.07C129.734 1035.72 126.73 1034.64 124.002 1033.84L123.809 1034.5ZM132.749 1037.71L132.505 1038.35C135.735 1039.58 139.139 1041.14 142.716 1043.04L143.039 1042.43L143.362 1041.82C139.742 1039.9 136.286 1038.31 132.993 1037.06L132.749 1037.71ZM143.039 1042.43L142.724 1043.04C146.337 1044.91 149.406 1047.53 151.932 1050.94L152.485 1050.53L153.038 1050.12C150.391 1046.55 147.163 1043.78 143.354 1041.82L143.039 1042.43ZM152.485 1050.53L151.932 1050.94C154.402 1054.27 155.676 1058.88 155.676 1064.87H156.365H157.053C157.053 1058.7 155.742 1053.76 153.038 1050.12L152.485 1050.53ZM156.365 1064.87H155.676C155.676 1071.16 154.078 1076.28 150.931 1080.3L151.473 1080.72L152.015 1081.15C155.39 1076.84 157.053 1071.4 157.053 1064.87H156.365ZM151.473 1080.72L150.93 1080.3C147.873 1084.23 143.661 1087.14 138.259 1089.01L138.484 1089.66L138.71 1090.31C144.328 1088.36 148.775 1085.31 152.016 1081.15L151.473 1080.72ZM138.484 1089.66L138.255 1089.01C132.944 1090.89 126.895 1091.84 120.098 1091.84V1092.53V1093.22C127.021 1093.22 133.23 1092.25 138.714 1090.31L138.484 1089.66ZM181.288 1086.46L180.814 1086.96L180.82 1086.96L180.827 1086.97L181.288 1086.46ZM174.709 1023.54H175.398V1022.85H174.709V1023.54ZM161.214 1023.54H160.526V1024.23H161.214V1023.54ZM161.214 1003.13V1002.44H160.526V1003.13H161.214ZM174.709 1003.13V1003.82H175.398V1003.13H174.709ZM174.709 984.573L174.596 983.894L174.021 983.99V984.573H174.709ZM198.325 981.537H199.013V980.785L198.264 980.851L198.325 981.537ZM198.325 1003.13H197.636V1003.82H198.325V1003.13ZM220.253 1003.13H220.942V1002.44H220.253V1003.13ZM220.253 1023.54V1024.23H220.942V1023.54H220.253ZM198.325 1023.54V1022.85H197.636V1023.54H198.325ZM217.217 1069.59L217.878 1069.4L217.672 1068.69L216.983 1068.94L217.217 1069.59ZM222.446 1087.47L222.738 1088.09L223.273 1087.84L223.107 1087.28L222.446 1087.47ZM200.18 1092.53V1091.84C192.195 1091.84 186.082 1089.85 181.748 1085.95L181.288 1086.46L180.827 1086.97C185.489 1091.17 191.972 1093.22 200.18 1093.22V1092.53ZM181.288 1086.46L181.761 1085.96C177.545 1081.96 175.398 1076.31 175.398 1068.91H174.709H174.021C174.021 1076.59 176.259 1082.64 180.814 1086.96L181.288 1086.46ZM174.709 1068.91H175.398V1023.54H174.709H174.021V1068.91H174.709ZM174.709 1023.54V1022.85H161.214V1023.54V1024.23H174.709V1023.54ZM161.214 1023.54H161.903V1003.13H161.214H160.526V1023.54H161.214ZM161.214 1003.13V1003.82H174.709V1003.13V1002.44H161.214V1003.13ZM174.709 1003.13H175.398V984.573H174.709H174.021V1003.13H174.709ZM174.709 984.573L174.822 985.253C182.903 983.906 190.757 982.896 198.385 982.223L198.325 981.537L198.264 980.851C190.598 981.528 182.709 982.542 174.596 983.894L174.709 984.573ZM198.325 981.537H197.636V1003.13H198.325H199.013V981.537H198.325ZM198.325 1003.13V1003.82H220.253V1003.13V1002.44H198.325V1003.13ZM220.253 1003.13H219.565V1023.54H220.253H220.942V1003.13H220.253ZM220.253 1023.54V1022.85H198.325V1023.54V1024.23H220.253V1023.54ZM198.325 1023.54H197.636V1064.53H198.325H199.013V1023.54H198.325ZM198.325 1064.53H197.636C197.636 1067.07 198.35 1069.1 199.889 1070.48C201.415 1071.85 203.634 1072.47 206.421 1072.47V1071.78V1071.09C203.811 1071.09 201.982 1070.51 200.808 1069.46C199.649 1068.42 199.013 1066.82 199.013 1064.53H198.325ZM206.421 1071.78V1072.47C209.673 1072.47 213.353 1071.72 217.451 1070.24L217.217 1069.59L216.983 1068.94C212.984 1070.39 209.467 1071.09 206.421 1071.09V1071.78ZM217.217 1069.59L216.556 1069.78L221.785 1087.66L222.446 1087.47L223.107 1087.28L217.878 1069.4L217.217 1069.59ZM222.446 1087.47L222.154 1086.85C215.045 1090.18 207.722 1091.84 200.18 1091.84V1092.53V1093.22C207.932 1093.22 215.454 1091.51 222.738 1088.09L222.446 1087.47ZM233.155 1081.23L232.588 1081.62L232.595 1081.63L233.155 1081.23ZM237.372 1013.42L237.865 1013.9L237.869 1013.89L237.372 1013.42ZM302.315 1004.82H303.003V1004.27L302.472 1004.15L302.315 1004.82ZM302.315 1090V1090.69H303.003V1090H302.315ZM279.711 1090L279.023 1089.97L278.997 1090.69H279.711V1090ZM280.217 1076.17L280.905 1076.19L280.931 1075.48H280.217V1076.17ZM279.543 1076.17V1075.48H279.13L278.936 1075.84L279.543 1076.17ZM270.265 1065.88L269.742 1065.43L270.265 1065.88ZM279.374 1051.37L279.997 1051.66L280.062 1051.53V1051.37H279.374ZM279.374 1023.03H280.062V1022.53L279.579 1022.38L279.374 1023.03ZM273.807 1021.85L273.727 1022.54L273.807 1021.85ZM251.204 1065.71L250.585 1066.01L250.588 1066.02L251.204 1065.71ZM254.578 1092.53V1091.84C245.927 1091.84 238.99 1088.19 233.715 1080.83L233.155 1081.23L232.595 1081.63C238.116 1089.34 245.46 1093.22 254.578 1093.22V1092.53ZM233.155 1081.23L233.721 1080.84C228.543 1073.34 225.915 1063.04 225.915 1049.85H225.227H224.538C224.538 1063.21 227.196 1073.82 232.588 1081.62L233.155 1081.23ZM225.227 1049.85H225.915C225.915 1034 229.934 1022.05 237.865 1013.9L237.372 1013.42L236.878 1012.94C228.616 1021.43 224.538 1033.77 224.538 1049.85H225.227ZM237.372 1013.42L237.869 1013.89C245.8 1005.63 257.237 1001.46 272.289 1001.46V1000.77V1000.08C256.979 1000.08 245.138 1004.33 236.875 1012.94L237.372 1013.42ZM272.289 1000.77V1001.46C280.767 1001.46 290.72 1002.79 302.157 1005.49L302.315 1004.82L302.472 1004.15C290.968 1001.44 280.905 1000.08 272.289 1000.08V1000.77ZM302.315 1004.82H301.626V1090H302.315H303.003V1004.82H302.315ZM302.315 1090V1089.31H279.711V1090V1090.69H302.315V1090ZM279.711 1090L280.399 1090.03L280.905 1076.19L280.217 1076.17L279.529 1076.14L279.023 1089.97L279.711 1090ZM280.217 1076.17V1075.48H279.543V1076.17V1076.86H280.217V1076.17ZM279.543 1076.17L278.936 1075.84C273.187 1086.57 265.077 1091.84 254.578 1091.84V1092.53V1093.22C265.669 1093.22 274.203 1087.59 280.149 1076.49L279.543 1076.17ZM259.638 1071.78V1072.47C263.62 1072.47 267.337 1070.35 270.788 1066.33L270.265 1065.88L269.742 1065.43C266.445 1069.28 263.078 1071.09 259.638 1071.09V1071.78ZM270.265 1065.88L270.788 1066.33C274.209 1062.33 277.277 1057.44 279.997 1051.66L279.374 1051.37L278.751 1051.08C276.073 1056.77 273.068 1061.55 269.742 1065.43L270.265 1065.88ZM279.374 1051.37H280.062V1023.03H279.374H278.685V1051.37H279.374ZM279.374 1023.03L279.579 1022.38C277.738 1021.8 275.841 1021.4 273.888 1021.17L273.807 1021.85L273.727 1022.54C275.597 1022.76 277.411 1023.14 279.169 1023.69L279.374 1023.03ZM273.807 1021.85L273.888 1021.17C271.955 1020.94 270.185 1020.83 268.578 1020.83V1021.51V1022.2C270.121 1022.2 271.836 1022.31 273.727 1022.54L273.807 1021.85ZM268.578 1021.51V1020.83C261.606 1020.83 256.277 1023.17 252.719 1027.93C249.189 1032.66 247.479 1039.67 247.479 1048.84H248.168H248.856C248.856 1039.8 250.548 1033.14 253.822 1028.76C257.067 1024.41 261.944 1022.2 268.578 1022.2V1021.51ZM248.168 1048.84H247.479C247.479 1055.98 248.497 1061.72 250.585 1066.01L251.204 1065.71L251.823 1065.41C249.862 1061.38 248.856 1055.87 248.856 1048.84H248.168ZM251.204 1065.71L250.588 1066.02C252.693 1070.23 255.707 1072.47 259.638 1072.47V1071.78V1071.09C256.372 1071.09 253.763 1069.29 251.82 1065.4L251.204 1065.71ZM325.344 1081.06L324.864 1081.55L324.868 1081.56L325.344 1081.06ZM319.103 1023.54L319.714 1023.85L319.103 1023.54ZM334.79 1006.84L335.137 1007.43L335.144 1007.43L334.79 1006.84ZM371.394 1002.29L371.243 1002.96L371.251 1002.96L371.259 1002.96L371.394 1002.29ZM381.852 1005.49L382.524 1005.64L382.643 1005.12L382.16 1004.87L381.852 1005.49ZM377.298 1025.56L377.001 1026.18L377.779 1026.56L377.969 1025.72L377.298 1025.56ZM368.695 1022.7L368.528 1023.36L368.54 1023.37L368.551 1023.37L368.695 1022.7ZM378.985 1068.91L379.662 1068.79L379.518 1068.01L378.767 1068.26L378.985 1068.91ZM382.527 1088.14L382.773 1088.79L383.308 1088.58L383.204 1088.02L382.527 1088.14ZM370.888 1091.35L370.772 1090.67L370.76 1090.67L370.749 1090.68L370.888 1091.35ZM358.912 1092.53V1091.84C344.639 1091.84 333.641 1088.05 325.82 1080.56L325.344 1081.06L324.868 1081.56C333.015 1089.36 344.395 1093.22 358.912 1093.22V1092.53ZM325.344 1081.06L325.824 1080.57C318.119 1073.08 314.225 1062.48 314.225 1048.67H313.536H312.848C312.848 1062.75 316.825 1073.74 324.864 1081.55L325.344 1081.06ZM313.536 1048.67H314.225C314.225 1039.2 316.062 1030.94 319.714 1023.85L319.103 1023.54L318.491 1023.22C314.721 1030.53 312.848 1039.02 312.848 1048.67H313.536ZM319.103 1023.54L319.714 1023.85C323.368 1016.77 328.507 1011.3 335.137 1007.43L334.79 1006.84L334.443 1006.24C327.578 1010.25 322.259 1015.91 318.491 1023.22L319.103 1023.54ZM334.79 1006.84L335.144 1007.43C341.771 1003.45 349.461 1001.46 358.237 1001.46V1000.77V1000.08C349.245 1000.08 341.303 1002.13 334.436 1006.25L334.79 1006.84ZM358.237 1000.77V1001.46C362.456 1001.46 366.79 1001.96 371.243 1002.96L371.394 1002.29L371.545 1001.61C367.001 1000.59 362.565 1000.08 358.237 1000.08V1000.77ZM371.394 1002.29L371.259 1002.96C375.731 1003.85 379.149 1004.91 381.544 1006.11L381.852 1005.49L382.16 1004.87C379.608 1003.6 376.053 1002.51 371.529 1001.61L371.394 1002.29ZM381.852 1005.49L381.181 1005.34L376.627 1025.41L377.298 1025.56L377.969 1025.72L382.524 1005.64L381.852 1005.49ZM377.298 1025.56L377.595 1024.94C374.954 1023.68 372.035 1022.71 368.839 1022.02L368.695 1022.7L368.551 1023.37C371.653 1024.03 374.469 1024.97 377.001 1026.18L377.298 1025.56ZM368.695 1022.7L368.862 1022.03C365.672 1021.23 362.747 1020.83 360.092 1020.83V1021.51V1022.2C362.61 1022.2 365.421 1022.59 368.528 1023.36L368.695 1022.7ZM360.092 1021.51V1020.83C353.055 1020.83 347.297 1023.26 342.882 1028.14L343.393 1028.6L343.903 1029.06C348.035 1024.49 353.41 1022.2 360.092 1022.2V1021.51ZM343.393 1028.6L342.882 1028.14C338.471 1033.01 336.294 1039.43 336.294 1047.32H336.983H337.671C337.671 1039.7 339.768 1033.63 343.903 1029.06L343.393 1028.6ZM336.983 1047.32H336.294C336.294 1055.33 338.527 1061.6 343.081 1066.03L343.561 1065.54L344.042 1065.05C339.824 1060.94 337.671 1055.07 337.671 1047.32H336.983ZM343.561 1065.54L343.081 1066.03C347.629 1070.47 353.95 1072.64 361.948 1072.64V1071.95V1071.26C354.202 1071.26 348.265 1069.16 344.042 1065.05L343.561 1065.54ZM361.948 1071.95V1072.64C367.321 1072.64 373.074 1071.61 379.203 1069.57L378.985 1068.91L378.767 1068.26C372.75 1070.27 367.146 1071.26 361.948 1071.26V1071.95ZM378.985 1068.91L378.308 1069.04L381.85 1088.27L382.527 1088.14L383.204 1088.02L379.662 1068.79L378.985 1068.91ZM382.527 1088.14L382.281 1087.5C378.499 1088.95 374.662 1090 370.772 1090.67L370.888 1091.35L371.004 1092.03C374.986 1091.35 378.909 1090.27 382.773 1088.79L382.527 1088.14ZM370.888 1091.35L370.749 1090.68C366.974 1091.45 363.029 1091.84 358.912 1091.84V1092.53V1093.22C363.116 1093.22 367.155 1092.82 371.027 1092.02L370.888 1091.35ZM448.898 1092.53L448.355 1092.95L448.599 1093.27L448.992 1093.21L448.898 1092.53ZM417.523 1052.22L418.067 1051.79L416.835 1050.21V1052.22H417.523ZM417.523 1090V1090.69H418.212V1090H417.523ZM393.739 1090H393.051V1090.69H393.739V1090ZM393.739 966.693V966.005H393.051V966.693H393.739ZM417.523 966.693H418.212V966.005H417.523V966.693ZM417.523 1034.84H416.835V1036.7L418.046 1035.29L417.523 1034.84ZM444.681 1003.13V1002.44H444.365L444.158 1002.68L444.681 1003.13ZM472.851 1003.13L473.365 1003.59L474.388 1002.44H472.851V1003.13ZM438.103 1042.09L437.589 1041.64L437.206 1042.06L437.56 1042.52L438.103 1042.09ZM474.707 1088.99L474.8 1089.67L475.986 1089.51L475.25 1088.56L474.707 1088.99ZM448.898 1092.53L449.442 1092.11L418.067 1051.79L417.523 1052.22L416.98 1052.64L448.355 1092.95L448.898 1092.53ZM417.523 1052.22H416.835V1090H417.523H418.212V1052.22H417.523ZM417.523 1090V1089.31H393.739V1090V1090.69H417.523V1090ZM393.739 1090H394.428V966.693H393.739H393.051V1090H393.739ZM393.739 966.693V967.382H417.523V966.693V966.005H393.739V966.693ZM417.523 966.693H416.835V1034.84H417.523H418.212V966.693H417.523ZM417.523 1034.84L418.046 1035.29L445.204 1003.58L444.681 1003.13L444.158 1002.68L417.001 1034.39L417.523 1034.84ZM444.681 1003.13V1003.82H472.851V1003.13V1002.44H444.681V1003.13ZM472.851 1003.13L472.337 1002.67L437.589 1041.64L438.103 1042.09L438.617 1042.55L473.365 1003.59L472.851 1003.13ZM438.103 1042.09L437.56 1042.52L474.164 1089.41L474.707 1088.99L475.25 1088.56L438.645 1041.67L438.103 1042.09ZM474.707 1088.99L474.613 1088.31L448.805 1091.85L448.898 1092.53L448.992 1093.21L474.8 1089.67L474.707 1088.99ZM488.278 1090.51L488.765 1090.02L488.278 1090.51ZM488.278 1066.05L488.765 1066.53L488.278 1066.05ZM512.906 1066.05L512.411 1066.53L512.419 1066.53L512.906 1066.05ZM512.906 1090.51L512.419 1090.02L512.411 1090.03L512.906 1090.51ZM500.592 1095.74V1095.05C496.06 1095.05 492.128 1093.38 488.765 1090.02L488.278 1090.51L487.791 1090.99C491.4 1094.6 495.677 1096.42 500.592 1096.42V1095.74ZM488.278 1090.51L488.765 1090.02C485.519 1086.77 483.906 1082.9 483.906 1078.36H483.217H482.529C482.529 1083.27 484.29 1087.49 487.791 1090.99L488.278 1090.51ZM483.217 1078.36H483.906C483.906 1073.71 485.522 1069.78 488.765 1066.53L488.278 1066.05L487.791 1065.56C484.286 1069.06 482.529 1073.35 482.529 1078.36H483.217ZM488.278 1066.05L488.765 1066.53C492.128 1063.17 496.06 1061.51 500.592 1061.51V1060.82V1060.13C495.677 1060.13 491.4 1061.95 487.791 1065.56L488.278 1066.05ZM500.592 1060.82V1061.51C505.24 1061.51 509.166 1063.17 512.411 1066.53L512.906 1066.05L513.4 1065.57C509.897 1061.95 505.614 1060.13 500.592 1060.13V1060.82ZM512.906 1066.05L512.419 1066.53C515.661 1069.78 517.277 1073.71 517.277 1078.36H517.966H518.655C518.655 1073.35 516.897 1069.06 513.392 1065.56L512.906 1066.05ZM517.966 1078.36H517.277C517.277 1082.9 515.665 1086.77 512.419 1090.02L512.906 1090.51L513.392 1090.99C516.894 1087.49 518.655 1083.27 518.655 1078.36H517.966ZM512.906 1090.51L512.411 1090.03C509.166 1093.38 505.24 1095.05 500.592 1095.05V1095.74V1096.42C505.614 1096.42 509.897 1094.6 513.4 1090.98L512.906 1090.51Z" fill="white"/>
<defs>
<filter id="filter0_d_250_2107" x="0.6" y="0.6" width="924.32" height="1157.52" filterUnits="userSpaceOnUse" color-interpolation-filters="sRGB">
<feFlood flood-opacity="0" result="BackgroundImageFix"/>
<feColorMatrix in="SourceAlpha" type="matrix" values="0 0 0 0 0 0 0 0 0 0 0 0 0 0 0 0 0 0 127 0" result="hardAlpha"/>
<feOffset/>
<feGaussianBlur stdDeviation="7.2"/>
<feComposite in2="hardAlpha" operator="out"/>
<feColorMatrix type="matrix" values="0 0 0 0 0 0 0 0 0 0 0 0 0 0 0 0 0 0 0.05 0"/>
<feBlend mode="normal" in2="BackgroundImageFix" result="effect1_dropShadow_250_2107"/>
<feBlend mode="normal" in="SourceGraphic" in2="effect1_dropShadow_250_2107" result="shape"/>
</filter>
<filter id="filter1_i_250_2107" x="90.3496" y="966.005" width="428.305" height="131.796" filterUnits="userSpaceOnUse" color-interpolation-filters="sRGB">
<feFlood flood-opacity="0" result="BackgroundImageFix"/>
<feBlend mode="normal" in="SourceGraphic" in2="BackgroundImageFix" result="shape"/>
<feColorMatrix in="SourceAlpha" type="matrix" values="0 0 0 0 0 0 0 0 0 0 0 0 0 0 0 0 0 0 127 0" result="hardAlpha"/>
<feOffset dy="1.377"/>
<feGaussianBlur stdDeviation="4.06215"/>
<feComposite in2="hardAlpha" operator="arithmetic" k2="-1" k3="1"/>
<feColorMatrix type="matrix" values="0 0 0 0 0 0 0 0 0 0 0 0 0 0 0 0 0 0 0.2 0"/>
<feBlend mode="normal" in2="shape" result="effect1_innerShadow_250_2107"/>
</filter>
</defs>
</svg>
