<svg width="925" height="1269" viewBox="0 0 925 1269" fill="none" xmlns="http://www.w3.org/2000/svg">
<g opacity="0.8" filter="url(#filter0_d_250_2107)">
<path d="M844.36 15H462.76H81.16C50.128 15 15 50.128 15 81.16V1187.56C15 1218.59 50.128 1253.72 81.16 1253.72H844.36C875.392 1253.72 910.52 1218.59 910.52 1187.56V579.36V81.16C910.52 50.128 875.392 15 844.36 15ZM864.52 1171.51C864.52 1187.21 850.696 1199.88 833.632 1199.88H603.16C586.096 1199.88 574.36 1187.14 574.36 1171.51V1115.17V1058.83C574.36 1043.14 559.024 1030.46 541.96 1030.46H91.888C74.824 1030.46 61 1017.72 61 1002.1V89.368C61 73.672 74.824 61 91.888 61H739.96C757.024 61 761.56 73.744 761.56 89.368V104.92C761.56 120.616 766.096 133.288 783.16 133.288H833.776C850.84 133.288 864.664 146.032 864.664 161.656V1171.51H864.52Z" fill="white"/>
</g>
<path d="M830.562 78.1875C830.562 76.2976 828.993 74.0053 825.054 72.0494C821.247 70.1593 815.833 68.9375 809.75 68.9375C803.667 68.9375 798.253 70.1593 794.446 72.0494C790.507 74.0053 788.937 76.2976 788.937 78.1875C788.937 79.854 790.206 81.9022 793.432 83.7954C796.468 85.5771 800.79 86.9193 805.763 87.4019L806.246 87.446L806.365 87.459C807.577 87.6243 808.459 88.7134 808.354 89.9462C808.246 91.2187 807.126 92.1623 805.854 92.054C800.161 91.5695 794.952 90.05 791.091 87.7844C787.322 85.5729 784.312 82.3023 784.312 78.1875C784.312 73.6024 787.946 70.1135 792.39 67.9069C796.966 65.6345 803.115 64.3125 809.75 64.3125C816.385 64.3125 822.534 65.6345 827.11 67.9069C831.554 70.1135 835.187 73.6024 835.187 78.1875C835.187 81.6238 833.131 84.4298 830.35 86.4916C827.556 88.5618 823.76 90.109 819.515 91.0793C818.27 91.3638 817.03 90.5854 816.746 89.3404C816.461 88.0954 817.24 86.8552 818.485 86.5706C822.334 85.6909 825.475 84.3477 827.596 82.7758C829.728 81.1954 830.562 79.6074 830.562 78.1875Z" fill="#3B3C44"/>
<path d="M784.312 89.75C784.312 86.8097 785.922 84.1415 788.108 82.2285C789.07 81.3875 790.531 81.485 791.372 82.4461C792.213 83.4073 792.115 84.8681 791.154 85.7091C789.64 87.0336 788.937 88.5279 788.937 89.75C788.937 91.6399 790.507 93.9322 794.446 95.8881C798.253 97.7782 803.667 99 809.75 99H810.444L810.563 99.0031C811.785 99.0651 812.756 100.075 812.756 101.313C812.756 102.55 811.785 103.56 810.563 103.622L810.444 103.625H809.75C803.115 103.625 796.966 102.303 792.39 100.031C787.946 97.8241 784.312 94.3351 784.312 89.75ZM830.562 89.75C830.562 88.5661 829.903 87.1268 828.485 85.8339L828.346 85.7091L828.258 85.6284C827.38 84.7772 827.314 83.3772 828.128 82.4461C828.943 81.515 830.34 81.3943 831.3 82.1523L831.392 82.2285L831.595 82.41C833.677 84.3085 835.187 86.9016 835.187 89.75C835.187 93.1904 833.127 95.9983 830.31 98.0617C827.485 100.132 823.628 101.677 819.27 102.645C818.024 102.922 816.788 102.136 816.511 100.889C816.234 99.6424 817.02 98.4071 818.267 98.13C822.234 97.2484 825.431 95.9027 827.577 94.3307C829.732 92.7519 830.562 91.1659 830.562 89.75Z" fill="#3B3C44"/>
<path d="M784.312 101.313C784.312 98.3722 785.922 95.704 788.108 93.791C789.07 92.95 790.531 93.0475 791.372 94.0086C792.213 94.9698 792.115 96.4306 791.154 97.2716C789.64 98.5961 788.937 100.09 788.937 101.313C788.937 103.202 790.507 105.495 794.446 107.451C798.253 109.341 803.667 110.563 809.75 110.563C815.833 110.563 821.247 109.341 825.054 107.451C828.993 105.495 830.562 103.202 830.562 101.313C830.562 100.129 829.903 98.6893 828.485 97.3964L828.346 97.2716L828.258 97.1909C827.38 96.3397 827.314 94.9397 828.128 94.0086C828.943 93.0775 830.34 92.9568 831.3 93.7148L831.392 93.791L831.595 93.9725C833.677 95.871 835.187 98.4641 835.187 101.313C835.187 105.898 831.554 109.387 827.11 111.593C822.534 113.865 816.385 115.188 809.75 115.188C803.115 115.188 796.966 113.865 792.39 111.593C787.946 109.387 784.312 105.898 784.312 101.313Z" fill="#3B3C44"/>
<path d="M819 82.8125C819 81.9529 818.45 80.856 816.774 79.855C815.12 78.8677 812.659 78.1875 809.75 78.1875C806.841 78.1875 804.38 78.8677 802.726 79.855C801.05 80.856 800.5 81.9529 800.5 82.8125C800.5 83.3847 800.783 84.1397 801.669 84.9624C802.542 85.7733 803.895 86.5338 805.664 87.0364C809.027 87.7032 812.062 90.5417 812.062 94.375V99C812.062 99.6133 812.306 100.202 812.74 100.635C813.173 101.069 813.762 101.312 814.375 101.312C814.988 101.312 815.577 101.069 816.01 100.635C816.444 100.202 816.687 99.6133 816.687 99V89.2876C816.687 88.1904 817.098 87.1193 817.447 86.3583C817.803 85.5816 818.237 84.8332 818.581 84.2592C818.928 83.5545 819 83.2336 819 82.8125ZM823.625 82.8125C823.625 84.2292 823.238 85.289 822.687 86.3905C822.661 86.4434 822.632 86.4953 822.602 86.546C822.259 87.1175 821.912 87.7172 821.652 88.2855C821.523 88.566 821.431 88.8049 821.374 88.9991C821.316 89.1987 821.313 89.2876 821.312 89.2876V99C821.312 100.84 820.582 102.605 819.281 103.906C817.98 105.207 816.215 105.938 814.375 105.938C812.535 105.938 810.77 105.207 809.469 103.906C808.168 102.605 807.437 100.84 807.437 99V94.375C807.437 93.1684 806.387 91.8672 804.711 91.5626C804.642 91.55 804.574 91.5345 804.506 91.5157C802.151 90.8616 800.063 89.7831 798.522 88.3515C796.98 86.9196 795.875 85.0153 795.875 82.8125C795.875 79.7408 797.869 77.3689 800.355 75.884C802.864 74.3854 806.184 73.5625 809.75 73.5625C813.316 73.5625 816.636 74.3854 819.145 75.884C821.631 77.3689 823.625 79.7408 823.625 82.8125Z" fill="#3B3C44"/>
<g filter="url(#filter1_i_250_2107)">
<path d="M120.098 1190.53C114.588 1190.53 109.246 1189.97 104.073 1188.84C99.0127 1187.72 94.6832 1186.2 91.0847 1184.29L93.2775 1164.05C97.101 1166.41 101.318 1168.32 105.929 1169.78C110.539 1171.24 114.869 1171.98 118.917 1171.98C122.516 1171.98 125.665 1171.3 128.363 1169.95C131.062 1168.6 132.412 1166.52 132.412 1163.71C132.412 1161.01 130.95 1159.04 128.026 1157.81C125.215 1156.57 120.829 1154.83 114.869 1152.58C112.62 1151.68 110.09 1150.66 107.278 1149.54C104.579 1148.42 101.993 1146.95 99.5188 1145.15C97.0448 1143.24 95.0206 1140.83 93.4462 1137.9C91.8718 1134.87 91.0847 1131.1 91.0847 1126.6C91.0847 1120.53 92.6028 1115.47 95.6391 1111.42C98.7878 1107.26 103.061 1104.11 108.459 1101.97C113.857 1099.84 119.929 1098.77 126.677 1098.77C131.287 1098.77 135.786 1099.22 140.171 1100.12C144.669 1101.02 148.943 1102.2 152.991 1103.66L149.786 1123.73C146.525 1121.82 142.814 1120.3 138.653 1119.18C134.605 1117.94 130.781 1117.32 127.183 1117.32C123.697 1117.32 120.773 1117.94 118.411 1119.18C116.162 1120.3 115.038 1122.1 115.038 1124.58C115.038 1126.6 115.825 1128.23 117.399 1129.47C118.974 1130.59 121.11 1131.6 123.809 1132.5C126.508 1133.29 129.488 1134.36 132.749 1135.71C136.01 1136.95 139.44 1138.52 143.039 1140.43C146.75 1142.34 149.899 1145.04 152.485 1148.53C155.072 1152.01 156.365 1156.79 156.365 1162.87C156.365 1169.28 154.734 1174.56 151.473 1178.72C148.324 1182.77 143.995 1185.75 138.484 1187.66C133.087 1189.57 126.958 1190.53 120.098 1190.53ZM200.18 1190.53C192.083 1190.53 185.786 1188.51 181.288 1184.46C176.902 1180.3 174.709 1174.45 174.709 1166.91V1121.54H161.214V1101.13H174.709V1082.57C182.806 1081.22 190.678 1080.21 198.325 1079.54V1101.13H220.253V1121.54H198.325V1162.53C198.325 1167.36 201.023 1169.78 206.421 1169.78C209.57 1169.78 213.169 1169.05 217.217 1167.59L222.446 1185.47C215.249 1188.84 207.827 1190.53 200.18 1190.53ZM254.578 1190.53C245.694 1190.53 238.553 1186.76 233.155 1179.23C227.869 1171.58 225.227 1161.12 225.227 1147.85C225.227 1131.88 229.275 1119.74 237.372 1111.42C245.469 1102.98 257.108 1098.77 272.289 1098.77C280.836 1098.77 290.844 1100.12 302.315 1102.82V1188H279.711L280.217 1174.17H279.543C273.695 1185.08 265.373 1190.53 254.578 1190.53ZM259.638 1169.78C263.349 1169.78 266.891 1167.81 270.265 1163.88C273.639 1159.94 276.675 1155.11 279.374 1149.37V1121.03C277.575 1120.47 275.719 1120.08 273.807 1119.85C271.896 1119.63 270.153 1119.51 268.578 1119.51C254.971 1119.51 248.168 1128.62 248.168 1146.84C248.168 1153.93 249.18 1159.55 251.204 1163.71C253.228 1167.76 256.039 1169.78 259.638 1169.78ZM358.912 1190.53C344.517 1190.53 333.328 1186.71 325.344 1179.06C317.472 1171.41 313.536 1160.62 313.536 1146.67C313.536 1137.11 315.392 1128.74 319.103 1121.54C322.814 1114.34 328.043 1108.78 334.79 1104.84C341.537 1100.79 349.353 1098.77 358.237 1098.77C362.51 1098.77 366.896 1099.27 371.394 1100.29C375.892 1101.18 379.378 1102.25 381.852 1103.49L377.298 1123.56C374.712 1122.33 371.844 1121.37 368.695 1120.7C365.546 1119.91 362.679 1119.51 360.092 1119.51C353.233 1119.51 347.666 1121.88 343.393 1126.6C339.12 1131.32 336.983 1137.56 336.983 1145.32C336.983 1153.2 339.176 1159.27 343.561 1163.54C347.947 1167.81 354.076 1169.95 361.948 1169.95C367.233 1169.95 372.912 1168.94 378.985 1166.91L382.527 1186.14C378.704 1187.61 374.824 1188.67 370.888 1189.35C367.065 1190.14 363.072 1190.53 358.912 1190.53ZM448.898 1190.53L417.523 1150.22V1188H393.739V1064.69H417.523V1132.84L444.681 1101.13H472.851L438.103 1140.09L474.707 1186.99L448.898 1190.53ZM500.592 1193.74C495.869 1193.74 491.764 1191.99 488.278 1188.51C484.904 1185.13 483.217 1181.08 483.217 1176.36C483.217 1171.53 484.904 1167.42 488.278 1164.05C491.764 1160.56 495.869 1158.82 500.592 1158.82C505.427 1158.82 509.532 1160.56 512.906 1164.05C516.279 1167.42 517.966 1171.53 517.966 1176.36C517.966 1181.08 516.279 1185.13 512.906 1188.51C509.532 1191.99 505.427 1193.74 500.592 1193.74Z" fill="#3B3C44"/>
</g>
<defs>
<filter id="filter0_d_250_2107" x="0.6" y="0.6" width="924.32" height="1267.52" filterUnits="userSpaceOnUse" color-interpolation-filters="sRGB">
<feFlood flood-opacity="0" result="BackgroundImageFix"/>
<feColorMatrix in="SourceAlpha" type="matrix" values="0 0 0 0 0 0 0 0 0 0 0 0 0 0 0 0 0 0 127 0" result="hardAlpha"/>
<feOffset/>
<feGaussianBlur stdDeviation="7.2"/>
<feComposite in2="hardAlpha" operator="out"/>
<feColorMatrix type="matrix" values="0 0 0 0 0 0 0 0 0 0 0 0 0 0 0 0 0 0 0.05 0"/>
<feBlend mode="normal" in2="BackgroundImageFix" result="effect1_dropShadow_250_2107"/>
<feBlend mode="normal" in="SourceGraphic" in2="effect1_dropShadow_250_2107" result="shape"/>
</filter>
<filter id="filter1_i_250_2107" x="91.084" y="1064.69" width="426.883" height="130.419" filterUnits="userSpaceOnUse" color-interpolation-filters="sRGB">
<feFlood flood-opacity="0" result="BackgroundImageFix"/>
<feBlend mode="normal" in="SourceGraphic" in2="BackgroundImageFix" result="shape"/>
<feColorMatrix in="SourceAlpha" type="matrix" values="0 0 0 0 0 0 0 0 0 0 0 0 0 0 0 0 0 0 127 0" result="hardAlpha"/>
<feOffset dy="1.377"/>
<feGaussianBlur stdDeviation="4.06215"/>
<feComposite in2="hardAlpha" operator="arithmetic" k2="-1" k3="1"/>
<feColorMatrix type="matrix" values="0 0 0 0 0 0 0 0 0 0 0 0 0 0 0 0 0 0 0.2 0"/>
<feBlend mode="normal" in2="shape" result="effect1_innerShadow_250_2107"/>
</filter>
</defs>
</svg>
