<svg width="1858" height="876" viewBox="0 0 1858 876" fill="none" xmlns="http://www.w3.org/2000/svg">
<path d="M1773.55 0H84.4545C37.788 0 0 34.9 0 78V798C0 841.1 37.788 876 84.4545 876H1773.55C1820.21 876 1858 841.1 1858 798V78C1858 34.9 1820.21 0 1773.55 0ZM1803.86 789.6C1803.86 811.4 1783.07 829 1757.41 829H790C764.339 829 755 811.3 755 789.6V711.35V633.1C755 611.3 740.661 593.7 715 593.7H100.588C74.9263 593.7 54.1375 576 54.1375 554.3V89.4C54.1375 67.6 74.9263 50 100.588 50H1616.55C1642.21 50 1649.03 67.7 1649.03 89.4V111C1649.03 132.8 1655.85 150.4 1681.51 150.4H1757.63C1783.29 150.4 1804.08 168.1 1804.08 189.8V789.6H1803.86Z" fill="white"/>
</svg>
