<svg width="67" height="67" viewBox="0 0 67 67" fill="none" xmlns="http://www.w3.org/2000/svg">
<path d="M0 33.39C0 14.94 15.12 0 33.57 0C51.93 0.09 66.87 15.12 66.87 33.57C66.87 52.02 51.75 66.96 33.3 66.96C14.94 66.87 0 51.84 0 33.39ZM23.67 26.55C23.67 31.14 23.67 35.91 23.67 40.41C30.33 40.41 36.63 40.41 43.29 40.41C43.29 35.82 43.29 31.14 43.29 26.55C36.72 26.55 30.33 26.55 23.67 26.55ZM19.17 41.04C19.17 35.91 19.17 30.78 19.17 25.83C15.03 24.75 10.89 23.67 6.66002 22.59C3.87002 29.88 3.87002 37.17 6.66002 44.28C10.98 43.2 15.03 42.12 19.17 41.04ZM47.79 41.04C51.93 42.12 56.07 43.2 60.3 44.28C63.09 37.08 63.18 29.79 60.3 22.59C55.98 23.67 51.84 24.75 47.79 25.83C47.79 30.96 47.79 36 47.79 41.04ZM24.39 45.09C24.57 46.08 24.66 46.89 24.84 47.7C25.74 52.02 27 56.16 29.61 59.76C32.22 63.27 34.83 63.36 37.35 59.76C40.5 55.44 41.67 50.4 42.57 45.09C36.45 44.46 30.51 44.46 24.39 45.09ZM42.57 21.87C41.67 16.56 40.5 11.61 37.44 7.28998C34.83 3.59998 32.13 3.59998 29.52 7.28998C26.46 11.61 25.29 16.56 24.39 21.87C30.51 22.5 36.45 22.41 42.57 21.87ZM24.66 6.03001C19.98 6.48001 11.43 13.14 8.72996 18.63C12.42 19.53 16.11 20.52 19.71 21.42C20.43 18.54 20.97 15.93 21.78 13.5C22.59 10.89 23.76 8.46001 24.66 6.03001ZM47.07 21.42C50.85 20.43 54.54 19.53 58.23 18.54C54.99 12.69 46.26 5.94001 42.03 6.03001C44.73 10.71 46.08 15.84 47.07 21.42ZM42.21 61.11C49.05 58.86 54.36 54.72 58.32 48.33C54.45 47.34 50.76 46.44 47.16 45.45C46.44 48.33 45.9 50.85 45.09 53.37C44.37 55.98 43.29 58.5 42.21 61.11ZM25.11 61.2C22.23 56.16 20.88 51.03 19.89 45.45C16.11 46.44 12.51 47.34 8.63998 48.33C12.69 54.72 17.91 58.86 25.11 61.2Z" fill="black"/>
</svg>
